<?xml version="1.0" encoding="utf-8"?>
<!-- Generator: Adobe Illustrator 22.1.0, SVG Export Plug-In . SVG Version: 6.00 Build 0)  -->
<svg version="1.1" id="Layer_1" xmlns="http://www.w3.org/2000/svg" xmlns:xlink="http://www.w3.org/1999/xlink" x="0px" y="0px"
	 width="70px" height="70px" viewBox="0 0 70 70" style="enable-background:new 0 0 70 70;" xml:space="preserve">
<style type="text/css">
	.st0{fill:#3A4651;}
</style>
<g>
	<title>Icons_</title>
	<path class="st0" d="M68.6,0H1.4C0.6,0,0,0.6,0,1.4v67.2C0,69.4,0.6,70,1.4,70c0,0,0,0,0,0h57.1c0.8,0,1.4-0.6,1.4-1.4
		s-0.6-1.4-1.4-1.4l0,0H2.8V2.8h64.4v65.8c0,0.8,0.6,1.4,1.4,1.4s1.4-0.6,1.4-1.4V1.4C70,0.6,69.4,0,68.6,0L68.6,0z"/>
	<path class="st0" d="M15.6,14.8c-3,0.1-5.4,2.5-5.4,5.5c0,3,2.4,5.4,5.4,5.4l0,0c3,0,5.4-2.4,5.5-5.4
		C21.1,17.3,18.6,14.8,15.6,14.8z M15.6,22.9c-1.4,0-2.6-1.2-2.6-2.6s1.2-2.6,2.6-2.6c1.4-0.1,2.5,1,2.6,2.4c0,0.1,0,0.1,0,0.2
		C18.2,21.7,17,22.9,15.6,22.9z"/>
	<path class="st0" d="M58.6,18.9H25.4c-0.8,0-1.4,0.6-1.4,1.4s0.6,1.4,1.4,1.4c0,0,0,0,0,0h33.2c0.8,0,1.4-0.6,1.4-1.4
		S59.4,18.9,58.6,18.9C58.6,18.9,58.6,18.9,58.6,18.9z"/>
	<path class="st0" d="M15.6,29.5c-0.8,0.1-1.4,0.7-1.4,1.5c0,0.8,0.6,1.4,1.4,1.4h0c1.4,0,2.6,1.2,2.6,2.6c0,1.4-1.2,2.6-2.6,2.6
		S13,36.4,13,35c0-0.8-0.6-1.4-1.4-1.4c-0.8,0-1.4,0.6-1.4,1.4c0,3,2.4,5.4,5.4,5.5c3,0,5.5-2.5,5.5-5.5S18.6,29.5,15.6,29.5z"/>
	<path class="st0" d="M58.6,33.6H25.4c-0.8,0-1.4,0.6-1.4,1.4s0.6,1.4,1.4,1.4c0,0,0,0,0,0h33.2c0.8,0,1.4-0.6,1.4-1.4
		S59.4,33.6,58.6,33.6C58.6,33.6,58.6,33.6,58.6,33.6z"/>
	<path class="st0" d="M15.6,44.3c-3,0-5.4,2.4-5.4,5.4l0,0c0,3,2.4,5.4,5.4,5.5c3,0,5.5-2.5,5.5-5.5C21,46.7,18.6,44.3,15.6,44.3z
		 M15.6,52.3c-1.4,0-2.6-1.2-2.6-2.6s1.2-2.6,2.6-2.6s2.6,1.2,2.6,2.6c0.1,1.4-1,2.5-2.4,2.6C15.7,52.3,15.7,52.3,15.6,52.3z"/>
	<path class="st0" d="M58.6,48.3H25.4c-0.8,0-1.4,0.6-1.4,1.4s0.6,1.4,1.4,1.4h33.2c0.8,0,1.4-0.6,1.4-1.4S59.4,48.3,58.6,48.3z"/>
</g>
</svg>
