<?xml version="1.0" encoding="utf-8"?>
<!-- Generator: Adobe Illustrator 16.0.0, SVG Export Plug-In . SVG Version: 6.00 Build 0)  -->
<!DOCTYPE svg PUBLIC "-//W3C//DTD SVG 1.1//EN" "http://www.w3.org/Graphics/SVG/1.1/DTD/svg11.dtd" [
	<!ENTITY ns_extend "http://ns.adobe.com/Extensibility/1.0/">
	<!ENTITY ns_ai "http://ns.adobe.com/AdobeIllustrator/10.0/">
	<!ENTITY ns_graphs "http://ns.adobe.com/Graphs/1.0/">
	<!ENTITY ns_vars "http://ns.adobe.com/Variables/1.0/">
	<!ENTITY ns_imrep "http://ns.adobe.com/ImageReplacement/1.0/">
	<!ENTITY ns_sfw "http://ns.adobe.com/SaveForWeb/1.0/">
	<!ENTITY ns_custom "http://ns.adobe.com/GenericCustomNamespace/1.0/">
	<!ENTITY ns_adobe_xpath "http://ns.adobe.com/XPath/1.0/">
]>
<svg version="1.1" id="Layer_1" xmlns:x="&ns_extend;" xmlns:i="&ns_ai;" xmlns:graph="&ns_graphs;"
	 xmlns="http://www.w3.org/2000/svg" xmlns:xlink="http://www.w3.org/1999/xlink" x="0px" y="0px" width="70px" height="70px"
	 viewBox="0 0.468 70 70" enable-background="new 0 0.468 70 70" xml:space="preserve">
<metadata>
	<sfw  xmlns="&ns_sfw;">
		<slices></slices>
		<sliceSourceBounds  width="70" height="69.522" y="504.121" x="924.5" bottomLeftOrigin="true"></sliceSourceBounds>
	</sfw>
</metadata>
<g>
	<path fill="#3A4651" d="M63.105,70.229H6.895C3.092,70.229,0,67.135,0,63.334V7.602c0-3.803,3.092-6.895,6.895-6.895h56.21
		C66.908,0.707,70,3.799,70,7.602v55.732C70,67.135,66.908,70.229,63.105,70.229z M6.895,3.005c-2.535,0-4.597,2.062-4.597,4.597
		v55.732c0,2.535,2.062,4.596,4.597,4.596h56.21c2.537,0,4.597-2.061,4.597-4.596V7.602c0-2.535-2.06-4.597-4.597-4.597H6.895z"/>
	<path fill="#3A4651" d="M31.15,47.985c-0.17,0-0.341-0.039-0.5-0.113c-0.396-0.193-0.649-0.596-0.649-1.035V14.394
		c0-3.687,2.999-6.688,6.686-6.688h19.968c3.669,0,6.653,3,6.653,6.688v20.816c0,3.688-2.984,6.684-6.653,6.684H39.236l-7.372,5.844
		C31.657,47.899,31.406,47.985,31.15,47.985z M36.688,10.004c-2.419,0-4.388,1.968-4.388,4.389v30.064l5.824-4.615
		c0.205-0.162,0.454-0.248,0.714-0.248h17.817c2.402,0,4.355-1.969,4.355-4.387V14.394c0-2.421-1.953-4.389-4.355-4.389H36.688z"/>
	<path fill="#3A4651" d="M19,50.526c-4.567,0-8.282-3.73-8.282-8.314c0-4.566,3.715-8.282,8.282-8.282
		c4.584,0,8.315,3.716,8.315,8.282C27.315,46.795,23.585,50.526,19,50.526z M19,36.227c-3.301,0-5.984,2.684-5.984,5.982
		c0,3.318,2.684,6.018,5.984,6.018c3.317,0,6.016-2.701,6.016-6.018C25.017,38.911,22.317,36.227,19,36.227z"/>
	<path fill="#3A4651" d="M27.763,63.229H10.238c-0.634,0-1.149-0.516-1.149-1.15v-3.941c0-5.465,4.446-9.91,9.912-9.91
		s9.912,4.445,9.912,9.91v3.941C28.912,62.713,28.397,63.229,27.763,63.229z M11.388,60.93h15.226v-2.793
		c0-4.197-3.415-7.611-7.613-7.611s-7.613,3.414-7.613,7.611V60.93z"/>
	<path fill="#3A4651" d="M56.526,19.483h-19.74c-0.637,0-1.15-0.515-1.15-1.149s0.514-1.148,1.15-1.148h19.74
		c0.635,0,1.149,0.514,1.149,1.148S57.16,19.483,56.526,19.483z"/>
	<path fill="#3A4651" d="M56.526,26.031h-19.74c-0.637,0-1.15-0.515-1.15-1.149s0.514-1.148,1.15-1.148h19.74
		c0.635,0,1.149,0.514,1.149,1.148S57.16,26.031,56.526,26.031z"/>
	<path fill="#3A4651" d="M48.023,32.545H36.786c-0.637,0-1.15-0.515-1.15-1.148c0-0.634,0.514-1.149,1.15-1.149h11.237
		c0.636,0,1.149,0.515,1.149,1.149C49.173,32.03,48.659,32.545,48.023,32.545z"/>
</g>
</svg>
