<?xml version="1.0" encoding="utf-8"?>
<!-- Generator: Adobe Illustrator 22.1.0, SVG Export Plug-In . SVG Version: 6.00 Build 0)  -->
<svg version="1.1" id="Layer_1" xmlns="http://www.w3.org/2000/svg" xmlns:xlink="http://www.w3.org/1999/xlink" x="0px" y="0px"
	 width="70px" height="46.6px" viewBox="0 0 70 46.6" style="enable-background:new 0 0 70 46.6;" xml:space="preserve">
<style type="text/css">
	.st0{fill:#3A4651;}
</style>
<g>
	<title>Icons_</title>
	<path class="st0" d="M44,34.1h0.7l24.6-11.3c0.5-0.3,0.8-0.8,0.7-1.4c-0.1-0.5-0.6-0.9-1.2-0.9c-0.2,0-20.1-0.4-29-18.1
		c-0.9-1.7-2.8-2.6-4.7-2.3l-20.5,5c-1.6,0.3-2.7,1.9-2.4,3.5c0.1,0.3,0.2,0.6,0.3,0.9C16.1,16.2,26.3,31.8,44,34.1z M14.6,7.8
		c0.1-0.2,0.3-0.3,0.5-0.4l20.6-4.9H36c0.7,0,1.3,0.4,1.7,1c6.8,13.8,19.9,17.8,26.7,19L44,31.7c-16.4-2.3-26-17-29.4-23.3
		C14.6,8.2,14.5,8,14.6,7.8z"/>
	<rect x="0" y="44.1" class="st0" width="43.5" height="2.5"/>
	<polygon class="st0" points="68.8,35.5 68.8,32.9 44.2,44.1 44.2,46.6 	"/>
	<path class="st0" d="M68.8,32.1h-6.4L44,40.8h-0.8c-9.1,0.1-18.2-1.3-26.8-4.2L0,43.2h43.6L68.8,32.1z"/>
	<path class="st0" d="M4.7,28.5c4.8,3,18.2,10.1,39,9.9l24.4-11.6h-3.5l-20.8,9.5h-0.3c-11.9-1.6-20.4-9.2-25.7-15.9L4.9,26.2
		c-0.7,0.1-1.1,0.8-1,1.4C4,28,4.3,28.3,4.7,28.5z"/>
</g>
</svg>
