<?xml version="1.0" encoding="utf-8"?>
<!-- Generator: Adobe Illustrator 22.1.0, SVG Export Plug-In . SVG Version: 6.00 Build 0)  -->
<svg version="1.1" id="Layer_1" xmlns="http://www.w3.org/2000/svg" xmlns:xlink="http://www.w3.org/1999/xlink" x="0px" y="0px"
	 width="70px" height="67.7px" viewBox="0 0 70 67.7" style="enable-background:new 0 0 70 67.7;" xml:space="preserve">
<style type="text/css">
	.st0{fill:#3A4651;}
</style>
<title>Icons_</title>
<g>
	<path class="st0" d="M5.6,60.9H35v-2.3H5.6c-1.8,0-3.3-1.5-3.3-3.3c0,0,0,0,0,0V5.7c0-1.8,1.5-3.3,3.3-3.4h49.6
		c1.9,0,3.4,1.5,3.4,3.4c0,0,0,0,0,0v25.9H61V5.7c-0.1-3.1-2.6-5.6-5.7-5.7H5.6C2.5,0.1,0,2.6,0,5.7v49.6C0,58.4,2.6,60.9,5.6,60.9z
		"/>
	<path class="st0" d="M4.5,4.5h2.3v2.3H4.5V4.5z"/>
	<path class="st0" d="M9,4.5h2.3v2.3H9V4.5z"/>
	<path class="st0" d="M13.5,4.5h2.3v2.3h-2.3V4.5z"/>
	<path class="st0" d="M4.5,9.1h51.9v2.2H4.5V9.1z"/>
	<path class="st0" d="M16.1,13.9l-2.8,2.9c-2.6-1.7-6-1-7.7,1.6c-1.7,2.6-1,6,1.6,7.7c2.6,1.7,6,1,7.7-1.6c1.2-1.9,1.2-4.3,0-6.1
		l2.8-2.9L16.1,13.9z M10.2,24.9c-1.9,0-3.4-1.5-3.4-3.4c0-1.9,1.5-3.4,3.4-3.4c0,0,0,0,0,0c0.5,0,1,0.1,1.4,0.3l-2.2,2.3l1.6,1.6
		l2.2-2.3c0.2,0.5,0.3,1,0.3,1.5C13.5,23.3,12.1,24.8,10.2,24.9z"/>
	<path class="st0" d="M19.2,18.1h19.2v2.3H19.2V18.1z"/>
	<path class="st0" d="M19.2,22.6h7.9v2.3h-7.9V22.6z"/>
	<path class="st0" d="M29.4,22.6h15.8v2.3H29.4V22.6z"/>
	<path class="st0" d="M40.6,18.1h11.3v2.3H40.6V18.1z"/>
	<path class="st0" d="M16.1,27.5l-2.8,2.8c-2.6-1.7-6-1-7.7,1.6s-1,6,1.6,7.7s6,1,7.7-1.6c1.2-1.9,1.2-4.3,0-6.1l2.8-2.8L16.1,27.5z
		 M10.2,38.3c-1.9,0-3.4-1.5-3.4-3.4l0,0c0-1.9,1.5-3.4,3.4-3.4c0,0,0,0,0,0c0.5,0,1,0.2,1.4,0.4l-2.2,2.2l1.6,1.6l2.2-2.2
		c0.2,0.4,0.3,0.9,0.3,1.4C13.5,36.8,12.1,38.3,10.2,38.3z"/>
	<path class="st0" d="M19.2,31.6h19.2v2.3H19.2V31.6z"/>
	<path class="st0" d="M19.2,36.1h7.9v2.2h-7.9V36.1z"/>
	<path class="st0" d="M29.4,36.1h9v2.2h-9V36.1z"/>
	<path class="st0" d="M40.6,31.6h4.6v2.3h-4.6V31.6z"/>
	<path class="st0" d="M16.1,40.9l-2.8,2.9c-2.6-1.7-6-1-7.7,1.6s-1,6,1.6,7.7c2.6,1.7,6,1,7.7-1.6c1.2-1.9,1.2-4.3,0-6.1l2.8-2.9
		L16.1,40.9z M10.2,51.9c-1.9,0-3.4-1.5-3.4-3.4l0,0c0-1.9,1.5-3.4,3.4-3.4c0,0,0,0,0,0c0.5,0,1,0.1,1.4,0.3l-2.2,2.3l1.6,1.6
		l2.2-2.3c0.2,0.5,0.3,1,0.3,1.5C13.5,50.4,12.1,51.9,10.2,51.9z"/>
	<path class="st0" d="M19.2,45.1h14.7v2.2H19.2V45.1z"/>
	<path class="st0" d="M19.2,49.6h7.9v2.3h-7.9V49.6z"/>
	<path class="st0" d="M29.4,49.6h4.5v2.3h-4.5V49.6z"/>
	<path class="st0" d="M53.1,67.7c9.4,0,17-7.6,17-17s-7.6-17-17-17s-17,7.6-17,17S43.7,67.7,53.1,67.7z M53.1,36.1
		c8.1,0.7,14.1,7.8,13.4,15.8c-0.6,7.2-6.3,12.8-13.4,13.4C45,66.1,37.9,60.1,37.2,52s5.3-15.2,13.4-15.8
		C51.5,36.1,52.3,36.1,53.1,36.1z"/>
	<path class="st0" d="M46.2,51.4l-2,1l2.2,4.5c0.2,0.3,0.5,0.5,0.8,0.6h0.2c0.3,0,0.6-0.1,0.8-0.3l13.6-13.6L60.2,42L47.7,54.5
		L46.2,51.4z"/>
</g>
</svg>
