<?xml version="1.0" encoding="utf-8"?>
<!-- Generator: Adobe Illustrator 16.0.0, SVG Export Plug-In . SVG Version: 6.00 Build 0)  -->
<!DOCTYPE svg PUBLIC "-//W3C//DTD SVG 1.1//EN" "http://www.w3.org/Graphics/SVG/1.1/DTD/svg11.dtd" [
	<!ENTITY ns_extend "http://ns.adobe.com/Extensibility/1.0/">
	<!ENTITY ns_ai "http://ns.adobe.com/AdobeIllustrator/10.0/">
	<!ENTITY ns_graphs "http://ns.adobe.com/Graphs/1.0/">
	<!ENTITY ns_vars "http://ns.adobe.com/Variables/1.0/">
	<!ENTITY ns_imrep "http://ns.adobe.com/ImageReplacement/1.0/">
	<!ENTITY ns_sfw "http://ns.adobe.com/SaveForWeb/1.0/">
	<!ENTITY ns_custom "http://ns.adobe.com/GenericCustomNamespace/1.0/">
	<!ENTITY ns_adobe_xpath "http://ns.adobe.com/XPath/1.0/">
]>
<svg version="1.1" id="Layer_1" xmlns:x="&ns_extend;" xmlns:i="&ns_ai;" xmlns:graph="&ns_graphs;"
	 xmlns="http://www.w3.org/2000/svg" xmlns:xlink="http://www.w3.org/1999/xlink" x="0px" y="0px" width="50px" height="50px"
	 viewBox="0 0 50 50" enable-background="new 0 0 50 50" xml:space="preserve">
<metadata>
	<sfw  xmlns="&ns_sfw;">
		<slices></slices>
		<sliceSourceBounds  width="190" height="396" bottomLeftOrigin="true" y="-396" x="0"></sliceSourceBounds>
		<optimizationSettings>
			<targetSettings  targetSettingsID="0" fileFormat="PNG24Format">
				<PNG24Format  transparency="true" noMatteColor="false" matteColor="#FFFFFF" interlaced="false" filtered="false">
					</PNG24Format>
			</targetSettings>
		</optimizationSettings>
	</sfw>
</metadata>
<path fill-rule="evenodd" clip-rule="evenodd" fill="#FFFFFF" d="M25,50c13.77,0,25-11.229,25-25S38.77,0,25,0S0,11.229,0,25
	S11.23,50,25,50"/>
<path fill-rule="evenodd" clip-rule="evenodd" fill="#855439" d="M11.561,28.751l-1.789,0.971l15.182,8.204l15.184-8.204
	l-1.791-0.971l-13.393,7.235L11.561,28.751z M25.047,16.726L9.864,24.924l15.183,8.201l15.182-8.201l-0.833-0.448l-3.621,0.017
	l0.813,0.441c-3.846,2.079-7.69,4.161-11.541,6.232c-3.852-2.071-7.696-4.155-11.547-6.232c3.85-2.076,7.707-4.144,11.547-6.234
	l0.867,0.468l-0.003-1.976L25.047,16.726z M32.528,12.05v4.148h-4.152v1.719h4.152v4.155h1.719v-4.155h4.204v-1.719h-4.204V12.05
	H32.528z"/>
</svg>
