<?xml version="1.0" encoding="utf-8"?>
<!-- Generator: Adobe Illustrator 16.0.0, SVG Export Plug-In . SVG Version: 6.00 Build 0)  -->
<!DOCTYPE svg PUBLIC "-//W3C//DTD SVG 1.1//EN" "http://www.w3.org/Graphics/SVG/1.1/DTD/svg11.dtd" [
	<!ENTITY ns_extend "http://ns.adobe.com/Extensibility/1.0/">
	<!ENTITY ns_ai "http://ns.adobe.com/AdobeIllustrator/10.0/">
	<!ENTITY ns_graphs "http://ns.adobe.com/Graphs/1.0/">
	<!ENTITY ns_vars "http://ns.adobe.com/Variables/1.0/">
	<!ENTITY ns_imrep "http://ns.adobe.com/ImageReplacement/1.0/">
	<!ENTITY ns_sfw "http://ns.adobe.com/SaveForWeb/1.0/">
	<!ENTITY ns_custom "http://ns.adobe.com/GenericCustomNamespace/1.0/">
	<!ENTITY ns_adobe_xpath "http://ns.adobe.com/XPath/1.0/">
]>
<svg version="1.1" id="Layer_1" xmlns:x="&ns_extend;" xmlns:i="&ns_ai;" xmlns:graph="&ns_graphs;"
	 xmlns="http://www.w3.org/2000/svg" xmlns:xlink="http://www.w3.org/1999/xlink" x="0px" y="0px" width="50px" height="50px"
	 viewBox="0 0 50 50" enable-background="new 0 0 50 50" xml:space="preserve">
<metadata>
	<sfw  xmlns="&ns_sfw;">
		<slices></slices>
		<sliceSourceBounds  width="190" height="396" bottomLeftOrigin="true" y="-396" x="0"></sliceSourceBounds>
		<optimizationSettings>
			<targetSettings  targetSettingsID="0" fileFormat="PNG24Format">
				<PNG24Format  transparency="true" noMatteColor="false" matteColor="#FFFFFF" interlaced="false" filtered="false">
					</PNG24Format>
			</targetSettings>
		</optimizationSettings>
	</sfw>
</metadata>
<path fill-rule="evenodd" clip-rule="evenodd" fill="#FFFFFF" d="M25,50c13.77,0,25-11.229,25-25S38.77,0,25,0
	C11.23,0,0,11.229,0,25S11.23,50,25,50"/>
<path fill-rule="evenodd" clip-rule="evenodd" fill="#855439" d="M34.439,28.9c0-0.23-0.076-0.437-0.199-0.583
	c-0.114-0.14-0.27-0.226-0.439-0.226h-2.447c-0.17,0-0.326,0.086-0.44,0.226c-0.122,0.146-0.198,0.353-0.198,0.583v7.287h3.725V28.9
	z M27.154,19.285c0-0.23-0.076-0.438-0.199-0.586c-0.114-0.138-0.27-0.224-0.439-0.224h-2.447c-0.17,0-0.326,0.086-0.44,0.224
	c-0.123,0.147-0.199,0.355-0.199,0.586v16.902h3.725V19.285z M19.869,23.073c0-0.23-0.077-0.439-0.197-0.586
	c-0.115-0.138-0.271-0.224-0.441-0.224h-2.448c-0.169,0-0.326,0.086-0.44,0.224c-0.122,0.149-0.197,0.355-0.197,0.586v13.114h3.724
	V23.073z M36.803,37.418H13.197c-0.169,0-0.323-0.071-0.434-0.182c-0.112-0.11-0.18-0.265-0.18-0.434V13.197
	c0-0.169,0.068-0.323,0.18-0.434c0.11-0.11,0.265-0.182,0.434-0.182c0.17,0,0.325,0.068,0.436,0.182
	c0.111,0.11,0.18,0.265,0.18,0.434v22.99h1.101V22.377c0-0.37,0.152-0.706,0.394-0.949c0.244-0.242,0.58-0.395,0.95-0.395h3.497
	c0.371,0,0.706,0.152,0.95,0.395c0.243,0.243,0.394,0.579,0.394,0.949v13.811h1.101V18.589c0-0.37,0.151-0.706,0.394-0.949
	c0.244-0.245,0.58-0.395,0.95-0.395h3.498c0.37,0,0.707,0.149,0.95,0.393c0.242,0.245,0.394,0.581,0.394,0.951v17.599h1.101v-7.983
	c0-0.37,0.15-0.706,0.394-0.948c0.244-0.243,0.579-0.395,0.95-0.395h3.497c0.37,0,0.707,0.151,0.95,0.395
	c0.242,0.242,0.394,0.578,0.394,0.948v7.983h1.134c0.169,0,0.323,0.068,0.435,0.179c0.11,0.112,0.181,0.268,0.181,0.437
	s-0.07,0.323-0.181,0.434C37.126,37.35,36.972,37.418,36.803,37.418z"/>
</svg>
