<?xml version="1.0" encoding="utf-8"?>
<!-- Generator: Adobe Illustrator 16.0.0, SVG Export Plug-In . SVG Version: 6.00 Build 0)  -->
<!DOCTYPE svg PUBLIC "-//W3C//DTD SVG 1.1//EN" "http://www.w3.org/Graphics/SVG/1.1/DTD/svg11.dtd">
<svg version="1.1" id="Layer_1" xmlns="http://www.w3.org/2000/svg" xmlns:xlink="http://www.w3.org/1999/xlink" x="0px" y="0px"
	 width="1168.506px" height="406.4px" viewBox="0 0 1168.506 406.4" enable-background="new 0 0 1168.506 406.4"
	 xml:space="preserve">
<g>
	<path fill="#C7BAA7" d="M45.769,393.965c-11.219-3.798-19.963-8.037-26.147-12.81c-6.272-4.768-10.866-9.36-13.781-13.779
		c-2.825-4.327-4.68-8.39-5.3-12.1c-0.618-3.801-0.706-6.449-0.265-8.128c0.884-3.356,2.385-5.654,4.682-7.155
		c2.208-1.5,4.417-2.209,6.537-2.209c2.473,0,5.388,0.618,8.745,1.856c5.388,2.118,10.246,3.975,14.664,5.654
		c4.329,1.589,8.745,3.092,13.338,4.328c3.356,0.882,6.272,1.677,8.745,2.474c2.563,0.883,5.035,1.677,7.509,2.56
		c0-3.798,0-7.508,0-11.218c0-3.798,0.265-7.243,0.618-10.599v-3.798c1.678-26.588,5.654-51.412,11.838-74.556
		c6.271-23.056,13.427-44.167,21.554-63.247c8.127-19.081,16.872-36.306,26.5-51.499c9.627-15.195,18.727-28.445,27.471-39.752
		c-8.745-0.882-17.578-2.384-26.5-4.68c-9.009-2.209-17.225-5.566-24.646-9.982c-7.507-4.241-13.956-9.805-19.344-16.43
		c-5.39-6.625-9.1-14.929-11.219-24.912c-0.884-4.063-1.237-8.037-1.237-11.836v-0.618c0-7.862,2.12-14.223,6.537-18.993
		c4.329-4.769,9.364-8.657,15.282-11.572c3.711-1.59,6.448-1.236,8.039,1.237c0.884,1.325,1.502,2.916,1.943,5.035
		c0.796,10.866,4.859,18.374,12.103,22.791c7.243,4.329,15.105,7.155,23.409,8.392c6.625,0.884,13.162,1.325,19.699,1.59
		c6.449,0.176,12.985,0.708,19.61,1.501c27.471,1.855,54.856,2.651,82.329,2.651c27.471,0,54.855-0.354,82.327-1.237
		c3.358,0,5.566,1.148,6.537,3.445c1.061,2.296,1.59,4.858,1.59,7.774c0,2.914-0.441,6.006-1.236,9.274
		c-0.884,3.357-1.678,5.831-2.563,7.509c-2.827,5.741-7.419,9.717-13.691,11.836c-13.693,2.474-27.384,4.859-40.811,7.066
		c-13.515,2.386-27.207,4.594-40.899,6.625c-11.219,1.237-22.524,2.209-34.008,3.092c-11.396,0.884-23.144,1.502-35.247,1.854
		h-8.656c2.474,1.237,7.773,3.004,15.9,5.302c8.039,2.296,20.229,2.825,36.482,1.588c-10.866,13.693-22.526,29.681-35.247,47.967
		c-12.719,18.374-24.646,38.514-35.863,60.51c-11.219,22.082-20.936,45.667-29.063,70.843
		c-8.039,25.177-13.338,51.236-15.901,78.266c8.394,2.118,16.607,3.709,25,4.945c8.304,1.238,16.607,2.297,24.91,3.18h3.798
		c2.031,0,3.974,0.354,5.564,1.238c1.237,0.795,1.945,2.119,2.209,4.063c0.176,1.853-0.531,4.415-2.209,7.772
		c-0.882,1.592-1.767,3.004-2.826,4.063c-0.972,0.974-2.121,2.121-3.445,3.447c-0.796,0.795-2.121,1.942-3.976,3.357
		c-1.943,1.5-4.947,3.089-9.098,4.68c-3.711,1.324-8.304,2.299-13.693,3.182c-5.388,0.793-11.837,0.793-19.344,0
		c-1.679,0-3.092-0.089-4.329-0.354c-1.325-0.177-2.739-0.266-4.417-0.266c-12.808-0.885-24.291-2.297-34.273-4.418
		C62.021,398.649,53.277,396.439,45.769,393.965L45.769,393.965z M1160.378,258.901c5.39,0.886,8.128,3.18,8.128,7.158
		c0,3.975-0.709,7.155-1.944,9.717c-2.474,4.945-5.478,10.953-9.011,18.019c-3.533,7.155-7.596,14.133-12.188,21.199
		c-1.238,1.68-2.739,3.801-4.33,6.272c-4.151,5.831-9.894,12.28-17.137,19.346c-7.243,7.066-16.519,13.515-27.824,19.346
		c-4.065,2.121-8.128,3.798-12.103,5.302c-3.975,1.5-7.772,2.824-11.574,4.063c-8.301,2.029-15.985,3.444-23.055,4.15
		c-7.066,0.706-13.339,1.147-18.725,1.147c-6.185,0-12.104-0.177-17.493-0.53c-0.794,0-1.589-0.088-2.471-0.176
		c-0.886-0.176-1.592-0.265-2.475-0.265c-16.254-2.118-28.975-5.831-38.338-11.217c-9.361-5.39-16.166-11.838-20.316-19.346
		c-3.092-5.654-5.122-11.574-5.831-17.754c-3.445,3.533-6.979,6.978-10.688,10.423c-10.952,10.247-22.79,18.637-35.511,25.262
		c-12.718,6.625-25.085,9.099-37.101,7.51c-4.68-0.885-9.011-2.297-13.161-4.418c-3.356-2.03-6.537-4.592-9.629-7.419
		c-3.092-2.916-5.122-7.155-5.919-12.544c-1.236-8.302-0.266-17.136,3.092-26.5c3.356-9.364,7.599-18.725,12.809-28.354
		c5.213-9.541,10.867-18.993,17.137-28.356c6.271-9.364,11.484-18.199,15.548-26.5c4.684-0.441,8.657-1.592,12.19-3.445
		c3.533-1.856,6.537-3.798,9.1-5.919c2.827-2.121,5.563-4.592,8.037-7.507c-7.066,4.151-12.809,6.89-17.4,8.125
		c-2.916,1.238-5.654,1.856-8.129,1.856c-1.677,0.353-3.975,0.706-6.89,0.971c-2.827,0.176-5.919,0.265-9.009,0.265
		c-3.18,0-6.007-0.088-8.746-0.265c-2.738-0.265-4.684-0.353-5.919-0.353c-12.897,22.084-24.291,40.457-34.272,55.21
		c-9.981,14.75-18.729,26.236-26.235,34.626c-3.356,3.709-7.511,6.272-12.456,7.775c-5.037,1.5-9.629,0.088-13.779-4.066
		c-0.089-0.088-0.266-0.265-0.354-0.441l-0.265,0.441c-1.592,4.595-4.331,9.982-8.04,16.254c-3.799,6.184-9.188,12.191-16.254,18.11
		c-2.118,2.03-4.593,3.974-7.508,5.566c-4.948,3.356-9.717,5.827-14.31,7.508c-4.595,1.589-8.481,2.915-11.838,3.71
		c-5.831,1.676-12.103,2.738-18.728,3.18c-6.625,0.354-14.133,0.176-22.436-0.706h-0.62c-13.339-1.591-24.115-4.595-32.417-8.657
		c-8.393-4.152-14.753-9.012-19.346-14.398c-5.389-5.831-9.099-12.103-10.955-18.728c-0.618-2.298-1.147-4.681-1.5-7.066
		c-3.092,3.092-6.184,6.272-9.452,9.275c-10.776,10.247-22.348,18.637-34.539,25.262c-12.278,6.625-24.469,9.099-36.482,7.51
		c-4.594-1.238-8.745-2.738-12.542-4.418c-3.358-1.589-6.537-3.975-9.629-6.802c-3.092-2.916-5.035-6.89-5.919-11.835
		c4.594-4.154,8.304-8.658,11.219-13.427c2.916-4.772,5.388-9.276,7.508-13.43c2.033-4.592,3.711-9.096,4.947-13.691
		c-2.12,3.356-4.328,6.89-6.89,10.867c-2.473,3.975-5.035,7.596-7.772,10.953c-2.739,3.356-5.036,6.184-7.156,8.746
		c-2.12,2.471-3.357,4.063-3.71,4.945c-4.152,4.592-9.364,9.629-15.634,15.018c-6.184,5.298-13.074,9.982-20.583,13.957
		s-15.635,6.801-24.646,8.479c-8.921,1.592-18.108,1.238-27.737-1.236c-13.691-3.797-22.171-12.19-25.264-25.264
		c-0.972-4.063-1.59-8.302-1.854-12.629c-8.48,9.185-17.756,16.783-27.737,22.879c-10.866,6.625-22.26,9.008-34.363,6.89
		c-4.947-1.238-9.362-2.915-13.074-5.036c-3.356-2.122-6.272-4.769-9.009-8.038c-2.739-3.356-4.505-7.775-5.3-13.162
		c-0.884-7.066-0.62-14.4,0.618-22.084c1.237-7.772,3.356-15.636,6.184-23.762c2.914-8.04,6.272-16.077,9.982-24.029
		c3.798-7.861,7.508-15.545,11.219-23.056c0-0.353,0.265-0.618,0.618-0.618c0,0,0.441-0.882,1.326-2.471
		c3.356-5.831,4.947-10.514,4.947-14.047s-0.353-6.272-1.237-8.39c-1.237-2.121-3.092-3.356-5.653-3.798
		c-9.541-1.592-18.993,1.235-28.356,8.743c-9.363,7.511-18.109,16.607-26.146,27.474c-8.127,10.864-15.283,21.729-21.555,32.772
		c-6.271,10.953-10.864,19.254-13.691,24.556c-7.862,17.931-13.515,34.361-16.872,49.291c-0.353,0.883-1.237,2.209-2.474,4.063
		c-1.236,1.857-3.533,3.092-6.89,3.445c-7.507,0-13.073-0.971-16.872-2.827c-3.709-1.854-6.449-3.622-8.039-5.298
		c-0.882-0.886-1.237-1.592-1.237-2.474c-2.119-5.831-2.914-12.897-2.561-21.199c0.441-8.393,2.296-18.463,5.653-30.566
		c4.152-16.607,9.452-32.331,15.901-47.082c6.448-14.75,12.544-27.56,18.373-38.339c7.155-12.897,14.399-24.732,21.819-35.598
		c0.884-1.237,2.562-3.003,5.299-5.299c2.739-2.208,6.537-3.004,11.574-2.208c5.388,0.882,11.482,2.649,18.107,5.3
		c6.625,2.739,12.103,6.625,16.166,11.572c-7.42,5.035-13.427,10.513-18.021,16.517c-4.681,6.007-8.392,11.573-11.306,16.519
		c-3.269,5.831-5.831,11.662-7.421,17.493c2.474-5.831,5.653-11.221,9.629-16.254c3.974-4.948,8.039-9.364,12.189-13.074
		c4.152-3.71,7.862-6.89,11.219-9.629s6.007-4.68,8.127-5.919c8.745-5.917,18.285-10.335,28.708-13.427
		c10.336-3.18,21.377-3.798,33.038-2.208c8.303,1.679,14.752,5.035,19.346,9.982c3.709,4.594,5.919,10.954,6.537,18.991
		c0.618,8.128-2.561,19.434-9.717,34.008c-1.59,3.36-3.357,6.805-4.947,10.338c-1.678,3.445-3.357,6.89-5.035,10.247
		c-4.594,10.423-8.303,19.875-11.219,28.354c-2.826,8.569-2.737,14.047,0.619,16.606c3.357,2.475,7.243,2.209,11.837-0.618
		c4.682-2.916,9.364-6.978,14.399-12.191c4.947-5.21,9.717-11.041,14.309-17.489c1.678-2.298,3.18-4.504,4.594-6.537
		c3.092-6.802,6.713-13.691,10.689-20.582c9.805-16.606,20.669-30.298,32.771-41.166c12.103-10.864,23.675-18.813,34.894-24.026
		c11.217-5.211,21.554-8.392,30.916-9.627c9.364-1.237,17.491-0.972,24.646,0.882c7.068,1.855,12.191,4.064,15.548,6.537
		c2.12,1.325,3.798,2.916,5.035,5.035c7.066-12.454,14.221-24.646,21.465-36.482c7.243-11.836,14.309-22.967,20.934-33.39
		c6.625-10.336,12.809-19.522,18.375-27.473c5.651-7.862,10.511-14.311,14.662-19.258c1.68-1.678,3.533-3.356,5.654-5.035
		c4.063-2.473,9.982-4.151,17.401-4.947c5.919-0.441,12.544-0.618,19.964-0.353c7.51,0.265,14.4,1.325,20.581,3.445
		c1.68,0.884,3.181,1.855,4.419,3.092c0.794,1.237,1.235,2.739,1.235,4.417c0,1.59-1.06,4.063-3.092,7.419
		c-5.919,7.509-14.045,18.728-24.644,33.745c-10.6,14.928-22.262,31.888-34.982,50.793c-12.721,18.991-25.53,38.956-38.691,59.891
		c-13.072,20.934-24.556,41.427-34.538,61.394c-1.678,3.356-3.269,7.419-4.682,12.188c-1.502,4.771-0.618,8.04,2.739,9.717v0.618
		h0.618c3.8,1.239,8.657,0.353,14.664-2.559c6.007-2.827,12.456-6.802,19.081-11.838c6.625-4.948,12.809-10.334,18.725-16.166
		c2.475-2.563,4.684-4.857,6.628-7.154c3.886-8.57,7.066-15.107,9.538-19.699c0.885-1.68,1.68-2.915,2.474-3.709
		c0.441-0.441,0.618-0.882,0.618-1.239c9.188-14.132,18.993-26.232,29.328-36.217c17.492-15.811,33.922-25.793,49.291-29.944
		c15.371-4.152,28.27-5.211,38.691-3.092c0.883,0,3.181,0.353,7.155,1.237c3.974,0.882,8.217,2.914,12.809,6.271
		c5.39,3.268,10.07,8.393,14.045,15.193c3.974,6.89,4.419,16.342,1.503,28.445c-0.797,2.474-2.738,4.681-5.566,6.537
		c-2.915,1.856-6.271,3.092-9.981,3.71c-3.798,0.618-7.772,0.529-11.838-0.265c-4.151-0.883-7.508-2.739-9.981-5.654
		c2.121-5.387,3.356-10.512,3.709-15.28c0.356-4.772-1.588-7.422-6.269-7.775c-1.592,0-4.331,0.618-8.04,1.856
		c-4.593,2.121-8.566,4.592-11.836,7.507c-3.356,2.827-3.977,5.831-1.944,8.747c0.441,1.235,1.944,3.356,4.681,6.184
		c2.739,2.916,7.158,5.387,13.427,7.508c0.444,0,1.062,0.353,1.856,1.235c0-0.882,0.265-1.235,0.617-1.235
		c0.883,0.353,1.945,0.618,3.181,0.618h0.618c2.826,0,6.89,0.353,12.103,0.971c5.302,0.621,10.952,0.886,17.225,0.886
		c6.184,0,12.632-0.353,19.258-1.239c6.625-0.882,13.161-2.739,19.346-5.563l11.658-7.069c3.181-5.387,6.36-10.864,9.54-16.695
		c-6.184-4.063-10.334-8.919-12.452-14.309c-2.121-5.388-3.356-10.334-3.713-15.017c-0.441-5.3,0.177-10.954,1.856-16.784
		c2.915-9.628,7.066-16.783,12.456-21.553c5.386-4.771,11.129-7.686,17.136-8.745c6.008-0.972,11.662-0.708,16.872,0.971
		c5.213,1.59,9.275,4.329,12.191,8.127c4.063,5.831,5.475,12.809,4.063,21.2c-1.5,8.304-3.269,15.193-5.302,20.582
		c3.713-0.882,8.129-1.855,13.339-3.092c5.302-1.324,10.426-2.561,15.636-3.798c5.213-1.237,10.07-2.384,14.666-3.445
		c4.592-0.971,8.125-1.501,10.6-1.501c7.507,0,12.721,2.031,15.547,6.184c2.913,4.151,3.533,9.805,1.942,16.872
		c-0.883,3.71-2.121,7.508-3.798,11.217c-3.357,6.272-8.482,14.4-15.549,24.647c-7.154,10.247-13.867,20.229-20.316,30.21
		c-6.448,9.981-11.481,18.993-14.927,26.853c-3.533,7.864-3.444,13.074,0.265,15.548c3.357,2.563,8.391,2.474,15.016-0.265
		s13.427-6.537,20.581-11.573c7.069-4.945,13.694-10.511,19.967-16.519c4.239-4.063,7.685-7.772,10.335-11.217l0.529-1.059
		c3.18-6.537,5.742-11.574,7.86-15.283c0.795-1.677,1.592-2.916,2.475-3.798c0.353-0.353,0.618-0.794,0.618-1.239
		c9.099-14.044,18.904-26.144,29.327-36.126c17.048-15.814,33.302-25.796,48.585-29.947c15.368-4.153,28.53-5.211,39.31-3.092
		c0.441,0,2.559,0.353,6.537,1.237c3.974,0.794,8.213,2.827,12.805,6.184c5.391,3.356,9.897,8.479,13.431,15.28
		c3.533,6.89,4.239,16.342,2.206,28.445c0,2.827-1.059,6.449-3.18,10.6c0,1.239-0.177,2.033-0.618,2.474
		c-4.945,12.103-12.103,22.085-21.199,30.21c-9.1,8.129-18.816,14.666-28.975,19.699c-10.246,4.948-20.052,8.658-29.681,10.864
		c-9.54,2.297-17.048,3.801-22.438,4.684c1.235,4.592,3.356,8.125,6.272,10.599c3.356,3.798,8.125,6.625,14.309,8.747
		c7.158,2.915,14.401,4.327,21.82,4.327c11.658,0,22.526-2.65,32.508-8.037c12.456-5.919,22.525-13.162,30.21-22.173
		c7.684-8.923,12.544-15.018,14.662-18.375c2.475-3.356,4.771-6.625,6.893-9.981c2.03-3.357,3.975-6.272,5.563-8.744
		c1.238-2.474,2.739-4.595,4.419-6.272C1151.9,259.875,1155.786,258.46,1160.378,258.901L1160.378,258.901z M1016.303,281.162
		c-0.883,2.121-1.589,4.151-2.207,6.272c-0.617,2.121-1.15,4.151-1.592,6.272c17.493-3.357,31.185-9.364,40.901-17.843
		c9.717-8.481,16.872-16.698,21.464-24.647l1.945-3.709c0.794-1.68,1.234-2.739,1.234-3.092c2.475-5.037,4.596-10.6,6.185-16.872
		c1.68-6.272,0.441-9.982-3.71-11.221c-2.475-1.235-5.39-1.677-8.746-1.235c-2.915,0.353-6.184,1.327-9.981,2.827
		c-3.71,1.412-7.86,3.798-12.456,7.154l5.566-1.853c1.68-0.886,3.533-1.327,5.654-1.592s4.15-0.529,6.271-0.971
		c-0.886,0.882-1.944,1.854-3.445,2.827c-1.503,1.059-2.826,2.207-4.065,3.445c-2.471,2.118-5.651,4.945-9.36,8.39
		c-3.713,3.533-7.688,7.775-11.839,12.544c-4.15,4.68-8.214,9.981-12.19,15.548C1021.958,269.06,1018.777,274.979,1016.303,281.162
		L1016.303,281.162z M770.204,302.097c6.272-6.269,12.985-14.221,20.14-23.762c-1.503,0.177-3.003,0.265-4.504,0.353
		c-7.246,0.353-13.162,0.621-17.757,0.621l1.856,8.743v0.618c0,1.238,0.176,2.297,0.617,3.092c0,3.357-0.088,6.625-0.353,9.982
		V302.097z M842.286,187.617c0.794,0.882,2.739,2.12,5.563,3.798c2.916,1.59,7.158,2.649,12.544,3.092
		c-2.117-0.884-4.15-2.121-6.271-3.711c-2.118-1.324-4.063-2.737-5.919-4.416c-1.854-1.59-3.177-3.976-4.063-6.89
		c1.239-4.064,1.239-7.245,0-9.364c-0.882-1.59-1.853-2.12-3.092-1.501c-1.235,0.618-2.206,1.854-2.826,3.709
		c-0.618,1.855-0.707,4.329-0.354,7.156C838.311,182.403,839.811,185.143,842.286,187.617L842.286,187.617z M739.376,293.707
		c-0.887-2.121-1.857-4.681-3.181-7.508c-1.239-2.916-3.092-5.39-5.566-7.511c-10.864-1.235-19.081-3.709-25-7.507
		c-5.827-3.71-10.952-8.747-15.545-14.927c-0.886,0-2.298-1.503-4.33-4.419c-6.625,8.394-12.721,16.96-18.107,25.883
		c-5.39,9.011-7.864,17.401-7.511,25.265c0,0.883,0.709,4.416,2.209,10.6c1.504,6.272,5.92,11.659,13.428,16.254
		c4.595,2.916,10.158,5.034,16.783,6.272c7.863,1.236,14.576,0.971,19.963-0.618c5.39-1.68,9.717-3.978,13.074-6.89
		c2.121-1.68,4.065-3.448,6.007-5.301c1.856-1.856,3.181-3.71,3.975-5.301c1.327-1.677,2.121-3.533,2.563-5.651
		c0.794-2.033,1.415-4.066,1.856-6.184c0.354-2.121,0.617-4.154,0.617-6.272C740.611,298.299,740.169,296.181,739.376,293.707
		L739.376,293.707z M516.682,244.416c1.237-2.563,2.474-5.39,3.709-8.747c1.325-3.356,2.121-6.36,2.563-9.096
		c0.353-2.65,0.176-5.037-0.618-7.158c-0.884-2.118-2.739-3.356-5.654-3.709c-6.272-0.353-14.045,3.445-23.409,11.573
		c-9.364,8.037-18.285,17.931-26.765,29.592c-8.481,11.57-15.989,23.673-22.438,36.129c-6.537,12.544-10.07,22.879-10.954,31.181
		c-0.883,8.393,1.856,11.309,8.127,9.099c6.184-2.297,13.693-7.507,22.438-15.636c8.745-8.037,17.667-18.019,26.854-29.945
		c9.099-11.835,16.43-23.585,21.818-35.159c0-0.441,0.178-0.882,0.619-1.324c0,0,0.794-1.235,2.473-3.709
		c0.354-0.883,0.619-1.503,0.619-1.856C516.064,245.209,516.329,244.769,516.682,244.416L516.682,244.416z"/>
</g>
</svg>
