<?xml version="1.0" encoding="utf-8"?>
<!-- Generator: Adobe Illustrator 24.1.1, SVG Export Plug-In . SVG Version: 6.00 Build 0)  -->
<svg version="1.1" id="Layer_1" xmlns="http://www.w3.org/2000/svg" xmlns:xlink="http://www.w3.org/1999/xlink" x="0px" y="0px" viewBox="0 0 50 50" width="50px" height="50px"
	 enable-background="new 0 0 50 50" xml:space="preserve">
		<g>
			<rect y="8.26" fill-rule="evenodd" clip-rule="evenodd" fill="#FFFFFF" width="50" height="33.48"/>
			<rect x="0.566" y="8.812" fill-rule="evenodd" clip-rule="evenodd" fill="#F8F0E7" width="48.882" height="32.39"/>
			<path fill="#865439" d="M28.681,27.343h1.005c0.127,0,0.241,0.071,0.297,0.17l3.723,5.04c0.113,0.156,0.085,0.382-0.071,0.495
				c-0.071,0.042-0.142,0.071-0.212,0.071H16.591c-0.198,0-0.354-0.156-0.354-0.354c0-0.085,0.028-0.17,0.071-0.227l3.723-5.054
				c0.071-0.085,0.184-0.142,0.283-0.142h0.963l-0.708,0.708h-0.071l-0.212,0.297l-1.472,1.458c-0.241,0.241-0.326,0.58-0.255,0.878
				l-1.274,1.727h15.43l-1.302-1.77c0.057-0.283-0.028-0.609-0.269-0.835l-1.317-1.317l-0.311-0.439h-0.127L28.681,27.343z
				 M19.238,19.769c-0.142-0.142-0.142-0.368,0-0.51c0.142-0.142,0.368-0.142,0.51,0l5.238,5.238l5.224-5.238
				c0.142-0.142,0.382-0.142,0.51,0c0.142,0.142,0.142,0.368,0,0.51l-5.224,5.238l5.224,5.224c0.142,0.142,0.142,0.368,0,0.51
				c-0.127,0.142-0.368,0.142-0.51,0l-5.224-5.224l-5.238,5.224c-0.142,0.142-0.368,0.142-0.51,0c-0.142-0.142-0.142-0.368,0-0.51
				l5.238-5.224L19.238,19.769z M27.407,25.941l-0.042,0.085l-0.51-0.51l0.255-0.382c0.481-0.68,1.033-1.458,1.373-2.265
				l1.019-1.019c-0.17,1.359-1.076,2.647-1.812,3.681L27.407,25.941z M26.359,27.739c-0.736,1.543-0.864,2.633-0.864,2.633
				l-0.014,0.057c-0.042,0.142-0.113,0.241-0.198,0.297c-0.085,0.057-0.17,0.085-0.255,0.085c-0.099,0-0.184-0.028-0.269-0.085
				c-0.085-0.057-0.17-0.17-0.198-0.326v-0.014c0,0-0.184-1.104-0.934-2.661l0.524-0.538c0.425,0.835,0.694,1.571,0.864,2.109
				c0.156-0.538,0.411-1.26,0.821-2.081L26.359,27.739z M22.636,25.998l-0.057-0.071l-0.255-0.368
				c-1.133-1.571-1.713-2.392-1.826-3.681l0.948,0.948c0.269,0.665,0.736,1.331,1.444,2.322l0.255,0.34L22.636,25.998z
				 M20.866,19.529c0.226-0.495,0.538-0.948,0.92-1.331c0.821-0.807,1.939-1.302,3.199-1.302c1.246,0,2.392,0.495,3.213,1.317
				c0.382,0.368,0.694,0.807,0.92,1.302l-0.538,0.538c-0.198-0.51-0.495-0.963-0.878-1.345c-0.694-0.679-1.656-1.104-2.718-1.104
				c-1.062,0-2.01,0.411-2.704,1.09c-0.382,0.382-0.68,0.849-0.878,1.373L20.866,19.529z M26.274,21.454
				c0-0.34-0.142-0.651-0.354-0.878c-0.226-0.212-0.538-0.354-0.892-0.354c-0.34,0-0.637,0.142-0.864,0.368
				c-0.212,0.212-0.354,0.524-0.354,0.864c0,0.354,0.142,0.68,0.368,0.92c0.212,0.226,0.524,0.368,0.849,0.368
				c0.34,0,0.651-0.142,0.878-0.368C26.133,22.133,26.274,21.808,26.274,21.454L26.274,21.454z M26.416,20.081
				c0.354,0.354,0.566,0.835,0.566,1.373c0,0.071,0,0.142-0.014,0.198l-1.784,1.798c-0.057,0-0.113,0-0.156,0
				c-0.085,0-0.17,0-0.255-0.014l-1.642-1.642c-0.014-0.113-0.028-0.227-0.028-0.34c0-0.538,0.212-1.019,0.552-1.359
				c0.354-0.354,0.835-0.58,1.373-0.58C25.566,19.514,26.062,19.727,26.416,20.081L26.416,20.081z"/>
		</g>
	
</svg>
