<?xml version="1.0" encoding="utf-8"?>
<!-- Generator: Adobe Illustrator 16.0.0, SVG Export Plug-In . SVG Version: 6.00 Build 0)  -->
<!DOCTYPE svg PUBLIC "-//W3C//DTD SVG 1.1//EN" "http://www.w3.org/Graphics/SVG/1.1/DTD/svg11.dtd" [
	<!ENTITY ns_extend "http://ns.adobe.com/Extensibility/1.0/">
	<!ENTITY ns_ai "http://ns.adobe.com/AdobeIllustrator/10.0/">
	<!ENTITY ns_graphs "http://ns.adobe.com/Graphs/1.0/">
	<!ENTITY ns_vars "http://ns.adobe.com/Variables/1.0/">
	<!ENTITY ns_imrep "http://ns.adobe.com/ImageReplacement/1.0/">
	<!ENTITY ns_sfw "http://ns.adobe.com/SaveForWeb/1.0/">
	<!ENTITY ns_custom "http://ns.adobe.com/GenericCustomNamespace/1.0/">
	<!ENTITY ns_adobe_xpath "http://ns.adobe.com/XPath/1.0/">
]>
<svg version="1.1" id="Layer_1" xmlns:x="&ns_extend;" xmlns:i="&ns_ai;" xmlns:graph="&ns_graphs;"
	 xmlns="http://www.w3.org/2000/svg" xmlns:xlink="http://www.w3.org/1999/xlink" x="0px" y="0px" width="50px" height="50px"
	 viewBox="0 0 50 50" enable-background="new 0 0 50 50" xml:space="preserve">
<metadata>
	<sfw  xmlns="&ns_sfw;">
		<slices></slices>
		<sliceSourceBounds  width="190.009" height="523.502" y="-523.502" x="-0.009" bottomLeftOrigin="true"></sliceSourceBounds>
		<optimizationSettings>
			<targetSettings  fileFormat="PNG24Format" targetSettingsID="0">
				<PNG24Format  transparency="true" noMatteColor="false" matteColor="#FFFFFF" interlaced="false" filtered="false">
					</PNG24Format>
			</targetSettings>
		</optimizationSettings>
	</sfw>
</metadata>
<path fill="#855439" d="M4.395,49.502c-2.203,0-3.995-1.792-3.995-3.994V4.492c0-2.202,1.792-3.994,3.995-3.994h22.363
	c2.203,0,3.995,1.792,3.995,3.994v17.881h14.853c2.203,0,3.995,1.792,3.995,3.994v12.891c0,2.202-1.792,3.994-3.995,3.994H30.752
	v2.256c0,2.202-1.792,3.994-3.995,3.994H4.395z M4.395,2.627c-1.028,0-1.865,0.837-1.865,1.865v41.016
	c0,1.028,0.836,1.865,1.865,1.865h22.363c1.028,0,1.865-0.837,1.865-1.865V4.492c0-1.028-0.836-1.865-1.865-1.865H4.395z
	 M30.752,41.123h14.853c1.028,0,1.865-0.837,1.865-1.865v-8.506H30.752V41.123z M30.752,28.623H47.47v-2.256
	c0-1.028-0.836-1.865-1.865-1.865H30.752V28.623z"/>
<path fill="#855439" d="M9.374,29.189c-0.468,0-0.869-0.3-1.02-0.763c-0.142-0.476,0.06-1.108,0.719-1.323
	c0.093-0.027,0.198-0.043,0.303-0.043c0.509,0,0.938,0.354,1.044,0.86c0.102,0.545-0.203,1.052-0.742,1.225
	C9.583,29.174,9.479,29.189,9.374,29.189L9.374,29.189z"/>
<path fill="#855439" d="M15.629,29.189c-0.419,0-0.927-0.27-1.049-0.859c-0.06-0.319,0.019-0.634,0.221-0.878
	c0.204-0.246,0.514-0.393,0.828-0.393c0.208,0,0.406,0.061,0.59,0.182c0.244,0.165,0.413,0.429,0.458,0.72
	c0.046,0.296-0.037,0.596-0.233,0.845C16.238,29.05,15.946,29.189,15.629,29.189L15.629,29.189z"/>
<path fill="#855439" d="M21.872,29.189c-0.372,0-0.834-0.201-1.018-0.763c-0.168-0.565,0.14-1.138,0.718-1.322
	c0.095-0.029,0.199-0.044,0.304-0.044c0.509,0,0.938,0.354,1.044,0.86c0.102,0.542-0.204,1.049-0.743,1.226
	C22.084,29.174,21.979,29.189,21.872,29.189C21.873,29.189,21.873,29.189,21.872,29.189z"/>
<path fill="#855439" d="M9.374,35.439c-0.468,0-0.869-0.3-1.02-0.763c-0.142-0.477,0.06-1.108,0.719-1.323
	c0.093-0.027,0.198-0.043,0.303-0.043c0.508,0,0.938,0.354,1.043,0.86c0.102,0.545-0.203,1.052-0.742,1.225
	C9.583,35.424,9.479,35.439,9.374,35.439L9.374,35.439z"/>
<path fill="#855439" d="M15.629,35.439c-0.419,0-0.927-0.27-1.049-0.859c-0.06-0.319,0.019-0.634,0.222-0.878
	c0.204-0.246,0.513-0.394,0.827-0.394c0.208,0,0.406,0.062,0.59,0.183c0.248,0.168,0.412,0.425,0.458,0.72
	c0.046,0.296-0.037,0.596-0.233,0.845C16.238,35.3,15.946,35.439,15.629,35.439C15.629,35.439,15.629,35.439,15.629,35.439z"/>
<path fill="#855439" d="M21.873,35.439c-0.47,0-0.87-0.299-1.018-0.762c-0.148-0.487,0.078-1.119,0.717-1.323
	c0.095-0.029,0.199-0.044,0.303-0.044c0.509,0,0.939,0.354,1.045,0.86c0.102,0.541-0.204,1.049-0.744,1.226
	C22.084,35.424,21.979,35.439,21.873,35.439z"/>
<path fill="#855439" d="M9.375,41.689c-0.468,0-0.869-0.3-1.021-0.763c-0.141-0.476,0.061-1.108,0.719-1.323
	c0.093-0.027,0.199-0.043,0.304-0.043c0.508,0,0.937,0.354,1.043,0.86c0.102,0.545-0.202,1.052-0.742,1.225
	C9.583,41.674,9.479,41.689,9.375,41.689C9.375,41.689,9.375,41.689,9.375,41.689z"/>
<path fill="#855439" d="M15.624,41.688c-0.373,0-0.711-0.19-0.907-0.511c-0.197-0.321-0.207-0.708-0.027-1.061
	c0.186-0.34,0.546-0.557,0.935-0.557c0.209,0,0.415,0.063,0.595,0.181c0.43,0.291,0.515,0.755,0.449,1.09
	c-0.085,0.434-0.399,0.747-0.838,0.839C15.765,41.682,15.693,41.688,15.624,41.688C15.624,41.688,15.624,41.688,15.624,41.688z"/>
<path fill="#855439" d="M21.873,41.688c-0.372,0-0.835-0.2-1.019-0.762c-0.168-0.565,0.14-1.138,0.718-1.322
	c0.095-0.028,0.199-0.044,0.303-0.044c0.509,0,0.939,0.354,1.045,0.86c0.102,0.541-0.204,1.049-0.744,1.226
	C22.084,41.674,21.979,41.688,21.873,41.688L21.873,41.688z"/>
<g>
	<path fill="#855439" d="M7.813,21.377c-0.587,0-1.065-0.478-1.065-1.064v-12.5c0-0.587,0.478-1.064,1.065-1.064h15.625
		c0.587,0,1.065,0.478,1.065,1.064v12.5c0,0.587-0.478,1.064-1.065,1.064H7.813z M8.877,19.248h13.495V8.877H8.877V19.248z"/>
</g>
</svg>
