<?xml version="1.0" encoding="utf-8"?>
<!-- Generator: Adobe Illustrator 16.0.0, SVG Export Plug-In . SVG Version: 6.00 Build 0)  -->
<!DOCTYPE svg PUBLIC "-//W3C//DTD SVG 1.1//EN" "http://www.w3.org/Graphics/SVG/1.1/DTD/svg11.dtd" [
	<!ENTITY ns_extend "http://ns.adobe.com/Extensibility/1.0/">
	<!ENTITY ns_ai "http://ns.adobe.com/AdobeIllustrator/10.0/">
	<!ENTITY ns_graphs "http://ns.adobe.com/Graphs/1.0/">
	<!ENTITY ns_vars "http://ns.adobe.com/Variables/1.0/">
	<!ENTITY ns_imrep "http://ns.adobe.com/ImageReplacement/1.0/">
	<!ENTITY ns_sfw "http://ns.adobe.com/SaveForWeb/1.0/">
	<!ENTITY ns_custom "http://ns.adobe.com/GenericCustomNamespace/1.0/">
	<!ENTITY ns_adobe_xpath "http://ns.adobe.com/XPath/1.0/">
]>
<svg version="1.1" id="Layer_1" xmlns:x="&ns_extend;" xmlns:i="&ns_ai;" xmlns:graph="&ns_graphs;"
	 xmlns="http://www.w3.org/2000/svg" xmlns:xlink="http://www.w3.org/1999/xlink" x="0px" y="0px" width="50px" height="50px"
	 viewBox="0 0 50 50" enable-background="new 0 0 50 50" xml:space="preserve">
<metadata>
	<sfw  xmlns="&ns_sfw;">
		<slices></slices>
		<sliceSourceBounds  width="190" height="396" bottomLeftOrigin="true" y="-396" x="0"></sliceSourceBounds>
		<optimizationSettings>
			<targetSettings  targetSettingsID="0" fileFormat="PNG24Format">
				<PNG24Format  transparency="true" noMatteColor="false" matteColor="#FFFFFF" interlaced="false" filtered="false">
					</PNG24Format>
			</targetSettings>
		</optimizationSettings>
	</sfw>
</metadata>
<path fill-rule="evenodd" clip-rule="evenodd" fill="#FFFFFF" d="M25,50c13.769,0,25-11.23,25-25.001S38.77,0,25,0
	C11.23,0,0,11.23,0,25S11.23,50,25,50"/>
<path fill-rule="evenodd" clip-rule="evenodd" fill="#855439" d="M16.772,28.722c1.529,1.527,3.642,2.47,5.974,2.47
	c0.717,0,1.431-0.092,2.121-0.27c0.688-0.178,1.354-0.443,1.982-0.79l0.005-0.004c2.038-1.131,3.424-2.981,4.017-5.058
	c0.579-2.024,0.406-4.264-0.649-6.262l-0.785,0.784c0.063,0.121,0.115,0.249,0.152,0.38c0.047,0.164,0.071,0.336,0.071,0.509
	c0.001,0.536-0.217,1.022-0.569,1.374c-0.352,0.352-0.837,0.569-1.373,0.569c-0.174,0-0.344-0.024-0.51-0.071
	c-0.131-0.036-0.259-0.089-0.38-0.152l-2.814,2.814c0.065,0.12,0.115,0.249,0.152,0.379c0.046,0.166,0.071,0.337,0.071,0.51
	c0.001,0.536-0.217,1.022-0.569,1.375c-0.352,0.352-0.837,0.568-1.373,0.568c-0.537,0-1.022-0.217-1.374-0.568
	c-0.352-0.353-0.57-0.838-0.57-1.375c0.001-0.173,0.025-0.344,0.072-0.51c0.036-0.13,0.088-0.259,0.152-0.379l-1.911-1.911
	c-0.12,0.064-0.249,0.115-0.378,0.152c-0.166,0.047-0.337,0.071-0.51,0.071c-0.442-0.001-0.857-0.152-1.187-0.408
	c-0.303-0.235-0.537-0.563-0.658-0.946h-1.6L14.308,22.3c-0.007,0.148-0.012,0.3-0.012,0.453
	C14.296,25.085,15.244,27.195,16.772,28.722 M17.232,21.93c0.139,0.138,0.331,0.224,0.543,0.224s0.405-0.087,0.543-0.224
	c0.139-0.141,0.226-0.333,0.226-0.544c0-0.212-0.087-0.404-0.226-0.544c-0.138-0.137-0.331-0.225-0.543-0.225
	s-0.404,0.088-0.543,0.225c-0.139,0.14-0.226,0.332-0.226,0.544C17.007,21.599,17.094,21.791,17.232,21.93z M22.837,25.36
	c-0.139-0.139-0.331-0.225-0.543-0.225s-0.405,0.086-0.543,0.225c-0.14,0.139-0.226,0.331-0.226,0.543
	c0,0.214,0.087,0.404,0.226,0.544c0.138,0.139,0.331,0.225,0.543,0.225s0.404-0.086,0.543-0.225c0.139-0.14,0.225-0.33,0.225-0.544
	C23.062,25.691,22.976,25.5,22.837,25.36z M27.173,19.938c-0.139,0.139-0.224,0.331-0.224,0.543s0.085,0.404,0.224,0.544
	c0.139,0.139,0.331,0.225,0.543,0.225s0.405-0.086,0.543-0.225c0.139-0.14,0.226-0.332,0.226-0.544s-0.087-0.404-0.226-0.543
	c-0.138-0.139-0.331-0.225-0.543-0.225S27.312,19.8,27.173,19.938z M26.635,15.243c-1.186-0.615-2.516-0.951-3.889-0.952
	c-1.989,0.002-3.844,0.698-5.305,1.879c-1.421,1.147-2.472,2.755-2.915,4.629h1.403c0.123-0.384,0.357-0.712,0.662-0.948
	c0.331-0.257,0.747-0.406,1.189-0.405c0.536,0,1.021,0.219,1.371,0.569c0.349,0.351,0.566,0.836,0.566,1.369
	c0,0.175-0.024,0.347-0.071,0.513c-0.037,0.131-0.088,0.259-0.152,0.379l1.91,1.909c0.278-0.148,0.583-0.223,0.889-0.223
	c0.306,0,0.612,0.074,0.89,0.223l2.813-2.813c-0.064-0.12-0.115-0.248-0.152-0.378c-0.047-0.166-0.07-0.338-0.071-0.511
	c0-0.535,0.217-1.022,0.569-1.373c0.352-0.353,0.838-0.569,1.374-0.569c0.173,0,0.345,0.024,0.509,0.071
	c0.13,0.036,0.257,0.088,0.379,0.152l0.976-0.976C28.799,16.708,27.786,15.843,26.635,15.243z M33.5,14.699
	c0.139,0.139,0.33,0.225,0.543,0.225c0.212,0,0.405-0.086,0.543-0.225c0.139-0.139,0.226-0.331,0.226-0.543
	c0-0.214-0.087-0.404-0.226-0.543c-0.138-0.14-0.331-0.226-0.543-0.226s-0.404,0.087-0.543,0.225
	c-0.139,0.14-0.226,0.332-0.226,0.544S33.361,14.561,33.5,14.699z M30.875,28.989l0.213-0.292c1.276-1.785,1.915-3.879,1.915-5.973
	s-0.639-4.188-1.915-5.974l-0.002-0.002c-1.649-2.306-4.076-3.727-6.669-4.159c-2.593-0.432-5.351,0.126-7.659,1.774l-0.003,0.003
	c-2.307,1.649-3.727,4.077-4.159,6.67c-0.432,2.593,0.125,5.352,1.773,7.66c1.649,2.309,4.079,3.73,6.671,4.162
	c2.594,0.433,5.353-0.125,7.662-1.774l0.291-0.215l0.282-0.224l0.396-0.346c0.224-0.214,0.423-0.412,0.635-0.637l0.346-0.394
	L30.875,28.989z M32.76,30.874l-1.049-1.049c-0.159,0.196-0.316,0.38-0.483,0.571l-0.136,0.146
	c-0.175,0.187-0.358,0.369-0.545,0.544c-0.234,0.221-0.47,0.415-0.716,0.621l1.049,1.049L32.76,30.874z M37.534,36.183
	c-0.003-0.34-0.139-0.679-0.401-0.935l-3.542-3.543l-1.881,1.881l3.564,3.564c0.263,0.257,0.605,0.382,0.946,0.379
	c0.339-0.004,0.679-0.139,0.935-0.4C37.411,36.866,37.538,36.523,37.534,36.183z M32.668,12.782
	c0.352-0.353,0.838-0.569,1.374-0.569c0.441,0.002,0.857,0.152,1.186,0.408c0.304,0.237,0.538,0.564,0.659,0.948h2.81v1.174h-2.81
	c-0.121,0.384-0.355,0.711-0.658,0.947c-0.33,0.257-0.744,0.407-1.185,0.408c-0.174,0-0.346-0.024-0.511-0.07
	c-0.13-0.037-0.259-0.089-0.379-0.152L32.4,16.63c1.186,1.864,1.779,3.989,1.779,6.112s-0.593,4.246-1.779,6.112l5.564,5.563
	c0.488,0.49,0.733,1.132,0.733,1.771s-0.246,1.281-0.733,1.77c-0.489,0.489-1.131,0.733-1.771,0.733
	c-0.641,0-1.282-0.244-1.771-0.733l-5.563-5.563c-2.481,1.574-5.357,2.079-8.065,1.611c-2.738-0.472-5.307-1.938-7.12-4.298
	l-0.007-0.007c-1.921-2.505-2.646-5.552-2.266-8.451c0.381-2.896,1.867-5.649,4.365-7.57l0.01-0.009
	c2.503-1.921,5.551-2.646,8.45-2.266c2.854,0.375,5.566,1.821,7.483,4.253l0.613-0.613c-0.064-0.121-0.115-0.249-0.152-0.38
	c-0.045-0.166-0.071-0.337-0.071-0.509C32.1,13.62,32.316,13.134,32.668,12.782z M15.94,15.937c1.741-1.742,4.148-2.82,6.806-2.82
	c2.657,0.003,5.062,1.082,6.802,2.822c1.741,1.741,2.818,4.146,2.822,6.803c0,2.657-1.078,5.063-2.82,6.806
	c-1.742,1.742-4.148,2.819-6.805,2.819c-2.657,0-5.065-1.079-6.806-2.819c-1.742-1.742-2.819-4.148-2.819-6.806
	S14.198,17.677,15.94,15.937z"/>
</svg>
