<?xml version="1.0" encoding="utf-8"?>
<!-- Generator: Adobe Illustrator 16.0.0, SVG Export Plug-In . SVG Version: 6.00 Build 0)  -->
<!DOCTYPE svg PUBLIC "-//W3C//DTD SVG 1.1//EN" "http://www.w3.org/Graphics/SVG/1.1/DTD/svg11.dtd">
<svg version="1.1" id="Layer_1" xmlns="http://www.w3.org/2000/svg" xmlns:xlink="http://www.w3.org/1999/xlink" x="0px" y="0px"
	 width="50px" height="50px" viewBox="0 0 50 50" enable-background="new 0 0 50 50" xml:space="preserve">
<g>
	<path fill-rule="evenodd" clip-rule="evenodd" fill="#FFFFFF" d="M25,49.998c13.77,0,25-11.23,25-24.996c0-13.77-11.23-25-25-25
		s-25,11.23-25,25C0,38.768,11.23,49.998,25,49.998z"/><g>
		
			<path fill-rule="evenodd" clip-rule="evenodd" fill="none" stroke="#855439" stroke-width="2.1951" stroke-linecap="round" stroke-linejoin="round" stroke-miterlimit="22.9256" d="
			M17.626,32.536c4.157,0,7.545-3.387,7.545-7.538c0-4.157-3.388-7.539-7.545-7.539c-4.151,0-7.54,3.382-7.54,7.539
			C10.086,29.149,13.475,32.536,17.626,32.536z"/>
		
			<polyline fill-rule="evenodd" clip-rule="evenodd" fill="none" stroke="#855439" stroke-width="2.1915" stroke-linecap="round" stroke-linejoin="round" stroke-miterlimit="22.9256" points="
			25.154,24.505 39.914,24.505 33.37,17.968 		"/>
		
			<line fill-rule="evenodd" clip-rule="evenodd" fill="none" stroke="#855439" stroke-width="2.1915" stroke-linecap="round" stroke-linejoin="round" stroke-miterlimit="22.9256" x1="39.914" y1="24.505" x2="33.37" y2="31.048"/>
	</g>
</g>
</svg>
