<?xml version="1.0" encoding="utf-8"?>
<!-- Generator: Adobe Illustrator 16.0.0, SVG Export Plug-In . SVG Version: 6.00 Build 0)  -->
<!DOCTYPE svg PUBLIC "-//W3C//DTD SVG 1.1//EN" "http://www.w3.org/Graphics/SVG/1.1/DTD/svg11.dtd" [
	<!ENTITY ns_extend "http://ns.adobe.com/Extensibility/1.0/">
	<!ENTITY ns_ai "http://ns.adobe.com/AdobeIllustrator/10.0/">
	<!ENTITY ns_graphs "http://ns.adobe.com/Graphs/1.0/">
	<!ENTITY ns_vars "http://ns.adobe.com/Variables/1.0/">
	<!ENTITY ns_imrep "http://ns.adobe.com/ImageReplacement/1.0/">
	<!ENTITY ns_sfw "http://ns.adobe.com/SaveForWeb/1.0/">
	<!ENTITY ns_custom "http://ns.adobe.com/GenericCustomNamespace/1.0/">
	<!ENTITY ns_adobe_xpath "http://ns.adobe.com/XPath/1.0/">
]>
<svg version="1.1" id="Layer_1" xmlns:x="&ns_extend;" xmlns:i="&ns_ai;" xmlns:graph="&ns_graphs;"
	 xmlns="http://www.w3.org/2000/svg" xmlns:xlink="http://www.w3.org/1999/xlink" x="0px" y="0px" width="50px" height="50px"
	 viewBox="0 0 50 50" enable-background="new 0 0 50 50" xml:space="preserve">
<metadata>
	<sfw  xmlns="&ns_sfw;">
		<slices></slices>
		<sliceSourceBounds  width="118.65" height="50" x="1.35" y="-50" bottomLeftOrigin="true"></sliceSourceBounds>
	</sfw>
</metadata>
<g>
	<path fill-rule="evenodd" clip-rule="evenodd" fill="#732F31" d="M1.35,23.55l7.614-5.427l19.857,5.298l12.544-8.942l7.286,1.944
		l-20.158,14.37L1.35,23.55z"/>
	<path fill-rule="evenodd" clip-rule="evenodd" fill="#732F31" d="M1.35,14.37L21.508,0L48.65,7.243l-20.158,14.37L1.35,14.37z"/>
	<path fill-rule="evenodd" clip-rule="evenodd" fill="#732F31" d="M1.35,32.755l7.614-5.427l19.857,5.298l12.544-8.941l7.286,1.944
		l-20.158,14.37L1.35,32.755z"/>
	<path fill-rule="evenodd" clip-rule="evenodd" fill="#732F31" d="M1.35,42.757l7.614-5.427l19.857,5.298l12.544-8.942l7.286,1.944
		L28.493,50L1.35,42.757z"/>
</g>
</svg>
