<?xml version="1.0" encoding="utf-8"?>
<!-- Generator: Adobe Illustrator 16.0.0, SVG Export Plug-In . SVG Version: 6.00 Build 0)  -->
<!DOCTYPE svg PUBLIC "-//W3C//DTD SVG 1.1//EN" "http://www.w3.org/Graphics/SVG/1.1/DTD/svg11.dtd" [
	<!ENTITY ns_extend "http://ns.adobe.com/Extensibility/1.0/">
	<!ENTITY ns_ai "http://ns.adobe.com/AdobeIllustrator/10.0/">
	<!ENTITY ns_graphs "http://ns.adobe.com/Graphs/1.0/">
	<!ENTITY ns_vars "http://ns.adobe.com/Variables/1.0/">
	<!ENTITY ns_imrep "http://ns.adobe.com/ImageReplacement/1.0/">
	<!ENTITY ns_sfw "http://ns.adobe.com/SaveForWeb/1.0/">
	<!ENTITY ns_custom "http://ns.adobe.com/GenericCustomNamespace/1.0/">
	<!ENTITY ns_adobe_xpath "http://ns.adobe.com/XPath/1.0/">
]>
<svg version="1.1" id="Layer_1" xmlns:x="&ns_extend;" xmlns:i="&ns_ai;" xmlns:graph="&ns_graphs;"
	 xmlns="http://www.w3.org/2000/svg" xmlns:xlink="http://www.w3.org/1999/xlink" x="0px" y="0px" width="50px" height="50px"
	 viewBox="0 0 50 50" enable-background="new 0 0 50 50" xml:space="preserve">
<metadata>
	<sfw  xmlns="&ns_sfw;">
		<slices></slices>
		<sliceSourceBounds  width="118.65" height="50" x="1.35" y="-50" bottomLeftOrigin="true"></sliceSourceBounds>
	</sfw>
</metadata>
<g>
	<path fill-rule="evenodd" clip-rule="evenodd" fill="#732F31" d="M6.81,38.419v-7.796H5.921v-3.4c0-1.855,0.757-3.539,1.976-4.758
		s2.902-1.975,4.758-1.975h3.55v0.889h19.732c0.261,0,0.499-0.108,0.673-0.282c0.175-0.174,0.283-0.413,0.283-0.673V18.73h-0.58
		c-0.206,0-0.374-0.168-0.374-0.374v-3.935c0-0.206,0.168-0.374,0.374-0.374h0.58V5.776C33.438,3.634,29.363,2.396,25,2.396
		C12.516,2.396,2.396,12.517,2.396,25C2.396,30.024,4.036,34.666,6.81,38.419 M16.204,27.156h-3.55
		c-0.015,0-0.031,0.009-0.044,0.022c-0.014,0.014-0.022,0.029-0.022,0.044v3.4h-0.89v12.653c3.732,2.721,8.329,4.327,13.302,4.327
		c12.483,0,22.604-10.119,22.604-22.604c0-5.825-2.203-11.135-5.822-15.142v4.189h0.58c0.205,0,0.374,0.168,0.374,0.374v3.935
		c0,0.206-0.169,0.374-0.374,0.374h-0.58v1.692c0,1.61-0.657,3.071-1.715,4.129c-1.058,1.059-2.52,1.715-4.13,1.715H16.204V27.156z
		 M25,0c13.807,0,25,11.193,25,25c0,13.808-11.193,25-25,25S0,38.808,0,25C0,11.193,11.193,0,25,0z"/>
</g>
</svg>
