<?xml version="1.0" encoding="utf-8"?>
<!-- Generator: Adobe Illustrator 16.0.0, SVG Export Plug-In . SVG Version: 6.00 Build 0)  -->
<!DOCTYPE svg PUBLIC "-//W3C//DTD SVG 1.1//EN" "http://www.w3.org/Graphics/SVG/1.1/DTD/svg11.dtd">
<svg version="1.1" id="Layer_1" xmlns="http://www.w3.org/2000/svg" xmlns:xlink="http://www.w3.org/1999/xlink" x="0px" y="0px"
	 width="50px" height="50px" viewBox="0 0 50 50" enable-background="new 0 0 50 50" xml:space="preserve">
<g>
	<path fill-rule="evenodd" clip-rule="evenodd" fill="#EDE4D8" d="M25.001,50.001C38.775,50.001,50,38.776,50,25
		C50,11.225,38.775-0.001,25.001-0.001C11.225-0.001,0,11.225,0,25C0,38.776,11.225,50.001,25.001,50.001L25.001,50.001z"/>
	<path fill="#855439" d="M34.581,17.232L21.995,29.762l-6.576-6.633c-0.566-0.51-1.473-0.51-1.984,0
		c-0.566,0.568-0.566,1.475,0,2.041l7.598,7.597c0.283,0.283,0.623,0.396,0.963,0.396c0.396,0,0.736-0.113,1.021-0.396l13.549-13.55
		c0.566-0.566,0.566-1.473,0-1.984C35.999,16.666,35.147,16.666,34.581,17.232L34.581,17.232z"/>
</g>
</svg>
