<?xml version="1.0" encoding="utf-8"?>
<!-- Generator: Adobe Illustrator 16.0.0, SVG Export Plug-In . SVG Version: 6.00 Build 0)  -->
<!DOCTYPE svg PUBLIC "-//W3C//DTD SVG 1.1//EN" "http://www.w3.org/Graphics/SVG/1.1/DTD/svg11.dtd">
<svg version="1.1" id="Layer_1" xmlns="http://www.w3.org/2000/svg" xmlns:xlink="http://www.w3.org/1999/xlink" x="0px" y="0px"
	 width="50px" height="50px" viewBox="0 0 50 50" enable-background="new 0 0 50 50" xml:space="preserve">
<g>
	<path fill="#33CC33" d="M24.952,47.003c-12.089,0-22.05-9.868-22.05-22.05c0-12.088,9.96-22.05,22.05-22.05
		c12.185,0,22.05,9.962,22.05,22.05C47.001,37.135,37.136,47.003,24.952,47.003L24.952,47.003z M42.65,7.349
		C37.912,2.61,31.625-0.002,24.952-0.002S12.089,2.61,7.35,7.349C2.612,12.093,0,18.276,0,24.953c0,6.671,2.612,12.961,7.35,17.698
		c4.739,4.738,10.928,7.351,17.602,7.351s12.96-2.612,17.698-7.351C47.388,37.914,50,31.624,50,24.953
		C50,18.276,47.388,12.093,42.65,7.349L42.65,7.349z"/>
	<path fill="#33CC33" d="M34.817,17.023L21.953,29.885l-6.865-6.771c-0.582-0.58-1.451-0.58-2.032,0c-0.58,0.58-0.58,1.452,0,2.032
		l7.834,7.83c0.29,0.293,0.676,0.486,1.063,0.486c0.388,0,0.678-0.193,0.968-0.486l14.022-13.921c0.58-0.586,0.58-1.552,0-2.032
		C36.363,16.444,35.397,16.444,34.817,17.023L34.817,17.023z"/>
</g>
</svg>
