<?xml version="1.0" encoding="utf-8"?>
<!-- Generator: Adobe Illustrator 16.0.0, SVG Export Plug-In . SVG Version: 6.00 Build 0)  -->
<!DOCTYPE svg PUBLIC "-//W3C//DTD SVG 1.1//EN" "http://www.w3.org/Graphics/SVG/1.1/DTD/svg11.dtd">
<svg version="1.1" id="Layer_1" xmlns="http://www.w3.org/2000/svg" xmlns:xlink="http://www.w3.org/1999/xlink" x="0px" y="0px"
	 width="50px" height="50px" viewBox="0 0 50 50" enable-background="new 0 0 50 50" xml:space="preserve">
<g>
	<path fill-rule="evenodd" clip-rule="evenodd" fill="#855439" d="M25.046,50C38.811,50,50,38.811,50,25.046
		C50,11.28,38.811,0,25.046,0C11.28,0,0,11.28,0,25.046C0,38.811,11.28,50,25.046,50L25.046,50z"/>
	<path fill="#FFFFFF" d="M26.317,23.738l0.077-11.814c0.015-0.709-0.595-1.254-1.305-1.27c-0.801-0.019-1.347,0.595-1.363,1.305
		l0.014,11.724l-11.817,0.013c-0.71-0.016-1.255,0.597-1.271,1.307c-0.016,0.709,0.595,1.344,1.307,1.271l11.723,0.075l0.013,11.725
		c-0.015,0.712,0.596,1.348,1.305,1.362c0.354,0.008,0.713-0.162,0.896-0.425c0.273-0.259,0.455-0.522,0.375-0.882l0.077-11.811
		l11.723,0.074c0.357,0.008,0.716-0.161,0.988-0.422c0.181-0.174,0.366-0.524,0.374-0.88c0.019-0.801-0.593-1.347-1.305-1.362
		L26.317,23.738z"/>
</g>
</svg>
