<?xml version="1.0" encoding="utf-8"?>
<!-- Generator: Adobe Illustrator 16.0.0, SVG Export Plug-In . SVG Version: 6.00 Build 0)  -->
<!DOCTYPE svg PUBLIC "-//W3C//DTD SVG 1.1//EN" "http://www.w3.org/Graphics/SVG/1.1/DTD/svg11.dtd">
<svg version="1.1" id="Layer_1" xmlns="http://www.w3.org/2000/svg" xmlns:xlink="http://www.w3.org/1999/xlink" x="0px" y="0px"
	 width="50px" height="50px" viewBox="0 0 50 50" enable-background="new 0 0 50 50" xml:space="preserve">
<g>
	
		<path fill="none" stroke="#C7BAA7" stroke-width="0.7757" stroke-linecap="round" stroke-linejoin="round" stroke-miterlimit="10" d="
		M5.757,0.75h38.504c2.75,0,4.989,2.239,4.989,5.008v38.503c0,2.75-2.239,4.989-4.989,4.989H5.757c-2.768,0-5.007-2.239-5.007-4.989
		V5.758C0.75,2.989,2.989,0.75,5.757,0.75L5.757,0.75z"/>
	<polygon fill-rule="evenodd" clip-rule="evenodd" fill="#732F31" points="25.625,22.505 24.375,22.505 24.375,25.626 
		21.271,25.626 21.271,26.86 24.375,26.86 24.375,29.98 25.625,29.98 25.625,26.86 28.728,26.86 28.728,25.626 25.625,25.626 	"/>
	<path fill-rule="evenodd" clip-rule="evenodd" fill="#732F31" d="M32.29,20.213l-4.99-4.989c-0.105-0.105-0.263-0.176-0.44-0.176
		h-8.074c-0.688,0-1.252,0.564-1.252,1.252v17.4c0,0.688,0.564,1.252,1.252,1.252h12.429c0.688,0,1.251-0.564,1.251-1.252V20.654
		C32.466,20.478,32.396,20.32,32.29,20.213L32.29,20.213z M27.494,17.181l2.839,2.839h-2.839V17.181z M31.215,33.7H18.786V16.3
		h7.457v3.72c0,0.688,0.564,1.252,1.252,1.252h3.721V33.7L31.215,33.7z"/>
</g>
</svg>
