<?xml version="1.0" encoding="utf-8"?>
<!-- Generator: Adobe Illustrator 16.0.0, SVG Export Plug-In . SVG Version: 6.00 Build 0)  -->
<!DOCTYPE svg PUBLIC "-//W3C//DTD SVG 1.1//EN" "http://www.w3.org/Graphics/SVG/1.1/DTD/svg11.dtd">
<svg version="1.1" id="Layer_1" xmlns="http://www.w3.org/2000/svg" xmlns:xlink="http://www.w3.org/1999/xlink" x="0px" y="0px"
	 width="50px" height="50px" viewBox="0 0 50 50" enable-background="new 0 0 50 50" xml:space="preserve">
<g>
	<path fill-rule="evenodd" clip-rule="evenodd" fill="#C7BAA7" stroke="#C7BAA7" stroke-width="0.6102" stroke-miterlimit="10" d="
		M25.009,49C38.225,49,49,38.227,49,25.01C49,11.775,38.225,1,25.009,1C11.775,1,1,11.775,1,25.01C1,38.227,11.775,49,25.009,49
		L25.009,49z"/>
	<path fill="#732F31" d="M31.251,25.742h-5.249v5.492c0,0.557-0.454,1.011-0.994,1.011c-0.558,0-1.011-0.454-1.011-1.011v-5.492
		h-5.23c-0.559,0-1.012-0.437-1.012-0.995c0-0.54,0.453-0.994,1.012-0.994h5.23v-5.002c0-0.542,0.454-0.994,1.011-0.994
		c0.54,0,0.994,0.452,0.994,0.994v5.002h5.249c0.54,0,0.994,0.454,0.994,0.994C32.245,25.306,31.791,25.742,31.251,25.742
		L31.251,25.742z"/>
</g>
</svg>
