<?xml version="1.0" encoding="utf-8"?>
<!-- Generator: Adobe Illustrator 16.0.0, SVG Export Plug-In . SVG Version: 6.00 Build 0)  -->
<!DOCTYPE svg PUBLIC "-//W3C//DTD SVG 1.1//EN" "http://www.w3.org/Graphics/SVG/1.1/DTD/svg11.dtd" [
	<!ENTITY ns_extend "http://ns.adobe.com/Extensibility/1.0/">
	<!ENTITY ns_ai "http://ns.adobe.com/AdobeIllustrator/10.0/">
	<!ENTITY ns_graphs "http://ns.adobe.com/Graphs/1.0/">
	<!ENTITY ns_vars "http://ns.adobe.com/Variables/1.0/">
	<!ENTITY ns_imrep "http://ns.adobe.com/ImageReplacement/1.0/">
	<!ENTITY ns_sfw "http://ns.adobe.com/SaveForWeb/1.0/">
	<!ENTITY ns_custom "http://ns.adobe.com/GenericCustomNamespace/1.0/">
	<!ENTITY ns_adobe_xpath "http://ns.adobe.com/XPath/1.0/">
]>
<svg version="1.1" xmlns:x="&ns_extend;" xmlns:i="&ns_ai;" xmlns:graph="&ns_graphs;"
	 xmlns="http://www.w3.org/2000/svg" xmlns:xlink="http://www.w3.org/1999/xlink" x="0px" y="0px" width="50px" height="50px"
	 viewBox="0 0 50 50" enable-background="new 0 0 50 50" xml:space="preserve">
<g id="Layer_1"></g><g id="Layer_1_1_"></g><g id="Layer_1_2_"></g><g id="Layer_1_3_"></g><g id="Layer_1_4_"></g><g id="Layer_1_5_">	<g>
		<path fill-rule="evenodd" clip-rule="evenodd" fill="#855439" d="M33.125,37.5c-3.102,0-5.625-2.523-5.625-5.625
			s2.523-5.625,5.625-5.625c3.102,0,5.625,2.523,5.625,5.625S36.227,37.5,33.125,37.5L33.125,37.5z M20.64,11.25h-8.154
			C11.113,11.258,10,12.376,10,13.75v17.5c0,1.379,1.121,2.5,2.5,2.5h14.017c0.819,2.881,3.468,5,6.608,5
			c3.791,0,6.875-3.084,6.875-6.875c0-2.13-0.974-4.037-2.5-5.299V16.25c0-1.379-1.121-2.5-2.5-2.5H23.384l-2.317-2.316
			C20.953,11.319,20.8,11.254,20.64,11.25L20.64,11.25z M12.5,32.5h13.782c-0.019-0.206-0.032-0.414-0.032-0.625
			c0-3.791,3.084-6.875,6.875-6.875c1.125,0,2.186,0.277,3.125,0.759V16.25c0-0.689-0.561-1.25-1.25-1.25H23.125
			c-0.166,0-0.325-0.066-0.442-0.184L20.366,12.5H12.5c-0.689,0-1.25,0.561-1.25,1.25v17.5C11.25,31.939,11.811,32.5,12.5,32.5z"/>
		<path fill-rule="evenodd" clip-rule="evenodd" fill="#855439" d="M35.625,31.25H33.75v-1.875c0-0.346-0.279-0.625-0.625-0.625
			S32.5,29.029,32.5,29.375v1.875h-1.875c-0.346,0-0.625,0.279-0.625,0.625s0.279,0.625,0.625,0.625H32.5v1.875
			c0,0.346,0.279,0.625,0.625,0.625s0.625-0.279,0.625-0.625V32.5h1.875c0.345,0,0.625-0.279,0.625-0.625S35.97,31.25,35.625,31.25z
			"/>
	</g>
</g><g id="Layer_1_6_"></g><g id="Layer_1_7_"></g><g id="Layer_1_8_"></g><g id="Layer_1_9_"></g><g id="Layer_1_10_"></g><g id="Layer_1_11_"></g><g id="Layer_1_12_"></g><g id="Layer_1_13_"></g><g id="Layer_1_14_"></g><g id="Layer_1_15_"></g><g id="Layer_1_16_"></g><g id="Layer_1_17_"></g><g id="Layer_1_18_"></g><g id="Layer_1_19_"></g><g id="Layer_1_20_">
</g><g id="Layer_1_21_"></g><g id="Layer_1_22_"></g><g id="Layer_1_23_"></g><g id="Layer_1_24_"></g><g id="Layer_1_25_"></g><g id="Layer_1_26_"></g><g id="Layer_1_27_"></g><g id="Layer_1_28_"></g><g id="Layer_1_29_"></g><g id="Layer_1_30_"></g>
</svg>
