<?xml version="1.0" encoding="utf-8"?>
<!-- Generator: Adobe Illustrator 16.0.0, SVG Export Plug-In . SVG Version: 6.00 Build 0)  -->
<!DOCTYPE svg PUBLIC "-//W3C//DTD SVG 1.1//EN" "http://www.w3.org/Graphics/SVG/1.1/DTD/svg11.dtd" [
	<!ENTITY ns_extend "http://ns.adobe.com/Extensibility/1.0/">
	<!ENTITY ns_ai "http://ns.adobe.com/AdobeIllustrator/10.0/">
	<!ENTITY ns_graphs "http://ns.adobe.com/Graphs/1.0/">
	<!ENTITY ns_vars "http://ns.adobe.com/Variables/1.0/">
	<!ENTITY ns_imrep "http://ns.adobe.com/ImageReplacement/1.0/">
	<!ENTITY ns_sfw "http://ns.adobe.com/SaveForWeb/1.0/">
	<!ENTITY ns_custom "http://ns.adobe.com/GenericCustomNamespace/1.0/">
	<!ENTITY ns_adobe_xpath "http://ns.adobe.com/XPath/1.0/">
]>
<svg version="1.1" xmlns:x="&ns_extend;" xmlns:i="&ns_ai;" xmlns:graph="&ns_graphs;"
	 xmlns="http://www.w3.org/2000/svg" xmlns:xlink="http://www.w3.org/1999/xlink" x="0px" y="0px" width="60px" height="60px"
	 viewBox="0 0 60 60" enable-background="new 0 0 60 60" xml:space="preserve">
<g id="Layer_1">
</g>
<g id="Layer_1_1_">
</g>
<g id="Layer_1_2_">
</g>
<g id="Layer_1_3_">
</g>
<g id="Layer_1_4_">
</g>
<g id="Layer_1_5_">
	<rect fill-rule="evenodd" clip-rule="evenodd" fill="none" width="60" height="60"/>
	<g>
		<path fill-rule="evenodd" clip-rule="evenodd" fill="#FFFFFF" d="M39.75,45C36.028,45,33,41.972,33,38.25s3.028-6.75,6.75-6.75
			c3.723,0,6.75,3.028,6.75,6.75S43.473,45,39.75,45L39.75,45z M24.768,13.5h-9.785C13.336,13.51,12,14.852,12,16.5v21
			c0,1.654,1.345,3,3,3h16.82c0.983,3.457,4.162,6,7.93,6c4.549,0,8.25-3.701,8.25-8.25c0-2.556-1.169-4.845-3-6.358V19.5
			c0-1.654-1.345-3-3-3H28.061l-2.78-2.779C25.144,13.583,24.96,13.505,24.768,13.5L24.768,13.5z M15,39h16.538
			c-0.022-0.247-0.038-0.497-0.038-0.75c0-4.549,3.701-8.25,8.25-8.25c1.351,0,2.623,0.333,3.75,0.91V19.5
			c0-0.827-0.673-1.5-1.5-1.5H27.75c-0.199,0-0.39-0.08-0.53-0.221L24.439,15H15c-0.827,0-1.5,0.673-1.5,1.5v21
			C13.5,38.327,14.173,39,15,39z"/>
		<path fill-rule="evenodd" clip-rule="evenodd" fill="#FFFFFF" d="M42.75,37.5H40.5v-2.25c0-0.415-0.335-0.75-0.75-0.75
			S39,34.835,39,35.25v2.25h-2.25c-0.415,0-0.75,0.335-0.75,0.75S36.335,39,36.75,39H39v2.25c0,0.415,0.335,0.75,0.75,0.75
			s0.75-0.335,0.75-0.75V39h2.25c0.414,0,0.75-0.335,0.75-0.75S43.164,37.5,42.75,37.5z"/>
	</g>
</g>
<g id="Layer_1_6_">
</g>
<g id="Layer_1_7_">
</g>
<g id="Layer_1_8_">
</g>
<g id="Layer_1_9_">
</g>
<g id="Layer_1_10_">
</g>
<g id="Layer_1_11_">
</g>
<g id="Layer_1_12_">
</g>
<g id="Layer_1_13_">
</g>
<g id="Layer_1_14_">
</g>
<g id="Layer_1_15_">
</g>
<g id="Layer_1_16_">
</g>
<g id="Layer_1_17_">
</g>
<g id="Layer_1_18_">
</g>
<g id="Layer_1_19_">
</g>
<g id="Layer_1_20_">
</g>
<g id="Layer_1_21_">
</g>
<g id="Layer_1_22_">
</g>
<g id="Layer_1_23_">
</g>
<g id="Layer_1_24_">
</g>
<g id="Layer_1_25_">
</g>
<g id="Layer_1_26_">
</g>
<g id="Layer_1_27_">
</g>
<g id="Layer_1_28_">
</g>
<g id="Layer_1_29_">
</g>
<g id="Layer_1_30_">
</g>
</svg>
