<?xml version="1.0" encoding="utf-8"?>
<!-- Generator: Adobe Illustrator 25.0.0, SVG Export Plug-In . SVG Version: 6.00 Build 0)  -->
<svg version="1.1" id="Layer_1" xmlns="http://www.w3.org/2000/svg" xmlns:xlink="http://www.w3.org/1999/xlink" x="0px" y="0px" viewBox="0 0 50 50" width="50px" height="50px"
	 enable-background="new 0 0 50 50" xml:space="preserve">
		<g>
			<path fill="#855439" d="M34.146,9.348c0.122,0.366-0.041,0.772-0.407,0.935c-0.325,0.122-0.732-0.041-0.894-0.407
				c-0.081-0.244-0.854-0.244-1.504-0.244h-0.488l-1.911-0.081c-0.203,0-0.366-0.081-0.488-0.244
				c-0.122-0.122-0.203-0.244-0.285-0.325l-0.325-0.325l-0.569-0.61C27.113,7.925,26.95,7.762,26.788,7.6l-0.041-0.041
				c-0.081,0-0.122-0.081-0.163-0.122c-0.122-0.122-0.203-0.325-0.203-0.488L26.34,5.12V4.591c0-0.65,0-1.382-0.244-1.504
				l-3.415-1.423c-0.285-0.122-0.813,0.447-1.26,0.894c-0.122,0.122-0.203,0.203-0.366,0.366l-1.382,1.26
				c-0.163,0.163-0.325,0.203-0.528,0.203c-0.285-0.041-0.569-0.041-0.854-0.081c-0.122,0-0.285,0-0.407,0c-0.163,0-0.285,0-0.447,0
				c-0.244,0-0.528,0.041-0.772,0.081l0,0h-0.122c-0.163,0-0.366-0.081-0.488-0.203l-1.382-1.301l-0.366-0.325
				c-0.447-0.488-0.976-1.016-1.26-0.894L9.632,3.047C9.388,3.169,9.388,3.941,9.388,4.551c0,0.203,0,0.366,0,0.528l-0.081,1.87
				c0,0.203-0.081,0.407-0.244,0.528C8.941,7.559,8.819,7.681,8.697,7.803C8.453,8.047,8.21,8.25,7.966,8.535
				C7.803,8.657,7.64,8.86,7.478,9.023C7.437,9.104,7.356,9.185,7.275,9.266C7.112,9.47,6.909,9.551,6.665,9.51L4.876,9.592H4.348
				c-0.61,0-1.382,0-1.504,0.244L1.421,13.25c-0.122,0.244,0.447,0.813,0.894,1.26l0.366,0.325l1.26,1.382
				c0.163,0.163,0.203,0.366,0.203,0.569c-0.041,0.407-0.041,0.772-0.081,1.179c0,0.163,0,0.325,0,0.488
				c0.041,0.285,0.041,0.61,0.081,0.894c0,0.203-0.081,0.366-0.203,0.528L2.64,21.259l-0.325,0.366
				c-0.488,0.447-1.016,0.976-0.894,1.22l1.382,3.415c0.122,0.285,0.894,0.285,1.504,0.285c0.813,0,1.626,0.041,2.398,0.041
				c0.203,0,0.366,0.081,0.488,0.244c0.122,0.122,0.244,0.244,0.366,0.366l0.285,0.325c0.407,0.407,0.772,0.772,1.179,1.138
				c0.163,0.122,0.285,0.325,0.285,0.528l0.041,1.87v0.488c0,0.65,0,1.423,0.244,1.545c0.366,0.122,0.528,0.528,0.366,0.894
				c-0.122,0.366-0.528,0.528-0.894,0.366c-1.098-0.447-1.098-1.748-1.098-2.805v-0.447l-0.041-1.585
				c-0.569-0.488-1.057-0.976-1.545-1.545c-0.691-0.041-1.382-0.041-2.073-0.041c-1.057,0-2.317,0-2.764-1.138L0.12,23.373
				c-0.447-1.098,0.447-1.992,1.22-2.764l0.325-0.325l1.057-1.138c0-0.203-0.041-0.447-0.041-0.61c0-0.203,0-0.407,0-0.569
				c0-0.325,0.041-0.691,0.041-1.016l-1.057-1.138l-0.325-0.325c-0.772-0.772-1.667-1.667-1.179-2.764l1.423-3.415
				C2.03,8.21,3.291,8.21,4.348,8.21h0.488l1.585-0.041C6.868,7.64,7.275,7.234,7.762,6.746l0.203-0.122l0.041-1.585V4.551
				c0-1.057,0-2.317,1.098-2.764l3.415-1.423c1.138-0.447,2.033,0.447,2.764,1.22l0.325,0.325l1.179,1.057l0.61-0.041
				c0.163,0,0.325,0,0.488,0c0.366,0,0.691,0.041,1.098,0.041l1.138-1.057c0.041-0.081,0.203-0.203,0.325-0.325
				c0.732-0.732,1.626-1.667,2.764-1.179l3.415,1.423c1.098,0.447,1.098,1.707,1.098,2.764v0.488l0.041,1.545
				c0.163,0.163,0.325,0.285,0.488,0.447l0,0c0.081,0.122,0.203,0.203,0.325,0.325l0.122,0.122c0.041,0.041,0.122,0.122,0.203,0.203
				c0.081,0.163,0.285,0.325,0.407,0.488l1.585,0.041h0.447C32.398,8.25,33.658,8.25,34.146,9.348L34.146,9.348z M10.201,13.779
				l2.846,5c0.122,0.163,0.285,0.285,0.447,0.325l2.683,0.691l6.22,6.179l1.016-0.976l-6.382-6.382
				c-0.081-0.081-0.203-0.163-0.325-0.163l-2.561-0.65l-2.439-4.268l2.114-2.073l4.228,2.439l0.65,2.561
				c0.041,0.122,0.122,0.203,0.203,0.325l6.342,6.342l1.016-1.016l-6.22-6.22l-0.65-2.642c-0.041-0.203-0.163-0.366-0.325-0.447
				l-5.041-2.846c-0.244-0.163-0.61-0.122-0.854,0.081l-2.846,2.886C10.08,13.128,10.039,13.494,10.201,13.779L10.201,13.779z
				 M36.991,20.974L21.259,36.707l-1.016-1.016l15.732-15.692L36.991,20.974z M18.495,37.276c-0.122-0.203-0.325-0.366-0.61-0.366
				h-4.268c-0.244,0-0.488,0.163-0.61,0.366l-2.155,3.577c-0.122,0.203-0.122,0.488,0,0.732l2.155,3.577
				c0.122,0.203,0.366,0.325,0.61,0.325h4.268c0.285,0,0.488-0.122,0.61-0.325l2.155-3.577c0.163-0.244,0.163-0.528,0-0.732
				L18.495,37.276z M17.478,44.065h-3.455l-1.707-2.846l1.707-2.846h3.455l1.748,2.846L17.478,44.065z M41.463,24.064
				c4.431,0,8.049-3.293,8.537-7.561v-1.951c-0.041-0.407-0.122-0.772-0.203-1.138c-0.081-0.366-0.488-0.61-0.854-0.528
				c-0.122,0.041-0.244,0.122-0.366,0.203l-4.431,4.431l-3.537-1.179l-1.179-3.537l4.472-4.431c0.285-0.285,0.285-0.732,0-1.016
				c-0.122-0.081-0.203-0.163-0.366-0.203c-4.553-1.138-9.228,1.626-10.366,6.22c-0.163,0.691-0.285,1.382-0.244,2.114
				c0,0.569,0.041,1.138,0.163,1.667L17.438,32.804c-0.569-0.122-1.138-0.163-1.667-0.163c-4.756,0-8.578,3.821-8.578,8.578
				c0,4.553,3.537,8.293,8.049,8.537h1.016c4.512-0.244,8.09-3.984,8.09-8.537c0-0.569-0.081-1.138-0.203-1.667l3.74-3.781
				l1.667,1.667c0.285,0.285,0.732,0.285,1.016,0l0.325-0.366c0.325-0.325,0.854-0.325,1.138,0c0.325,0.325,0.325,0.813,0,1.138
				l-0.325,0.366c-0.285,0.285-0.285,0.732,0,1.016l8.496,8.496c0.976,0.976,2.195,1.545,3.496,1.667h1.22
				c1.26-0.122,2.48-0.65,3.455-1.626c0.894-0.894,1.423-1.992,1.626-3.171V43.13c-0.163-1.179-0.732-2.277-1.585-3.171
				c-0.041,0-0.041,0-0.041,0l-8.537-8.537c-0.285-0.285-0.732-0.285-1.016,0l-0.325,0.366c-0.325,0.285-0.854,0.285-1.138,0
				c-0.325-0.325-0.325-0.854,0-1.138l0,0l0.325-0.366c0.285-0.285,0.285-0.732,0-1.016l-1.626-1.626l3.74-3.74
				C40.365,23.983,40.935,24.064,41.463,24.064L41.463,24.064z M44.309,48.374c-0.528,0-1.057-0.122-1.545-0.285l5.569-5.61
				c0.854,2.277-0.285,4.756-2.52,5.61C45.325,48.252,44.797,48.374,44.309,48.374L44.309,48.374z M36.178,29.796
				c-0.772,0.935-0.65,2.358,0.285,3.13c0.854,0.691,2.033,0.691,2.886,0l8.008,8.008c0.081,0.122,0.163,0.203,0.244,0.285
				l-6.098,6.098c-0.122-0.041-0.203-0.122-0.285-0.244l-8.008-8.008c0.772-0.935,0.65-2.358-0.285-3.13
				c-0.854-0.691-2.033-0.691-2.886,0l-1.138-1.138l6.138-6.138L36.178,29.796z M39.065,22.6l-16.18,16.22
				c-0.203,0.163-0.285,0.407-0.203,0.65c0.976,3.862-1.342,7.765-5.203,8.74c-3.862,1.016-7.765-1.342-8.74-5.163
				c-0.976-3.862,1.342-7.765,5.203-8.781c1.138-0.285,2.358-0.285,3.537,0c0.244,0.081,0.488,0,0.691-0.163l16.22-16.22
				c0.163-0.163,0.244-0.447,0.163-0.691c-0.976-3.781,1.342-7.643,5.122-8.618c0.732-0.203,1.463-0.285,2.195-0.244l-3.74,3.781
				c-0.203,0.203-0.285,0.488-0.203,0.732l1.463,4.309c0.041,0.203,0.244,0.366,0.447,0.447l4.268,1.423
				c0.285,0.081,0.569,0,0.732-0.163l3.781-3.781c0,0.122,0,0.285,0,0.407c0.041,3.943-3.13,7.114-7.073,7.155
				c-0.61,0-1.22-0.081-1.789-0.244C39.512,22.356,39.268,22.438,39.065,22.6L39.065,22.6L39.065,22.6z M44.146,42.845l-1.016,1.016
				l-7.155-7.155l1.016-1.016L44.146,42.845z M16.665,4.388L16.665,4.388L16.665,4.388z M17.844,11.258
				c-0.407,0-0.691-0.325-0.691-0.691c0-0.407,0.285-0.691,0.691-0.691c2.277,0,4.309,0.894,5.813,2.398
				c1.463,1.504,2.398,3.537,2.398,5.813c0,0.366-0.325,0.691-0.691,0.691c-0.407,0-0.691-0.325-0.691-0.691
				c0-1.911-0.772-3.618-1.992-4.838C21.421,12.031,19.714,11.258,17.844,11.258L17.844,11.258z M17.844,24.918
				c0.366,0,0.691,0.285,0.691,0.691c0,0.366-0.325,0.691-0.691,0.691c-2.277,0-4.309-0.935-5.813-2.398
				c-1.504-1.504-2.398-3.537-2.398-5.813c0-0.407,0.285-0.691,0.691-0.691c0.366,0,0.691,0.285,0.691,0.691
				c0,1.87,0.772,3.577,1.992,4.797C14.226,24.145,15.933,24.918,17.844,24.918L17.844,24.918z"/>
		</g>
	
</svg>
