<?xml version="1.0" encoding="utf-8"?>
<!-- Generator: Adobe Illustrator 16.0.0, SVG Export Plug-In . SVG Version: 6.00 Build 0)  -->
<!DOCTYPE svg PUBLIC "-//W3C//DTD SVG 1.1//EN" "http://www.w3.org/Graphics/SVG/1.1/DTD/svg11.dtd">
<svg version="1.1" id="Layer_1" xmlns="http://www.w3.org/2000/svg" xmlns:xlink="http://www.w3.org/1999/xlink" x="0px" y="0px"
	 width="50px" height="50px" viewBox="0 0 50 50" enable-background="new 0 0 50 50" xml:space="preserve">
<g>
	<path fill="#c5b4a3" d="M48.371,7.791h-3.684v12.606h1.488v5.736h-2.762V7.011C43.414,3.188,40.227,0,36.33,0H13.244
		C9.348,0,6.162,3.188,6.162,7.011v18.769H3.754v-6.162h1.557V7.011H1.629v12.607h1.559v6.799h2.975v13.739
		c0,2.691,1.486,4.958,3.682,6.163V50h6.162v-2.833h17.422V50h6.162v-3.611c2.264-1.135,3.824-3.543,3.824-6.234V26.77h3.328v-6.373
		h1.629V7.791z M16.715,1.487h16.43v3.824h-16.43V1.487z M18.486,39.872H9.418v-4.106h9.068V39.872z M40.439,39.872h-9.066v-4.106
		h9.066V39.872z M40.439,26.699c0,0-1.701,5.524-15.793,5.524c-14.096,0-15.51-5.524-15.51-5.524V7.366h31.303V26.699z"/>
</g>
</svg>
