<?xml version="1.0" encoding="utf-8"?>
<!-- Generator: Adobe Illustrator 16.0.0, SVG Export Plug-In . SVG Version: 6.00 Build 0)  -->
<!DOCTYPE svg PUBLIC "-//W3C//DTD SVG 1.1//EN" "http://www.w3.org/Graphics/SVG/1.1/DTD/svg11.dtd">
<svg version="1.1" id="Layer_1" xmlns="http://www.w3.org/2000/svg" xmlns:xlink="http://www.w3.org/1999/xlink" x="0px" y="0px"
	 width="50px" height="50px" viewBox="0 0 50 50" enable-background="new 0 0 50 50" xml:space="preserve">
<g>
	<path fill-rule="evenodd" clip-rule="evenodd" fill="#732F31" d="M5.089,28.568l-0.003,0.001c-0.541,0.28-0.776,0.932-0.54,1.496
		c0.239,0.564,0.868,0.851,1.452,0.658l16.39-5.455l-3.062,5.005c-0.225,0.364-0.176,0.833,0.112,1.146
		c0.292,0.311,0.754,0.391,1.133,0.196l3.211-1.672c0.093-0.047,0.181-0.111,0.25-0.187l9.523-9.945l11.752-6.132
		c4.451-2.4,3.936-4.245,3.672-4.753c-0.204-0.394-0.662-0.921-1.676-1.203c-0.471-0.126-1.005-0.191-1.625-0.194h-0.097
		c-0.734,0.003-1.577,0.093-2.544,0.267c-0.609,0.109-0.945,0.098-1.302,0.089c-1.26-0.033-2.114,0.05-6.348,2.25L12.213,22.178
		l-8.985-4.665c-0.336-0.176-0.742-0.176-1.077,0.003L0.63,18.301c-0.309,0.161-0.532,0.458-0.604,0.799
		C0.012,19.174,0,19.25,0,19.323v0.038c0.006,0.259,0.094,0.511,0.261,0.717l6.235,7.768L5.089,28.568z"/>
	<path fill-rule="evenodd" clip-rule="evenodd" fill="#732F31" d="M47.763,38.005H3.895c-1.232,0-2.234,1.002-2.234,2.234
		c0,1.232,1.002,2.233,2.234,2.233h43.868c1.235,0,2.237-1,2.237-2.233C50,39.007,48.998,38.005,47.763,38.005z"/>
</g>
</svg>
