<?xml version="1.0" encoding="utf-8"?>
<!-- Generator: Adobe Illustrator 16.0.0, SVG Export Plug-In . SVG Version: 6.00 Build 0)  -->
<!DOCTYPE svg PUBLIC "-//W3C//DTD SVG 1.1//EN" "http://www.w3.org/Graphics/SVG/1.1/DTD/svg11.dtd">
<svg version="1.1" id="Layer_1" xmlns="http://www.w3.org/2000/svg" xmlns:xlink="http://www.w3.org/1999/xlink" x="0px" y="0px"
	 width="50px" height="50px" viewBox="0 0 50 50" enable-background="new 0 0 50 50" xml:space="preserve">
<g>
	<path fill-rule="evenodd" clip-rule="evenodd" fill="#E6E0D6" d="M1.542,0h46.917C49.305,0,50,0.694,50,1.541v46.918
		C50,49.306,49.305,50,48.459,50H1.542C0.695,50,0,49.306,0,48.459V1.541C0,0.694,0.695,0,1.542,0L1.542,0z"/>
	<g>
		<path fill="none" stroke="#855439" stroke-width="1.2797" stroke-miterlimit="10" d="M15.749,30.563v8.102h18.5v-8.707
			 M34.249,21.523v-5.259l-18.5-4.929v10.52"/>
		<path fill-rule="evenodd" clip-rule="evenodd" fill="#FFFFFF" stroke="#855439" stroke-width="1.2797" stroke-miterlimit="10" d="
			M15.749,12.666c0.756,0,1.36-0.605,1.36-1.33c0-0.756-0.604-1.36-1.36-1.36c-0.725,0-1.33,0.604-1.33,1.36
			C14.419,12.061,15.024,12.666,15.749,12.666L15.749,12.666z"/>
		<path fill-rule="evenodd" clip-rule="evenodd" fill="#FFFFFF" stroke="#855439" stroke-width="1.2797" stroke-miterlimit="10" d="
			M34.249,17.835c0.728,0,1.331-0.604,1.331-1.329c0-0.756-0.604-1.36-1.331-1.36c-0.755,0-1.36,0.604-1.36,1.36
			C32.889,17.23,33.494,17.835,34.249,17.835L34.249,17.835z"/>
		<path fill-rule="evenodd" clip-rule="evenodd" fill="#FFFFFF" stroke="#855439" stroke-width="1.2797" stroke-miterlimit="10" d="
			M34.249,40.024c0.728,0,1.331-0.604,1.331-1.36c0-0.727-0.604-1.33-1.331-1.33c-0.755,0-1.36,0.604-1.36,1.33
			C32.889,39.42,33.494,40.024,34.249,40.024L34.249,40.024z"/>
		<path fill-rule="evenodd" clip-rule="evenodd" fill="#FFFFFF" stroke="#855439" stroke-width="1.2797" stroke-miterlimit="10" d="
			M15.749,40.024c0.756,0,1.36-0.604,1.36-1.36c0-0.727-0.604-1.33-1.36-1.33c-0.725,0-1.33,0.604-1.33,1.33
			C14.419,39.42,15.024,40.024,15.749,40.024L15.749,40.024z"/>
		<path fill-rule="evenodd" clip-rule="evenodd" fill="#855439" d="M38.755,20.799l-27.48-0.122c-0.483,0-0.877,0.393-0.877,0.877
			l-0.029,6.832c0,1.451,1.179,2.63,2.6,2.63l24.002,0.091c0.694,0,1.361-0.272,1.844-0.756c0.514-0.514,0.786-1.148,0.786-1.844
			l0.031-6.862C39.632,21.161,39.237,20.799,38.755,20.799L38.755,20.799z M37.848,28.477c0,0.484-0.393,0.877-0.877,0.877
			l-23.972-0.091c-0.484,0-0.877-0.394-0.877-0.877l0.03-5.956h2.962l-0.029,2.329c0,0.482,0.393,0.877,0.877,0.877
			c0.242,0,0.453-0.092,0.604-0.273c0.151-0.151,0.273-0.362,0.273-0.604V22.43l2.78,0.031v2.298c0,0.482,0.393,0.877,0.846,0.877
			c0.242,0,0.484-0.092,0.635-0.243c0.151-0.151,0.242-0.362,0.242-0.604l0.031-2.328h2.781l-0.031,2.328
			c0,0.482,0.394,0.876,0.877,0.876c0.242,0,0.454-0.09,0.605-0.272c0.181-0.151,0.272-0.362,0.272-0.604v-2.328l2.78,0.03v2.298
			c0,0.482,0.394,0.876,0.877,0.876c0.213,0,0.454-0.09,0.605-0.242c0.151-0.151,0.242-0.362,0.242-0.604l0.029-2.327h2.781
			l-0.029,2.327c0,0.483,0.393,0.877,0.877,0.877c0.241,0,0.453-0.09,0.604-0.242c0.182-0.182,0.273-0.393,0.273-0.635v-2.297h2.962
			L37.848,28.477z"/>
	</g>
</g>
</svg>
