<?xml version="1.0" encoding="utf-8"?>
<!-- Generator: Adobe Illustrator 16.0.0, SVG Export Plug-In . SVG Version: 6.00 Build 0)  -->
<!DOCTYPE svg PUBLIC "-//W3C//DTD SVG 1.1//EN" "http://www.w3.org/Graphics/SVG/1.1/DTD/svg11.dtd" [
	<!ENTITY ns_extend "http://ns.adobe.com/Extensibility/1.0/">
	<!ENTITY ns_ai "http://ns.adobe.com/AdobeIllustrator/10.0/">
	<!ENTITY ns_graphs "http://ns.adobe.com/Graphs/1.0/">
	<!ENTITY ns_vars "http://ns.adobe.com/Variables/1.0/">
	<!ENTITY ns_imrep "http://ns.adobe.com/ImageReplacement/1.0/">
	<!ENTITY ns_sfw "http://ns.adobe.com/SaveForWeb/1.0/">
	<!ENTITY ns_custom "http://ns.adobe.com/GenericCustomNamespace/1.0/">
	<!ENTITY ns_adobe_xpath "http://ns.adobe.com/XPath/1.0/">
]>
<svg version="1.1" xmlns:x="&ns_extend;" xmlns:i="&ns_ai;" xmlns:graph="&ns_graphs;"
	 xmlns="http://www.w3.org/2000/svg" xmlns:xlink="http://www.w3.org/1999/xlink" x="0px" y="0px" width="60px" height="60px"
	 viewBox="0 0 60 60" enable-background="new 0 0 60 60" xml:space="preserve">
<g id="Layer_1">
</g>
<g id="Layer_1_1_">
</g>
<g id="Layer_1_2_">
</g>
<g id="Layer_1_3_">
</g>
<g id="Layer_1_4_">
</g>
<g id="Layer_1_5_">
	<rect fill-rule="evenodd" clip-rule="evenodd" fill="none" width="60" height="60"/>
	<g>
		<path fill-rule="evenodd" clip-rule="evenodd" fill="#FFFFFF" d="M30,27.61c2.309,0,4.186-1.877,4.186-4.188
			c0-2.304-1.877-4.181-4.186-4.181s-4.186,1.877-4.186,4.181C25.814,25.733,27.691,27.61,30,27.61L30,27.61z M30,20.434
			c1.649,0,2.989,1.344,2.989,2.988c0,1.65-1.34,2.991-2.989,2.991s-2.988-1.341-2.988-2.991C27.012,21.777,28.351,20.434,30,20.434
			z"/>
		<path fill-rule="evenodd" clip-rule="evenodd" fill="#FFFFFF" d="M29.895,44.8l9.171-13.247
			c3.438-4.587,2.943-12.122-1.065-16.127c-2.166-2.166-5.044-3.359-8.106-3.359c-3.061,0-5.942,1.193-8.104,3.356
			c-4.009,4.008-4.507,11.543-1.081,16.113L29.895,44.8L29.895,44.8z M22.634,16.27c1.94-1.938,4.518-3.005,7.261-3.005
			c2.741,0,5.321,1.066,7.26,3.005c3.616,3.616,4.064,10.422,0.94,14.585l-8.2,11.845l-8.214-11.861
			C18.573,26.691,19.016,19.886,22.634,16.27z"/>
		<path fill-rule="evenodd" clip-rule="evenodd" fill="#FFFFFF" d="M37.245,37.775c-0.33-0.04-0.627,0.197-0.665,0.522
			c-0.039,0.331,0.194,0.626,0.525,0.666c6.284,0.738,9.632,2.732,9.632,3.888c0,1.622-6.366,3.884-16.737,3.884
			s-16.737-2.262-16.737-3.884c0-1.155,3.348-3.149,9.633-3.888c0.33-0.04,0.563-0.338,0.525-0.666
			c-0.041-0.325-0.336-0.563-0.666-0.522c-6.293,0.74-10.688,2.829-10.688,5.076c0,2.524,6.158,5.082,17.933,5.082
			s17.933-2.558,17.933-5.082C47.933,40.604,43.539,38.516,37.245,37.775z"/>
	</g>
</g>
<g id="Layer_1_6_">
</g>
<g id="Layer_1_7_">
</g>
<g id="Layer_1_8_">
</g>
<g id="Layer_1_9_">
</g>
<g id="Layer_1_10_">
</g>
<g id="Layer_1_11_">
</g>
<g id="Layer_1_12_">
</g>
<g id="Layer_1_13_">
</g>
<g id="Layer_1_14_">
</g>
<g id="Layer_1_15_">
</g>
<g id="Layer_1_16_">
</g>
<g id="Layer_1_17_">
</g>
<g id="Layer_1_18_">
</g>
<g id="Layer_1_19_">
</g>
<g id="Layer_1_20_">
</g>
<g id="Layer_1_21_">
</g>
<g id="Layer_1_22_">
</g>
<g id="Layer_1_23_">
</g>
<g id="Layer_1_24_">
</g>
<g id="Layer_1_25_">
</g>
<g id="Layer_1_26_">
</g>
<g id="Layer_1_27_">
</g>
<g id="Layer_1_28_">
</g>
<g id="Layer_1_29_">
</g>
<g id="Layer_1_30_">
</g>
</svg>
