<?xml version="1.0" encoding="utf-8"?>
<!-- Generator: Adobe Illustrator 16.0.0, SVG Export Plug-In . SVG Version: 6.00 Build 0)  -->
<!DOCTYPE svg PUBLIC "-//W3C//DTD SVG 1.1//EN" "http://www.w3.org/Graphics/SVG/1.1/DTD/svg11.dtd" [
	<!ENTITY ns_extend "http://ns.adobe.com/Extensibility/1.0/">
	<!ENTITY ns_ai "http://ns.adobe.com/AdobeIllustrator/10.0/">
	<!ENTITY ns_graphs "http://ns.adobe.com/Graphs/1.0/">
	<!ENTITY ns_vars "http://ns.adobe.com/Variables/1.0/">
	<!ENTITY ns_imrep "http://ns.adobe.com/ImageReplacement/1.0/">
	<!ENTITY ns_sfw "http://ns.adobe.com/SaveForWeb/1.0/">
	<!ENTITY ns_custom "http://ns.adobe.com/GenericCustomNamespace/1.0/">
	<!ENTITY ns_adobe_xpath "http://ns.adobe.com/XPath/1.0/">
]>
<svg version="1.1" xmlns:x="&ns_extend;" xmlns:i="&ns_ai;" xmlns:graph="&ns_graphs;"
	 xmlns="http://www.w3.org/2000/svg" xmlns:xlink="http://www.w3.org/1999/xlink" x="0px" y="0px" width="50px" height="50px"
	 viewBox="0 0 50 50" enable-background="new 0 0 50 50" xml:space="preserve">
<g id="Layer_1"></g><g id="Layer_1_1_"></g><g id="Layer_1_2_"></g><g id="Layer_1_3_"></g><g id="Layer_1_4_"></g><g id="Layer_1_5_"><g>
		<path fill-rule="evenodd" clip-rule="evenodd" fill="#855439" d="M25,23.009c1.924,0,3.488-1.564,3.488-3.49
			c0-1.92-1.564-3.484-3.488-3.484s-3.488,1.564-3.488,3.484C21.512,21.444,23.076,23.009,25,23.009L25,23.009z M25,17.028
			c1.374,0,2.491,1.119,2.491,2.49c0,1.375-1.117,2.492-2.491,2.492s-2.49-1.117-2.49-2.492C22.51,18.147,23.626,17.028,25,17.028z"
			/>
		<path fill-rule="evenodd" clip-rule="evenodd" fill="#855439" d="M24.912,37.333l7.643-11.039
			c2.865-3.822,2.452-10.102-0.888-13.439c-1.805-1.805-4.203-2.799-6.755-2.799c-2.551,0-4.952,0.994-6.754,2.797
			c-3.341,3.34-3.756,9.619-0.9,13.428L24.912,37.333L24.912,37.333z M18.861,13.558c1.617-1.615,3.765-2.504,6.051-2.504
			c2.284,0,4.435,0.889,6.05,2.504c3.014,3.014,3.387,8.686,0.783,12.154l-6.833,9.871l-6.845-9.885
			C15.478,22.243,15.847,16.571,18.861,13.558z"/>
		<path fill-rule="evenodd" clip-rule="evenodd" fill="#855439" d="M31.037,31.479c-0.274-0.033-0.522,0.164-0.554,0.436
			c-0.032,0.275,0.162,0.521,0.438,0.555c5.236,0.615,8.026,2.277,8.026,3.24c0,1.352-5.305,3.236-13.947,3.236
			s-13.947-1.885-13.947-3.236c0-0.963,2.79-2.625,8.027-3.24c0.274-0.033,0.469-0.281,0.438-0.555
			c-0.034-0.271-0.28-0.469-0.555-0.436c-5.244,0.617-8.907,2.357-8.907,4.23c0,2.104,5.132,4.234,14.944,4.234
			s14.944-2.131,14.944-4.234C39.944,33.837,36.282,32.097,31.037,31.479z"/>
	</g>
</g>
<g id="Layer_1_6_"></g><g id="Layer_1_7_"></g><g id="Layer_1_8_"></g><g id="Layer_1_9_"></g><g id="Layer_1_10_"></g><g id="Layer_1_11_"></g><g id="Layer_1_12_"></g><g id="Layer_1_13_"></g><g id="Layer_1_14_"></g><g id="Layer_1_15_"></g><g id="Layer_1_16_"></g><g id="Layer_1_17_"></g><g id="Layer_1_18_"></g><g id="Layer_1_19_"></g><g id="Layer_1_20_">
</g><g id="Layer_1_21_"></g><g id="Layer_1_22_"></g><g id="Layer_1_23_"></g><g id="Layer_1_24_"></g><g id="Layer_1_25_"></g><g id="Layer_1_26_"></g><g id="Layer_1_27_"></g><g id="Layer_1_28_"></g><g id="Layer_1_29_"></g><g id="Layer_1_30_"></g>
</svg>
