<?xml version="1.0" encoding="utf-8"?>
<!-- Generator: Adobe Illustrator 16.0.0, SVG Export Plug-In . SVG Version: 6.00 Build 0)  -->
<!DOCTYPE svg PUBLIC "-//W3C//DTD SVG 1.1//EN" "http://www.w3.org/Graphics/SVG/1.1/DTD/svg11.dtd" [
	<!ENTITY ns_extend "http://ns.adobe.com/Extensibility/1.0/">
	<!ENTITY ns_ai "http://ns.adobe.com/AdobeIllustrator/10.0/">
	<!ENTITY ns_graphs "http://ns.adobe.com/Graphs/1.0/">
	<!ENTITY ns_vars "http://ns.adobe.com/Variables/1.0/">
	<!ENTITY ns_imrep "http://ns.adobe.com/ImageReplacement/1.0/">
	<!ENTITY ns_sfw "http://ns.adobe.com/SaveForWeb/1.0/">
	<!ENTITY ns_custom "http://ns.adobe.com/GenericCustomNamespace/1.0/">
	<!ENTITY ns_adobe_xpath "http://ns.adobe.com/XPath/1.0/">
]>
<svg version="1.1" xmlns:x="&ns_extend;" xmlns:i="&ns_ai;" xmlns:graph="&ns_graphs;"
	 xmlns="http://www.w3.org/2000/svg" xmlns:xlink="http://www.w3.org/1999/xlink" x="0px" y="0px" width="50px" height="50px"
	 viewBox="0 0 50 50" enable-background="new 0 0 50 50" xml:space="preserve">
<g id="Layer_1"></g><g id="Layer_1_1_"></g><g id="Layer_1_2_"></g><g id="Layer_1_3_"></g><g id="Layer_1_4_"></g><g id="Layer_1_5_">	<g>
		<g>
			<path fill-rule="evenodd" clip-rule="evenodd" fill="#855439" d="M13.969,25.966c-0.009-0.024-0.021-0.047-0.036-0.068
				c-0.014-0.021-0.03-0.043-0.049-0.062c-0.019-0.018-0.039-0.034-0.062-0.049c-0.021-0.015-0.045-0.027-0.069-0.037
				c-0.024-0.011-0.05-0.019-0.075-0.023c-0.052-0.011-0.104-0.01-0.155,0c-0.025,0.005-0.051,0.013-0.075,0.022
				c-0.024,0.011-0.048,0.023-0.07,0.038c-0.021,0.015-0.042,0.03-0.06,0.049c-0.019,0.019-0.035,0.038-0.05,0.06
				c-0.014,0.022-0.027,0.046-0.037,0.07s-0.018,0.05-0.022,0.075c-0.006,0.025-0.008,0.052-0.008,0.078
				c0,0.025,0.002,0.052,0.008,0.078c0.005,0.025,0.013,0.051,0.022,0.075s0.023,0.047,0.037,0.069
				c0.015,0.021,0.031,0.041,0.05,0.06s0.039,0.036,0.061,0.051c0.021,0.014,0.046,0.026,0.069,0.036
				c0.024,0.011,0.05,0.018,0.075,0.023c0.025,0.005,0.052,0.007,0.077,0.007c0.026,0,0.053-0.002,0.078-0.007
				c0.025-0.006,0.051-0.013,0.075-0.023c0.024-0.01,0.047-0.022,0.068-0.036c0.022-0.015,0.043-0.032,0.063-0.051
				c0.019-0.019,0.035-0.039,0.049-0.061c0.015-0.021,0.027-0.045,0.036-0.068c0.011-0.024,0.019-0.05,0.023-0.075
				C13.999,26.171,14,26.145,14,26.119c0-0.026-0.002-0.053-0.008-0.078C13.988,26.016,13.98,25.99,13.969,25.966z"/>
		</g>
		<g>
			<path fill-rule="evenodd" clip-rule="evenodd" fill="#855439" d="M39.545,23.871h-1.31c-0.221,0-0.4,0.18-0.4,0.4
				s0.18,0.4,0.4,0.4h1.31c0.221,0,0.399-0.18,0.399-0.4S39.766,23.871,39.545,23.871z"/>
		</g>
		<g>
			<path fill-rule="evenodd" clip-rule="evenodd" fill="#855439" d="M38.997,30.266c0.113,0,0.22-0.048,0.296-0.131
				c0.148-0.163,0.137-0.417-0.026-0.565l-1.705-1.553c-0.163-0.148-0.416-0.137-0.565,0.026c-0.148,0.163-0.137,0.417,0.026,0.565
				l1.706,1.553C38.801,30.229,38.897,30.266,38.997,30.266z"/>
		</g>
		<g>
			<path fill-rule="evenodd" clip-rule="evenodd" fill="#855439" d="M39.266,18.974c0.163-0.149,0.175-0.402,0.026-0.565
				s-0.401-0.175-0.564-0.026l-1.706,1.553c-0.163,0.148-0.175,0.402-0.026,0.565c0.077,0.084,0.183,0.131,0.297,0.131
				c0.1,0,0.194-0.037,0.269-0.104L39.266,18.974z"/>
		</g>
		<g>
			<path fill-rule="evenodd" clip-rule="evenodd" fill="#855439" d="M20.325,19.512c-0.021-0.001-0.042,0-0.063,0.002l-0.01,0.001
				h-5.44c-2.622,0-4.756,2.134-4.756,4.757c0,2.447,1.87,4.504,4.305,4.734l0.135,0.013l1.671,6.868
				c0.196,0.806,0.911,1.369,1.741,1.369h1.137c0.554,0,1.066-0.25,1.409-0.686c0.341-0.434,0.463-0.994,0.332-1.53l-1.462-6.012
				h0.928l0.01,0.001c0.021,0.002,0.042,0.003,0.063,0.002c1.458-0.081,3.388,0.236,4.771,0.63c3.269,0.93,5.943,2.769,7.661,5.724
				c0.149,0.257,0.414,0.414,0.71,0.414c0.075,0,0.149-0.011,0.223-0.03c0.368-0.099,0.613-0.419,0.613-0.8v-7.804l0.168-0.02
				c1.396-0.168,2.453-1.358,2.453-2.766v-0.217c0-1.407-1.058-2.599-2.453-2.766l-0.168-0.02v-7.804c0-0.381-0.245-0.701-0.613-0.8
				c-0.072-0.02-0.146-0.03-0.221-0.03h-0.007c-0.295,0-0.557,0.159-0.705,0.414c-1.718,2.955-4.393,4.794-7.661,5.724
				C23.717,19.273,21.778,19.595,20.325,19.512L20.325,19.512z M19.825,36.076c-0.189,0.24-0.474,0.379-0.78,0.379h-1.137
				c-0.459,0-0.855-0.312-0.964-0.758l-1.622-6.669H18.5l0.511,2.1h-0.526c-0.221,0-0.399,0.179-0.399,0.399
				c0,0.222,0.179,0.4,0.399,0.4h0.721l0.386,1.587h-0.429c-0.221,0-0.399,0.179-0.399,0.4c0,0.221,0.179,0.399,0.399,0.399h0.624
				l0.222,0.914C20.081,35.525,20.013,35.836,19.825,36.076L19.825,36.076z M18.835,28.228c-0.007-0.001-0.015-0.001-0.021-0.001
				H14.82c-0.008,0-0.017,0.001-0.025,0.001c-2.174-0.01-3.938-1.781-3.938-3.956c0-2.182,1.774-3.956,3.956-3.956h5.09v5.403
				h-3.865c-0.221,0-0.4,0.179-0.4,0.4c0,0.221,0.18,0.399,0.4,0.399h3.865v1.709H18.835L18.835,28.228z M36.124,24.163v0.217
				c0,0.943-0.668,1.76-1.592,1.946l-0.229,0.047V22.17l0.229,0.047C35.456,22.402,36.124,23.219,36.124,24.163L36.124,24.163z
				 M20.89,20.317c1.462-0.023,2.98-0.259,4.385-0.654c3.243-0.914,6.042-2.764,7.876-5.614l0.352-0.548v21.541l-0.352-0.548
				c-1.834-2.851-4.633-4.7-7.876-5.614c-1.404-0.396-2.923-0.631-4.385-0.654l-0.188-0.004V20.32L20.89,20.317z"/>
		</g>
	</g>
</g>
<g id="Layer_1_6_"></g><g id="Layer_1_7_"></g><g id="Layer_1_8_"></g><g id="Layer_1_9_"></g><g id="Layer_1_10_"></g><g id="Layer_1_11_"></g><g id="Layer_1_12_"></g><g id="Layer_1_13_"></g><g id="Layer_1_14_"></g><g id="Layer_1_15_"></g><g id="Layer_1_16_"></g><g id="Layer_1_17_"></g><g id="Layer_1_18_"></g><g id="Layer_1_19_"></g><g id="Layer_1_20_">
</g><g id="Layer_1_21_"></g><g id="Layer_1_22_"></g><g id="Layer_1_23_"></g><g id="Layer_1_24_"></g><g id="Layer_1_25_"></g><g id="Layer_1_26_"></g><g id="Layer_1_27_"></g><g id="Layer_1_28_"></g><g id="Layer_1_29_"></g><g id="Layer_1_30_">
</g>
</svg>
