<?xml version="1.0" encoding="utf-8"?>
<!-- Generator: Adobe Illustrator 16.0.0, SVG Export Plug-In . SVG Version: 6.00 Build 0)  -->
<!DOCTYPE svg PUBLIC "-//W3C//DTD SVG 1.1//EN" "http://www.w3.org/Graphics/SVG/1.1/DTD/svg11.dtd" [
	<!ENTITY ns_extend "http://ns.adobe.com/Extensibility/1.0/">
	<!ENTITY ns_ai "http://ns.adobe.com/AdobeIllustrator/10.0/">
	<!ENTITY ns_graphs "http://ns.adobe.com/Graphs/1.0/">
	<!ENTITY ns_vars "http://ns.adobe.com/Variables/1.0/">
	<!ENTITY ns_imrep "http://ns.adobe.com/ImageReplacement/1.0/">
	<!ENTITY ns_sfw "http://ns.adobe.com/SaveForWeb/1.0/">
	<!ENTITY ns_custom "http://ns.adobe.com/GenericCustomNamespace/1.0/">
	<!ENTITY ns_adobe_xpath "http://ns.adobe.com/XPath/1.0/">
]>
<svg version="1.1" xmlns:x="&ns_extend;" xmlns:i="&ns_ai;" xmlns:graph="&ns_graphs;"
	 xmlns="http://www.w3.org/2000/svg" xmlns:xlink="http://www.w3.org/1999/xlink" x="0px" y="0px" width="60px" height="60px"
	 viewBox="0 0 60 60" enable-background="new 0 0 60 60" xml:space="preserve">
<g id="Layer_1">
</g>
<g id="Layer_1_1_">
</g>
<g id="Layer_1_2_">
</g>
<g id="Layer_1_3_">
</g>
<g id="Layer_1_4_">
</g>
<g id="Layer_1_5_">
	<rect fill-rule="evenodd" clip-rule="evenodd" fill="none" width="60" height="60"/>
	<rect fill-rule="evenodd" clip-rule="evenodd" fill="none" width="60" height="60"/>
	<g>
		<g>
			<path fill-rule="evenodd" clip-rule="evenodd" fill="#FFFFFF" d="M16.763,31.159c-0.011-0.029-0.026-0.057-0.043-0.082
				c-0.017-0.026-0.036-0.052-0.059-0.074c-0.022-0.021-0.047-0.041-0.074-0.059c-0.026-0.018-0.054-0.032-0.083-0.044
				c-0.029-0.014-0.06-0.022-0.09-0.028c-0.063-0.013-0.125-0.012-0.187,0c-0.03,0.006-0.061,0.015-0.09,0.026
				c-0.029,0.014-0.057,0.028-0.084,0.046c-0.025,0.018-0.05,0.036-0.071,0.059c-0.022,0.022-0.042,0.046-0.06,0.071
				c-0.017,0.027-0.033,0.056-0.045,0.085s-0.021,0.06-0.027,0.09c-0.007,0.03-0.009,0.063-0.009,0.094
				c0,0.03,0.002,0.063,0.009,0.094c0.006,0.03,0.015,0.062,0.027,0.091s0.028,0.056,0.045,0.083
				c0.018,0.025,0.037,0.049,0.06,0.071s0.047,0.043,0.073,0.061c0.026,0.017,0.055,0.032,0.083,0.044
				c0.029,0.013,0.06,0.021,0.09,0.028c0.03,0.006,0.062,0.008,0.093,0.008c0.031,0,0.063-0.002,0.094-0.008
				c0.03-0.008,0.061-0.016,0.09-0.028c0.029-0.012,0.057-0.027,0.082-0.044c0.027-0.018,0.052-0.038,0.075-0.061
				c0.022-0.022,0.042-0.047,0.059-0.072c0.018-0.026,0.033-0.055,0.043-0.082c0.013-0.029,0.022-0.061,0.028-0.091
				c0.007-0.031,0.01-0.063,0.01-0.094c0-0.031-0.002-0.063-0.01-0.094C16.785,31.219,16.775,31.188,16.763,31.159z"/>
		</g>
		<g>
			<path fill-rule="evenodd" clip-rule="evenodd" fill="#FFFFFF" d="M47.454,28.646h-1.572c-0.265,0-0.48,0.216-0.48,0.48
				s0.216,0.48,0.48,0.48h1.572c0.265,0,0.479-0.216,0.479-0.48S47.719,28.646,47.454,28.646z"/>
		</g>
		<g>
			<path fill-rule="evenodd" clip-rule="evenodd" fill="#FFFFFF" d="M46.795,36.318c0.136,0,0.264-0.057,0.355-0.156
				c0.178-0.196,0.164-0.501-0.032-0.679l-2.046-1.863c-0.196-0.179-0.499-0.164-0.679,0.031c-0.178,0.196-0.164,0.501,0.032,0.679
				l2.047,1.863C46.561,36.274,46.676,36.318,46.795,36.318z"/>
		</g>
		<g>
			<path fill-rule="evenodd" clip-rule="evenodd" fill="#FFFFFF" d="M47.119,22.769c0.196-0.18,0.21-0.483,0.032-0.679
				s-0.481-0.21-0.677-0.031l-2.047,1.863c-0.196,0.178-0.209,0.482-0.032,0.678c0.093,0.102,0.219,0.157,0.356,0.157
				c0.12,0,0.233-0.044,0.322-0.125L47.119,22.769z"/>
		</g>
		<g>
			<path fill-rule="evenodd" clip-rule="evenodd" fill="#FFFFFF" d="M24.389,23.414c-0.024-0.001-0.05,0-0.075,0.002l-0.012,0.002
				h-6.528c-3.146,0-5.707,2.561-5.707,5.708c0,2.937,2.244,5.404,5.166,5.681l0.162,0.016l2.005,8.242
				c0.235,0.967,1.093,1.643,2.089,1.643h1.364c0.664,0,1.279-0.3,1.691-0.822c0.409-0.521,0.555-1.193,0.398-1.837l-1.754-7.214
				h1.113l0.012,0.001c0.024,0.003,0.05,0.004,0.076,0.003c1.75-0.098,4.065,0.283,5.726,0.756c3.922,1.115,7.132,3.322,9.193,6.868
				c0.18,0.308,0.497,0.497,0.852,0.497c0.09,0,0.179-0.014,0.267-0.037c0.442-0.118,0.736-0.502,0.736-0.959v-9.365l0.201-0.023
				c1.675-0.201,2.944-1.63,2.944-3.318v-0.26c0-1.689-1.269-3.119-2.944-3.319l-0.201-0.023v-9.364c0-0.457-0.294-0.842-0.736-0.96
				c-0.086-0.023-0.174-0.036-0.265-0.036h-0.008c-0.354,0-0.668,0.191-0.846,0.497c-2.061,3.546-5.271,5.753-9.193,6.868
				C28.46,23.128,26.133,23.514,24.389,23.414L24.389,23.414z M23.789,43.291c-0.227,0.289-0.568,0.455-0.936,0.455h-1.364
				c-0.551,0-1.026-0.374-1.157-0.909l-1.946-8.003H22.2l0.613,2.52h-0.632c-0.265,0-0.479,0.215-0.479,0.479
				c0,0.266,0.214,0.48,0.479,0.48h0.865l0.463,1.904h-0.515c-0.265,0-0.479,0.214-0.479,0.48c0,0.265,0.215,0.479,0.479,0.479
				h0.749l0.266,1.097C24.096,42.631,24.015,43.003,23.789,43.291L23.789,43.291z M22.602,33.873
				c-0.008-0.001-0.018-0.001-0.024-0.001h-4.794c-0.009,0-0.02,0.001-0.03,0.001c-2.609-0.012-4.726-2.138-4.726-4.747
				c0-2.618,2.129-4.747,4.747-4.747h6.108v6.483h-4.638c-0.265,0-0.48,0.215-0.48,0.48c0,0.265,0.215,0.479,0.48,0.479h4.638v2.051
				H22.602L22.602,33.873z M43.348,28.996v0.26c0,1.132-0.801,2.111-1.91,2.336l-0.275,0.056v-5.044l0.275,0.057
				C42.546,26.883,43.348,27.862,43.348,28.996L43.348,28.996z M25.068,24.381c1.754-0.028,3.576-0.311,5.262-0.785
				c3.892-1.097,7.25-3.316,9.451-6.737l0.422-0.657v25.85l-0.422-0.658c-2.201-3.42-5.56-5.64-9.451-6.736
				c-1.686-0.475-3.508-0.758-5.262-0.785l-0.225-0.005v-9.481L25.068,24.381z"/>
		</g>
	</g>
</g>
<g id="Layer_1_6_">
</g>
<g id="Layer_1_7_">
</g>
<g id="Layer_1_8_">
</g>
<g id="Layer_1_9_">
</g>
<g id="Layer_1_10_">
</g>
<g id="Layer_1_11_">
</g>
<g id="Layer_1_12_">
</g>
<g id="Layer_1_13_">
</g>
<g id="Layer_1_14_">
</g>
<g id="Layer_1_15_">
</g>
<g id="Layer_1_16_">
</g>
<g id="Layer_1_17_">
</g>
<g id="Layer_1_18_">
</g>
<g id="Layer_1_19_">
</g>
<g id="Layer_1_20_">
</g>
<g id="Layer_1_21_">
</g>
<g id="Layer_1_22_">
</g>
<g id="Layer_1_23_">
</g>
<g id="Layer_1_24_">
</g>
<g id="Layer_1_25_">
</g>
<g id="Layer_1_26_">
</g>
<g id="Layer_1_27_">
</g>
<g id="Layer_1_28_">
</g>
<g id="Layer_1_29_">
</g>
<g id="Layer_1_30_">
</g>
</svg>
