<?xml version="1.0" encoding="utf-8"?>
<!-- Generator: Adobe Illustrator 16.0.0, SVG Export Plug-In . SVG Version: 6.00 Build 0)  -->
<!DOCTYPE svg PUBLIC "-//W3C//DTD SVG 1.1//EN" "http://www.w3.org/Graphics/SVG/1.1/DTD/svg11.dtd" [
	<!ENTITY ns_extend "http://ns.adobe.com/Extensibility/1.0/">
	<!ENTITY ns_ai "http://ns.adobe.com/AdobeIllustrator/10.0/">
	<!ENTITY ns_graphs "http://ns.adobe.com/Graphs/1.0/">
	<!ENTITY ns_vars "http://ns.adobe.com/Variables/1.0/">
	<!ENTITY ns_imrep "http://ns.adobe.com/ImageReplacement/1.0/">
	<!ENTITY ns_sfw "http://ns.adobe.com/SaveForWeb/1.0/">
	<!ENTITY ns_custom "http://ns.adobe.com/GenericCustomNamespace/1.0/">
	<!ENTITY ns_adobe_xpath "http://ns.adobe.com/XPath/1.0/">
]>
<svg version="1.1" xmlns:x="&ns_extend;" xmlns:i="&ns_ai;" xmlns:graph="&ns_graphs;"
	 xmlns="http://www.w3.org/2000/svg" xmlns:xlink="http://www.w3.org/1999/xlink" x="0px" y="0px" width="60px" height="60px"
	 viewBox="0 0 60 60" enable-background="new 0 0 60 60" xml:space="preserve">
<g id="Layer_1">
</g>
<g id="Layer_1_1_">
</g>
<g id="Layer_1_2_">
</g>
<g id="Layer_1_3_">
</g>
<g id="Layer_1_4_">
</g>
<g id="Layer_1_5_">
	<g>
		<polygon fill-rule="evenodd" clip-rule="evenodd" fill="#FFFFFF" points="15.44,33.744 30.055,25.129 44.559,33.908 
			29.945,42.523 		"/>
		<path fill="#855439" d="M15.248,33.357l14.587-8.586c0.165-0.082,0.33-0.082,0.467,0l14.478,8.752
			c0.221,0.138,0.275,0.412,0.166,0.604c-0.056,0.083-0.111,0.138-0.193,0.165l-14.587,8.588c-0.138,0.084-0.303,0.084-0.44,0
			L15.22,34.128c-0.22-0.136-0.274-0.411-0.165-0.604C15.109,33.441,15.165,33.385,15.248,33.357L15.248,33.357z M30.055,25.652
			l-13.761,8.092L29.945,42l13.761-8.092L30.055,25.652z"/>
		<path fill="#855439" d="M40.596,31.266c0.222-0.109,0.496-0.027,0.606,0.166c0.109,0.221,0.055,0.469-0.165,0.605l-14.615,8.586
			c-0.221,0.139-0.468,0.057-0.605-0.137c-0.11-0.221-0.056-0.494,0.165-0.605L40.596,31.266z"/>
		<path fill="#855439" d="M36.881,29.01c0.192-0.109,0.468-0.055,0.578,0.164c0.137,0.193,0.055,0.469-0.138,0.58l-14.643,8.613
			c-0.193,0.109-0.468,0.055-0.578-0.164c-0.138-0.193-0.055-0.469,0.138-0.58L36.881,29.01z"/>
		<path fill="#855439" d="M33.33,26.863c0.22-0.11,0.469-0.055,0.605,0.164c0.11,0.221,0.055,0.469-0.164,0.605l-14.615,8.588
			c-0.221,0.136-0.468,0.055-0.605-0.137c-0.11-0.221-0.055-0.496,0.165-0.607L33.33,26.863z"/>
		<path fill="#855439" d="M18.716,32.037c-0.22-0.137-0.275-0.385-0.165-0.605c0.138-0.193,0.385-0.275,0.605-0.166l14.615,8.615
			c0.219,0.111,0.274,0.385,0.164,0.605c-0.137,0.193-0.386,0.275-0.605,0.137L18.716,32.037z"/>
		<path fill="#855439" d="M22.431,29.754c-0.192-0.111-0.274-0.387-0.137-0.58c0.109-0.219,0.385-0.273,0.577-0.164l14.643,8.613
			c0.191,0.111,0.275,0.387,0.137,0.58c-0.109,0.219-0.385,0.273-0.577,0.164L22.431,29.754z"/>
		<path fill="#855439" d="M25.981,27.633c-0.221-0.137-0.275-0.385-0.165-0.605c0.138-0.219,0.385-0.274,0.605-0.164l14.615,8.613
			c0.22,0.111,0.274,0.387,0.165,0.607c-0.11,0.191-0.385,0.272-0.606,0.137L25.981,27.633z"/>
		<polygon fill-rule="evenodd" clip-rule="evenodd" fill="#FFFFFF" points="15.44,26.119 30.055,17.505 44.559,26.284 
			29.945,34.873 		"/>
		<path fill="#855439" d="M15.248,25.707l14.587-8.588c0.165-0.083,0.33-0.083,0.467,0L44.779,25.9
			c0.221,0.109,0.275,0.384,0.166,0.604c-0.056,0.055-0.111,0.111-0.193,0.166l-14.587,8.588c-0.138,0.082-0.303,0.082-0.44,0
			L15.22,26.479c-0.22-0.111-0.274-0.387-0.165-0.605C15.109,25.815,15.165,25.762,15.248,25.707L15.248,25.707z M30.055,18.002
			l-13.761,8.117l13.651,8.258l13.761-8.119L30.055,18.002z"/>
	</g>
</g>
<g id="Layer_1_6_">
</g>
<g id="Layer_1_7_">
</g>
<g id="Layer_1_8_">
</g>
<g id="Layer_1_9_">
</g>
<g id="Layer_1_10_">
</g>
<g id="Layer_1_11_">
</g>
<g id="Layer_1_12_">
</g>
<g id="Layer_1_13_">
</g>
<g id="Layer_1_14_">
</g>
<g id="Layer_1_15_">
</g>
<g id="Layer_1_16_">
</g>
<g id="Layer_1_17_">
</g>
<g id="Layer_1_18_">
</g>
<g id="Layer_1_19_">
</g>
<g id="Layer_1_20_">
</g>
<g id="Layer_1_21_">
</g>
<g id="Layer_1_22_">
</g>
<g id="Layer_1_23_">
</g>
<g id="Layer_1_24_">
</g>
<g id="Layer_1_25_">
</g>
<g id="Layer_1_26_">
</g>
<g id="Layer_1_27_">
</g>
<g id="Layer_1_28_">
</g>
<g id="Layer_1_29_">
</g>
<g id="Layer_1_30_">
</g>
</svg>
