<?xml version="1.0" encoding="utf-8"?>
<!-- Generator: Adobe Illustrator 16.0.0, SVG Export Plug-In . SVG Version: 6.00 Build 0)  -->
<!DOCTYPE svg PUBLIC "-//W3C//DTD SVG 1.1//EN" "http://www.w3.org/Graphics/SVG/1.1/DTD/svg11.dtd" [
	<!ENTITY ns_extend "http://ns.adobe.com/Extensibility/1.0/">
	<!ENTITY ns_ai "http://ns.adobe.com/AdobeIllustrator/10.0/">
	<!ENTITY ns_graphs "http://ns.adobe.com/Graphs/1.0/">
	<!ENTITY ns_vars "http://ns.adobe.com/Variables/1.0/">
	<!ENTITY ns_imrep "http://ns.adobe.com/ImageReplacement/1.0/">
	<!ENTITY ns_sfw "http://ns.adobe.com/SaveForWeb/1.0/">
	<!ENTITY ns_custom "http://ns.adobe.com/GenericCustomNamespace/1.0/">
	<!ENTITY ns_adobe_xpath "http://ns.adobe.com/XPath/1.0/">
]>
<svg version="1.1" xmlns:x="&ns_extend;" xmlns:i="&ns_ai;" xmlns:graph="&ns_graphs;"
	 xmlns="http://www.w3.org/2000/svg" xmlns:xlink="http://www.w3.org/1999/xlink" x="0px" y="0px" width="53.105px"
	 height="53.105px" viewBox="0 0 53.105 53.105" enable-background="new 0 0 53.105 53.105" xml:space="preserve">
<g id="Layer_1">
</g>
<g id="Layer_1_1_">
</g>
<g id="Layer_1_2_">
</g>
<g id="Layer_1_3_">
</g>
<g id="Layer_1_4_">
</g>
<g id="Layer_1_5_">
	<g>
		<path fill-rule="evenodd" clip-rule="evenodd" fill="#FFFFFF" d="M26.553,53.105c14.625,0,26.552-11.929,26.552-26.553
			C53.105,11.928,41.177,0,26.553,0S0,11.928,0,26.553C0,41.177,11.928,53.105,26.553,53.105z"/>
		<path fill-rule="evenodd" clip-rule="evenodd" fill="#855439" d="M16.635,40.553h23.917V20.72v-1.167v-7H16.635
			c-2.251,0-4.083,1.832-4.083,4.083V36.47C12.552,38.722,14.384,40.553,16.635,40.553L16.635,40.553z M16.635,13.719h22.75v5.834
			H26.552v-3.5h-8.167v3.5h-1.75c-1.608,0-2.917-1.309-2.917-2.917S15.027,13.719,16.635,13.719L16.635,13.719z M25.386,20.72v6.921
			l-2.917-2.431l-2.917,2.431V20.72v-1.167v-2.334h5.833v2.334V20.72L25.386,20.72z M13.719,19.491
			c0.005,0.006,0.012,0.011,0.017,0.017c0.046,0.045,0.095,0.088,0.143,0.131c0.049,0.046,0.097,0.093,0.148,0.135
			c0.051,0.042,0.105,0.081,0.158,0.12c0.052,0.04,0.103,0.081,0.158,0.118c0.056,0.039,0.115,0.072,0.174,0.107
			c0.055,0.033,0.108,0.068,0.164,0.1c0.061,0.033,0.125,0.062,0.188,0.092c0.057,0.028,0.113,0.059,0.171,0.083
			c0.066,0.027,0.135,0.051,0.203,0.075c0.059,0.021,0.115,0.046,0.174,0.064c0.075,0.023,0.152,0.04,0.228,0.059
			c0.055,0.015,0.109,0.031,0.165,0.043c0.089,0.019,0.181,0.029,0.273,0.043c0.045,0.006,0.089,0.016,0.135,0.021
			c0.138,0.014,0.278,0.021,0.419,0.021h1.75v9.412l4.083-3.403l4.083,3.403V20.72h12.833v18.667h-22.75
			c-1.608,0-2.917-1.309-2.917-2.917V19.491z"/>
	</g>
</g>
<g id="Layer_1_6_">
</g>
<g id="Layer_1_7_">
</g>
<g id="Layer_1_8_">
</g>
<g id="Layer_1_9_">
</g>
<g id="Layer_1_10_">
</g>
<g id="Layer_1_11_">
</g>
<g id="Layer_1_12_">
</g>
<g id="Layer_1_13_">
</g>
<g id="Layer_1_14_">
</g>
<g id="Layer_1_15_">
</g>
<g id="Layer_1_16_">
</g>
<g id="Layer_1_17_">
</g>
<g id="Layer_1_18_">
</g>
<g id="Layer_1_19_">
</g>
<g id="Layer_1_20_">
</g>
<g id="Layer_1_21_">
</g>
<g id="Layer_1_22_">
</g>
<g id="Layer_1_23_">
</g>
<g id="Layer_1_24_">
</g>
<g id="Layer_1_25_">
</g>
<g id="Layer_1_26_">
</g>
<g id="Layer_1_27_">
</g>
<g id="Layer_1_28_">
</g>
<g id="Layer_1_29_">
</g>
<g id="Layer_1_30_">
</g>
</svg>
