<?xml version="1.0" encoding="utf-8"?>
<!-- Generator: Adobe Illustrator 16.0.0, SVG Export Plug-In . SVG Version: 6.00 Build 0)  -->
<!DOCTYPE svg PUBLIC "-//W3C//DTD SVG 1.1//EN" "http://www.w3.org/Graphics/SVG/1.1/DTD/svg11.dtd">
<svg version="1.1" id="Layer_1" xmlns="http://www.w3.org/2000/svg" xmlns:xlink="http://www.w3.org/1999/xlink" x="0px" y="0px"
	 width="50px" height="50px" viewBox="0 0 50 50" enable-background="new 0 0 50 50" xml:space="preserve">
<g>
	<path fill-rule="evenodd" clip-rule="evenodd" fill="#E6E0D6" d="M25,50c13.765,0,25-11.234,25-25C50,11.236,38.765,0,25,0
		S0,11.236,0,25C0,38.766,11.235,50,25,50L25,50z"/>
	<g>
		<path fill-rule="evenodd" clip-rule="evenodd" fill="#855439" d="M15.815,37.967h22.129V19.6v-1.07v-6.473H15.815
			c-2.073,0-3.76,1.686-3.76,3.783v18.346C12.056,36.258,13.742,37.967,15.815,37.967L15.815,37.967z M15.815,13.127h21.058v5.402
			H25v-3.236h-7.544v3.236h-1.641c-1.48,0-2.688-1.209-2.688-2.689C13.127,14.334,14.335,13.127,15.815,13.127L15.815,13.127z
			 M23.929,19.6v6.404l-2.712-2.234l-2.689,2.234V19.6v-1.07v-2.166h5.401v2.166V19.6z M13.127,18.459
			c0,0.023,0.022,0.023,0.022,0.023c0.046,0.047,0.091,0.092,0.137,0.113c0.045,0.047,0.069,0.092,0.137,0.137
			c0.045,0.047,0.091,0.07,0.137,0.115c0.045,0.021,0.091,0.068,0.136,0.113c0.069,0.023,0.115,0.068,0.16,0.092
			c0.068,0.021,0.114,0.068,0.16,0.09c0.068,0.023,0.113,0.068,0.183,0.092c0.046,0.023,0.091,0.045,0.158,0.068
			c0.046,0.023,0.115,0.045,0.183,0.068c0.046,0.023,0.114,0.047,0.16,0.068c0.068,0.023,0.137,0.023,0.205,0.045
			c0.045,0.023,0.113,0.023,0.159,0.047c0.091,0.023,0.16,0.023,0.251,0.045c0.046,0,0.092,0,0.114,0
			c0.137,0.023,0.273,0.023,0.387,0.023h1.641v8.705l3.761-3.145L25,28.305V19.6h11.873v17.273H15.815
			c-1.48,0-2.688-1.207-2.688-2.688V18.459z"/>
	</g>
</g>
</svg>
