<?xml version="1.0" encoding="utf-8"?>
<!-- Generator: Adobe Illustrator 16.0.0, SVG Export Plug-In . SVG Version: 6.00 Build 0)  -->
<!DOCTYPE svg PUBLIC "-//W3C//DTD SVG 1.1//EN" "http://www.w3.org/Graphics/SVG/1.1/DTD/svg11.dtd" [
	<!ENTITY ns_extend "http://ns.adobe.com/Extensibility/1.0/">
	<!ENTITY ns_ai "http://ns.adobe.com/AdobeIllustrator/10.0/">
	<!ENTITY ns_graphs "http://ns.adobe.com/Graphs/1.0/">
	<!ENTITY ns_vars "http://ns.adobe.com/Variables/1.0/">
	<!ENTITY ns_imrep "http://ns.adobe.com/ImageReplacement/1.0/">
	<!ENTITY ns_sfw "http://ns.adobe.com/SaveForWeb/1.0/">
	<!ENTITY ns_custom "http://ns.adobe.com/GenericCustomNamespace/1.0/">
	<!ENTITY ns_adobe_xpath "http://ns.adobe.com/XPath/1.0/">
]>
<svg version="1.1" xmlns:x="&ns_extend;" xmlns:i="&ns_ai;" xmlns:graph="&ns_graphs;"
	 xmlns="http://www.w3.org/2000/svg" xmlns:xlink="http://www.w3.org/1999/xlink" x="0px" y="0px" width="53.105px"
	 height="53.105px" viewBox="0 0 53.105 53.105" enable-background="new 0 0 53.105 53.105" xml:space="preserve">
<g id="Layer_1">
</g>
<g id="Layer_1_5_">
	<g>
		<path fill-rule="evenodd" clip-rule="evenodd" fill="#FFFFFF" d="M26.553,53.107c14.626,0,26.555-11.928,26.555-26.555
			S41.179-0.002,26.553-0.002S-0.002,11.926-0.002,26.553S11.927,53.107,26.553,53.107z"/>
		<g>
			
				<path fill-rule="evenodd" clip-rule="evenodd" fill="none" stroke="#855439" stroke-width="1.3398" stroke-linecap="round" stroke-linejoin="round" stroke-miterlimit="22.9256" d="
				M18.717,16.756h-2.79c-1.044,0-1.914,0.873-1.914,1.918v13.932l5.834,6.01h8.796c1.044,0,1.827-0.787,1.827-1.83V34.26"/>
			
				<path fill-rule="evenodd" clip-rule="evenodd" fill="none" stroke="#855439" stroke-width="1.3398" stroke-linecap="round" stroke-linejoin="round" stroke-miterlimit="22.9256" d="
				M14.013,32.605h4.356c0.78,0,1.478,0.695,1.478,1.48v4.529"/>
			
				<path fill-rule="evenodd" clip-rule="evenodd" fill="none" stroke="#855439" stroke-width="1.3398" stroke-linecap="round" stroke-linejoin="round" stroke-miterlimit="22.9256" d="
				M28.73,31.736c4.702,0,8.619-3.922,8.619-8.623c0-4.787-3.917-8.621-8.619-8.621c-4.79,0-8.622,3.834-8.622,8.621
				C20.108,27.814,23.94,31.736,28.73,31.736L28.73,31.736z"/>
			
				<path fill-rule="evenodd" clip-rule="evenodd" fill="none" stroke="#855439" stroke-width="1.3398" stroke-linecap="round" stroke-linejoin="round" stroke-miterlimit="22.9256" d="
				M32.474,30.861l2.088,4.705c0.352,0.783,1.221,1.393,2.179,1.393c1.308,0,2.351-1.131,2.351-2.439
				c0-0.695-0.262-1.305-0.694-1.738c-1.222-1.133-2.439-2.354-3.57-3.57"/>
			<path fill-rule="evenodd" clip-rule="evenodd" fill="#855439" d="M25.07,20.674c0-0.52,0.174-0.957,0.438-1.391
				c0.348-0.525,0.784-0.873,1.305-1.221c0.61-0.258,1.219-0.432,2.004-0.432c0.697,0,1.305,0.174,1.828,0.432
				c0.522,0.174,0.961,0.611,1.22,1.043c0.348,0.438,0.436,0.873,0.436,1.395c0,0.436-0.087,0.783-0.262,1.133
				c-0.174,0.264-0.348,0.521-0.521,0.787c-0.264,0.174-0.7,0.607-1.31,1.131c-0.087,0.088-0.26,0.26-0.347,0.348
				c-0.086,0.086-0.174,0.262-0.261,0.352c0,0.084-0.088,0.174-0.088,0.258c0,0.09-0.087,0.264-0.087,0.521
				c-0.087,0.438-0.436,0.699-0.87,0.699c-0.262,0-0.438-0.088-0.612-0.262c-0.174-0.09-0.261-0.348-0.261-0.695
				c0-0.438,0-0.787,0.174-1.047c0.087-0.262,0.262-0.521,0.524-0.783c0.174-0.262,0.436-0.521,0.784-0.787
				c0.348-0.258,0.522-0.521,0.696-0.605c0.087-0.176,0.26-0.266,0.347-0.439c0.087-0.174,0.087-0.348,0.087-0.609
				c0-0.348-0.087-0.695-0.347-0.957c-0.348-0.262-0.696-0.348-1.132-0.348c-0.522,0-0.96,0.088-1.221,0.348
				c-0.261,0.262-0.436,0.695-0.609,1.219c-0.174,0.52-0.436,0.785-0.956,0.785c-0.262,0-0.439-0.09-0.614-0.264
				C25.16,21.109,25.07,20.852,25.07,20.674L25.07,20.674L25.07,20.674z M28.643,28.602c-0.348,0-0.611-0.174-0.786-0.348
				c-0.261-0.178-0.348-0.439-0.348-0.787c0-0.262,0.087-0.521,0.348-0.783c0.175-0.174,0.438-0.262,0.786-0.262
				c0.262,0,0.522,0.088,0.784,0.262c0.174,0.262,0.262,0.521,0.262,0.783c0,0.348-0.088,0.609-0.348,0.787
				C29.166,28.426,28.904,28.602,28.643,28.602L28.643,28.602z"/>
		</g>
	</g>
</g>
<g id="Layer_1_10_">
</g>
</svg>
