<?xml version="1.0" encoding="utf-8"?>
<!-- Generator: Adobe Illustrator 25.0.0, SVG Export Plug-In . SVG Version: 6.00 Build 0)  -->
<svg version="1.1" id="Layer_1" xmlns="http://www.w3.org/2000/svg" xmlns:xlink="http://www.w3.org/1999/xlink" x="0px" y="0px" viewBox="0 0 50 50" width="50px" height="50px"
	 enable-background="new 0 0 50 50" xml:space="preserve">
		<g>
			<path fill-rule="evenodd" clip-rule="evenodd" fill="#855439" d="M36.401,25.65c-2.106,5.063-4.139,3.548-6.024,10.163
				c-1.33-0.37-2.476,0.037-2.846,1.293l-0.48,1.737c-0.296,1.072,0.333,2.18,1.404,2.513l8.389,2.365
				c0.702,0.185,0.998-0.887,0.296-1.072l-8.389-2.365c-0.48-0.148-0.739-0.665-0.628-1.146c0.333-1.146,0.48-2.661,1.626-2.328
				l12.676,3.548c1.146,0.333,0.48,1.737,0.148,2.846c-0.443,1.626-2.439-0.407-2.735,0.776c-0.222,0.665,0.665,0.776,1.293,0.924
				c1.072,0.333,2.217-0.296,2.513-1.367l0.48-1.737c0.333-1.072-0.296-2.18-1.478-2.513l5.174-7.021l0.48-0.998L50,18.702
				l-0.443-3.03l-4.619-9.313c-1.293-2.661-5.358-1.035-4.435,1.774l2.254,6.984l0.591,1.774l-0.517,1.589l-0.443-0.074
				c-1.552-0.296-3.067,0.48-3.769,1.885L36.401,25.65z M37.14,26.721l2.439-5.913c0.591-1.183,1.663-1.478,2.846-1.256
				l-4.139,10.939c-0.259,0.702,0.776,1.109,1.035,0.407l4.398-11.604c0.998-3.03,1.035-1.7,0-4.804l-2.143-6.689
				c-0.517-1.515,1.7-2.402,2.365-0.961l4.582,9.313c0.333,0.776,0.48,1.589,0.37,2.439l-1.589,11.973
				c-0.037,0.37-0.185,0.739-0.37,1.072L41.5,38.954l-10.052-2.846C33.222,29.863,34.996,31.526,37.14,26.721L37.14,26.721z"/>
			<g>
				<path fill="#855439" d="M25.942,29.501c-3.469,0-6.291-2.838-6.291-6.327c0-3.51,2.822-6.364,6.291-6.364
					s6.291,2.854,6.291,6.364C32.233,26.663,29.411,29.501,25.942,29.501z M25.942,18.009c-2.808,0-5.092,2.317-5.092,5.165
					c0,2.827,2.284,5.128,5.092,5.128s5.092-2.301,5.092-5.128C31.034,20.326,28.75,18.009,25.942,18.009z"/>
			</g>
			<g>
				<path fill="#855439" d="M14.375,26.915c-0.172,0-0.344-0.073-0.462-0.217c-0.212-0.256-0.176-0.634,0.079-0.845l1.846-1.528
					c-0.066-0.344-0.066-0.681-0.066-1.077c0-0.325,0.047-0.603,0.089-0.847c0.012-0.071,0.024-0.141,0.034-0.209l-2.404-1.871
					c-0.365-0.359-0.55-0.747-0.55-1.087c0.001-0.187,0.057-0.36,0.16-0.5l2.486-4.498c0.027-0.05,0.062-0.095,0.102-0.134
					c0.178-0.178,0.716-0.716,1.533-0.393l2.77,1.169l0.114-0.082c0.509-0.366,0.994-0.715,1.558-0.961l0.433-3.16
					c-0.005-0.567,0.729-1.036,1.223-1.036h5.063c0.373,0,0.766,0.209,0.977,0.521c0.151,0.223,0.203,0.486,0.152,0.744l0.452,2.967
					c0.576,0.294,1.164,0.615,1.691,1.004l2.856-1.163c0.607-0.243,1.117-0.032,1.392,0.244c0.039,0.039,0.072,0.083,0.099,0.131
					l2.55,4.582c0.252,0.579,0.155,1.09-0.248,1.492l-2.405,1.974c0.068,0.358,0.068,0.717,0.068,1.113
					c0,0.327-0.048,0.595-0.09,0.831c-0.011,0.059-0.021,0.116-0.03,0.173l1.273,0.909c0.27,0.192,0.332,0.567,0.14,0.837
					c-0.192,0.269-0.567,0.332-0.837,0.14l-1.553-1.108c-0.158-0.112-0.251-0.295-0.251-0.488c0-0.227,0.035-0.443,0.076-0.674
					c0.034-0.187,0.072-0.385,0.072-0.619c0-0.475,0-0.818-0.112-1.126c-0.088-0.239-0.014-0.508,0.184-0.669l2.661-2.18
					l-2.473-4.468c-0.015,0.002-0.037,0.008-0.067,0.02l-3.173,1.292c-0.204,0.084-0.438,0.047-0.608-0.093
					c-0.581-0.479-1.321-0.865-2.03-1.221c-0.174-0.087-0.295-0.253-0.324-0.446l-0.518-3.399c-0.006-0.036-0.008-0.073-0.007-0.109
					l-4.98-0.01c0.011,0.004-0.021,0.026-0.046,0.048l-0.468,3.462c-0.031,0.227-0.188,0.416-0.405,0.488
					c-0.55,0.184-1.033,0.531-1.593,0.934l-0.396,0.282c-0.17,0.118-0.388,0.141-0.577,0.062l-3.067-1.294
					c-0.039-0.009-0.081-0.005-0.173,0.077l-2.422,4.382c0.023,0.041,0.061,0.093,0.111,0.145l2.604,2.02
					c0.146,0.113,0.231,0.288,0.231,0.474c0,0.225-0.035,0.448-0.075,0.687c-0.034,0.197-0.072,0.407-0.072,0.645
					c0,0.487,0,0.781,0.112,1.088c0.086,0.238,0.014,0.506-0.182,0.667l-2.144,1.774C14.646,26.87,14.51,26.915,14.375,26.915z
					 M23.29,10.757l-0.012,0.089C23.285,10.822,23.29,10.792,23.29,10.757z"/>
			</g>
			<path fill-rule="evenodd" clip-rule="evenodd" fill="#855439" d="M13.599,25.65c2.106,5.063,4.139,3.548,6.024,10.163
				c1.33-0.37,2.476,0.037,2.846,1.293l0.48,1.737c0.296,1.072-0.333,2.18-1.404,2.513l-8.389,2.365
				c-0.702,0.185-0.998-0.887-0.296-1.072l8.389-2.365c0.48-0.148,0.739-0.665,0.628-1.146c-0.333-1.146-0.48-2.661-1.626-2.328
				L7.576,40.358c-1.146,0.333-0.48,1.737-0.148,2.846c0.443,1.626,2.439-0.407,2.735,0.776c0.222,0.665-0.665,0.776-1.293,0.924
				c-1.072,0.333-2.217-0.296-2.513-1.367l-0.48-1.737c-0.296-1.072,0.296-2.18,1.478-2.513L2.18,32.265L1.7,31.267L0,18.702
				l0.443-3.03l4.619-9.313c1.293-2.661,5.358-1.035,4.435,1.774l-2.254,6.984l-0.591,1.774l0.554,1.589l0.407-0.074
				c1.552-0.296,3.067,0.48,3.769,1.885L13.599,25.65z M12.86,26.721l-2.439-5.913c-0.591-1.183-1.663-1.478-2.846-1.256
				l4.139,10.939c0.259,0.702-0.776,1.109-1.035,0.407L6.282,19.294c-0.998-3.03-1.035-1.7,0-4.804l2.143-6.689
				c0.517-1.515-1.7-2.402-2.365-0.961l-4.582,9.313c-0.333,0.776-0.48,1.589-0.37,2.439l1.589,11.973
				c0.037,0.37,0.185,0.739,0.37,1.072L8.5,38.954l10.052-2.846C16.778,29.863,15.004,31.526,12.86,26.721L12.86,26.721z"/>
		</g>
	
</svg>
