<?xml version="1.0" encoding="utf-8"?>
<!-- Generator: Adobe Illustrator 24.1.1, SVG Export Plug-In . SVG Version: 6.00 Build 0)  -->
<svg version="1.1" id="Layer_1" xmlns="http://www.w3.org/2000/svg" xmlns:xlink="http://www.w3.org/1999/xlink" x="0px" y="0px" viewBox="0 0 50 50" width="50px" height="50px"
	 enable-background="new 0 0 50 50" xml:space="preserve">
		<g>
			<path fill-rule="evenodd" clip-rule="evenodd" fill="#732F31" d="M4.514,0h22.513c1.693,0,3.08,1.387,3.08,3.08V46.92
				c0,1.693-1.387,3.08-3.08,3.08H4.514c-1.693,0-3.08-1.387-3.08-3.08V3.08C1.435,1.387,2.821,0,4.514,0L4.514,0z M9.526,6.876
				h12.49c0.794,0,1.435,0.641,1.435,1.425v10.472c0,0.784-0.641,1.425-1.435,1.425H9.526c-0.794,0-1.435-0.641-1.435-1.425V8.301
				C8.091,7.517,8.732,6.876,9.526,6.876L9.526,6.876z M9.497,39.336c1.014,0,1.836,0.822,1.836,1.836s-0.822,1.836-1.836,1.836
				s-1.846-0.822-1.846-1.836S8.483,39.336,9.497,39.336L9.497,39.336z M22.054,26.482c1.014,0,1.836,0.822,1.836,1.836
				s-0.822,1.836-1.836,1.836c-1.014,0-1.836-0.822-1.836-1.836S21.041,26.482,22.054,26.482L22.054,26.482z M15.771,26.482
				c1.014,0,1.836,0.822,1.836,1.836s-0.822,1.836-1.836,1.836s-1.836-0.822-1.836-1.836S14.757,26.482,15.771,26.482L15.771,26.482
				z M9.497,26.655c1.014,0,1.836,0.822,1.836,1.836c0,1.023-0.822,1.846-1.836,1.846s-1.846-0.822-1.846-1.846
				C7.651,27.477,8.483,26.655,9.497,26.655L9.497,26.655z M22.054,32.814c1.014,0,1.836,0.832,1.836,1.846
				c0,1.014-0.822,1.836-1.836,1.836c-1.014,0-1.836-0.822-1.836-1.836C20.218,33.646,21.041,32.814,22.054,32.814L22.054,32.814z
				 M15.771,32.814c1.014,0,1.836,0.832,1.836,1.846c0,1.014-0.822,1.836-1.836,1.836s-1.836-0.822-1.836-1.836
				C13.935,33.646,14.757,32.814,15.771,32.814L15.771,32.814z M9.497,32.995c1.014,0,1.836,0.822,1.836,1.836
				c0,1.014-0.822,1.836-1.836,1.836s-1.846-0.822-1.846-1.836C7.651,33.818,8.483,32.995,9.497,32.995L9.497,32.995z
				 M22.054,39.155c1.014,0,1.836,0.822,1.836,1.836s-0.822,1.836-1.836,1.836c-1.014,0-1.836-0.822-1.836-1.836
				S21.041,39.155,22.054,39.155L22.054,39.155z M15.771,39.155c1.014,0,1.836,0.822,1.836,1.836s-0.822,1.836-1.836,1.836
				s-1.836-0.822-1.836-1.836S14.757,39.155,15.771,39.155L15.771,39.155z"/>
			<path fill-rule="evenodd" clip-rule="evenodd" fill="#732F31" d="M31.274,21.978h14.135c1.741,0,3.156,1.415,3.156,3.156v3.185
				H31.274V21.978z M48.565,29.476v9.067c0,1.731-1.425,3.166-3.156,3.166H31.274V29.476H48.565z"/>
		</g>
	
</svg>
