<?xml version="1.0" encoding="utf-8"?>
<!-- Generator: Adobe Illustrator 16.0.0, SVG Export Plug-In . SVG Version: 6.00 Build 0)  -->
<!DOCTYPE svg PUBLIC "-//W3C//DTD SVG 1.1//EN" "http://www.w3.org/Graphics/SVG/1.1/DTD/svg11.dtd" [
	<!ENTITY ns_extend "http://ns.adobe.com/Extensibility/1.0/">
	<!ENTITY ns_ai "http://ns.adobe.com/AdobeIllustrator/10.0/">
	<!ENTITY ns_graphs "http://ns.adobe.com/Graphs/1.0/">
	<!ENTITY ns_vars "http://ns.adobe.com/Variables/1.0/">
	<!ENTITY ns_imrep "http://ns.adobe.com/ImageReplacement/1.0/">
	<!ENTITY ns_sfw "http://ns.adobe.com/SaveForWeb/1.0/">
	<!ENTITY ns_custom "http://ns.adobe.com/GenericCustomNamespace/1.0/">
	<!ENTITY ns_adobe_xpath "http://ns.adobe.com/XPath/1.0/">
]>
<svg version="1.1" xmlns:x="&ns_extend;" xmlns:i="&ns_ai;" xmlns:graph="&ns_graphs;"
	 xmlns="http://www.w3.org/2000/svg" xmlns:xlink="http://www.w3.org/1999/xlink" x="0px" y="0px" width="60px" height="60px"
	 viewBox="0 0 60 60" enable-background="new 0 0 60 60" xml:space="preserve">
<g id="Layer_1">
</g>
<g id="Layer_1_1_">
</g>
<g id="Layer_1_2_">
</g>
<g id="Layer_1_3_">
</g>
<g id="Layer_1_4_">
</g>
<g id="Layer_1_5_">
	<path fill-rule="evenodd" clip-rule="evenodd" fill="#855439" d="M44.776,24.514L33.89,15.736
		c-0.129-0.086-0.301-0.129-0.473-0.129s-0.303,0.086-0.432,0.215l-13.64,16.996c-0.086,0.129-0.172,0.301-0.129,0.475
		c0,0.172,0.086,0.301,0.215,0.387l0.646,0.559c-1.163,1.721-1.378,3.443-0.474,4.219l5.895,4.732h-9.896
		c-0.344,0-0.603,0.258-0.603,0.602s0.259,0.602,0.603,0.602h10.026c0.344,0,0.602-0.258,0.602-0.602c0-0.086,0-0.172-0.043-0.215
		c0.129,0.043,0.302,0.043,0.474,0.043c0.387,0,0.774-0.086,1.247-0.301c0.603-0.301,1.205-0.775,1.765-1.377l0.646,0.516
		c0.129,0.086,0.258,0.129,0.388,0.129c0.215,0,0.387-0.086,0.516-0.215l13.641-16.996C45.077,25.117,45.034,24.729,44.776,24.514
		L44.776,24.514z M27.35,42.199c-0.474,0.215-0.817,0.258-0.903,0.129l-6.067-4.818c-0.258-0.215-0.129-1.291,0.688-2.496
		l7.658,6.152C28.296,41.598,27.822,41.984,27.35,42.199L27.35,42.199z M30.619,41.123l-9.939-8.004l12.909-16.047l9.939,8.002
		L30.619,41.123z"/>
</g>
<g id="Layer_1_6_">
</g>
<g id="Layer_1_7_">
</g>
<g id="Layer_1_8_">
</g>
<g id="Layer_1_9_">
</g>
<g id="Layer_1_10_">
</g>
<g id="Layer_1_11_">
</g>
<g id="Layer_1_12_">
</g>
<g id="Layer_1_13_">
</g>
<g id="Layer_1_14_">
</g>
<g id="Layer_1_15_">
</g>
<g id="Layer_1_16_">
</g>
<g id="Layer_1_17_">
</g>
<g id="Layer_1_18_">
</g>
<g id="Layer_1_19_">
</g>
<g id="Layer_1_20_">
</g>
<g id="Layer_1_21_">
</g>
<g id="Layer_1_22_">
</g>
<g id="Layer_1_23_">
</g>
<g id="Layer_1_24_">
</g>
<g id="Layer_1_25_">
</g>
<g id="Layer_1_26_">
</g>
<g id="Layer_1_27_">
</g>
<g id="Layer_1_28_">
</g>
<g id="Layer_1_29_">
</g>
<g id="Layer_1_30_">
</g>
</svg>
