<?xml version="1.0" encoding="utf-8"?>
<!-- Generator: Adobe Illustrator 16.0.0, SVG Export Plug-In . SVG Version: 6.00 Build 0)  -->
<!DOCTYPE svg PUBLIC "-//W3C//DTD SVG 1.1//EN" "http://www.w3.org/Graphics/SVG/1.1/DTD/svg11.dtd">
<svg version="1.1" id="Layer_1" xmlns="http://www.w3.org/2000/svg" xmlns:xlink="http://www.w3.org/1999/xlink" x="0px" y="0px"
	 width="50px" height="50px" viewBox="0 0 50 50" enable-background="new 0 0 50 50" xml:space="preserve">
<g>
	<path fill="#855439" d="M49.997,25.397C50.174,11.595,39.199,0.27,25.396,0.001C11.593-0.176,0.268,10.799,0.003,24.603
		c-0.089,6.901,2.566,13.184,7.078,17.784l0,0c4.426,4.604,10.62,7.523,17.522,7.612C38.406,50.176,49.729,39.201,49.997,25.397
		L49.997,25.397z"/>
	<path fill="#FFFFFF" d="M31.505,31.681c0.262-0.177,0.354-0.53,0.354-0.884c0-0.266-0.092-0.619-0.354-0.885l-4.78-4.868
		l4.957-4.776c0.263-0.269,0.354-0.622,0.354-0.885c0-0.356-0.091-0.621-0.354-0.887c-0.445-0.53-1.237-0.53-1.683-0.088
		l-4.957,4.779l-4.776-4.868c-0.53-0.53-1.241-0.53-1.771-0.089c-0.53,0.531-0.53,1.329,0,1.769l4.78,4.957l-4.957,4.776
		c-0.53,0.445-0.53,1.241,0,1.771c0.445,0.441,1.24,0.441,1.771,0l4.868-4.777l4.773,4.954
		C30.176,32.211,30.975,32.211,31.505,31.681L31.505,31.681z"/>
</g>
</svg>
