<?xml version="1.0" encoding="utf-8"?>
<!-- Generator: Adobe Illustrator 16.0.0, SVG Export Plug-In . SVG Version: 6.00 Build 0)  -->
<!DOCTYPE svg PUBLIC "-//W3C//DTD SVG 1.1//EN" "http://www.w3.org/Graphics/SVG/1.1/DTD/svg11.dtd" [
	<!ENTITY ns_extend "http://ns.adobe.com/Extensibility/1.0/">
	<!ENTITY ns_ai "http://ns.adobe.com/AdobeIllustrator/10.0/">
	<!ENTITY ns_graphs "http://ns.adobe.com/Graphs/1.0/">
	<!ENTITY ns_vars "http://ns.adobe.com/Variables/1.0/">
	<!ENTITY ns_imrep "http://ns.adobe.com/ImageReplacement/1.0/">
	<!ENTITY ns_sfw "http://ns.adobe.com/SaveForWeb/1.0/">
	<!ENTITY ns_custom "http://ns.adobe.com/GenericCustomNamespace/1.0/">
	<!ENTITY ns_adobe_xpath "http://ns.adobe.com/XPath/1.0/">
]>
<svg version="1.1" xmlns:x="&ns_extend;" xmlns:i="&ns_ai;" xmlns:graph="&ns_graphs;"
	 xmlns="http://www.w3.org/2000/svg" xmlns:xlink="http://www.w3.org/1999/xlink" x="0px" y="0px" width="53.105px"
	 height="53.105px" viewBox="0 0 53.105 53.105" enable-background="new 0 0 53.105 53.105" xml:space="preserve">
<g id="Layer_1">
</g>
<g id="Layer_1_5_">
	<g>
		<path fill-rule="evenodd" clip-rule="evenodd" fill="#FFFFFF" d="M26.553,53.107c14.626,0,26.555-11.928,26.555-26.555
			S41.179-0.002,26.553-0.002S-0.003,11.926-0.003,26.553S11.927,53.107,26.553,53.107z"/>
		<g>
			<g>
				
					<polyline fill-rule="evenodd" clip-rule="evenodd" fill="none" stroke="#855439" stroke-width="1.5" stroke-linecap="round" stroke-linejoin="round" stroke-miterlimit="22.9256" points="
					24.837,40.998 24.837,12.107 27.602,14.873 				"/>
				
					<line fill-rule="evenodd" clip-rule="evenodd" fill="none" stroke="#855439" stroke-width="1.5" stroke-linecap="round" stroke-linejoin="round" stroke-miterlimit="22.9256" x1="24.837" y1="12.107" x2="22.073" y2="14.873"/>
				
					<line fill-rule="evenodd" clip-rule="evenodd" fill="none" stroke="#855439" stroke-width="1.5" stroke-linecap="round" stroke-linejoin="round" stroke-miterlimit="22.9256" x1="26.902" y1="23.305" x2="24.837" y2="23.305"/>
				
					<line fill-rule="evenodd" clip-rule="evenodd" fill="none" stroke="#855439" stroke-width="1.5" stroke-linecap="round" stroke-linejoin="round" stroke-miterlimit="22.9256" x1="26.902" y1="18.16" x2="24.837" y2="18.16"/>
			</g>
			<polygon fill-rule="evenodd" clip-rule="evenodd" fill="#855439" points="40.327,32.385 39.658,33.348 38.985,32.385 
				37.752,32.385 39.036,34.234 37.624,36.248 38.856,36.248 39.658,35.115 40.455,36.248 41.688,36.248 40.275,34.234 
				41.561,32.385 			"/>
			<polygon fill-rule="evenodd" clip-rule="evenodd" fill="#855439" points="21.267,11.928 20.1,11.928 19.355,13.215 
				18.615,11.928 17.448,11.928 18.856,14.367 18.856,15.787 19.858,15.787 19.858,14.367 			"/>
			<g>
				
					<polyline fill-rule="evenodd" clip-rule="evenodd" fill="none" stroke="#855439" stroke-width="1.5" stroke-linecap="round" stroke-linejoin="round" stroke-miterlimit="22.9256" points="
					12.107,27.936 40.997,27.936 38.233,25.172 				"/>
				
					<line fill-rule="evenodd" clip-rule="evenodd" fill="none" stroke="#855439" stroke-width="1.5" stroke-linecap="round" stroke-linejoin="round" stroke-miterlimit="22.9256" x1="40.997" y1="27.936" x2="38.233" y2="30.699"/>
				
					<line fill-rule="evenodd" clip-rule="evenodd" fill="none" stroke="#855439" stroke-width="1.5" stroke-linecap="round" stroke-linejoin="round" stroke-miterlimit="22.9256" x1="29.801" y1="25.871" x2="29.801" y2="27.936"/>
				
					<line fill-rule="evenodd" clip-rule="evenodd" fill="none" stroke="#855439" stroke-width="1.5" stroke-linecap="round" stroke-linejoin="round" stroke-miterlimit="22.9256" x1="34.945" y1="25.871" x2="34.945" y2="27.936"/>
			</g>
		</g>
	</g>
</g>
<g id="Layer_1_10_">
</g>
</svg>
