<?xml version="1.0" encoding="utf-8"?>
<!-- Generator: Adobe Illustrator 16.0.0, SVG Export Plug-In . SVG Version: 6.00 Build 0)  -->
<!DOCTYPE svg PUBLIC "-//W3C//DTD SVG 1.1//EN" "http://www.w3.org/Graphics/SVG/1.1/DTD/svg11.dtd">
<svg version="1.1" id="Layer_1" xmlns="http://www.w3.org/2000/svg" xmlns:xlink="http://www.w3.org/1999/xlink" x="0px" y="0px"
	 width="50px" height="50px" viewBox="0 0 50 50" enable-background="new 0 0 50 50" xml:space="preserve">
<g>
	<path fill="#FF0000" d="M24.952,47.002c-6.092,0-11.604-2.42-15.571-6.48l0,0l-0.29,0.289l0.29-0.289
		c-3.965-3.965-6.479-9.477-6.479-15.57c0-12.088,9.96-22.049,22.05-22.049c5.417,0,10.349,1.932,14.12,5.123
		c0.483,0.387,0.966,0.773,1.353,1.26l0.483-0.58l-0.483,0.58c0.483,0.484,0.873,0.869,1.356,1.449
		c3.289,3.771,5.221,8.801,5.221,14.217C47.001,37.137,37.136,47.002,24.952,47.002L24.952,47.002z M42.65,7.35
		C37.912,2.611,31.625,0,24.952,0S12.089,2.611,7.35,7.35C2.612,12.092,0,18.277,0,24.951S2.612,37.912,7.35,42.65
		C12.089,47.389,18.278,50,24.952,50s12.96-2.611,17.698-7.35S50,31.625,50,24.951S47.388,12.092,42.65,7.35L42.65,7.35z"/>
	<line fill="none" stroke="#FF0000" stroke-width="3.3849" stroke-miterlimit="10" x1="40.908" y1="8.705" x2="9.091" y2="40.811"/>
</g>
</svg>
