<?xml version="1.0" encoding="utf-8"?>
<!-- Generator: Adobe Illustrator 16.0.0, SVG Export Plug-In . SVG Version: 6.00 Build 0)  -->
<!DOCTYPE svg PUBLIC "-//W3C//DTD SVG 1.1//EN" "http://www.w3.org/Graphics/SVG/1.1/DTD/svg11.dtd">
<svg version="1.1" id="Layer_1" xmlns="http://www.w3.org/2000/svg" xmlns:xlink="http://www.w3.org/1999/xlink" x="0px" y="0px"
	 width="50px" height="50px" viewBox="0 0 50 50" enable-background="new 0 0 50 50" xml:space="preserve">
<g>
	<path fill-rule="evenodd" clip-rule="evenodd" fill="#C7BAA7" d="M25.001,50C38.733,50,50,38.801,50,24.999
		C50,11.267,38.733,0,25.001,0C11.199,0,0,11.267,0,24.999C0,38.801,11.199,50,25.001,50L25.001,50z"/>
	<g>
		<path fill="none" stroke="#732F31" stroke-width="2" stroke-linecap="round" stroke-linejoin="round" stroke-miterlimit="10" d="
			M32.958,18.729v17.888c0,1.69-1.339,3.03-2.957,3.03H19.931c-1.621,0-2.958-1.34-2.958-3.03V18.729"/>
		<path fill="none" stroke="#732F31" stroke-width="2" stroke-linecap="round" stroke-linejoin="round" stroke-miterlimit="10" d="
			M12.958,19.154c0-2.395,2.043-4.438,4.508-4.438h15c2.465,0,4.505,2.044,4.505,4.438"/>
		
			<line fill="none" stroke="#732F31" stroke-width="2" stroke-linecap="round" stroke-linejoin="round" stroke-miterlimit="10" x1="21.903" y1="10.423" x2="28.029" y2="10.423"/>
		<path fill="none" stroke="#732F31" stroke-width="2" stroke-linecap="round" stroke-linejoin="round" stroke-miterlimit="10" d="
			M21.197,22.393v11.903 M25.001,22.393v11.903 M28.803,22.393v11.903"/>
	</g>
</g>
</svg>
