<?xml version="1.0" encoding="utf-8"?>
<!-- Generator: Adobe Illustrator 16.0.0, SVG Export Plug-In . SVG Version: 6.00 Build 0)  -->
<!DOCTYPE svg PUBLIC "-//W3C//DTD SVG 1.1//EN" "http://www.w3.org/Graphics/SVG/1.1/DTD/svg11.dtd">
<svg version="1.1" id="Layer_1" xmlns="http://www.w3.org/2000/svg" xmlns:xlink="http://www.w3.org/1999/xlink" x="0px" y="0px"
	 width="50px" height="50px" viewBox="0 0 50 50" enable-background="new 0 0 50 50" xml:space="preserve">
<g>
	<path fill-rule="evenodd" clip-rule="evenodd" fill="#EDE4D8" d="M25,50c13.776,0,25-11.224,25-25S38.776,0,25,0S0,11.224,0,25
		S11.224,50,25,50L25,50z"/>
	<path fill="#855439" d="M32.255,15.478h-3.909c-0.17-1.645-1.588-2.949-3.346-2.949s-3.176,1.305-3.344,2.949h-3.913
		c-1.586,0-2.834,1.303-2.834,2.891v0.113c0,1.245,0.736,2.267,1.814,2.663v13.493c0,1.586,1.246,2.891,2.835,2.891h10.885
		c1.585,0,2.89-1.305,2.89-2.891V21.145c1.02-0.396,1.758-1.418,1.758-2.663v-0.113C35.091,16.78,33.843,15.478,32.255,15.478
		L32.255,15.478z M25,13.833c0.963,0,1.814,0.736,1.984,1.645h-3.969C23.186,14.569,24.035,13.833,25,13.833L25,13.833z
		 M31.972,34.638c0,0.85-0.68,1.529-1.528,1.529H19.559c-0.851,0-1.53-0.68-1.53-1.529V21.371h13.943V34.638z M33.786,18.481
		c0,0.851-0.68,1.53-1.531,1.53H17.743c-0.793,0-1.473-0.68-1.473-1.53v-0.113c0-0.852,0.68-1.531,1.473-1.531h14.512
		c0.852,0,1.531,0.68,1.531,1.531V18.481z"/>
	<path fill="#855439" d="M21.371,34.409c0.398,0,0.68-0.283,0.68-0.68v-7.595c0-0.398-0.281-0.682-0.68-0.682
		c-0.396,0-0.68,0.283-0.68,0.682v7.595C20.691,34.126,20.975,34.409,21.371,34.409L21.371,34.409z"/>
	<path fill="#855439" d="M25,34.409c0.396,0,0.68-0.283,0.68-0.68v-7.595c0-0.398-0.283-0.682-0.68-0.682s-0.68,0.283-0.68,0.682
		v7.595C24.32,34.126,24.604,34.409,25,34.409L25,34.409z"/>
	<path fill="#855439" d="M28.629,34.409c0.396,0,0.68-0.283,0.68-0.68v-7.595c0-0.398-0.283-0.682-0.68-0.682
		c-0.34,0-0.682,0.283-0.682,0.682v7.595C27.947,34.126,28.289,34.409,28.629,34.409L28.629,34.409z"/>
</g>
</svg>
