<?xml version="1.0" encoding="utf-8"?>
<!-- Generator: Adobe Illustrator 16.0.0, SVG Export Plug-In . SVG Version: 6.00 Build 0)  -->
<!DOCTYPE svg PUBLIC "-//W3C//DTD SVG 1.1//EN" "http://www.w3.org/Graphics/SVG/1.1/DTD/svg11.dtd">
<svg version="1.1" id="Layer_1" xmlns="http://www.w3.org/2000/svg" xmlns:xlink="http://www.w3.org/1999/xlink" x="0px" y="0px"
	 width="50px" height="50px" viewBox="0 0 50 50" enable-background="new 0 0 50 50" xml:space="preserve">
<g>
	<path fill-rule="evenodd" clip-rule="evenodd" fill="#EDE4D8" d="M25,50c13.776,0,25-11.224,25-25S38.776,0,25,0
		C11.225,0,0,11.224,0,25S11.225,50,25,50L25,50z"/>
	<path fill="#855439" d="M37.302,36.167H12.698c-0.51,0-0.906,0.396-0.906,0.908c0,0.51,0.396,0.906,0.906,0.906h24.604
		c0.566,0,0.963-0.396,0.963-0.906C38.265,36.563,37.812,36.167,37.302,36.167L37.302,36.167z"/>
	<path fill="#855439" d="M11.792,28.004l-0.058,4.364c0,0.285,0.114,0.512,0.284,0.682s0.396,0.283,0.68,0.283l4.366-0.057
		c0.227,0,0.453-0.057,0.623-0.227l15.08-15.08c0.34-0.34,0.34-0.963,0-1.359l-4.309-4.309c-0.398-0.396-0.964-0.396-1.361,0
		l-3.005,3.004L12.075,27.324C11.905,27.551,11.792,27.721,11.792,28.004L11.792,28.004z M27.777,14.229l3.062,3.061l-1.701,1.7
		l-3.06-3.005L27.777,14.229z M13.662,28.402L24.773,17.29l3.004,3.062L16.667,31.405l-3.061,0.057L13.662,28.402z"/>
</g>
</svg>
