<?xml version="1.0" encoding="utf-8"?>
<!-- Generator: Adobe Illustrator 16.0.0, SVG Export Plug-In . SVG Version: 6.00 Build 0)  -->
<!DOCTYPE svg PUBLIC "-//W3C//DTD SVG 1.1//EN" "http://www.w3.org/Graphics/SVG/1.1/DTD/svg11.dtd" [
	<!ENTITY ns_extend "http://ns.adobe.com/Extensibility/1.0/">
	<!ENTITY ns_ai "http://ns.adobe.com/AdobeIllustrator/10.0/">
	<!ENTITY ns_graphs "http://ns.adobe.com/Graphs/1.0/">
	<!ENTITY ns_vars "http://ns.adobe.com/Variables/1.0/">
	<!ENTITY ns_imrep "http://ns.adobe.com/ImageReplacement/1.0/">
	<!ENTITY ns_sfw "http://ns.adobe.com/SaveForWeb/1.0/">
	<!ENTITY ns_custom "http://ns.adobe.com/GenericCustomNamespace/1.0/">
	<!ENTITY ns_adobe_xpath "http://ns.adobe.com/XPath/1.0/">
]>
<svg version="1.1" xmlns:x="&ns_extend;" xmlns:i="&ns_ai;" xmlns:graph="&ns_graphs;"
	 xmlns="http://www.w3.org/2000/svg" xmlns:xlink="http://www.w3.org/1999/xlink" x="0px" y="0px" width="53.105px"
	 height="53.105px" viewBox="0 0 53.105 53.105" enable-background="new 0 0 53.105 53.105" xml:space="preserve">
<g id="Layer_1">
</g>
<g id="Layer_1_5_">
	<g>
		<path fill-rule="evenodd" clip-rule="evenodd" fill="#FFFFFF" d="M26.553,53.107c14.626,0,26.555-11.928,26.555-26.555
			S41.179-0.002,26.553-0.002S-0.002,11.926-0.002,26.553S11.927,53.107,26.553,53.107z"/>
		<g>
			
				<path fill-rule="evenodd" clip-rule="evenodd" fill="none" stroke="#855439" stroke-width="1.5" stroke-linecap="round" stroke-linejoin="round" stroke-miterlimit="22.9256" d="
				M26.552,33.439c3.792,0,6.886-3.094,6.886-6.887s-3.094-6.887-6.886-6.887s-6.886,3.094-6.886,6.887S22.76,33.439,26.552,33.439z
				"/>
			
				<path fill-rule="evenodd" clip-rule="evenodd" fill="none" stroke="#855439" stroke-width="1.5" stroke-linecap="round" stroke-linejoin="round" stroke-miterlimit="22.9256" d="
				M26.552,29.498c1.623,0,2.945-1.322,2.945-2.945c0-1.621-1.323-2.945-2.945-2.945s-2.945,1.324-2.945,2.945
				C23.607,28.176,24.93,29.498,26.552,29.498z"/>
			<g>
				
					<polyline fill-rule="evenodd" clip-rule="evenodd" fill="none" stroke="#855439" stroke-width="1.5" stroke-linecap="round" stroke-linejoin="round" stroke-miterlimit="22.9256" points="
					29.496,26.553 40.554,26.553 36.626,22.627 				"/>
				
					<line fill-rule="evenodd" clip-rule="evenodd" fill="none" stroke="#855439" stroke-width="1.5" stroke-linecap="round" stroke-linejoin="round" stroke-miterlimit="22.9256" x1="40.554" y1="26.553" x2="36.626" y2="30.48"/>
			</g>
			<g>
				
					<polyline fill-rule="evenodd" clip-rule="evenodd" fill="none" stroke="#855439" stroke-width="1.5" stroke-linecap="round" stroke-linejoin="round" stroke-miterlimit="22.9256" points="
					23.608,26.553 12.551,26.553 16.479,22.627 				"/>
				
					<line fill-rule="evenodd" clip-rule="evenodd" fill="none" stroke="#855439" stroke-width="1.5" stroke-linecap="round" stroke-linejoin="round" stroke-miterlimit="22.9256" x1="12.551" y1="26.553" x2="16.479" y2="30.48"/>
			</g>
			<g>
				
					<polyline fill-rule="evenodd" clip-rule="evenodd" fill="none" stroke="#855439" stroke-width="1.5" stroke-linecap="round" stroke-linejoin="round" stroke-miterlimit="22.9256" points="
					26.552,23.609 26.552,12.553 22.625,16.479 				"/>
				
					<line fill-rule="evenodd" clip-rule="evenodd" fill="none" stroke="#855439" stroke-width="1.5" stroke-linecap="round" stroke-linejoin="round" stroke-miterlimit="22.9256" x1="26.552" y1="12.553" x2="30.479" y2="16.479"/>
			</g>
			<g>
				
					<polyline fill-rule="evenodd" clip-rule="evenodd" fill="none" stroke="#855439" stroke-width="1.5" stroke-linecap="round" stroke-linejoin="round" stroke-miterlimit="22.9256" points="
					26.552,29.496 26.552,40.555 22.625,36.627 				"/>
				
					<line fill-rule="evenodd" clip-rule="evenodd" fill="none" stroke="#855439" stroke-width="1.5" stroke-linecap="round" stroke-linejoin="round" stroke-miterlimit="22.9256" x1="26.552" y1="40.555" x2="30.479" y2="36.627"/>
			</g>
		</g>
	</g>
</g>
<g id="Layer_1_10_">
</g>
</svg>
