<?xml version="1.0" encoding="utf-8"?>
<!-- Generator: Adobe Illustrator 16.0.0, SVG Export Plug-In . SVG Version: 6.00 Build 0)  -->
<!DOCTYPE svg PUBLIC "-//W3C//DTD SVG 1.1//EN" "http://www.w3.org/Graphics/SVG/1.1/DTD/svg11.dtd" [
	<!ENTITY ns_extend "http://ns.adobe.com/Extensibility/1.0/">
	<!ENTITY ns_ai "http://ns.adobe.com/AdobeIllustrator/10.0/">
	<!ENTITY ns_graphs "http://ns.adobe.com/Graphs/1.0/">
	<!ENTITY ns_vars "http://ns.adobe.com/Variables/1.0/">
	<!ENTITY ns_imrep "http://ns.adobe.com/ImageReplacement/1.0/">
	<!ENTITY ns_sfw "http://ns.adobe.com/SaveForWeb/1.0/">
	<!ENTITY ns_custom "http://ns.adobe.com/GenericCustomNamespace/1.0/">
	<!ENTITY ns_adobe_xpath "http://ns.adobe.com/XPath/1.0/">
]>
<svg version="1.1" xmlns:x="&ns_extend;" xmlns:i="&ns_ai;" xmlns:graph="&ns_graphs;"
	 xmlns="http://www.w3.org/2000/svg" xmlns:xlink="http://www.w3.org/1999/xlink" x="0px" y="0px" width="50px" height="50px"
	 viewBox="0 0 50 50" enable-background="new 0 0 50 50" xml:space="preserve">
<g id="Layer_1"></g><g id="Layer_1_1_"></g><g id="Layer_1_2_"></g><g id="Layer_1_3_"></g><g id="Layer_1_4_"></g><g id="Layer_1_5_">	<g>
		<path fill-rule="evenodd" clip-rule="evenodd" fill="#855439" d="M10.136,12.797l1.993,3.488c0.067,0.118,0.18,0.204,0.312,0.236
			l1.859,0.465l6.379,6.378l0.704-0.704l-6.479-6.479c-0.063-0.064-0.144-0.109-0.23-0.131l-1.787-0.448l-1.697-2.972l1.455-1.455
			l2.973,1.699l0.448,1.787c0.022,0.088,0.067,0.168,0.132,0.231l6.479,6.479l0.704-0.705l-6.378-6.378l-0.466-1.859
			c-0.032-0.132-0.118-0.245-0.236-0.312l-3.488-1.993c-0.194-0.111-0.438-0.078-0.598,0.08l-1.993,1.994
			C10.061,12.355,10.025,12.601,10.136,12.797z"/>
		
			<rect x="17.268" y="24.507" transform="matrix(0.7071 -0.7071 0.7071 0.7071 -10.3536 25.0155)" fill-rule="evenodd" clip-rule="evenodd" fill="#855439" width="15.504" height="0.997"/>
		<path fill-rule="evenodd" clip-rule="evenodd" fill="#855439" d="M17.972,31.227c-0.09-0.15-0.252-0.241-0.428-0.241h-2.989
			c-0.175,0-0.337,0.091-0.427,0.241l-1.495,2.492c-0.096,0.158-0.096,0.355,0,0.514l1.495,2.492
			c0.09,0.149,0.252,0.241,0.427,0.241h2.989c0.176,0,0.338-0.092,0.428-0.241l1.495-2.492c0.095-0.158,0.095-0.355,0-0.514
			L17.972,31.227L17.972,31.227z M17.263,35.969h-2.426l-1.196-1.993l1.196-1.993h2.426l1.195,1.993L17.263,35.969z"/>
		<path fill-rule="evenodd" clip-rule="evenodd" fill="#855439" d="M33.989,22.016c3.069,0.01,5.604-2.302,5.941-5.284v-1.351
			c-0.03-0.267-0.079-0.531-0.146-0.791c-0.066-0.267-0.336-0.43-0.604-0.363c-0.088,0.022-0.168,0.067-0.231,0.131l-3.103,3.1
			l-2.461-0.82l-0.82-2.46l3.102-3.103c0.194-0.195,0.194-0.51,0-0.705c-0.064-0.064-0.146-0.11-0.233-0.131
			c-3.192-0.809-6.435,1.124-7.243,4.315c-0.123,0.484-0.184,0.982-0.182,1.481c0.001,0.393,0.041,0.784,0.12,1.168L17.217,28.117
			c-0.384-0.079-0.775-0.12-1.167-0.121c-3.303,0-5.98,2.677-5.98,5.98c0,3.184,2.489,5.786,5.627,5.969h0.707
			c3.138-0.183,5.626-2.785,5.626-5.969c-0.001-0.393-0.042-0.783-0.121-1.167l2.612-2.613l1.144,1.143
			c0.194,0.194,0.509,0.194,0.704,0l0.249-0.25c0.219-0.217,0.572-0.217,0.791,0c0.218,0.218,0.218,0.571,0,0.79l-0.25,0.25
			c-0.194,0.195-0.194,0.51,0,0.705l5.945,5.944c0.676,0.683,1.536,1.072,2.423,1.167h0.867c0.875-0.095,1.725-0.475,2.397-1.142
			c0.629-0.624,1.009-1.403,1.14-2.216v-1.283c-0.129-0.8-0.5-1.569-1.114-2.189c-0.008-0.009-0.017-0.017-0.025-0.025l-5.944-5.944
			c-0.194-0.195-0.511-0.195-0.705,0l-0.249,0.249c-0.219,0.217-0.571,0.217-0.79,0s-0.219-0.571-0.001-0.789
			c0,0,0.001-0.001,0.001-0.001l0.249-0.25c0.194-0.194,0.194-0.51,0-0.705l-1.143-1.143l2.612-2.613
			C33.206,21.974,33.597,22.015,33.989,22.016L33.989,22.016z M35.947,38.959c-0.362-0.001-0.722-0.066-1.061-0.193l3.893-3.892
			c0.587,1.563-0.203,3.305-1.766,3.892C36.673,38.894,36.312,38.959,35.947,38.959L35.947,38.959z M30.302,26.007
			c-0.552,0.658-0.466,1.64,0.192,2.191c0.579,0.485,1.422,0.484,2-0.001l5.593,5.597c0.061,0.061,0.117,0.125,0.172,0.19
			l-4.261,4.261c-0.065-0.055-0.13-0.111-0.19-0.172l-5.597-5.597c0.552-0.658,0.466-1.639-0.192-2.191
			c-0.579-0.485-1.423-0.484-2,0.001l-0.798-0.797l4.283-4.277L30.302,26.007L30.302,26.007z M32.314,20.996L21.01,32.298
			c-0.124,0.124-0.175,0.303-0.132,0.474c0.684,2.685-0.938,5.416-3.624,6.099c-2.685,0.684-5.416-0.938-6.1-3.624
			c-0.684-2.685,0.939-5.416,3.624-6.099c0.813-0.207,1.663-0.207,2.476,0c0.17,0.042,0.35-0.008,0.474-0.131l11.302-11.303
			c0.124-0.124,0.174-0.304,0.131-0.473c-0.679-2.653,0.922-5.355,3.575-6.034c0.502-0.128,1.021-0.178,1.537-0.146l-2.629,2.63
			c-0.134,0.133-0.181,0.331-0.121,0.51l0.997,2.989c0.05,0.149,0.167,0.266,0.315,0.315l2.99,0.997
			c0.179,0.06,0.376,0.013,0.51-0.12l2.628-2.629c0.006,0.095,0.01,0.189,0.01,0.283c0.014,2.738-2.194,4.97-4.933,4.983
			c-0.424,0.002-0.846-0.05-1.256-0.155c-0.169-0.042-0.35,0.007-0.473,0.131L32.314,20.996L32.314,20.996z"/>
		
			<rect x="32.495" y="29.456" transform="matrix(0.7071 -0.7071 0.7071 0.7071 -13.6562 32.989)" fill-rule="evenodd" clip-rule="evenodd" fill="#855439" width="0.997" height="7.047"/>
	</g>
</g>
<g id="Layer_1_6_"></g><g id="Layer_1_7_"></g><g id="Layer_1_8_"></g><g id="Layer_1_9_"></g><g id="Layer_1_10_"></g><g id="Layer_1_11_"></g><g id="Layer_1_12_"></g><g id="Layer_1_13_"></g><g id="Layer_1_14_"></g><g id="Layer_1_15_"></g><g id="Layer_1_16_"></g><g id="Layer_1_17_"></g><g id="Layer_1_18_"></g><g id="Layer_1_19_"></g><g id="Layer_1_20_">
</g><g id="Layer_1_21_"></g><g id="Layer_1_22_"></g><g id="Layer_1_23_"></g><g id="Layer_1_24_"></g><g id="Layer_1_25_"></g><g id="Layer_1_26_"></g><g id="Layer_1_27_"></g><g id="Layer_1_28_"></g><g id="Layer_1_29_"></g><g id="Layer_1_30_"></g>
</svg>
