<?xml version="1.0" encoding="utf-8"?>
<!-- Generator: Adobe Illustrator 16.0.0, SVG Export Plug-In . SVG Version: 6.00 Build 0)  -->
<!DOCTYPE svg PUBLIC "-//W3C//DTD SVG 1.1//EN" "http://www.w3.org/Graphics/SVG/1.1/DTD/svg11.dtd" [
	<!ENTITY ns_extend "http://ns.adobe.com/Extensibility/1.0/">
	<!ENTITY ns_ai "http://ns.adobe.com/AdobeIllustrator/10.0/">
	<!ENTITY ns_graphs "http://ns.adobe.com/Graphs/1.0/">
	<!ENTITY ns_vars "http://ns.adobe.com/Variables/1.0/">
	<!ENTITY ns_imrep "http://ns.adobe.com/ImageReplacement/1.0/">
	<!ENTITY ns_sfw "http://ns.adobe.com/SaveForWeb/1.0/">
	<!ENTITY ns_custom "http://ns.adobe.com/GenericCustomNamespace/1.0/">
	<!ENTITY ns_adobe_xpath "http://ns.adobe.com/XPath/1.0/">
]>
<svg version="1.1" xmlns:x="&ns_extend;" xmlns:i="&ns_ai;" xmlns:graph="&ns_graphs;"
	 xmlns="http://www.w3.org/2000/svg" xmlns:xlink="http://www.w3.org/1999/xlink" x="0px" y="0px" width="60px" height="60px"
	 viewBox="0 0 60 60" enable-background="new 0 0 60 60" xml:space="preserve">
<g id="Layer_1">
</g>
<g id="Layer_1_1_">
</g>
<g id="Layer_1_2_">
</g>
<g id="Layer_1_3_">
</g>
<g id="Layer_1_4_">
</g>
<g id="Layer_1_5_">
	<rect fill-rule="evenodd" clip-rule="evenodd" fill="none" width="60" height="60"/>
	<g>
		<path fill-rule="evenodd" clip-rule="evenodd" fill="#FFFFFF" d="M12.163,15.356l2.392,4.186c0.081,0.141,0.216,0.244,0.374,0.284
			l2.231,0.558l7.655,7.654l0.845-0.845l-7.774-7.774c-0.076-0.077-0.172-0.131-0.277-0.158l-2.145-0.538l-2.037-3.566l1.746-1.746
			l3.567,2.039l0.538,2.145c0.027,0.105,0.081,0.202,0.158,0.278l7.774,7.774l0.845-0.845l-7.653-7.654l-0.559-2.23
			c-0.039-0.158-0.142-0.293-0.284-0.375l-4.186-2.392c-0.233-0.133-0.526-0.094-0.717,0.096l-2.392,2.393
			C12.073,14.826,12.03,15.121,12.163,15.356z"/>
		
			<rect x="20.721" y="29.409" transform="matrix(0.7071 -0.7071 0.7071 0.7071 -12.4242 30.0177)" fill-rule="evenodd" clip-rule="evenodd" fill="#FFFFFF" width="18.605" height="1.196"/>
		<path fill-rule="evenodd" clip-rule="evenodd" fill="#FFFFFF" d="M21.566,37.472c-0.108-0.18-0.302-0.29-0.513-0.29h-3.587
			c-0.21,0-0.404,0.11-0.512,0.29l-1.794,2.99c-0.115,0.19-0.115,0.426,0,0.616l1.794,2.99c0.108,0.179,0.302,0.29,0.512,0.29h3.587
			c0.211,0,0.405-0.11,0.513-0.29l1.794-2.99c0.113-0.19,0.113-0.426,0-0.616L21.566,37.472L21.566,37.472z M20.715,43.162h-2.911
			l-1.436-2.392l1.436-2.392h2.911l1.434,2.392L20.715,43.162z"/>
		<path fill-rule="evenodd" clip-rule="evenodd" fill="#FFFFFF" d="M40.787,26.419c3.683,0.013,6.726-2.763,7.13-6.34v-1.621
			c-0.037-0.32-0.095-0.637-0.175-0.949c-0.08-0.32-0.403-0.516-0.724-0.436c-0.105,0.026-0.202,0.081-0.278,0.158l-3.723,3.72
			l-2.953-0.984l-0.984-2.953l3.722-3.724c0.233-0.234,0.233-0.612,0-0.846c-0.078-0.077-0.175-0.132-0.28-0.157
			c-3.831-0.971-7.722,1.348-8.692,5.178c-0.147,0.581-0.22,1.178-0.218,1.778c0.001,0.471,0.049,0.94,0.144,1.401L20.66,33.74
			c-0.46-0.095-0.931-0.144-1.4-0.145c-3.963,0-7.177,3.212-7.177,7.176c0,3.821,2.987,6.943,6.752,7.163h0.849
			c3.765-0.22,6.751-3.342,6.751-7.163c-0.001-0.471-0.05-0.94-0.145-1.401l3.135-3.135l1.372,1.372c0.233,0.233,0.61,0.233,0.845,0
			l0.299-0.3c0.263-0.26,0.687-0.26,0.949,0c0.262,0.262,0.262,0.686,0,0.948l-0.3,0.3c-0.233,0.234-0.233,0.612,0,0.846
			l7.134,7.133c0.811,0.819,1.843,1.286,2.908,1.401h1.041c1.05-0.114,2.069-0.569,2.877-1.37c0.754-0.748,1.21-1.684,1.368-2.659
			v-1.54c-0.155-0.959-0.6-1.882-1.337-2.626c-0.009-0.011-0.02-0.021-0.03-0.031l-7.133-7.133c-0.233-0.233-0.613-0.233-0.846,0
			l-0.299,0.298c-0.262,0.261-0.686,0.261-0.948,0c-0.263-0.261-0.263-0.685-0.001-0.947c0,0,0.001-0.001,0.001-0.001l0.299-0.3
			c0.233-0.233,0.233-0.611,0-0.845l-1.371-1.371l3.135-3.135C39.847,26.369,40.316,26.417,40.787,26.419L40.787,26.419z
			 M43.137,46.75c-0.435-0.001-0.866-0.079-1.272-0.232l4.671-4.67c0.704,1.875-0.244,3.965-2.119,4.67
			C44.007,46.672,43.574,46.751,43.137,46.75L43.137,46.75z M36.362,31.208c-0.662,0.79-0.559,1.968,0.23,2.629
			c0.695,0.582,1.707,0.581,2.4-0.002l6.711,6.717c0.073,0.073,0.141,0.15,0.207,0.229l-5.113,5.113
			c-0.079-0.066-0.156-0.134-0.229-0.207l-6.716-6.716c0.662-0.79,0.559-1.967-0.231-2.629c-0.695-0.582-1.707-0.581-2.4,0.002
			l-0.958-0.957l5.14-5.132L36.362,31.208L36.362,31.208z M38.777,25.194L25.212,38.757c-0.149,0.148-0.21,0.364-0.158,0.568
			c0.82,3.222-1.126,6.499-4.349,7.318c-3.221,0.821-6.499-1.126-7.319-4.348s1.127-6.499,4.349-7.319
			c0.975-0.248,1.996-0.248,2.971,0c0.204,0.05,0.419-0.01,0.568-0.157l13.562-13.563c0.149-0.148,0.209-0.364,0.157-0.568
			c-0.814-3.184,1.106-6.426,4.29-7.241c0.603-0.154,1.225-0.213,1.845-0.175l-3.155,3.156c-0.161,0.16-0.217,0.397-0.145,0.612
			l1.196,3.587c0.06,0.179,0.2,0.318,0.378,0.378l3.588,1.196c0.214,0.071,0.451,0.016,0.612-0.144l3.153-3.155
			c0.007,0.114,0.012,0.228,0.012,0.339c0.017,3.286-2.633,5.963-5.919,5.98c-0.509,0.002-1.015-0.06-1.507-0.186
			c-0.203-0.051-0.419,0.009-0.567,0.157L38.777,25.194L38.777,25.194z"/>
		
			<rect x="38.993" y="35.347" transform="matrix(0.7071 -0.7071 0.7071 0.7071 -16.3874 39.5868)" fill-rule="evenodd" clip-rule="evenodd" fill="#FFFFFF" width="1.197" height="8.456"/>
	</g>
</g>
<g id="Layer_1_6_">
</g>
<g id="Layer_1_7_">
</g>
<g id="Layer_1_8_">
</g>
<g id="Layer_1_9_">
</g>
<g id="Layer_1_10_">
</g>
<g id="Layer_1_11_">
</g>
<g id="Layer_1_12_">
</g>
<g id="Layer_1_13_">
</g>
<g id="Layer_1_14_">
</g>
<g id="Layer_1_15_">
</g>
<g id="Layer_1_16_">
</g>
<g id="Layer_1_17_">
</g>
<g id="Layer_1_18_">
</g>
<g id="Layer_1_19_">
</g>
<g id="Layer_1_20_">
</g>
<g id="Layer_1_21_">
</g>
<g id="Layer_1_22_">
</g>
<g id="Layer_1_23_">
</g>
<g id="Layer_1_24_">
</g>
<g id="Layer_1_25_">
</g>
<g id="Layer_1_26_">
</g>
<g id="Layer_1_27_">
</g>
<g id="Layer_1_28_">
</g>
<g id="Layer_1_29_">
</g>
<g id="Layer_1_30_">
</g>
</svg>
