<?xml version="1.0" encoding="utf-8"?>
<!-- Generator: Adobe Illustrator 16.0.0, SVG Export Plug-In . SVG Version: 6.00 Build 0)  -->
<!DOCTYPE svg PUBLIC "-//W3C//DTD SVG 1.1//EN" "http://www.w3.org/Graphics/SVG/1.1/DTD/svg11.dtd">
<svg version="1.1" id="Layer_1" xmlns="http://www.w3.org/2000/svg" xmlns:xlink="http://www.w3.org/1999/xlink" x="0px" y="0px"
	 width="50px" height="50px" viewBox="0 0 50 50" enable-background="new 0 0 50 50" xml:space="preserve">
<g>
	<path fill="#FFFFFF" d="M49.165,0H0.836C0.381,0,0,0.381,0,0.836v48.329C0,49.621,0.381,50,0.836,50h48.329
		C49.621,50,50,49.621,50,49.165V0.836C50,0.381,49.621,0,49.165,0L49.165,0z"/>
	<path fill="#732F31" d="M48.327,11.703H15.806l0,0h-0.077c0.077-0.761,0.077-2.205,0.077-5.472V1.673h32.521V11.703z"/>
	<path fill="#732F31" d="M28.95,37.764c-0.152-0.151-0.379-0.228-0.607-0.228c-0.152,0-8.89,0-11.701,0v-5.851h15.044
		c0.458,0,0.837-0.38,0.837-0.835V13.375h15.804v15.804c-5.547,0.382-9.118,3.877-9.118,9.196v6.61c-1.977,0-6.762,0-10.031,0v-6.61
		C29.178,38.146,29.102,37.919,28.95,37.764L28.95,37.764z"/>
	<path fill="#732F31" d="M10.867,22.872c2.887-2.354,4.71-5.775,4.862-9.497h15.122v16.641H10.867V22.872z"/>
	<path fill="#732F31" d="M14.209,1.673c0,2.506,0,9.878,0,10.03c0,7.522-4.711,12.157-12.537,12.46V1.673H14.209z"/>
	<path fill="#732F31" d="M1.673,25.835c2.583-0.076,5.166-0.683,7.522-1.899v6.915c0,0.456,0.38,0.835,0.835,0.835h5.016v6.688
		c0,0.456,0.304,0.835,0.76,0.835h10.561c0.458,0,0.837,0,1.141,0v5.775h-1.673c-0.456,0-0.835,0.379-0.835,0.835v2.508H1.673
		V25.835z"/>
	<path fill="#732F31" d="M26.673,48.327v-1.67h12.764c0.684,0,1.445,0,1.445-0.838v-7.445c0-4.409,2.812-7.22,7.445-7.524v17.477
		H26.673z"/>
</g>
</svg>
