<?xml version="1.0" encoding="utf-8"?>
<!-- Generator: Adobe Illustrator 16.0.0, SVG Export Plug-In . SVG Version: 6.00 Build 0)  -->
<!DOCTYPE svg PUBLIC "-//W3C//DTD SVG 1.1//EN" "http://www.w3.org/Graphics/SVG/1.1/DTD/svg11.dtd">
<svg version="1.1" id="Layer_1" xmlns="http://www.w3.org/2000/svg" xmlns:xlink="http://www.w3.org/1999/xlink" x="0px" y="0px"
	 width="50px" height="50px" viewBox="0 0 50 50" enable-background="new 0 0 50 50" xml:space="preserve">
<g>
	<path fill-rule="evenodd" clip-rule="evenodd" fill="#C7BAA7" d="M25.001,50C38.801,50,50,38.801,50,24.999
		C50,11.267,38.801,0,25.001,0C11.267,0,0,11.267,0,24.999C0,38.801,11.267,50,25.001,50L25.001,50z"/>
	<g>
		<path fill="none" stroke="#732F31" stroke-width="2" stroke-linecap="round" stroke-linejoin="round" stroke-miterlimit="10" d="
			M31.547,10.35l2.042,1.27c1.339,0.773,1.762,2.465,0.988,3.802L21.9,37.042l-6.831-4.085l12.677-21.62
			C28.519,10,30.21,9.575,31.547,10.35L31.547,10.35z"/>
		
			<polygon fill="none" stroke="#732F31" stroke-width="2" stroke-linecap="round" stroke-linejoin="round" stroke-miterlimit="10" points="
			15.07,32.957 21.9,37.042 15.562,40.069 		"/>
		
			<line fill="none" stroke="#732F31" stroke-width="2" stroke-linecap="round" stroke-linejoin="round" stroke-miterlimit="10" x1="26.267" y1="13.8" x2="33.099" y2="17.958"/>
		
			<line fill="none" stroke="#732F31" stroke-width="2" stroke-linecap="round" stroke-linejoin="round" stroke-miterlimit="10" x1="24.436" y1="16.971" x2="31.266" y2="21.054"/>
		
			<line fill="none" stroke="#732F31" stroke-width="2" stroke-linecap="round" stroke-linejoin="round" stroke-miterlimit="10" x1="24.155" y1="25.491" x2="18.591" y2="35.069"/>
	</g>
</g>
</svg>
