<?xml version="1.0" encoding="utf-8"?>
<!-- Generator: Adobe Illustrator 16.0.0, SVG Export Plug-In . SVG Version: 6.00 Build 0)  -->
<!DOCTYPE svg PUBLIC "-//W3C//DTD SVG 1.1//EN" "http://www.w3.org/Graphics/SVG/1.1/DTD/svg11.dtd">
<svg version="1.1" id="Layer_1" xmlns="http://www.w3.org/2000/svg" xmlns:xlink="http://www.w3.org/1999/xlink" x="0px" y="0px"
	 width="50px" height="50px" viewBox="0 0 50 50" enable-background="new 0 0 50 50" xml:space="preserve">
<g>
	<path fill="#c5b4a3" d="M25.001,29.992l-14.944-4.602v7.719c0,3.541,6.729,6.373,14.944,6.373c8.215,0,14.942-2.833,14.942-6.373
		c0-0.07-0.071-0.07-0.071-0.141v-7.578L25.001,29.992z"/>
	<path fill="#c5b4a3" d="M0,20.148l5.312,1.913l0.495-0.992l1.913-0.142l0.283,0.283l-1.63,0.354l-0.283,0.78
		c0,0-3.752,7.931-3.257,11.756c0,0,2.408,1.415,4.746,0l0.637-10.552v-0.921l3.541-0.778l-0.283,0.637l-2.621,0.85l1.206,0.425
		l14.944,4.604l14.871-4.604L50,20.148l-24.999-9.631L0,20.148z"/>
</g>
</svg>
