<?xml version="1.0" encoding="utf-8"?>
<!-- Generator: Adobe Illustrator 16.0.0, SVG Export Plug-In . SVG Version: 6.00 Build 0)  -->
<!DOCTYPE svg PUBLIC "-//W3C//DTD SVG 1.1//EN" "http://www.w3.org/Graphics/SVG/1.1/DTD/svg11.dtd" [
	<!ENTITY ns_extend "http://ns.adobe.com/Extensibility/1.0/">
	<!ENTITY ns_ai "http://ns.adobe.com/AdobeIllustrator/10.0/">
	<!ENTITY ns_graphs "http://ns.adobe.com/Graphs/1.0/">
	<!ENTITY ns_vars "http://ns.adobe.com/Variables/1.0/">
	<!ENTITY ns_imrep "http://ns.adobe.com/ImageReplacement/1.0/">
	<!ENTITY ns_sfw "http://ns.adobe.com/SaveForWeb/1.0/">
	<!ENTITY ns_custom "http://ns.adobe.com/GenericCustomNamespace/1.0/">
	<!ENTITY ns_adobe_xpath "http://ns.adobe.com/XPath/1.0/">
]>
<svg version="1.1" id="Layer_1" xmlns:x="&ns_extend;" xmlns:i="&ns_ai;" xmlns:graph="&ns_graphs;"
	 xmlns="http://www.w3.org/2000/svg" xmlns:xlink="http://www.w3.org/1999/xlink" x="0px" y="0px" width="50px" height="50px"
	 viewBox="0 0 50 50" enable-background="new 0 0 50 50" xml:space="preserve">
<metadata>
	<sfw  xmlns="&ns_sfw;">
		<slices></slices>
		<sliceSourceBounds  height="303.334" width="464.814" y="-303.334" x="-9.982" bottomLeftOrigin="true"></sliceSourceBounds>
	</sfw>
</metadata>
<g>
	<path fill="none" stroke="#732F31" stroke-width="3.8285" stroke-linecap="round" d="M39.084,17.148c-0.125-0.292-0.42-0.481-0.75-0.481h-9.871l9.743-15.391
		c0.164-0.258,0.164-0.58,0.024-0.847C38.078,0.159,37.801,0,37.505,0h-13.33c-0.317,0-0.614,0.177-0.753,0.457L10.918,25.46
		c-0.127,0.26-0.115,0.565,0.037,0.811c0.153,0.244,0.421,0.396,0.712,0.396h8.57l-9.344,22.177
		c-0.153,0.379-0.015,0.818,0.344,1.034C11.364,49.961,11.515,50,11.667,50c0.242,0,0.472-0.103,0.636-0.294l26.668-31.672
		C39.187,17.789,39.228,17.441,39.084,17.148z"/>
</g>
</svg>
