<?xml version="1.0" encoding="utf-8"?>
<!-- Generator: Adobe Illustrator 16.0.0, SVG Export Plug-In . SVG Version: 6.00 Build 0)  -->
<!DOCTYPE svg PUBLIC "-//W3C//DTD SVG 1.1//EN" "http://www.w3.org/Graphics/SVG/1.1/DTD/svg11.dtd" [
	<!ENTITY ns_extend "http://ns.adobe.com/Extensibility/1.0/">
	<!ENTITY ns_ai "http://ns.adobe.com/AdobeIllustrator/10.0/">
	<!ENTITY ns_graphs "http://ns.adobe.com/Graphs/1.0/">
	<!ENTITY ns_vars "http://ns.adobe.com/Variables/1.0/">
	<!ENTITY ns_imrep "http://ns.adobe.com/ImageReplacement/1.0/">
	<!ENTITY ns_sfw "http://ns.adobe.com/SaveForWeb/1.0/">
	<!ENTITY ns_custom "http://ns.adobe.com/GenericCustomNamespace/1.0/">
	<!ENTITY ns_adobe_xpath "http://ns.adobe.com/XPath/1.0/">
]>
<svg version="1.1" xmlns:x="&ns_extend;" xmlns:i="&ns_ai;" xmlns:graph="&ns_graphs;"
	 xmlns="http://www.w3.org/2000/svg" xmlns:xlink="http://www.w3.org/1999/xlink" x="0px" y="0px" width="50px" height="50px"
	 viewBox="0 0 50 50" enable-background="new 0 0 50 50" xml:space="preserve">
<g id="Layer_1">
</g>
<g id="Layer_1_1_">
</g>
<g id="Layer_1_2_">
</g>
<g id="Layer_1_3_">
</g>
<g id="Layer_1_4_">
</g>
<g id="Layer_1_5_">
	<g>
		<g>
			<path fill-rule="evenodd" clip-rule="evenodd" fill="#855439" d="M36.791,12.21h-1.938v-1.324c0-0.311-0.253-0.563-0.563-0.563
				s-0.563,0.252-0.563,0.563v1.324H31.34v-1.324c0-0.311-0.252-0.563-0.563-0.563c-0.312,0-0.563,0.252-0.563,0.563v1.324H19.786
				v-1.324c0-0.311-0.252-0.563-0.563-0.563s-0.563,0.252-0.563,0.563v1.324h-2.387v-1.324c0-0.311-0.252-0.563-0.563-0.563
				c-0.311,0-0.563,0.252-0.563,0.563v1.324H13.21c-1.401,0-2.542,1.14-2.542,2.542v22.384c0,1.401,1.141,2.541,2.542,2.541h23.581
				c1.401,0,2.541-1.14,2.541-2.541V14.752C39.332,13.351,38.192,12.21,36.791,12.21L36.791,12.21z M38.207,37.136
				c0,0.781-0.635,1.416-1.416,1.416H13.21c-0.781,0-1.417-0.635-1.417-1.416V18.929h26.414V37.136L38.207,37.136z M11.793,14.752
				c0-0.781,0.636-1.417,1.417-1.417h1.938v1.324c0,0.311,0.252,0.563,0.563,0.563c0.311,0,0.563-0.252,0.563-0.563v-1.324h2.387
				v1.324c0,0.311,0.252,0.563,0.563,0.563c0.312,0,0.563-0.252,0.563-0.563v-1.324h10.428v1.324c0,0.311,0.252,0.563,0.563,0.563
				c0.311,0,0.563-0.252,0.563-0.563v-1.324h2.387v1.324c0,0.311,0.252,0.563,0.563,0.563c0.312,0,0.563-0.252,0.563-0.563v-1.324
				h1.938c0.781,0,1.416,0.636,1.416,1.417v3.052H11.793V14.752z"/>
		</g>
		<g>
			<path fill-rule="evenodd" clip-rule="evenodd" fill="#855439" d="M25,35.449c3.699,0,6.709-3.01,6.709-6.709
				S28.7,22.031,25,22.031c-3.699,0-6.709,3.01-6.709,6.709S21.302,35.449,25,35.449L25,35.449z M25,23.157
				c3.079,0,5.584,2.504,5.584,5.583S28.079,34.324,25,34.324c-3.078,0-5.583-2.505-5.583-5.584S21.922,23.157,25,23.157z"/>
		</g>
		<g>
			<path fill-rule="evenodd" clip-rule="evenodd" fill="#855439" d="M23.912,30.72c0.105,0.105,0.249,0.164,0.398,0.164
				s0.292-0.059,0.397-0.164l3.163-3.162c0.22-0.221,0.22-0.576,0-0.796s-0.576-0.22-0.796,0l-2.765,2.764l-1.385-1.385
				c-0.22-0.22-0.576-0.22-0.796,0c-0.22,0.221-0.22,0.576,0,0.796L23.912,30.72z"/>
		</g>
	</g>
</g>
<g id="Layer_1_6_">
</g>
<g id="Layer_1_7_">
</g>
<g id="Layer_1_8_">
</g>
<g id="Layer_1_9_">
</g>
<g id="Layer_1_10_">
</g>
<g id="Layer_1_11_">
</g>
<g id="Layer_1_12_">
</g>
<g id="Layer_1_13_">
</g>
<g id="Layer_1_14_">
</g>
<g id="Layer_1_15_">
</g>
<g id="Layer_1_16_">
</g>
<g id="Layer_1_17_">
</g>
<g id="Layer_1_18_">
</g>
<g id="Layer_1_19_">
</g>
<g id="Layer_1_20_">
</g>
<g id="Layer_1_21_">
</g>
<g id="Layer_1_22_">
</g>
<g id="Layer_1_23_">
</g>
<g id="Layer_1_24_">
</g>
<g id="Layer_1_25_">
</g>
<g id="Layer_1_26_">
</g>
<g id="Layer_1_27_">
</g>
<g id="Layer_1_28_">
</g>
<g id="Layer_1_29_">
</g>
<g id="Layer_1_30_">
</g>
</svg>
