<?xml version="1.0" encoding="utf-8"?>
<!-- Generator: Adobe Illustrator 16.0.0, SVG Export Plug-In . SVG Version: 6.00 Build 0)  -->
<!DOCTYPE svg PUBLIC "-//W3C//DTD SVG 1.1//EN" "http://www.w3.org/Graphics/SVG/1.1/DTD/svg11.dtd" [
	<!ENTITY ns_extend "http://ns.adobe.com/Extensibility/1.0/">
	<!ENTITY ns_ai "http://ns.adobe.com/AdobeIllustrator/10.0/">
	<!ENTITY ns_graphs "http://ns.adobe.com/Graphs/1.0/">
	<!ENTITY ns_vars "http://ns.adobe.com/Variables/1.0/">
	<!ENTITY ns_imrep "http://ns.adobe.com/ImageReplacement/1.0/">
	<!ENTITY ns_sfw "http://ns.adobe.com/SaveForWeb/1.0/">
	<!ENTITY ns_custom "http://ns.adobe.com/GenericCustomNamespace/1.0/">
	<!ENTITY ns_adobe_xpath "http://ns.adobe.com/XPath/1.0/">
]>
<svg version="1.1" xmlns:x="&ns_extend;" xmlns:i="&ns_ai;" xmlns:graph="&ns_graphs;"
	 xmlns="http://www.w3.org/2000/svg" xmlns:xlink="http://www.w3.org/1999/xlink" x="0px" y="0px" width="60px" height="60px"
	 viewBox="0 0 60 60" enable-background="new 0 0 60 60" xml:space="preserve">
<g id="Layer_1">
</g>
<g id="Layer_1_1_">
</g>
<g id="Layer_1_2_">
</g>
<g id="Layer_1_3_">
</g>
<g id="Layer_1_4_">
</g>
<g id="Layer_1_5_">
	<rect fill-rule="evenodd" clip-rule="evenodd" fill="none" width="60" height="60"/>
	<g>
		<g>
			<path fill-rule="evenodd" clip-rule="evenodd" fill="#FFFFFF" d="M44.149,14.652h-2.326v-1.59c0-0.372-0.304-0.675-0.676-0.675
				s-0.675,0.303-0.675,0.675v1.59h-2.864v-1.59c0-0.372-0.302-0.675-0.675-0.675c-0.374,0-0.676,0.303-0.676,0.675v1.59H23.743
				v-1.59c0-0.372-0.302-0.675-0.675-0.675s-0.675,0.303-0.675,0.675v1.59h-2.864v-1.59c0-0.372-0.302-0.675-0.676-0.675
				c-0.373,0-0.675,0.303-0.675,0.675v1.59h-2.326c-1.682,0-3.05,1.367-3.05,3.05v26.86c0,1.682,1.369,3.05,3.05,3.05h28.297
				c1.682,0,3.049-1.368,3.049-3.05v-26.86C47.198,16.021,45.831,14.652,44.149,14.652L44.149,14.652z M45.849,44.563
				c0,0.938-0.762,1.699-1.699,1.699H15.852c-0.938,0-1.701-0.762-1.701-1.699V22.715h31.697V44.563L45.849,44.563z M14.151,17.702
				c0-0.938,0.763-1.7,1.701-1.7h2.326v1.589c0,0.373,0.302,0.675,0.676,0.675c0.373,0,0.675-0.302,0.675-0.675v-1.589h2.864v1.589
				c0,0.373,0.302,0.675,0.675,0.675c0.374,0,0.675-0.302,0.675-0.675v-1.589h12.514v1.589c0,0.373,0.302,0.675,0.676,0.675
				c0.373,0,0.675-0.302,0.675-0.675v-1.589h2.864v1.589c0,0.373,0.303,0.675,0.675,0.675c0.374,0,0.676-0.302,0.676-0.675v-1.589
				h2.326c0.938,0,1.699,0.763,1.699,1.7v3.662H14.151V17.702z"/>
		</g>
		<g>
			<path fill-rule="evenodd" clip-rule="evenodd" fill="#FFFFFF" d="M30,42.539c4.439,0,8.051-3.611,8.051-8.051
				S34.44,26.438,30,26.438c-4.439,0-8.051,3.611-8.051,8.051S25.562,42.539,30,42.539L30,42.539z M30,27.789
				c3.695,0,6.701,3.004,6.701,6.699S33.695,41.189,30,41.189c-3.694,0-6.7-3.006-6.7-6.701S26.306,27.789,30,27.789z"/>
		</g>
		<g>
			<path fill-rule="evenodd" clip-rule="evenodd" fill="#FFFFFF" d="M28.694,36.863c0.127,0.127,0.299,0.197,0.479,0.197
				c0.179,0,0.35-0.07,0.477-0.197l3.796-3.794c0.264-0.265,0.264-0.691,0-0.955s-0.691-0.264-0.955,0l-3.317,3.316l-1.662-1.662
				c-0.264-0.264-0.691-0.264-0.955,0c-0.264,0.265-0.264,0.691,0,0.955L28.694,36.863z"/>
		</g>
	</g>
</g>
<g id="Layer_1_6_">
</g>
<g id="Layer_1_7_">
</g>
<g id="Layer_1_8_">
</g>
<g id="Layer_1_9_">
</g>
<g id="Layer_1_10_">
</g>
<g id="Layer_1_11_">
</g>
<g id="Layer_1_12_">
</g>
<g id="Layer_1_13_">
</g>
<g id="Layer_1_14_">
</g>
<g id="Layer_1_15_">
</g>
<g id="Layer_1_16_">
</g>
<g id="Layer_1_17_">
</g>
<g id="Layer_1_18_">
</g>
<g id="Layer_1_19_">
</g>
<g id="Layer_1_20_">
</g>
<g id="Layer_1_21_">
</g>
<g id="Layer_1_22_">
</g>
<g id="Layer_1_23_">
</g>
<g id="Layer_1_24_">
</g>
<g id="Layer_1_25_">
</g>
<g id="Layer_1_26_">
</g>
<g id="Layer_1_27_">
</g>
<g id="Layer_1_28_">
</g>
<g id="Layer_1_29_">
</g>
<g id="Layer_1_30_">
</g>
</svg>
