<?xml version="1.0" encoding="utf-8"?>
<!-- Generator: Adobe Illustrator 16.0.0, SVG Export Plug-In . SVG Version: 6.00 Build 0)  -->
<!DOCTYPE svg PUBLIC "-//W3C//DTD SVG 1.1//EN" "http://www.w3.org/Graphics/SVG/1.1/DTD/svg11.dtd">
<svg version="1.1" id="Layer_1" xmlns="http://www.w3.org/2000/svg" xmlns:xlink="http://www.w3.org/1999/xlink" x="0px" y="0px"
	 width="50px" height="50px" viewBox="0 0 50 50" enable-background="new 0 0 50 50" xml:space="preserve">
<g>
	<path fill="#855439" d="M44.327,17.863H43.1V12.1v-0.096c0-0.283-0.095-0.471-0.189-0.66L33.269,0.377l0,0
		c-0.094-0.092-0.189-0.189-0.189-0.189c-0.094,0-0.094,0-0.094-0.09c-0.094,0-0.094,0-0.189,0c0,0,0-0.098-0.094-0.098
		c0,0-0.094,0-0.189,0H8.79C7.75,0,6.806,0.852,6.806,1.986v15.877H5.67c-1.605,0-2.833,1.324-2.833,2.838v14.553
		c0,1.607,1.228,2.836,2.833,2.836h1.136v10.02C6.806,49.148,7.75,50,8.79,50h32.421c1.039,0,1.889-0.852,1.889-1.891V38.09h1.228
		c1.514,0,2.836-1.229,2.836-2.836V20.701C47.163,19.188,45.841,17.863,44.327,17.863L44.327,17.863z M8.79,1.986h22.78v10.018
		c0,0.566,0.378,0.945,0.944,0.945h8.697v4.914H8.79V1.986z M23.533,28.545c-2.361-0.852-3.966-2.174-3.966-4.254
		c0-2.555,2.077-4.441,5.574-4.441c1.609,0,2.836,0.377,3.686,0.754l-0.755,2.648c-0.566-0.283-1.608-0.662-3.025-0.662
		s-2.172,0.662-2.172,1.416c0,0.949,0.847,1.326,2.738,1.986c2.553,1.039,3.781,2.361,3.781,4.441c0,2.459-1.889,4.537-5.861,4.537
		c-1.7,0-3.308-0.473-4.155-0.945l0.658-2.74c0.853,0.471,2.27,0.947,3.686,0.947c1.514,0,2.27-0.664,2.27-1.609
		C25.992,29.773,25.331,29.207,23.533,28.545L23.533,28.545z M6.334,27.598c0-5.008,3.588-7.748,7.939-7.748
		c1.797,0,3.025,0.377,3.686,0.66l-0.661,2.646c-0.759-0.283-1.605-0.566-2.836-0.566c-2.644,0-4.63,1.609-4.63,4.82
		c0,2.93,1.7,4.822,4.63,4.822c1.042,0,2.175-0.287,2.836-0.477l0.472,2.553c-0.661,0.283-1.986,0.662-3.781,0.662
		C8.887,34.971,6.334,31.756,6.334,27.598L6.334,27.598z M41.211,47.543H8.79V38.09h32.421V47.543z M38.941,34.688h-3.78
		l-4.725-14.65h3.591l1.794,6.238c0.472,1.701,0.944,3.404,1.322,5.197h0.094c0.381-1.699,0.759-3.496,1.325-5.102l1.794-6.334
		h3.591L38.941,34.688z"/>
</g>
</svg>
