<?xml version="1.0" encoding="utf-8"?>
<!-- Generator: Adobe Illustrator 16.0.0, SVG Export Plug-In . SVG Version: 6.00 Build 0)  -->
<!DOCTYPE svg PUBLIC "-//W3C//DTD SVG 1.1//EN" "http://www.w3.org/Graphics/SVG/1.1/DTD/svg11.dtd">
<svg version="1.1" id="Layer_1" xmlns="http://www.w3.org/2000/svg" xmlns:xlink="http://www.w3.org/1999/xlink" x="0px" y="0px"
	 width="50px" height="50px" viewBox="0 0 50 50" enable-background="new 0 0 50 50" xml:space="preserve">
<g>
	<path fill-rule="evenodd" clip-rule="evenodd" fill="#3B5997" d="M25,0.002L25,0.002c13.75,0,25,11.246,25,24.996l0,0
		c0,13.75-11.25,25-25,25l0,0c-13.75,0-25-11.25-25-25l0,0C0,11.248,11.25,0.002,25,0.002z"/>
	<path fill-rule="evenodd" clip-rule="evenodd" fill="#FFFFFF" d="M28.023,17.314h3.197v-4.723h-3.76v0.018
		c-4.557,0.16-5.49,2.721-5.57,5.41h-0.01v2.359h-3.104v4.625h3.104v12.402h4.674V25.004h3.828l0.74-4.625h-4.566v-1.426
		C26.557,18.045,27.16,17.314,28.023,17.314z"/>
</g>
</svg>
