<?xml version="1.0" encoding="utf-8"?>
<!-- Generator: Adobe Illustrator 16.0.0, SVG Export Plug-In . SVG Version: 6.00 Build 0)  -->
<!DOCTYPE svg PUBLIC "-//W3C//DTD SVG 1.1//EN" "http://www.w3.org/Graphics/SVG/1.1/DTD/svg11.dtd" [
	<!ENTITY ns_extend "http://ns.adobe.com/Extensibility/1.0/">
	<!ENTITY ns_ai "http://ns.adobe.com/AdobeIllustrator/10.0/">
	<!ENTITY ns_graphs "http://ns.adobe.com/Graphs/1.0/">
	<!ENTITY ns_vars "http://ns.adobe.com/Variables/1.0/">
	<!ENTITY ns_imrep "http://ns.adobe.com/ImageReplacement/1.0/">
	<!ENTITY ns_sfw "http://ns.adobe.com/SaveForWeb/1.0/">
	<!ENTITY ns_custom "http://ns.adobe.com/GenericCustomNamespace/1.0/">
	<!ENTITY ns_adobe_xpath "http://ns.adobe.com/XPath/1.0/">
]>
<svg version="1.1" xmlns:x="&ns_extend;" xmlns:i="&ns_ai;" xmlns:graph="&ns_graphs;"
	 xmlns="http://www.w3.org/2000/svg" xmlns:xlink="http://www.w3.org/1999/xlink" x="0px" y="0px" width="60px" height="60px"
	 viewBox="0 0 60 60" enable-background="new 0 0 60 60" xml:space="preserve">
<g id="Layer_1">
</g>
<g id="Layer_1_1_">
</g>
<g id="Layer_1_2_">
</g>
<g id="Layer_1_3_">
</g>
<g id="Layer_1_4_">
</g>
<g id="Layer_1_5_">
	<rect fill-rule="evenodd" clip-rule="evenodd" fill="none" width="60" height="60"/>
	<rect fill-rule="evenodd" clip-rule="evenodd" fill="none" width="60" height="60"/>
	<path fill-rule="evenodd" clip-rule="evenodd" fill="#FFFFFF" d="M47.289,27.422c-0.374-0.563-0.939-0.952-1.597-1.099
		c0.424-0.813,0.407-1.825-0.133-2.641c-0.384-0.581-0.964-0.956-1.596-1.098c0.112-0.216,0.196-0.447,0.246-0.691
		c0.138-0.68,0.003-1.373-0.38-1.95c-0.373-0.565-0.938-0.953-1.596-1.1c0.424-0.812,0.407-1.824-0.134-2.642
		c-0.79-1.192-2.404-1.521-3.598-0.73l-2.584,1.712c-1.377-0.698-2.843-1.194-4.363-1.477c-0.481-0.73-1.04-1.409-1.666-2.015
		l-1.069-1.037c-0.783-0.758-2.011-0.873-2.919-0.271c-1.077,0.712-1.372,2.167-0.659,3.242c0.028,0.042,0.055,0.086,0.083,0.128
		c-3.505,0.71-6.7,2.57-9.064,5.296c-2.565,2.958-3.979,6.745-3.979,10.665c0,0.752,0.052,1.505,0.153,2.238
		c0.784,5.696,4.578,10.605,9.903,12.813C24.31,47.584,26.405,48,28.562,48c3.416,0,6.686-1.046,9.456-3.025
		c2.71-1.937,4.738-4.609,5.864-7.728c0.105-0.291-0.045-0.611-0.336-0.716c-0.291-0.105-0.611,0.044-0.717,0.335
		c-1.049,2.905-2.938,5.395-5.463,7.197c-2.579,1.843-5.624,2.816-8.805,2.816c-1.645,0-3.251-0.259-4.788-0.771l4.554-3.016
		c0,0,0,0,0.001,0c0,0,0-0.002,0-0.002l3.785-2.506l0,0c0.34-0.226,0.572-0.568,0.653-0.969c0.082-0.399,0.002-0.807-0.223-1.146
		l-0.05-0.076l0.735-0.486c0.524-0.349,1.155-0.484,1.777-0.385c0.899,0.145,1.813-0.053,2.572-0.557l6.099-4.038
		c-0.042,0.528-0.11,1.056-0.206,1.572c-0.057,0.304,0.145,0.596,0.448,0.651c0.034,0.008,0.069,0.011,0.102,0.011
		c0.265,0,0.5-0.188,0.55-0.458c0.155-0.834,0.244-1.689,0.267-2.545l1.719-1.14c0.578-0.382,0.973-0.968,1.111-1.646
		C47.807,28.692,47.672,28,47.289,27.422L47.289,27.422z M34.829,17.903l-1.71,1.133l-0.337-0.908
		c-0.141-0.377-0.302-0.749-0.48-1.112C33.169,17.236,34.014,17.532,34.829,17.903L34.829,17.903z M17.103,21.784
		c2.272-2.62,5.367-4.381,8.753-4.991c0.543,1.316,0.673,2.787,0.349,4.188l-1.365,5.896c-0.214-0.229-0.493-0.387-0.807-0.451
		c-0.399-0.081-0.807-0.002-1.146,0.224l-3.866,2.56c0,0,0,0,0,0.001l0,0l-5.576,3.691c-0.03-0.393-0.046-0.788-0.046-1.186
		C13.398,28.065,14.713,24.538,17.103,21.784L17.103,21.784z M31.671,39.393c-0.021,0.106-0.083,0.198-0.174,0.259l0,0l-3.325,2.201
		l-6.17-9.201c-0.172-0.257-0.52-0.325-0.777-0.154c-0.256,0.173-0.325,0.521-0.153,0.777l6.166,9.197l-4.745,3.143
		c-4.716-2.063-8.091-6.418-8.902-11.488l5.582-3.684l0.643,0.958c0.108,0.161,0.285,0.249,0.466,0.249
		c0.107,0,0.215-0.031,0.311-0.096c0.256-0.172,0.325-0.52,0.153-0.776l-0.638-0.952l3.398-2.242
		c0.09-0.061,0.199-0.081,0.305-0.059c0.107,0.021,0.199,0.083,0.259,0.173l7.542,11.39C31.672,39.177,31.693,39.286,31.671,39.393
		L31.671,39.393z M46.572,29.149c-0.079,0.387-0.303,0.72-0.632,0.938l-1.965,1.301c0,0-0.001,0.001-0.001,0.001l-7.013,4.645
		c-0.524,0.348-1.155,0.483-1.776,0.384c-0.899-0.144-1.813,0.053-2.572,0.556l-0.735,0.487l-6.178-9.328l1.597-6.898
		c0.411-1.776,0.194-3.648-0.589-5.279c-0.007-0.017-0.015-0.033-0.023-0.049c-0.15-0.309-0.322-0.607-0.513-0.896
		c-0.372-0.562-0.217-1.319,0.344-1.691c0.475-0.313,1.115-0.255,1.523,0.141l1.069,1.037c1.157,1.122,2.064,2.513,2.625,4.022
		l0.582,1.568c0.001,0.003,0.002,0.005,0.003,0.009c0.001,0.003,0.003,0.007,0.004,0.011c0.004,0.009,0.008,0.019,0.013,0.025
		c0.011,0.023,0.023,0.047,0.039,0.069c0.17,0.258,0.518,0.328,0.775,0.158l5.971-3.954c0.679-0.449,1.597-0.263,2.047,0.416
		c0.449,0.679,0.263,1.598-0.416,2.046l-0.518,0.345h0l-1.157,0.766c-0.001,0.001-0.002,0.002-0.004,0.003
		c-0.006,0.005-0.013,0.01-0.018,0.013c-0.239,0.176-0.301,0.51-0.135,0.76c0.17,0.258,0.517,0.328,0.775,0.158l1.157-0.767
		c0.329-0.218,0.723-0.294,1.109-0.216c0.387,0.079,0.72,0.303,0.938,0.632s0.294,0.724,0.216,1.11
		c-0.078,0.387-0.303,0.719-0.632,0.938l-1.675,1.109c-0.257,0.17-0.328,0.517-0.157,0.774c0.107,0.163,0.286,0.251,0.467,0.251
		c0.106,0,0.213-0.03,0.308-0.093l0.259-0.172l0.897-0.595c0.679-0.448,1.597-0.262,2.046,0.416c0.45,0.68,0.263,1.598-0.416,2.048
		l-0.836,0.554c-0.004,0.003-0.009,0.006-0.013,0.009l-0.825,0.546c-0.258,0.171-0.329,0.518-0.158,0.777
		c0.107,0.161,0.286,0.249,0.467,0.249c0.105,0,0.214-0.029,0.309-0.093l0.259-0.171c0,0,0-0.001,0-0.001l0.896-0.593
		c0.329-0.22,0.723-0.296,1.109-0.217c0.387,0.078,0.72,0.304,0.938,0.633C46.574,28.369,46.65,28.763,46.572,29.149z"/>
</g>
<g id="Layer_1_6_">
</g>
<g id="Layer_1_7_">
</g>
<g id="Layer_1_8_">
</g>
<g id="Layer_1_9_">
</g>
<g id="Layer_1_10_">
</g>
<g id="Layer_1_11_">
</g>
<g id="Layer_1_12_">
</g>
<g id="Layer_1_13_">
</g>
<g id="Layer_1_14_">
</g>
<g id="Layer_1_15_">
</g>
<g id="Layer_1_16_">
</g>
<g id="Layer_1_17_">
</g>
<g id="Layer_1_18_">
</g>
<g id="Layer_1_19_">
</g>
<g id="Layer_1_20_">
</g>
<g id="Layer_1_21_">
</g>
<g id="Layer_1_22_">
</g>
<g id="Layer_1_23_">
</g>
<g id="Layer_1_24_">
</g>
<g id="Layer_1_25_">
</g>
<g id="Layer_1_26_">
</g>
<g id="Layer_1_27_">
</g>
<g id="Layer_1_28_">
</g>
<g id="Layer_1_29_">
</g>
<g id="Layer_1_30_">
</g>
</svg>
