<?xml version="1.0" encoding="utf-8"?>
<!-- Generator: Adobe Illustrator 16.0.0, SVG Export Plug-In . SVG Version: 6.00 Build 0)  -->
<!DOCTYPE svg PUBLIC "-//W3C//DTD SVG 1.1//EN" "http://www.w3.org/Graphics/SVG/1.1/DTD/svg11.dtd" [
	<!ENTITY ns_extend "http://ns.adobe.com/Extensibility/1.0/">
	<!ENTITY ns_ai "http://ns.adobe.com/AdobeIllustrator/10.0/">
	<!ENTITY ns_graphs "http://ns.adobe.com/Graphs/1.0/">
	<!ENTITY ns_vars "http://ns.adobe.com/Variables/1.0/">
	<!ENTITY ns_imrep "http://ns.adobe.com/ImageReplacement/1.0/">
	<!ENTITY ns_sfw "http://ns.adobe.com/SaveForWeb/1.0/">
	<!ENTITY ns_custom "http://ns.adobe.com/GenericCustomNamespace/1.0/">
	<!ENTITY ns_adobe_xpath "http://ns.adobe.com/XPath/1.0/">
]>
<svg version="1.1" xmlns:x="&ns_extend;" xmlns:i="&ns_ai;" xmlns:graph="&ns_graphs;"
	 xmlns="http://www.w3.org/2000/svg" xmlns:xlink="http://www.w3.org/1999/xlink" x="0px" y="0px" width="50px" height="50px"
	 viewBox="0 0 50 50" enable-background="new 0 0 50 50" xml:space="preserve">
<g id="Layer_1"></g><g id="Layer_1_1_"></g><g id="Layer_1_2_"></g><g id="Layer_1_3_"></g><g id="Layer_1_4_"></g><g id="Layer_1_5_">
	<path fill-rule="evenodd" clip-rule="evenodd" fill="#855439" d="M39.408,22.852c-0.312-0.47-0.783-0.794-1.331-0.916
		c0.354-0.677,0.339-1.521-0.111-2.2c-0.32-0.484-0.804-0.797-1.33-0.915c0.094-0.18,0.163-0.372,0.205-0.576
		c0.115-0.566,0.002-1.144-0.317-1.625c-0.311-0.471-0.782-0.794-1.33-0.916c0.354-0.677,0.339-1.521-0.112-2.201
		c-0.658-0.994-2.003-1.268-2.999-0.609l-2.154,1.427c-1.148-0.582-2.369-0.995-3.636-1.23c-0.401-0.608-0.866-1.174-1.388-1.679
		l-0.891-0.864c-0.653-0.632-1.676-0.728-2.433-0.226c-0.897,0.594-1.143,1.806-0.549,2.702c0.023,0.035,0.046,0.071,0.069,0.106
		c-2.921,0.592-5.583,2.142-7.553,4.413c-2.138,2.465-3.315,5.621-3.315,8.888c0,0.627,0.043,1.254,0.127,1.865
		c0.653,4.747,3.815,8.838,8.252,10.677C20.258,39.653,22.004,40,23.801,40c2.847,0,5.571-0.872,7.88-2.521
		c2.259-1.613,3.949-3.841,4.887-6.439c0.088-0.242-0.038-0.51-0.28-0.597c-0.242-0.088-0.509,0.037-0.597,0.279
		c-0.874,2.421-2.448,4.495-4.552,5.998c-2.149,1.535-4.687,2.347-7.337,2.347c-1.371,0-2.709-0.216-3.99-0.643l3.795-2.514
		c0,0,0,0,0,0c0,0,0-0.001,0-0.001l3.154-2.089l0,0c0.283-0.188,0.477-0.474,0.544-0.807s0.002-0.673-0.186-0.956l-0.042-0.063
		l0.613-0.405c0.437-0.29,0.963-0.403,1.481-0.32c0.749,0.12,1.511-0.044,2.143-0.464l5.082-3.365
		c-0.035,0.44-0.092,0.88-0.171,1.311c-0.047,0.253,0.12,0.496,0.374,0.543c0.028,0.006,0.057,0.009,0.085,0.009
		c0.221,0,0.417-0.157,0.458-0.382c0.129-0.695,0.204-1.408,0.223-2.121l1.432-0.949c0.482-0.318,0.811-0.807,0.926-1.372
		C39.839,23.91,39.727,23.333,39.408,22.852L39.408,22.852z M29.024,14.919l-1.425,0.944l-0.281-0.757
		c-0.117-0.314-0.251-0.624-0.4-0.927C27.641,14.363,28.345,14.61,29.024,14.919L29.024,14.919z M14.252,18.153
		c1.894-2.184,4.473-3.65,7.294-4.159c0.453,1.097,0.561,2.322,0.291,3.49L20.7,22.397c-0.179-0.19-0.411-0.322-0.672-0.376
		c-0.333-0.067-0.672-0.002-0.956,0.187l-3.222,2.133c0,0,0,0,0,0.001l0,0l-4.646,3.076c-0.025-0.327-0.039-0.657-0.039-0.988
		C11.165,23.388,12.261,20.448,14.252,18.153L14.252,18.153z M26.393,32.827c-0.018,0.089-0.07,0.165-0.146,0.216l0,0l-2.771,1.834
		l-5.142-7.668c-0.144-0.214-0.433-0.271-0.647-0.128c-0.213,0.144-0.271,0.434-0.127,0.647l5.139,7.664l-3.955,2.619
		c-3.93-1.719-6.742-5.349-7.418-9.573l4.652-3.07l0.535,0.799c0.09,0.134,0.238,0.207,0.388,0.207c0.089,0,0.18-0.025,0.259-0.079
		c0.214-0.144,0.271-0.434,0.127-0.647l-0.532-0.793l2.832-1.869c0.075-0.05,0.166-0.067,0.254-0.049
		c0.089,0.018,0.166,0.069,0.216,0.145l6.286,9.491C26.393,32.647,26.411,32.738,26.393,32.827L26.393,32.827z M38.81,24.291
		c-0.066,0.322-0.252,0.6-0.527,0.781l-1.637,1.084c0,0-0.001,0.001-0.001,0.001l-5.844,3.87c-0.437,0.29-0.963,0.403-1.48,0.32
		c-0.75-0.12-1.511,0.044-2.144,0.463l-0.613,0.406l-5.148-7.773l1.331-5.749c0.343-1.48,0.162-3.04-0.491-4.399
		c-0.006-0.014-0.012-0.027-0.02-0.041c-0.125-0.257-0.268-0.506-0.427-0.746c-0.31-0.468-0.181-1.1,0.287-1.409
		c0.396-0.262,0.929-0.213,1.269,0.117l0.891,0.864c0.964,0.935,1.72,2.094,2.188,3.352l0.485,1.308
		c0.001,0.002,0.002,0.004,0.003,0.007s0.002,0.006,0.003,0.009c0.003,0.008,0.007,0.016,0.01,0.021
		c0.009,0.02,0.02,0.039,0.032,0.058c0.142,0.215,0.432,0.273,0.646,0.132l4.976-3.295c0.566-0.374,1.331-0.219,1.706,0.347
		c0.375,0.565,0.219,1.331-0.347,1.705l-0.432,0.287h0l-0.964,0.638c-0.001,0.001-0.002,0.002-0.003,0.003
		c-0.005,0.004-0.011,0.008-0.015,0.011c-0.199,0.146-0.25,0.425-0.112,0.633c0.142,0.215,0.431,0.273,0.646,0.132l0.964-0.639
		c0.274-0.182,0.602-0.245,0.924-0.18c0.322,0.065,0.6,0.252,0.781,0.526c0.182,0.274,0.246,0.603,0.18,0.925
		s-0.253,0.6-0.527,0.781l-1.396,0.925c-0.214,0.142-0.273,0.431-0.131,0.646c0.089,0.136,0.238,0.209,0.389,0.209
		c0.088,0,0.178-0.025,0.257-0.077l0.216-0.144l0.748-0.495c0.566-0.374,1.331-0.219,1.706,0.347
		c0.375,0.566,0.219,1.331-0.347,1.706l-0.697,0.462c-0.003,0.002-0.007,0.005-0.011,0.007l-0.688,0.455
		c-0.215,0.143-0.274,0.432-0.132,0.647c0.09,0.135,0.238,0.208,0.39,0.208c0.088,0,0.178-0.024,0.257-0.077l0.216-0.143
		c0,0,0-0.001,0-0.001l0.747-0.494c0.274-0.183,0.603-0.246,0.924-0.181c0.322,0.065,0.6,0.253,0.781,0.527
		C38.812,23.641,38.875,23.969,38.81,24.291z"/>
</g><g id="Layer_1_6_"></g><g id="Layer_1_7_"></g><g id="Layer_1_8_"></g><g id="Layer_1_9_"></g><g id="Layer_1_10_"></g><g id="Layer_1_11_"></g><g id="Layer_1_12_"></g><g id="Layer_1_13_"></g><g id="Layer_1_14_"></g><g id="Layer_1_15_"></g><g id="Layer_1_16_"></g><g id="Layer_1_17_"></g><g id="Layer_1_18_"></g><g id="Layer_1_19_"></g><g id="Layer_1_20_">
</g><g id="Layer_1_21_"></g><g id="Layer_1_22_"></g><g id="Layer_1_23_"></g><g id="Layer_1_24_"></g><g id="Layer_1_25_"></g><g id="Layer_1_26_"></g><g id="Layer_1_27_"></g><g id="Layer_1_28_"></g><g id="Layer_1_29_"></g><g id="Layer_1_30_">
</g>
</svg>
