<?xml version="1.0" encoding="utf-8"?>
<!-- Generator: Adobe Illustrator 16.0.0, SVG Export Plug-In . SVG Version: 6.00 Build 0)  -->
<!DOCTYPE svg PUBLIC "-//W3C//DTD SVG 1.1//EN" "http://www.w3.org/Graphics/SVG/1.1/DTD/svg11.dtd">
<svg version="1.1" id="Layer_1" xmlns="http://www.w3.org/2000/svg" xmlns:xlink="http://www.w3.org/1999/xlink" x="0px" y="0px"
	 width="50px" height="50px" viewBox="0 0 50 50" enable-background="new 0 0 50 50" xml:space="preserve">
<g>
	<path fill="#855439" d="M47.876,11.285c0,0.531-0.442,0.97-1.062,0.97H3.098c-0.532,0-0.974-0.438-0.974-0.97V7.566
		c0-0.531,0.441-0.973,0.974-0.973h43.717c0.619,0,1.062,0.441,1.062,0.973V11.285z M46.903,4.469H3.098
		C1.416,4.469,0,5.883,0,7.566v3.719c0,1.68,1.416,3.098,3.098,3.098h1.505l16.017,16.015v14.07c0,0.444,0.267,0.799,0.62,0.976
		c0.177,0,0.266,0.088,0.442,0.088c0.265,0,0.53-0.177,0.707-0.354l6.726-6.637c0.177-0.266,0.265-0.534,0.265-0.799v-7.345
		l16.018-16.015h1.418c1.769,0,3.186-1.418,3.186-3.098V7.566C50,5.883,48.583,4.469,46.903,4.469L46.903,4.469z"/>
</g>
</svg>
