<?xml version="1.0" encoding="utf-8"?>
<!-- Generator: Adobe Illustrator 16.0.0, SVG Export Plug-In . SVG Version: 6.00 Build 0)  -->
<!DOCTYPE svg PUBLIC "-//W3C//DTD SVG 1.1//EN" "http://www.w3.org/Graphics/SVG/1.1/DTD/svg11.dtd" [
	<!ENTITY ns_extend "http://ns.adobe.com/Extensibility/1.0/">
	<!ENTITY ns_ai "http://ns.adobe.com/AdobeIllustrator/10.0/">
	<!ENTITY ns_graphs "http://ns.adobe.com/Graphs/1.0/">
	<!ENTITY ns_vars "http://ns.adobe.com/Variables/1.0/">
	<!ENTITY ns_imrep "http://ns.adobe.com/ImageReplacement/1.0/">
	<!ENTITY ns_sfw "http://ns.adobe.com/SaveForWeb/1.0/">
	<!ENTITY ns_custom "http://ns.adobe.com/GenericCustomNamespace/1.0/">
	<!ENTITY ns_adobe_xpath "http://ns.adobe.com/XPath/1.0/">
]>
<svg version="1.1" xmlns:x="&ns_extend;" xmlns:i="&ns_ai;" xmlns:graph="&ns_graphs;"
	 xmlns="http://www.w3.org/2000/svg" xmlns:xlink="http://www.w3.org/1999/xlink" x="0px" y="0px" width="50px" height="50px"
	 viewBox="0 0 50 50" enable-background="new 0 0 50 50" xml:space="preserve">
<g id="Layer_1"></g><g id="Layer_1_1_"></g><g id="Layer_1_2_"></g><g id="Layer_1_3_"></g><g id="Layer_1_4_"></g>
<g id="Layer_1_5_">
	<path fill-rule="evenodd" clip-rule="evenodd" fill="#855439" d="M35.916,18.525l-2.988-2.989h-7.679v-0.551
		c1.136-0.23,1.994-1.235,1.994-2.439c0-1.374-1.119-2.49-2.491-2.49c-1.374,0-2.49,1.116-2.49,2.49
		c0,1.202,0.855,2.209,1.992,2.439v0.551h-3.917c-0.86,0-1.563,0.7-1.563,1.563v1.426h-1.7l-2.989,2.986l2.989,2.989h7.181v10.462
		h-2.491v1.992h-1.496v2.989h8.969v-2.989h-1.496v-1.992h-2.49V24.501h4.414c0.861,0,1.564-0.7,1.564-1.563v-1.426h1.7
		L35.916,18.525L35.916,18.525z M23.256,12.546c0-0.824,0.672-1.493,1.496-1.493c0.822,0,1.493,0.669,1.493,1.493
		s-0.671,1.493-1.493,1.493C23.928,14.039,23.256,13.37,23.256,12.546L23.256,12.546z M28.237,37.952v0.995h-6.974v-0.995H28.237
		L28.237,37.952z M26.744,36.955h-3.986V35.96h3.986V36.955L26.744,36.955z M30.23,22.938c0,0.313-0.254,0.569-0.567,0.569H17.484
		l-1.992-1.995l1.992-1.992h12.179c0.313,0,0.567,0.255,0.567,0.569V22.938L30.23,22.938z M31.228,20.518v-0.429
		c0-0.863-0.703-1.563-1.564-1.563h-9.893V17.1c0-0.313,0.253-0.569,0.566-0.569h12.18l1.992,1.995l-1.992,1.992H31.228z"/>
</g><g id="Layer_1_6_"></g><g id="Layer_1_7_"></g><g id="Layer_1_8_"></g><g id="Layer_1_9_"></g><g id="Layer_1_10_"></g><g id="Layer_1_11_"></g><g id="Layer_1_12_"></g><g id="Layer_1_13_"></g><g id="Layer_1_14_"></g><g id="Layer_1_15_"></g><g id="Layer_1_16_"></g><g id="Layer_1_17_"></g><g id="Layer_1_18_"></g><g id="Layer_1_19_"></g><g id="Layer_1_20_">
</g><g id="Layer_1_21_"></g><g id="Layer_1_22_"></g><g id="Layer_1_23_"></g><g id="Layer_1_24_"></g><g id="Layer_1_25_"></g><g id="Layer_1_26_"></g><g id="Layer_1_27_"></g><g id="Layer_1_28_"></g><g id="Layer_1_29_"></g><g id="Layer_1_30_">
</g>
</svg>
