<?xml version="1.0" encoding="utf-8"?>
<!-- Generator: Adobe Illustrator 16.0.0, SVG Export Plug-In . SVG Version: 6.00 Build 0)  -->
<!DOCTYPE svg PUBLIC "-//W3C//DTD SVG 1.1//EN" "http://www.w3.org/Graphics/SVG/1.1/DTD/svg11.dtd" [
	<!ENTITY ns_extend "http://ns.adobe.com/Extensibility/1.0/">
	<!ENTITY ns_ai "http://ns.adobe.com/AdobeIllustrator/10.0/">
	<!ENTITY ns_graphs "http://ns.adobe.com/Graphs/1.0/">
	<!ENTITY ns_vars "http://ns.adobe.com/Variables/1.0/">
	<!ENTITY ns_imrep "http://ns.adobe.com/ImageReplacement/1.0/">
	<!ENTITY ns_sfw "http://ns.adobe.com/SaveForWeb/1.0/">
	<!ENTITY ns_custom "http://ns.adobe.com/GenericCustomNamespace/1.0/">
	<!ENTITY ns_adobe_xpath "http://ns.adobe.com/XPath/1.0/">
]>
<svg version="1.1" xmlns:x="&ns_extend;" xmlns:i="&ns_ai;" xmlns:graph="&ns_graphs;"
	 xmlns="http://www.w3.org/2000/svg" xmlns:xlink="http://www.w3.org/1999/xlink" x="0px" y="0px" width="60px" height="60px"
	 viewBox="0 0 60 60" enable-background="new 0 0 60 60" xml:space="preserve">
<g id="Layer_1">
</g>
<g id="Layer_1_1_">
</g>
<g id="Layer_1_2_">
</g>
<g id="Layer_1_3_">
</g>
<g id="Layer_1_4_">
</g>
<g id="Layer_1_5_">
	<rect fill-rule="evenodd" clip-rule="evenodd" fill="none" width="60" height="60"/>
	<path fill-rule="evenodd" clip-rule="evenodd" fill="#FFFFFF" d="M43.099,22.23l-3.586-3.587h-9.214v-0.661
		c1.363-0.276,2.393-1.482,2.393-2.928c0-1.648-1.343-2.988-2.99-2.988c-1.648,0-2.988,1.34-2.988,2.988
		c0,1.443,1.027,2.651,2.391,2.928v0.661h-4.7c-1.032,0-1.876,0.84-1.876,1.876v1.711h-2.041l-3.587,3.584l3.587,3.587h8.617v12.554
		h-2.989v2.391H24.32v3.588h10.763v-3.588h-1.795v-2.391h-2.988V29.401h5.297c1.034,0,1.877-0.841,1.877-1.876v-1.711h2.04
		L43.099,22.23L43.099,22.23z M27.907,15.055c0-0.988,0.806-1.791,1.795-1.791c0.987,0,1.792,0.803,1.792,1.791
		c0,0.989-0.805,1.792-1.792,1.792C28.713,16.847,27.907,16.044,27.907,15.055L27.907,15.055z M33.885,45.543v1.193h-8.368v-1.193
		H33.885L33.885,45.543z M32.093,44.346H27.31v-1.193h4.783V44.346L32.093,44.346z M36.276,27.525c0,0.376-0.305,0.683-0.681,0.683
		H20.981l-2.391-2.394l2.391-2.391h14.614c0.376,0,0.681,0.306,0.681,0.683V27.525L36.276,27.525z M37.473,24.621v-0.515
		c0-1.036-0.844-1.876-1.877-1.876H23.725V20.52c0-0.376,0.304-0.684,0.68-0.684H39.02l2.391,2.395l-2.391,2.391H37.473z"/>
</g>
<g id="Layer_1_6_">
</g>
<g id="Layer_1_7_">
</g>
<g id="Layer_1_8_">
</g>
<g id="Layer_1_9_">
</g>
<g id="Layer_1_10_">
</g>
<g id="Layer_1_11_">
</g>
<g id="Layer_1_12_">
</g>
<g id="Layer_1_13_">
</g>
<g id="Layer_1_14_">
</g>
<g id="Layer_1_15_">
</g>
<g id="Layer_1_16_">
</g>
<g id="Layer_1_17_">
</g>
<g id="Layer_1_18_">
</g>
<g id="Layer_1_19_">
</g>
<g id="Layer_1_20_">
</g>
<g id="Layer_1_21_">
</g>
<g id="Layer_1_22_">
</g>
<g id="Layer_1_23_">
</g>
<g id="Layer_1_24_">
</g>
<g id="Layer_1_25_">
</g>
<g id="Layer_1_26_">
</g>
<g id="Layer_1_27_">
</g>
<g id="Layer_1_28_">
</g>
<g id="Layer_1_29_">
</g>
<g id="Layer_1_30_">
</g>
</svg>
