<?xml version="1.0" encoding="utf-8"?>
<!-- Generator: Adobe Illustrator 16.0.0, SVG Export Plug-In . SVG Version: 6.00 Build 0)  -->
<!DOCTYPE svg PUBLIC "-//W3C//DTD SVG 1.1//EN" "http://www.w3.org/Graphics/SVG/1.1/DTD/svg11.dtd" [
	<!ENTITY ns_extend "http://ns.adobe.com/Extensibility/1.0/">
	<!ENTITY ns_ai "http://ns.adobe.com/AdobeIllustrator/10.0/">
	<!ENTITY ns_graphs "http://ns.adobe.com/Graphs/1.0/">
	<!ENTITY ns_vars "http://ns.adobe.com/Variables/1.0/">
	<!ENTITY ns_imrep "http://ns.adobe.com/ImageReplacement/1.0/">
	<!ENTITY ns_sfw "http://ns.adobe.com/SaveForWeb/1.0/">
	<!ENTITY ns_custom "http://ns.adobe.com/GenericCustomNamespace/1.0/">
	<!ENTITY ns_adobe_xpath "http://ns.adobe.com/XPath/1.0/">
]>
<svg version="1.1" xmlns:x="&ns_extend;" xmlns:i="&ns_ai;" xmlns:graph="&ns_graphs;"
	 xmlns="http://www.w3.org/2000/svg" xmlns:xlink="http://www.w3.org/1999/xlink" x="0px" y="0px" width="50px" height="50px"
	 viewBox="0 0 50 50" enable-background="new 0 0 50 50" xml:space="preserve">
<g id="Layer_1">
</g>
<g id="Layer_1_1_">
</g>
<g id="Layer_1_2_">
</g>
<g id="Layer_1_3_">
</g>
<g id="Layer_1_4_">
</g>
<g id="Layer_1_5_">
	<g>
		<path fill-rule="evenodd" clip-rule="evenodd" fill="#855439" d="M27.816,19.069l0.577,0.01l-0.189,3.104
			c-0.009,0.143,0.067,0.279,0.195,0.346s0.283,0.053,0.396-0.037l4.265-3.369l3.949,0.021h0.018c1.07,0,1.946-0.834,1.954-1.867
			l0.034-5.219c0.004-0.508-0.201-0.994-0.568-1.344c-0.366-0.359-0.858-0.564-1.372-0.57l-9.189-0.088h-0.018
			c-1.07,0-1.939,0.857-1.939,1.893l0,0l-0.041,5.219c-0.006,0.508,0.198,0.994,0.564,1.344
			C26.817,18.866,27.307,19.065,27.816,19.069L27.816,19.069z M26.646,11.952c0.006-0.635,0.559-1.146,1.233-1.141l9.189,0.076
			c0.324,0,0.636,0.127,0.869,0.352c0.223,0.211,0.348,0.506,0.346,0.813l-0.033,5.221c-0.006,0.635-0.561,1.148-1.235,1.141
			l-4.078-0.023c-0.083,0-0.163,0.029-0.229,0.078l-3.724,2.941l0.164-2.666c0.006-0.1-0.029-0.197-0.097-0.27
			c-0.067-0.074-0.162-0.117-0.262-0.119l-0.963-0.018c-0.324,0-0.636-0.127-0.869-0.352c-0.223-0.211-0.348-0.506-0.346-0.813
			L26.646,11.952z"/>
		<path fill-rule="evenodd" clip-rule="evenodd" fill="#855439" d="M29.422,13.776h6.052c0.202,0,0.366-0.164,0.366-0.367
			c0-0.201-0.164-0.365-0.366-0.365h-6.052c-0.202,0-0.366,0.164-0.366,0.365C29.056,13.612,29.22,13.776,29.422,13.776z"/>
		<path fill-rule="evenodd" clip-rule="evenodd" fill="#855439" d="M29.422,15.911h3.661c0.202,0,0.366-0.164,0.366-0.367
			c0-0.201-0.164-0.365-0.366-0.365h-3.661c-0.202,0-0.366,0.164-0.366,0.365C29.056,15.747,29.22,15.911,29.422,15.911z"/>
		<path fill-rule="evenodd" clip-rule="evenodd" fill="#855439" d="M11.378,39.944H26.59c0.209-0.01,0.373-0.182,0.376-0.389V36.13
			c-0.006-2.201-1.786-3.984-3.986-3.992h-1.504V31.7c0.427-0.301,0.811-0.662,1.249-1.102c1.069-1.066,1.857-2.189,2.338-3.338
			c0.667-1.59,0.699-3.299,0.089-4.811c-0.217-0.537-0.545-1.002-0.924-1.307c-0.372-0.313-0.852-0.471-1.337-0.438
			c-0.47-1.01-1.211-1.793-2.153-2.271c-1.04-0.531-2.263-0.635-3.441-0.293c-1.876,0.541-3.424,1.799-4.246,3.449
			c-0.483,0.986-0.709,2.078-0.657,3.176c0.117,2.83,1.702,5.461,4.081,6.768v0.604h-1.485c-2.192,0-4.005,1.799-4.005,3.992v3.426
			C10.995,39.767,11.166,39.937,11.378,39.944L11.378,39.944z M17.206,32.519v-1.244c0.562,0.232,1.165,0.352,1.773,0.35h0.025
			c0.598-0.006,1.188-0.127,1.739-0.359v1.322c0,0.977-0.792,1.77-1.77,1.77c-0.977,0-1.769-0.793-1.769-1.77V32.519L17.206,32.519
			L17.206,32.519z M22.939,25.12v1.77c0,2.191-1.768,3.986-3.928,4.002c-1.055,0.01-2.069-0.402-2.82-1.143s-1.176-1.75-1.182-2.805
			v-0.527c0.915-0.133,4.102-0.844,6.077-4.23c0.251,0.066,0.489,0.174,0.705,0.318c0.729,0.488,1.159,1.314,1.142,2.193
			L22.939,25.12L22.939,25.12z M13.114,24.737c-0.043-0.975,0.16-1.945,0.591-2.82c0.73-1.467,2.113-2.588,3.794-3.072
			c1.015-0.293,2.02-0.211,2.907,0.242c0.835,0.424,1.485,1.137,1.881,2.063l0.025,0.076c0.061,0.18,0.247,0.285,0.432,0.24
			c1.062-0.252,1.627,1.004,1.729,1.258c0.538,1.332,0.508,2.844-0.083,4.254c-0.321,0.754-0.745,1.459-1.261,2.096
			c0.353-0.674,0.539-1.422,0.542-2.184v-1.764l-0.005-0.418c0.024-1.125-0.526-2.186-1.461-2.813
			c-0.375-0.254-0.801-0.418-1.248-0.482c-0.151-0.02-0.3,0.055-0.373,0.188c-2.013,3.686-5.591,4.09-5.841,4.113
			c-0.257,0.008-0.463,0.217-0.467,0.473v0.758c0.001,0.895,0.259,1.77,0.743,2.52C13.86,28.155,13.188,26.485,13.114,24.737
			L13.114,24.737z M11.716,36.13c0-1.789,1.483-3.262,3.272-3.262h1.484c0.151,1.266,1.224,2.219,2.498,2.219
			s2.347-0.953,2.498-2.219h1.511c1.796,0.01,3.249,1.465,3.254,3.262v3.082H11.716V36.13z"/>
	</g>
</g>
<g id="Layer_1_6_">
</g>
<g id="Layer_1_7_">
</g>
<g id="Layer_1_8_">
</g>
<g id="Layer_1_9_">
</g>
<g id="Layer_1_10_">
</g>
<g id="Layer_1_11_">
</g>
<g id="Layer_1_12_">
</g>
<g id="Layer_1_13_">
</g>
<g id="Layer_1_14_">
</g>
<g id="Layer_1_15_">
</g>
<g id="Layer_1_16_">
</g>
<g id="Layer_1_17_">
</g>
<g id="Layer_1_18_">
</g>
<g id="Layer_1_19_">
</g>
<g id="Layer_1_20_">
</g>
<g id="Layer_1_21_">
</g>
<g id="Layer_1_22_">
</g>
<g id="Layer_1_23_">
</g>
<g id="Layer_1_24_">
</g>
<g id="Layer_1_25_">
</g>
<g id="Layer_1_26_">
</g>
<g id="Layer_1_27_">
</g>
<g id="Layer_1_28_">
</g>
<g id="Layer_1_29_">
</g>
<g id="Layer_1_30_">
</g>
</svg>
