<?xml version="1.0" encoding="utf-8"?>
<!-- Generator: Adobe Illustrator 16.0.0, SVG Export Plug-In . SVG Version: 6.00 Build 0)  -->
<!DOCTYPE svg PUBLIC "-//W3C//DTD SVG 1.1//EN" "http://www.w3.org/Graphics/SVG/1.1/DTD/svg11.dtd" [
	<!ENTITY ns_extend "http://ns.adobe.com/Extensibility/1.0/">
	<!ENTITY ns_ai "http://ns.adobe.com/AdobeIllustrator/10.0/">
	<!ENTITY ns_graphs "http://ns.adobe.com/Graphs/1.0/">
	<!ENTITY ns_vars "http://ns.adobe.com/Variables/1.0/">
	<!ENTITY ns_imrep "http://ns.adobe.com/ImageReplacement/1.0/">
	<!ENTITY ns_sfw "http://ns.adobe.com/SaveForWeb/1.0/">
	<!ENTITY ns_custom "http://ns.adobe.com/GenericCustomNamespace/1.0/">
	<!ENTITY ns_adobe_xpath "http://ns.adobe.com/XPath/1.0/">
]>
<svg version="1.1" xmlns:x="&ns_extend;" xmlns:i="&ns_ai;" xmlns:graph="&ns_graphs;"
	 xmlns="http://www.w3.org/2000/svg" xmlns:xlink="http://www.w3.org/1999/xlink" x="0px" y="0px" width="60px" height="60px"
	 viewBox="0 0 60 60" enable-background="new 0 0 60 60" xml:space="preserve">
<g id="Layer_1">
</g>
<g id="Layer_1_1_">
</g>
<g id="Layer_1_2_">
</g>
<g id="Layer_1_3_">
</g>
<g id="Layer_1_4_">
</g>
<g id="Layer_1_5_">
	<rect fill-rule="evenodd" clip-rule="evenodd" fill="none" width="60" height="60"/>
	<g>
		<path fill-rule="evenodd" clip-rule="evenodd" fill="#FFFFFF" d="M33.38,22.884l0.692,0.012l-0.228,3.723
			c-0.01,0.172,0.081,0.336,0.234,0.416c0.154,0.08,0.34,0.063,0.476-0.045l5.118-4.043l4.739,0.025h0.021
			c1.285,0,2.336-1,2.345-2.24l0.041-6.262c0.004-0.609-0.242-1.193-0.682-1.613c-0.439-0.432-1.03-0.678-1.646-0.684l-11.027-0.105
			h-0.021c-1.285,0-2.328,1.027-2.328,2.27l0,0l-0.049,6.264c-0.007,0.609,0.238,1.193,0.677,1.611
			C32.181,22.64,32.769,22.878,33.38,22.884L33.38,22.884z M31.975,14.343c0.007-0.762,0.67-1.377,1.48-1.369l11.027,0.092
			c0.389,0,0.763,0.152,1.043,0.422c0.267,0.252,0.417,0.607,0.415,0.975l-0.04,6.266c-0.007,0.762-0.672,1.377-1.482,1.367
			l-4.894-0.027c-0.1,0-0.196,0.035-0.274,0.094l-4.468,3.529l0.197-3.199c0.007-0.119-0.035-0.236-0.116-0.322
			c-0.081-0.09-0.195-0.141-0.314-0.145l-1.155-0.02c-0.389,0-0.763-0.152-1.043-0.422c-0.267-0.254-0.417-0.607-0.415-0.977
			L31.975,14.343z"/>
		<path fill-rule="evenodd" clip-rule="evenodd" fill="#FFFFFF" d="M35.307,16.532h7.262c0.243,0,0.439-0.197,0.439-0.441
			c0-0.242-0.197-0.438-0.439-0.438h-7.262c-0.243,0-0.439,0.195-0.439,0.438C34.867,16.335,35.064,16.532,35.307,16.532z"/>
		<path fill-rule="evenodd" clip-rule="evenodd" fill="#FFFFFF" d="M35.307,19.093H39.7c0.243,0,0.439-0.197,0.439-0.439
			s-0.197-0.439-0.439-0.439h-4.394c-0.243,0-0.439,0.197-0.439,0.439S35.064,19.093,35.307,19.093z"/>
		<path fill-rule="evenodd" clip-rule="evenodd" fill="#FFFFFF" d="M13.654,47.933h18.254c0.251-0.012,0.448-0.217,0.451-0.467
			v-4.109c-0.007-2.643-2.143-4.781-4.784-4.791h-1.805V38.04c0.512-0.361,0.973-0.795,1.499-1.322
			c1.283-1.279,2.229-2.627,2.806-4.006c0.8-1.906,0.839-3.957,0.106-5.771c-0.26-0.645-0.654-1.203-1.108-1.568
			c-0.447-0.375-1.022-0.564-1.604-0.525c-0.563-1.211-1.453-2.15-2.584-2.725c-1.248-0.639-2.715-0.762-4.13-0.352
			c-2.251,0.648-4.108,2.158-5.095,4.139c-0.58,1.184-0.851,2.494-0.789,3.811c0.141,3.396,2.042,6.553,4.897,8.121v0.725h-1.783
			c-2.631,0-4.806,2.158-4.806,4.791v4.109C13.195,47.72,13.4,47.923,13.654,47.933L13.654,47.933z M20.648,39.022v-1.494
			c0.674,0.279,1.398,0.422,2.128,0.42h0.03c0.717-0.006,1.426-0.152,2.087-0.432v1.588c0,1.172-0.951,2.123-2.124,2.123
			c-1.172,0-2.122-0.951-2.122-2.123V39.022L20.648,39.022L20.648,39.022z M27.528,30.144v2.123c0,2.631-2.121,4.785-4.713,4.803
			c-1.266,0.012-2.483-0.482-3.384-1.371s-1.411-2.1-1.418-3.365V31.7c1.098-0.16,4.922-1.012,7.292-5.076
			c0.301,0.08,0.587,0.209,0.846,0.381c0.875,0.586,1.391,1.578,1.37,2.633L27.528,30.144L27.528,30.144z M15.738,29.685
			c-0.052-1.17,0.192-2.334,0.709-3.385c0.876-1.76,2.536-3.105,4.553-3.686c1.217-0.352,2.423-0.254,3.488,0.289
			c1.002,0.51,1.783,1.365,2.257,2.477l0.03,0.09c0.073,0.217,0.296,0.344,0.518,0.289c1.274-0.303,1.952,1.205,2.075,1.51
			c0.646,1.598,0.609,3.412-0.1,5.104c-0.385,0.906-0.894,1.752-1.513,2.516c0.423-0.809,0.647-1.707,0.65-2.621v-2.115
			l-0.006-0.502c0.029-1.35-0.632-2.623-1.753-3.375c-0.45-0.305-0.961-0.502-1.498-0.578c-0.182-0.023-0.359,0.064-0.447,0.225
			c-2.416,4.422-6.709,4.908-7.009,4.936c-0.308,0.01-0.555,0.26-0.56,0.566v0.91c0.001,1.074,0.311,2.123,0.892,3.023
			C16.633,33.786,15.826,31.782,15.738,29.685L15.738,29.685z M14.06,43.356c0-2.148,1.78-3.914,3.927-3.914h1.781
			c0.182,1.518,1.468,2.662,2.998,2.662s2.816-1.145,2.998-2.662h1.813c2.155,0.012,3.899,1.758,3.905,3.914v3.697H14.06V43.356z"/>
	</g>
</g>
<g id="Layer_1_6_">
</g>
<g id="Layer_1_7_">
</g>
<g id="Layer_1_8_">
</g>
<g id="Layer_1_9_">
</g>
<g id="Layer_1_10_">
</g>
<g id="Layer_1_11_">
</g>
<g id="Layer_1_12_">
</g>
<g id="Layer_1_13_">
</g>
<g id="Layer_1_14_">
</g>
<g id="Layer_1_15_">
</g>
<g id="Layer_1_16_">
</g>
<g id="Layer_1_17_">
</g>
<g id="Layer_1_18_">
</g>
<g id="Layer_1_19_">
</g>
<g id="Layer_1_20_">
</g>
<g id="Layer_1_21_">
</g>
<g id="Layer_1_22_">
</g>
<g id="Layer_1_23_">
</g>
<g id="Layer_1_24_">
</g>
<g id="Layer_1_25_">
</g>
<g id="Layer_1_26_">
</g>
<g id="Layer_1_27_">
</g>
<g id="Layer_1_28_">
</g>
<g id="Layer_1_29_">
</g>
<g id="Layer_1_30_">
</g>
</svg>
