<?xml version="1.0" encoding="utf-8"?>
<!-- Generator: Adobe Illustrator 16.0.0, SVG Export Plug-In . SVG Version: 6.00 Build 0)  -->
<!DOCTYPE svg PUBLIC "-//W3C//DTD SVG 1.1//EN" "http://www.w3.org/Graphics/SVG/1.1/DTD/svg11.dtd">
<svg version="1.1" id="Layer_1" xmlns="http://www.w3.org/2000/svg" xmlns:xlink="http://www.w3.org/1999/xlink" x="0px" y="0px"
	 width="50px" height="50px" viewBox="0 0 50 50" enable-background="new 0 0 50 50" xml:space="preserve">
<g>
	<polygon fill="#732F31" points="40.727,17.367 34.165,17.367 34.165,25.001 26.533,25.001 26.533,31.562 34.165,31.562 
		34.165,39.193 40.727,39.193 40.727,31.562 48.358,31.562 48.358,25.001 40.727,25.001 	"/>
	<path fill="#732F31" d="M23.253,21.719h7.561v-7.632h13.195v7.632h3.851C49.216,19.508,50,17.011,50,14.229
		c0-7.562-6.133-13.766-13.766-13.766c-4.637,0-8.703,2.281-11.197,5.777c-2.498-3.496-6.635-5.777-11.271-5.777
		C6.206,0.464,0,6.668,0,14.229c0,3.352,1.142,6.348,3.139,8.773l21.898,26.533l5.776-7.063v-7.561h-7.561V21.719z"/>
</g>
</svg>
