<?xml version="1.0" encoding="utf-8"?>
<!-- Generator: Adobe Illustrator 16.0.0, SVG Export Plug-In . SVG Version: 6.00 Build 0)  -->
<!DOCTYPE svg PUBLIC "-//W3C//DTD SVG 1.1//EN" "http://www.w3.org/Graphics/SVG/1.1/DTD/svg11.dtd" [
	<!ENTITY ns_extend "http://ns.adobe.com/Extensibility/1.0/">
	<!ENTITY ns_ai "http://ns.adobe.com/AdobeIllustrator/10.0/">
	<!ENTITY ns_graphs "http://ns.adobe.com/Graphs/1.0/">
	<!ENTITY ns_vars "http://ns.adobe.com/Variables/1.0/">
	<!ENTITY ns_imrep "http://ns.adobe.com/ImageReplacement/1.0/">
	<!ENTITY ns_sfw "http://ns.adobe.com/SaveForWeb/1.0/">
	<!ENTITY ns_custom "http://ns.adobe.com/GenericCustomNamespace/1.0/">
	<!ENTITY ns_adobe_xpath "http://ns.adobe.com/XPath/1.0/">
]>
<svg version="1.1" id="Layer_1" xmlns:x="&ns_extend;" xmlns:i="&ns_ai;" xmlns:graph="&ns_graphs;"
	 xmlns="http://www.w3.org/2000/svg" xmlns:xlink="http://www.w3.org/1999/xlink" x="0px" y="0px" width="50px" height="50px"
	 viewBox="0 0 50 50" enable-background="new 0 0 50 50" xml:space="preserve">
<metadata>
	<sfw  xmlns="&ns_sfw;">
		<slices></slices>
		<sliceSourceBounds  height="303.334" width="464.814" y="-303.334" x="-9.982" bottomLeftOrigin="true"></sliceSourceBounds>
	</sfw>
</metadata>
<g>
	<path fill="none" stroke="#732F31" stroke-width="3.8285" stroke-linecap="round" d="M5.392,28.371h6.452v-6.453H5.392V28.371z M34.628,10.946
		l-9.634-7.848l-9.622,7.848H6.285L0,19.027h2.657h12.927h18.832h13.865H50l-6.285-8.081H34.628z M3.137,20.054v26.848h12.447h0.771
		V33.07h17.414v13.832h0.647h12.436V20.054H3.137z M21.434,14.652c0.066,1.92,1.641,3.449,3.561,3.449
		c1.932,0,3.505-1.529,3.562-3.449c-0.057-1.909-1.63-3.438-3.562-3.438C23.074,11.213,21.5,12.743,21.434,14.652L21.434,14.652z
		 M38.278,37.369h6.452v-6.453h-6.452V37.369z M5.392,37.369h6.452v-6.453H5.392V37.369z M38.278,28.371h6.452v-6.453h-6.452V28.371
		z M27.316,28.371h6.452v-6.453h-6.452V28.371z M16.354,28.371h6.452v-6.453h-6.452V28.371z"/>
</g>
</svg>
