<?xml version="1.0" encoding="utf-8"?>
<!-- Generator: Adobe Illustrator 16.0.0, SVG Export Plug-In . SVG Version: 6.00 Build 0)  -->
<!DOCTYPE svg PUBLIC "-//W3C//DTD SVG 1.1//EN" "http://www.w3.org/Graphics/SVG/1.1/DTD/svg11.dtd">
<svg version="1.1" id="Layer_1" xmlns="http://www.w3.org/2000/svg" xmlns:xlink="http://www.w3.org/1999/xlink" x="0px" y="0px"
	 width="50px" height="50px" viewBox="0 0 50 50" enable-background="new 0 0 50 50" xml:space="preserve">
<g>
	<rect x="30.353" y="16.883" fill-rule="evenodd" clip-rule="evenodd" fill="#732F31" width="5.364" height="4.446"/>
	<path fill-rule="evenodd" clip-rule="evenodd" fill="#732F31" d="M10.731,42.715v7.2h9.812v-7.2H10.731z M18.777,47.233H17.86
		c-0.495,0-0.918-0.423-0.918-0.917c0-0.496,0.423-0.919,0.918-0.919h0.917c0.495,0,0.847,0.423,0.847,0.919
		C19.625,46.81,19.272,47.233,18.777,47.233L18.777,47.233z"/>
	<path fill-rule="evenodd" clip-rule="evenodd" fill="#732F31" d="M18.777,40.952v-1.625c0-1.765-0.564-3.387-1.553-4.729
		c-0.564-0.776-1.341-1.34-2.188-1.622c-2.117-0.849-4.023-2.047-5.716-3.601c-0.776-0.705-1.976-0.705-2.894-0.07
		c0.353,0.494,0.705,0.917,1.129,1.342l4.093,4.092c0.353,0.353,0.353,0.919,0,1.271s-0.918,0.353-1.271,0l-4.093-4.095
		C5.367,31,4.591,29.869,4.026,28.6l-1.976-4.659c-0.143-0.423-0.565-0.634-0.989-0.634c-0.353,0-0.706,0.141-0.847,0.493
		c-0.211,0.282-0.282,0.636-0.141,0.989l3.529,7.692c0.353,0.849,0.917,1.625,1.553,2.259l6.211,6.212H18.777z"/>
	<rect x="14.261" y="16.883" fill-rule="evenodd" clip-rule="evenodd" fill="#732F31" width="10.728" height="4.446"/>
	<path fill-rule="evenodd" clip-rule="evenodd" fill="#732F31" d="M24.988,0.085L9.956,10.602c0.423,0.071,0.775,0.494,0.775,0.918
		v16.657c1.412,1.34,3.106,2.33,4.871,3.105c1.2,0.423,2.259,1.199,2.964,2.188c0.353,0.353,0.636,0.776,0.848,1.27h9.174v-7.2
		c0-0.987,0.778-1.763,1.766-1.763h3.599c0.99,0,1.765,0.776,1.765,1.763v3.178c1.272-0.778,2.471-1.554,3.599-2.541V11.52
		c0-0.424,0.285-0.847,0.708-0.918L24.988,0.085z M24.988,23.095H14.261c-0.918,0-1.764-0.777-1.764-1.765v-4.446
		c0-0.988,0.846-1.835,1.764-1.835h10.728c0.987,0,1.836,0.847,1.836,1.835v4.446C26.824,22.318,25.976,23.095,24.988,23.095
		L24.988,23.095z M35.716,23.095h-5.364c-0.987,0-1.766-0.777-1.766-1.765v-4.446c0-0.988,0.778-1.835,1.766-1.835h5.364
		c0.987,0,1.766,0.847,1.766,1.835v4.446C37.482,22.318,36.704,23.095,35.716,23.095L35.716,23.095z"/>
	<path fill-rule="evenodd" clip-rule="evenodd" fill="#732F31" d="M29.436,42.715v7.2h9.879v-7.2H29.436z M32.118,47.233h-0.849
		c-0.494,0-0.917-0.423-0.917-0.917c0-0.496,0.423-0.919,0.917-0.919h0.849c0.494,0,0.917,0.423,0.917,0.919
		C33.034,46.81,32.611,47.233,32.118,47.233L32.118,47.233z"/>
	<path fill-rule="evenodd" clip-rule="evenodd" fill="#732F31" d="M49.832,23.8c-0.211-0.353-0.564-0.493-0.917-0.493
		c-0.423,0-0.776,0.211-0.917,0.634L45.951,28.6c-0.494,1.269-1.271,2.4-2.259,3.316l-4.022,4.095c-0.355,0.353-0.919,0.353-1.271,0
		s-0.353-0.919,0-1.271l4.024-4.092c0.423-0.426,0.776-0.849,1.128-1.342c-0.846-0.635-2.047-0.635-2.894,0.07
		c-1.624,1.483-3.458,2.682-5.505,3.531l0,0c-0.071,0-0.141,0.07-0.211,0.07c-0.849,0.282-1.554,0.846-2.118,1.622
		c-1.058,1.342-1.624,2.964-1.554,4.729v1.625h7.341l6.213-6.212c0.634-0.635,1.199-1.411,1.551-2.259l3.528-7.692
		C50.043,24.436,50.043,24.082,49.832,23.8L49.832,23.8z"/>
	<path fill-rule="evenodd" clip-rule="evenodd" fill="#732F31" d="M30.353,34.74h0.211c0.282-0.494,0.564-0.917,0.846-1.27
		c0.708-0.849,1.554-1.554,2.541-1.977V27.54h-3.599V34.74z"/>
</g>
</svg>
