<?xml version="1.0" encoding="utf-8"?>
<!-- Generator: Adobe Illustrator 16.0.0, SVG Export Plug-In . SVG Version: 6.00 Build 0)  -->
<!DOCTYPE svg PUBLIC "-//W3C//DTD SVG 1.1//EN" "http://www.w3.org/Graphics/SVG/1.1/DTD/svg11.dtd">
<svg version="1.1" id="Layer_1" xmlns="http://www.w3.org/2000/svg" xmlns:xlink="http://www.w3.org/1999/xlink" x="0px" y="0px"
	 width="50px" height="50px" viewBox="0 0 50 50" enable-background="new 0 0 50 50" xml:space="preserve">
<g>
	<path fill-rule="evenodd" clip-rule="evenodd" fill="#E6E0D6" d="M1.541,0h46.947C49.305,0,50,0.694,50,1.541v46.918
		C50,49.306,49.305,50,48.488,50H1.541C0.695,50,0,49.306,0,48.459V1.541C0,0.694,0.695,0,1.541,0L1.541,0z"/>
	<g>
		
			<path fill="none" stroke="#855439" stroke-width="1.5997" stroke-linecap="round" stroke-linejoin="round" stroke-miterlimit="10" d="
			M14.934,14.964v-2.268l3.355-0.061 M24.002,12.636H36.85L36.82,39.873H14.934V20.768"/>
		
			<line fill="none" stroke="#855439" stroke-width="1.5997" stroke-linecap="round" stroke-linejoin="round" stroke-miterlimit="10" x1="20.859" y1="10.127" x2="20.859" y2="14.661"/>
		
			<line fill="none" stroke="#855439" stroke-width="1.5997" stroke-linecap="round" stroke-linejoin="round" stroke-miterlimit="10" x1="20.859" y1="20.949" x2="20.859" y2="25.514"/>
		
			<line fill="none" stroke="#855439" stroke-width="1.5997" stroke-linecap="round" stroke-linejoin="round" stroke-miterlimit="10" x1="13.15" y1="17.806" x2="17.715" y2="17.806"/>
		
			<line fill="none" stroke="#855439" stroke-width="1.5997" stroke-linecap="round" stroke-linejoin="round" stroke-miterlimit="10" x1="24.002" y1="17.806" x2="28.568" y2="17.806"/>
	</g>
</g>
</svg>
