<?xml version="1.0" encoding="utf-8"?>
<!-- Generator: Adobe Illustrator 16.0.0, SVG Export Plug-In . SVG Version: 6.00 Build 0)  -->
<!DOCTYPE svg PUBLIC "-//W3C//DTD SVG 1.1//EN" "http://www.w3.org/Graphics/SVG/1.1/DTD/svg11.dtd">
<svg version="1.1" id="Layer_1" xmlns="http://www.w3.org/2000/svg" xmlns:xlink="http://www.w3.org/1999/xlink" x="0px" y="0px"
	 width="50px" height="50px" viewBox="0 0 50 50" enable-background="new 0 0 50 50" xml:space="preserve">
<g>
	<path fill="#c5b4a3" d="M48.229,15.439l-0.92-0.283v-4.462c0-0.424-0.354-0.778-0.778-0.778h-2.408
		c-0.495,0-0.781,0.354-0.781,0.778c0,0.426,0.286,0.78,0.781,0.78h1.627v3.186l-9.771-3.186h1.698c0.425,0,0.781-0.354,0.781-0.78
		c0-0.424-0.356-0.778-0.781-0.778h-6.443l-5.453-1.771V5.808h7.295c0.425,0,0.778-0.355,0.778-0.78V0.779
		C33.853,0.354,33.499,0,33.074,0h-8.073c-0.425,0-0.781,0.354-0.781,0.779v7.365l-5.453,1.771H3.47
		c-0.426,0-0.779,0.354-0.779,0.778v4.462L1.77,15.439c-0.354,0.142-0.566,0.424-0.566,0.778v3.329c0,0.425,0.354,0.778,0.779,0.778
		H2.69v2.621c0,0.426,0.354,0.779,0.779,0.779h1.629v6.729c0,0.425,0.354,0.778,0.779,0.778c0.495,0,0.778-0.354,0.778-0.778v-6.729
		h2.055v21.247H6.656v-9.064c0-0.427-0.283-0.781-0.778-0.781c-0.426,0-0.779,0.354-0.779,0.781v9.064H3.47
		c-0.426,0-0.779,0.354-0.779,0.778v3.472C2.69,49.646,3.044,50,3.47,50H46.53c0.425,0,0.778-0.354,0.778-0.778V45.75
		c0-0.425-0.354-0.778-0.778-0.778H44.9V23.725h1.63c0.425,0,0.778-0.354,0.778-0.779v-2.621h0.707c0.425,0,0.781-0.354,0.781-0.778
		v-3.329C48.797,15.864,48.582,15.581,48.229,15.439L48.229,15.439z M4.248,11.474h9.774c-8.854,2.903-3.399,1.063-9.774,3.186
		V11.474z M13.881,41.36c0,0.425-0.354,0.778-0.779,0.778s-0.779-0.354-0.779-0.778v-3.967c0-0.424,0.354-0.778,0.779-0.778
		s0.779,0.354,0.779,0.778V41.36z M13.881,32.436c0,0.424-0.354,0.781-0.779,0.781s-0.779-0.356-0.779-0.781v-3.965
		c0-0.424,0.354-0.778,0.779-0.778s0.779,0.354,0.779,0.778V32.436z M20.254,44.972h-2.053V23.725h2.053V44.972z M25.779,41.36
		c0,0.425-0.354,0.778-0.778,0.778c-0.425,0-0.781-0.354-0.781-0.778v-3.967c0-0.424,0.356-0.778,0.781-0.778
		c0.424,0,0.778,0.354,0.778,0.778V41.36z M25.779,32.436c0,0.424-0.354,0.781-0.778,0.781c-0.425,0-0.781-0.356-0.781-0.781v-3.965
		c0-0.424,0.356-0.778,0.781-0.778c0.424,0,0.778,0.354,0.778,0.778V32.436z M31.798,44.972h-2.054V23.725h2.054V44.972z
		 M37.322,41.36c0,0.425-0.354,0.778-0.778,0.778c-0.425,0-0.778-0.354-0.778-0.778v-3.967c0-0.424,0.354-0.778,0.778-0.778
		c0.424,0,0.778,0.354,0.778,0.778V41.36z M37.322,32.436c0,0.424-0.354,0.781-0.778,0.781c-0.425,0-0.778-0.356-0.778-0.781v-3.965
		c0-0.424,0.354-0.778,0.778-0.778c0.424,0,0.778,0.354,0.778,0.778V32.436z M43.341,44.972h-2.052c0-0.354,0-20.681,0-21.247h2.052
		V44.972z M45.749,22.167H4.248v-1.842h41.501V22.167z"/>
</g>
</svg>
