<?xml version="1.0" encoding="utf-8"?>
<!-- Generator: Adobe Illustrator 16.0.0, SVG Export Plug-In . SVG Version: 6.00 Build 0)  -->
<!DOCTYPE svg PUBLIC "-//W3C//DTD SVG 1.1//EN" "http://www.w3.org/Graphics/SVG/1.1/DTD/svg11.dtd" [
	<!ENTITY ns_extend "http://ns.adobe.com/Extensibility/1.0/">
	<!ENTITY ns_ai "http://ns.adobe.com/AdobeIllustrator/10.0/">
	<!ENTITY ns_graphs "http://ns.adobe.com/Graphs/1.0/">
	<!ENTITY ns_vars "http://ns.adobe.com/Variables/1.0/">
	<!ENTITY ns_imrep "http://ns.adobe.com/ImageReplacement/1.0/">
	<!ENTITY ns_sfw "http://ns.adobe.com/SaveForWeb/1.0/">
	<!ENTITY ns_custom "http://ns.adobe.com/GenericCustomNamespace/1.0/">
	<!ENTITY ns_adobe_xpath "http://ns.adobe.com/XPath/1.0/">
]>
<svg version="1.1" xmlns:x="&ns_extend;" xmlns:i="&ns_ai;" xmlns:graph="&ns_graphs;"
	 xmlns="http://www.w3.org/2000/svg" xmlns:xlink="http://www.w3.org/1999/xlink" x="0px" y="0px" width="60px" height="60px"
	 viewBox="0 0 60 60" enable-background="new 0 0 60 60" xml:space="preserve">
<g id="Layer_1">
</g>
<g id="Layer_1_1_">
</g>
<g id="Layer_1_2_">
</g>
<g id="Layer_1_3_">
</g>
<g id="Layer_1_4_">
</g>
<g id="Layer_1_5_">
	<rect fill-rule="evenodd" clip-rule="evenodd" fill="none" width="60" height="60"/>
	<g>
		<path fill-rule="evenodd" clip-rule="evenodd" fill="#FFFFFF" d="M33.382,43.563c-0.331,0-0.6-0.27-0.6-0.6
			c0-0.331,0.269-0.601,0.6-0.601s0.6,0.27,0.6,0.601C33.982,43.294,33.713,43.563,33.382,43.563L33.382,43.563z M44.055,33.963
			v-0.037c-0.01-0.282-0.242-0.508-0.527-0.508h-3.418v-4.105c0.654-0.221,1.127-0.84,1.127-1.568v-1.127
			c0-0.291-0.236-0.527-0.527-0.527h-2.254c-0.292,0-0.527,0.236-0.527,0.527v1.127c0,0.728,0.473,1.348,1.127,1.568v4.105h-1.764
			V12.527c0-0.292-0.236-0.527-0.527-0.527H23.236c-0.291,0-0.527,0.235-0.527,0.527v10.776c-0.313-0.247-0.678-0.429-1.074-0.52
			c-0.848-0.195-1.717-0.001-2.384,0.53c-0.667,0.532-1.05,1.325-1.05,2.177c0,0.316,0.053,0.627,0.158,0.924
			c0.059,0.166,0.035,0.348-0.062,0.477c-0.576,0.771-0.785,1.722-0.589,2.675c0.263,1.279,1.294,2.314,2.566,2.577
			c0.06,0.013,0.12,0.023,0.181,0.033v1.241h-3.981c-0.292,0-0.528,0.235-0.528,0.527c0,0.291,0.236,0.527,0.528,0.527H23.8
			c0.291,0,0.527-0.237,0.527-0.527c0-0.292-0.236-0.527-0.527-0.527h-0.037v-1.764h1.164c0.291,0,0.527-0.237,0.527-0.527
			c0-0.292-0.236-0.527-0.527-0.527h-1.08c0.221-0.367,0.37-0.772,0.438-1.2h0.643c0.291,0,0.527-0.237,0.527-0.527
			s-0.236-0.527-0.527-0.527h-0.643c-0.068-0.424-0.219-0.83-0.447-1.2h5.035c0.292,0,0.527-0.236,0.527-0.527
			c0-0.291-0.235-0.527-0.527-0.527h-5.109v-1.2h1.164c0.291,0,0.527-0.235,0.527-0.527c0-0.291-0.236-0.527-0.527-0.527h-1.164
			v-1.199h1.164c0.291,0,0.527-0.237,0.527-0.527c0-0.292-0.236-0.527-0.527-0.527h-1.164v-1.2h5.109
			c0.292,0,0.527-0.237,0.527-0.527c0-0.292-0.235-0.527-0.527-0.527h-5.109v-1.2h1.164c0.291,0,0.527-0.237,0.527-0.529
			c0-0.291-0.236-0.526-0.527-0.526h-1.164v-1.2h1.164c0.291,0,0.527-0.237,0.527-0.527c0-0.292-0.236-0.527-0.527-0.527h-1.164
			v-1.764h12.473v1.764h-5.109c-0.292,0-0.527,0.235-0.527,0.527c0,0.291,0.236,0.527,0.527,0.527h5.109v1.2h-5.109
			c-0.292,0-0.527,0.235-0.527,0.526c0,0.292,0.236,0.529,0.527,0.529h5.109v1.2h-1.164c-0.292,0-0.527,0.236-0.527,0.526
			c0,0.292,0.235,0.528,0.527,0.528h1.164v1.199h-5.109c-0.292,0-0.527,0.237-0.527,0.527c0,0.292,0.236,0.529,0.527,0.529h5.109
			v1.199h-5.109c-0.292,0-0.527,0.237-0.527,0.527c0,0.292,0.236,0.527,0.527,0.527h5.109v1.2h-1.164
			c-0.292,0-0.527,0.236-0.527,0.527c0,0.292,0.235,0.527,0.527,0.527h1.164v1.2h-5.109c-0.292,0-0.527,0.236-0.527,0.527
			c0,0.291,0.236,0.527,0.527,0.527h5.109v1.2h-5.109c-0.292,0-0.527,0.235-0.527,0.527c0,0.291,0.236,0.527,0.527,0.527h5.109
			v1.764H26.055c-0.292,0-0.527,0.235-0.527,0.526c0,0.292,0.236,0.529,0.527,0.529h0.036v3.454h-2.978
			c-0.221-0.654-0.839-1.127-1.568-1.127c-0.912,0-1.655,0.743-1.655,1.655c0,0.913,0.743,1.654,1.655,1.654
			c0.729,0,1.347-0.472,1.568-1.127h2.978v2.414c-0.654,0.221-1.127,0.84-1.127,1.568c0,0.912,0.742,1.654,1.654,1.654
			s1.655-0.743,1.655-1.654c0-0.729-0.473-1.347-1.127-1.568v-6.922h2.327v10.304c-0.654,0.22-1.127,0.841-1.127,1.568
			C28.345,47.257,29.088,48,30,48c0.913,0,1.655-0.743,1.655-1.654c0-0.728-0.473-1.349-1.127-1.568V34.473h2.327v6.922
			c-0.654,0.221-1.127,0.84-1.127,1.568c0,0.912,0.742,1.654,1.654,1.654c0.913,0,1.655-0.742,1.655-1.654
			c0-0.729-0.473-1.347-1.127-1.568v-2.414h2.978c0.22,0.655,0.839,1.127,1.567,1.127c0.912,0,1.655-0.742,1.655-1.653
			c0-0.913-0.743-1.656-1.655-1.656c-0.728,0-1.347,0.473-1.567,1.127h-2.978v-3.454h9.618
			C43.813,34.473,44.045,34.247,44.055,33.963L44.055,33.963z M38.455,37.854c0.331,0,0.6,0.27,0.6,0.6c0,0.332-0.269,0.6-0.6,0.6
			c-0.331,0-0.6-0.268-0.6-0.6C37.854,38.124,38.124,37.854,38.455,37.854L38.455,37.854z M30,46.945c-0.331,0-0.6-0.27-0.6-0.6
			c0-0.331,0.27-0.601,0.6-0.601c0.331,0,0.6,0.27,0.6,0.601C30.6,46.676,30.331,46.945,30,46.945L30,46.945z M26.618,43.563
			c-0.331,0-0.6-0.27-0.6-0.6c0-0.331,0.269-0.601,0.6-0.601c0.331,0,0.6,0.27,0.6,0.601C27.218,43.294,26.949,43.563,26.618,43.563
			L26.618,43.563z M21.545,39.054c-0.331,0-0.6-0.268-0.6-0.6c0-0.331,0.269-0.6,0.6-0.6s0.6,0.27,0.6,0.6
			C22.146,38.786,21.876,39.054,21.545,39.054L21.545,39.054z M21.509,33.418v-1.244c0.423-0.068,0.831-0.214,1.2-0.437v1.681
			H21.509L21.509,33.418z M18.741,29.355c-0.135-0.655,0.008-1.306,0.401-1.832c0.309-0.415,0.388-0.961,0.211-1.461
			c-0.065-0.183-0.099-0.375-0.099-0.572c0-0.529,0.238-1.022,0.653-1.353c0.311-0.247,0.681-0.375,1.071-0.375
			c0.138,0,0.279,0.017,0.42,0.048c0.604,0.139,1.095,0.616,1.25,1.216c0.089,0.344,0.08,0.684-0.028,1.005
			c-0.176,0.527-0.1,1.085,0.204,1.493c0.293,0.395,0.448,0.86,0.448,1.346c0,0.691-0.308,1.339-0.846,1.778
			c-0.275,0.224-0.586,0.376-0.918,0.454V30c0-0.292-0.236-0.527-0.527-0.527c-0.292,0-0.527,0.235-0.527,0.527v1.104
			C19.604,30.914,18.917,30.216,18.741,29.355L18.741,29.355z M38.982,27.146h1.199v0.6c0,0.332-0.269,0.6-0.6,0.6
			c-0.331,0-0.6-0.27-0.6-0.6V27.146z"/>
		<path fill-rule="evenodd" clip-rule="evenodd" fill="#FFFFFF" d="M27.182,31.655h1.691c0.292,0,0.527-0.237,0.527-0.527
			c0-0.292-0.235-0.527-0.527-0.527h-1.691c-0.291,0-0.527,0.235-0.527,0.527C26.654,31.418,26.891,31.655,27.182,31.655z"/>
		<path fill-rule="evenodd" clip-rule="evenodd" fill="#FFFFFF" d="M27.182,29.4h1.691c0.292,0,0.527-0.237,0.527-0.527
			s-0.235-0.527-0.527-0.527h-1.691c-0.291,0-0.527,0.237-0.527,0.527S26.891,29.4,27.182,29.4z"/>
		<path fill-rule="evenodd" clip-rule="evenodd" fill="#FFFFFF" d="M31.127,27.146h1.691c0.291,0,0.527-0.236,0.527-0.527
			c0-0.291-0.236-0.527-0.527-0.527h-1.691c-0.292,0-0.527,0.236-0.527,0.527C30.6,26.91,30.836,27.146,31.127,27.146z"/>
		<path fill-rule="evenodd" clip-rule="evenodd" fill="#FFFFFF" d="M27.182,24.891h1.691c0.292,0,0.527-0.235,0.527-0.527
			c0-0.291-0.235-0.527-0.527-0.527h-1.691c-0.291,0-0.527,0.237-0.527,0.527C26.654,24.655,26.891,24.891,27.182,24.891z"/>
		<path fill-rule="evenodd" clip-rule="evenodd" fill="#FFFFFF" d="M27.182,22.637h1.691c0.292,0,0.527-0.237,0.527-0.529
			c0-0.291-0.235-0.527-0.527-0.527h-1.691c-0.291,0-0.527,0.237-0.527,0.527C26.654,22.4,26.891,22.637,27.182,22.637z"/>
		<path fill-rule="evenodd" clip-rule="evenodd" fill="#FFFFFF" d="M31.127,20.382h1.691c0.291,0,0.527-0.237,0.527-0.528
			c0-0.291-0.236-0.526-0.527-0.526h-1.691c-0.292,0-0.527,0.236-0.527,0.526C30.6,20.146,30.836,20.382,31.127,20.382z"/>
		<path fill-rule="evenodd" clip-rule="evenodd" fill="#FFFFFF" d="M27.182,18.128h1.691c0.292,0,0.527-0.237,0.527-0.529
			c0-0.291-0.235-0.526-0.527-0.526h-1.691c-0.291,0-0.527,0.235-0.527,0.526C26.654,17.891,26.891,18.128,27.182,18.128z"/>
		<path fill-rule="evenodd" clip-rule="evenodd" fill="#FFFFFF" d="M27.182,15.873h1.691c0.292,0,0.527-0.237,0.527-0.527
			c0-0.292-0.235-0.527-0.527-0.527h-1.691c-0.291,0-0.527,0.235-0.527,0.527C26.654,15.636,26.891,15.873,27.182,15.873z"/>
	</g>
</g>
<g id="Layer_1_6_">
</g>
<g id="Layer_1_7_">
</g>
<g id="Layer_1_8_">
</g>
<g id="Layer_1_9_">
</g>
<g id="Layer_1_10_">
</g>
<g id="Layer_1_11_">
</g>
<g id="Layer_1_12_">
</g>
<g id="Layer_1_13_">
</g>
<g id="Layer_1_14_">
</g>
<g id="Layer_1_15_">
</g>
<g id="Layer_1_16_">
</g>
<g id="Layer_1_17_">
</g>
<g id="Layer_1_18_">
</g>
<g id="Layer_1_19_">
</g>
<g id="Layer_1_20_">
</g>
<g id="Layer_1_21_">
</g>
<g id="Layer_1_22_">
</g>
<g id="Layer_1_23_">
</g>
<g id="Layer_1_24_">
</g>
<g id="Layer_1_25_">
</g>
<g id="Layer_1_26_">
</g>
<g id="Layer_1_27_">
</g>
<g id="Layer_1_28_">
</g>
<g id="Layer_1_29_">
</g>
<g id="Layer_1_30_">
</g>
</svg>
