<?xml version="1.0" encoding="utf-8"?>
<!-- Generator: Adobe Illustrator 16.0.0, SVG Export Plug-In . SVG Version: 6.00 Build 0)  -->
<!DOCTYPE svg PUBLIC "-//W3C//DTD SVG 1.1//EN" "http://www.w3.org/Graphics/SVG/1.1/DTD/svg11.dtd" [
	<!ENTITY ns_extend "http://ns.adobe.com/Extensibility/1.0/">
	<!ENTITY ns_ai "http://ns.adobe.com/AdobeIllustrator/10.0/">
	<!ENTITY ns_graphs "http://ns.adobe.com/Graphs/1.0/">
	<!ENTITY ns_vars "http://ns.adobe.com/Variables/1.0/">
	<!ENTITY ns_imrep "http://ns.adobe.com/ImageReplacement/1.0/">
	<!ENTITY ns_sfw "http://ns.adobe.com/SaveForWeb/1.0/">
	<!ENTITY ns_custom "http://ns.adobe.com/GenericCustomNamespace/1.0/">
	<!ENTITY ns_adobe_xpath "http://ns.adobe.com/XPath/1.0/">
]>
<svg version="1.1" xmlns:x="&ns_extend;" xmlns:i="&ns_ai;" xmlns:graph="&ns_graphs;"
	 xmlns="http://www.w3.org/2000/svg" xmlns:xlink="http://www.w3.org/1999/xlink" x="0px" y="0px" width="50px" height="50px"
	 viewBox="0 0 50 50" enable-background="new 0 0 50 50" xml:space="preserve">
<g id="Layer_1"></g><g id="Layer_1_1_"></g><g id="Layer_1_2_"></g><g id="Layer_1_3_"></g><g id="Layer_1_4_"></g><g id="Layer_1_5_">	<g>
		<path fill-rule="evenodd" clip-rule="evenodd" fill="#855439" d="M27.818,36.303c-0.276,0-0.5-0.225-0.5-0.5s0.224-0.5,0.5-0.5
			s0.5,0.225,0.5,0.5S28.094,36.303,27.818,36.303L27.818,36.303z M36.712,28.303v-0.03c-0.008-0.235-0.202-0.424-0.439-0.424
			h-2.849v-3.421c0.545-0.184,0.939-0.7,0.939-1.307v-0.939c0-0.242-0.197-0.439-0.439-0.439h-1.879
			c-0.243,0-0.439,0.197-0.439,0.439v0.939c0,0.606,0.394,1.123,0.939,1.307v3.421h-1.47V10.439c0-0.243-0.197-0.439-0.439-0.439
			H19.364c-0.243,0-0.439,0.196-0.439,0.439v8.98c-0.261-0.206-0.565-0.357-0.896-0.434c-0.706-0.162-1.431-0.001-1.987,0.441
			c-0.556,0.443-0.875,1.104-0.875,1.814c0,0.264,0.044,0.522,0.132,0.771c0.049,0.138,0.029,0.29-0.051,0.397
			c-0.48,0.643-0.654,1.435-0.491,2.229c0.219,1.065,1.079,1.929,2.139,2.147c0.05,0.011,0.1,0.02,0.15,0.027v1.034h-3.318
			c-0.243,0-0.44,0.196-0.44,0.439c0,0.242,0.197,0.439,0.44,0.439h6.106c0.243,0,0.439-0.197,0.439-0.439
			c0-0.243-0.197-0.439-0.439-0.439h-0.03v-1.47h0.97c0.243,0,0.439-0.197,0.439-0.439c0-0.243-0.197-0.439-0.439-0.439h-0.9
			c0.184-0.306,0.309-0.644,0.365-1h0.535c0.243,0,0.439-0.197,0.439-0.439s-0.197-0.439-0.439-0.439h-0.535
			c-0.057-0.354-0.183-0.691-0.373-1h4.196c0.243,0,0.439-0.196,0.439-0.439c0-0.242-0.196-0.439-0.439-0.439h-4.258v-1h0.97
			c0.243,0,0.439-0.196,0.439-0.439c0-0.242-0.197-0.439-0.439-0.439h-0.97v-0.999h0.97c0.243,0,0.439-0.197,0.439-0.439
			c0-0.243-0.197-0.439-0.439-0.439h-0.97v-1h4.258c0.243,0,0.439-0.197,0.439-0.439c0-0.243-0.196-0.439-0.439-0.439h-4.258v-1
			h0.97c0.243,0,0.439-0.197,0.439-0.44c0-0.242-0.197-0.438-0.439-0.438h-0.97v-1h0.97c0.243,0,0.439-0.197,0.439-0.439
			c0-0.243-0.197-0.439-0.439-0.439h-0.97v-1.47h10.394v1.47h-4.258c-0.243,0-0.439,0.196-0.439,0.439
			c0,0.242,0.197,0.439,0.439,0.439h4.258v1h-4.258c-0.243,0-0.439,0.196-0.439,0.438c0,0.243,0.197,0.44,0.439,0.44h4.258v1h-0.97
			c-0.243,0-0.439,0.196-0.439,0.438c0,0.243,0.196,0.44,0.439,0.44h0.97v0.999h-4.258c-0.243,0-0.439,0.197-0.439,0.439
			c0,0.243,0.197,0.44,0.439,0.44h4.258v0.999h-4.258c-0.243,0-0.439,0.197-0.439,0.439c0,0.243,0.197,0.439,0.439,0.439h4.258v1
			h-0.97c-0.243,0-0.439,0.197-0.439,0.439c0,0.243,0.196,0.439,0.439,0.439h0.97v1h-4.258c-0.243,0-0.439,0.196-0.439,0.439
			c0,0.242,0.197,0.439,0.439,0.439h4.258v1h-4.258c-0.243,0-0.439,0.196-0.439,0.439c0,0.242,0.197,0.439,0.439,0.439h4.258v1.47
			h-8.485c-0.243,0-0.439,0.196-0.439,0.438c0,0.243,0.196,0.44,0.439,0.44h0.03v2.878h-2.481c-0.184-0.545-0.7-0.939-1.307-0.939
			c-0.76,0-1.379,0.619-1.379,1.379c0,0.761,0.619,1.379,1.379,1.379c0.607,0,1.123-0.394,1.307-0.939h2.481v2.012
			c-0.545,0.185-0.939,0.7-0.939,1.307c0,0.761,0.618,1.379,1.378,1.379c0.761,0,1.379-0.619,1.379-1.379
			c0-0.606-0.394-1.122-0.939-1.307v-5.769h1.939v8.587c-0.545,0.184-0.939,0.7-0.939,1.307C23.621,39.381,24.24,40,25,40
			c0.761,0,1.379-0.619,1.379-1.379c0-0.606-0.394-1.123-0.939-1.307v-8.587h1.939v5.769c-0.545,0.185-0.939,0.7-0.939,1.307
			c0,0.761,0.619,1.379,1.379,1.379s1.379-0.618,1.379-1.379c0-0.606-0.394-1.122-0.939-1.307v-2.012h2.481
			c0.184,0.546,0.7,0.939,1.306,0.939c0.76,0,1.379-0.618,1.379-1.378c0-0.761-0.619-1.38-1.379-1.38
			c-0.606,0-1.123,0.395-1.306,0.939h-2.481v-2.878h8.015C36.51,28.728,36.704,28.539,36.712,28.303L36.712,28.303z M32.045,31.545
			c0.276,0,0.5,0.225,0.5,0.5c0,0.276-0.224,0.5-0.5,0.5c-0.275,0-0.5-0.224-0.5-0.5C31.545,31.77,31.77,31.545,32.045,31.545
			L32.045,31.545z M25,39.121c-0.275,0-0.5-0.225-0.5-0.5s0.225-0.5,0.5-0.5c0.276,0,0.5,0.225,0.5,0.5S25.276,39.121,25,39.121
			L25,39.121z M22.182,36.303c-0.275,0-0.5-0.225-0.5-0.5s0.224-0.5,0.5-0.5c0.276,0,0.5,0.225,0.5,0.5S22.458,36.303,22.182,36.303
			L22.182,36.303z M17.955,32.545c-0.276,0-0.5-0.224-0.5-0.5c0-0.275,0.224-0.5,0.5-0.5s0.5,0.225,0.5,0.5
			C18.455,32.321,18.23,32.545,17.955,32.545L17.955,32.545z M17.924,27.849v-1.036c0.353-0.057,0.692-0.179,1-0.364v1.4H17.924
			L17.924,27.849z M15.618,24.463c-0.112-0.546,0.006-1.088,0.334-1.526c0.258-0.346,0.323-0.801,0.176-1.218
			c-0.054-0.152-0.082-0.313-0.082-0.477c0-0.44,0.198-0.852,0.544-1.127c0.259-0.206,0.567-0.313,0.893-0.313
			c0.115,0,0.232,0.014,0.351,0.04c0.503,0.116,0.913,0.514,1.042,1.014c0.075,0.287,0.067,0.57-0.023,0.838
			c-0.147,0.439-0.083,0.904,0.169,1.244c0.245,0.329,0.374,0.717,0.374,1.122c0,0.576-0.257,1.116-0.705,1.481
			c-0.229,0.187-0.489,0.313-0.765,0.378V25c0-0.243-0.197-0.439-0.439-0.439S17.045,24.757,17.045,25v0.92
			C16.337,25.762,15.765,25.18,15.618,24.463L15.618,24.463z M32.485,22.621h1v0.5c0,0.276-0.224,0.5-0.5,0.5
			c-0.275,0-0.5-0.225-0.5-0.5V22.621z"/>
		<path fill-rule="evenodd" clip-rule="evenodd" fill="#855439" d="M22.651,26.379h1.409c0.243,0,0.439-0.197,0.439-0.439
			c0-0.243-0.196-0.439-0.439-0.439h-1.409c-0.243,0-0.439,0.196-0.439,0.439C22.212,26.182,22.409,26.379,22.651,26.379z"/>
		<path fill-rule="evenodd" clip-rule="evenodd" fill="#855439" d="M22.651,24.5h1.409c0.243,0,0.439-0.197,0.439-0.439
			s-0.196-0.439-0.439-0.439h-1.409c-0.243,0-0.439,0.197-0.439,0.439S22.409,24.5,22.651,24.5z"/>
		<path fill-rule="evenodd" clip-rule="evenodd" fill="#855439" d="M25.939,22.621h1.409c0.243,0,0.439-0.196,0.439-0.439
			c0-0.242-0.197-0.439-0.439-0.439h-1.409c-0.243,0-0.439,0.197-0.439,0.439C25.5,22.425,25.697,22.621,25.939,22.621z"/>
		<path fill-rule="evenodd" clip-rule="evenodd" fill="#855439" d="M22.651,20.742h1.409c0.243,0,0.439-0.196,0.439-0.439
			c0-0.242-0.196-0.439-0.439-0.439h-1.409c-0.243,0-0.439,0.197-0.439,0.439C22.212,20.546,22.409,20.742,22.651,20.742z"/>
		<path fill-rule="evenodd" clip-rule="evenodd" fill="#855439" d="M22.651,18.864h1.409c0.243,0,0.439-0.197,0.439-0.44
			c0-0.242-0.196-0.439-0.439-0.439h-1.409c-0.243,0-0.439,0.197-0.439,0.439C22.212,18.667,22.409,18.864,22.651,18.864z"/>
		<path fill-rule="evenodd" clip-rule="evenodd" fill="#855439" d="M25.939,16.985h1.409c0.243,0,0.439-0.197,0.439-0.44
			c0-0.242-0.197-0.438-0.439-0.438h-1.409c-0.243,0-0.439,0.196-0.439,0.438C25.5,16.788,25.697,16.985,25.939,16.985z"/>
		<path fill-rule="evenodd" clip-rule="evenodd" fill="#855439" d="M22.651,15.106h1.409c0.243,0,0.439-0.197,0.439-0.44
			c0-0.242-0.196-0.438-0.439-0.438h-1.409c-0.243,0-0.439,0.196-0.439,0.438C22.212,14.909,22.409,15.106,22.651,15.106z"/>
		<path fill-rule="evenodd" clip-rule="evenodd" fill="#855439" d="M22.651,13.228h1.409c0.243,0,0.439-0.197,0.439-0.439
			c0-0.243-0.196-0.439-0.439-0.439h-1.409c-0.243,0-0.439,0.196-0.439,0.439C22.212,13.03,22.409,13.228,22.651,13.228z"/>
	</g>
</g>
<g id="Layer_1_6_"></g><g id="Layer_1_7_"></g><g id="Layer_1_8_"></g><g id="Layer_1_9_"></g><g id="Layer_1_10_"></g><g id="Layer_1_11_"></g><g id="Layer_1_12_"></g><g id="Layer_1_13_"></g><g id="Layer_1_14_"></g><g id="Layer_1_15_"></g><g id="Layer_1_16_"></g><g id="Layer_1_17_"></g><g id="Layer_1_18_"></g><g id="Layer_1_19_"></g><g id="Layer_1_20_">
</g><g id="Layer_1_21_"></g><g id="Layer_1_22_"></g><g id="Layer_1_23_"></g><g id="Layer_1_24_"></g><g id="Layer_1_25_"></g><g id="Layer_1_26_"></g><g id="Layer_1_27_"></g><g id="Layer_1_28_"></g><g id="Layer_1_29_"></g><g id="Layer_1_30_"></g>
</svg>
