<?xml version="1.0" encoding="utf-8"?>
<!-- Generator: Adobe Illustrator 16.0.0, SVG Export Plug-In . SVG Version: 6.00 Build 0)  -->
<!DOCTYPE svg PUBLIC "-//W3C//DTD SVG 1.1//EN" "http://www.w3.org/Graphics/SVG/1.1/DTD/svg11.dtd">
<svg version="1.1" id="Layer_1" xmlns="http://www.w3.org/2000/svg" xmlns:xlink="http://www.w3.org/1999/xlink" x="0px" y="0px"
	 width="50px" height="50px" viewBox="0 0 50 50" enable-background="new 0 0 50 50" xml:space="preserve">
<g>
	<path fill-rule="evenodd" clip-rule="evenodd" fill="#732F31" d="M31.762,29.461c0,3.116,2.55,5.665,5.666,5.665
		c3.115,0,5.736-2.549,5.736-5.665s-2.621-5.666-5.736-5.666C34.312,23.796,31.762,26.346,31.762,29.461L31.762,29.461z"/>
	<path fill-rule="evenodd" clip-rule="evenodd" fill="#732F31" d="M12.287,35.126c3.116,0,5.736-2.549,5.736-5.665
		s-2.62-5.666-5.736-5.666c-3.118,0-5.665,2.55-5.665,5.666S9.169,35.126,12.287,35.126L12.287,35.126z"/>
	<path fill-rule="evenodd" clip-rule="evenodd" fill="#732F31" d="M40.543,35.907L40.543,35.907c-0.283,0-0.424,0.142-0.495,0.283
		l-2.408,4.675l-2.408-4.675c-0.07-0.142-0.354-0.283-0.565-0.283c-4.888,0-8.923,3.965-8.923,8.852v4.604
		c0,0.283,0.283,0.566,0.565,0.566h3.399l0.565-5.241c0-0.283,0.286-0.566,0.64-0.566c0.283,0,0.566,0.354,0.566,0.637l-0.566,5.17
		h13.456l-0.566-5.17c0-0.283,0.212-0.637,0.566-0.637c0.283,0,0.637,0.141,0.637,0.566l0.565,5.241h3.331
		c0.354,0,0.565-0.283,0.565-0.566v-4.604C49.468,39.872,45.431,35.907,40.543,35.907L40.543,35.907z"/>
	<path fill-rule="evenodd" clip-rule="evenodd" fill="#732F31" d="M15.403,35.907L15.403,35.907c-0.283,0-0.428,0.142-0.638,0.283
		l-2.41,4.675l-2.335-4.675c-0.142-0.142-0.354-0.283-0.568-0.283c-4.885,0-8.92,3.965-8.92,8.852v4.604
		c0,0.283,0.21,0.566,0.565,0.566h3.399l0.495-5.241c0-0.283,0.354-0.566,0.637-0.566c0.354,0,0.568,0.354,0.568,0.637l-0.568,5.17
		h13.456L18.66,44.83c0-0.283,0.142-0.637,0.566-0.637c0.282,0,0.639,0.212,0.639,0.566L20.432,50h3.328
		c0.354,0,0.565-0.283,0.565-0.566V44.83C24.325,39.872,20.29,35.907,15.403,35.907L15.403,35.907z"/>
	<path fill-rule="evenodd" clip-rule="evenodd" fill="#732F31" d="M25.035,19.123c3.187,0,5.808-2.55,5.808-5.737
		c0-3.187-2.621-5.736-5.808-5.736c-3.188,0-5.735,2.55-5.735,5.736C19.3,16.502,21.92,19.123,25.035,19.123L25.035,19.123z
		 M21.705,13.668c0.215-0.212,0.566-0.212,0.78,0l1.133,1.133l4.038-4.037c0.282-0.283,0.565-0.283,0.849,0
		c0.212,0.212,0.212,0.567,0,0.779l-4.533,4.461c-0.07,0.071-0.212,0.212-0.354,0.212c-0.213,0-0.354-0.142-0.425-0.212
		l-1.488-1.487C21.422,14.235,21.422,13.952,21.705,13.668L21.705,13.668z"/>
	<path fill-rule="evenodd" clip-rule="evenodd" fill="#732F31" d="M12.072,15.156l2.835,0.283c0.213,1.275,0.778,2.621,1.486,3.683
		l-1.769,2.194c-0.142,0.212-0.142,0.567,0.068,0.78l1.7,1.628c0.212,0.212,0.568,0.212,0.778,0.071l2.269-1.77
		c1.133,0.708,2.338,1.275,3.683,1.558l0.282,2.762c0,0.354,0.354,0.566,0.566,0.566h2.337c0.354,0,0.566-0.212,0.566-0.566
		l0.354-2.762c1.276-0.283,2.55-0.85,3.685-1.558l2.196,1.77c0.282,0.142,0.565,0.142,0.849-0.071l1.63-1.628
		c0.283-0.212,0.283-0.567,0.07-0.78l-1.7-2.265c0.708-1.133,1.273-2.337,1.486-3.683l2.835-0.283c0.283,0,0.424-0.355,0.424-0.567
		v-2.337c0-0.354-0.212-0.566-0.424-0.566l-3.048-0.283c-0.283-1.346-0.849-2.621-1.557-3.683l1.77-2.196
		c0.144-0.212,0.144-0.566-0.071-0.778l-1.627-1.63c-0.213-0.212-0.566-0.212-0.778,0l-2.267,1.771
		c-1.064-0.709-2.267-1.275-3.685-1.558l-0.283-2.763C26.733,0.142,26.38,0,26.168,0H23.83c-0.283,0-0.566,0.212-0.566,0.495
		l-0.285,2.763c-1.273,0.283-2.547,0.849-3.679,1.558l-2.27-1.771c-0.21-0.142-0.566-0.142-0.778,0l-1.7,1.63
		c-0.21,0.212-0.21,0.566-0.068,0.778l1.769,2.267c-0.708,1.063-1.276,2.267-1.559,3.683l-2.763,0.283
		c-0.351,0-0.492,0.354-0.492,0.566v2.267C11.58,14.801,11.721,15.085,12.072,15.156L12.072,15.156z M25.035,6.516
		c3.823,0,6.868,3.116,6.868,6.87c0,3.824-3.115,6.869-6.868,6.869c-3.755,0-6.87-3.116-6.87-6.869
		C18.165,9.561,21.21,6.516,25.035,6.516L25.035,6.516z"/>
</g>
</svg>
