<?xml version="1.0" encoding="utf-8"?>
<!-- Generator: Adobe Illustrator 16.0.0, SVG Export Plug-In . SVG Version: 6.00 Build 0)  -->
<!DOCTYPE svg PUBLIC "-//W3C//DTD SVG 1.1//EN" "http://www.w3.org/Graphics/SVG/1.1/DTD/svg11.dtd">
<svg version="1.1" id="Layer_1" xmlns="http://www.w3.org/2000/svg" xmlns:xlink="http://www.w3.org/1999/xlink" x="0px" y="0px"
	 width="50px" height="50px" viewBox="0 0 50 50" enable-background="new 0 0 50 50" xml:space="preserve">
<g>
	<path fill="#732F31" d="M29.037,4.046c-0.213-0.354-0.283-0.566-0.283-0.566l0.07-0.071c0,0,0.213,0.071,0.566,0.212
		c0.142,0.071,0.354,0.142,0.566,0.212c0.212,0.071,0.497,0.212,0.78,0.283c0.07,0,0.212,0.07,0.354,0.07
		c0.071,0,0.142,0,0.213,0.071c0.07,0,0.142,0,0.212,0c0.283,0,0.495,0,0.778,0c0.142-0.071,0.283-0.071,0.425-0.141
		c0.142-0.071,0.285-0.142,0.427-0.212c0.07-0.071,0.142-0.071,0.212-0.142c0.071,0,0.142-0.071,0.213-0.142l0.495-0.424
		c0,0-0.071,0.071,0,0l0,0l0,0l0,0l0.07-0.072l0.142-0.141l0.283-0.212c0.142-0.142,0.283-0.283,0.495-0.425
		c0.142-0.141,0.354-0.283,0.498-0.424c0.142-0.143,0.354-0.213,0.566-0.355c0.424-0.212,0.849-0.354,1.273-0.283
		c0.142,0,0.212,0.071,0.354,0.071c0.07,0,0.142,0.071,0.283,0.071c0.142,0.071,0.356,0.142,0.497,0.283
		c0.283,0.142,0.566,0.355,0.708,0.567c0.212,0.212,0.354,0.354,0.425,0.566c0.142,0.142,0.212,0.283,0.283,0.426
		c0,0.071,0,0.141,0,0.141l-0.071,0.071c0,0-0.212-0.071-0.566-0.212c-0.141-0.071-0.354-0.143-0.565-0.214
		c-0.213-0.141-0.495-0.212-0.71-0.283c-0.142-0.071-0.283-0.142-0.425-0.142c-0.07,0-0.142-0.071-0.212-0.071
		c-0.071,0-0.142,0-0.213-0.071c-0.282-0.071-0.565-0.142-0.92-0.212c-0.141,0.071-0.354,0-0.495,0.071
		c-0.142,0.142-0.356,0.212-0.497,0.354c-0.071,0.142-0.283,0.212-0.354,0.424l-0.142,0.284l-0.07,0.071V3.55v0.071l0,0l0,0l0,0
		l-0.071,0.071l-0.212,0.566c-0.142,0.212-0.283,0.355-0.495,0.567c-0.142,0.212-0.354,0.354-0.566,0.495
		c-0.212,0.142-0.424,0.212-0.639,0.283c-0.495,0.142-0.991,0.212-1.486,0.071c-0.212,0-0.354-0.071-0.565-0.212
		c-0.213-0.071-0.354-0.142-0.498-0.212c-0.283-0.212-0.495-0.425-0.708-0.637C29.249,4.399,29.107,4.187,29.037,4.046L29.037,4.046
		z M50,36.835v11.899H0V36.835h3.401V23.451l9.63-6.728v6.728l9.562-6.728v6.728l9.56-6.728v13.244h3.328l1.842-23.372h5.453
		l1.56,23.372h3.682v6.868H50z M15.651,31.738H8.145v6.939h7.507V31.738z M28.683,31.738h-7.578v6.939h7.578V31.738z M41.855,31.738
		h-7.578v6.939h7.578V31.738z"/>
</g>
</svg>
