<?xml version="1.0" encoding="utf-8"?>
<!-- Generator: Adobe Illustrator 16.0.0, SVG Export Plug-In . SVG Version: 6.00 Build 0)  -->
<!DOCTYPE svg PUBLIC "-//W3C//DTD SVG 1.1//EN" "http://www.w3.org/Graphics/SVG/1.1/DTD/svg11.dtd">
<svg version="1.1" id="Layer_1" xmlns="http://www.w3.org/2000/svg" xmlns:xlink="http://www.w3.org/1999/xlink" x="0px" y="0px"
	 width="50px" height="50px" viewBox="0 0 50 50" enable-background="new 0 0 50 50" xml:space="preserve">
<g>
	<path fill="#732F31" d="M25.016,10.435c-9.606,0-18.26,5.17-24.59,13.722C0.105,24.473,0,24.895,0,25.316l0,0
		c0,0.422,0.105,0.844,0.425,1.16c6.33,8.446,14.984,13.722,24.59,13.722c9.497,0,18.15-5.17,24.589-13.722
		c0.527-0.633,0.527-1.688,0-2.32C43.166,15.604,34.512,10.435,25.016,10.435L25.016,10.435z M25.648,35.766
		c-6.333,0.422-11.504-4.748-11.082-11.188c0.316-5.17,4.538-9.396,9.711-9.708c6.435-0.422,11.606,4.749,11.184,11.079
		C35.145,31.229,30.923,35.45,25.648,35.766L25.648,35.766z"/>
	<path fill="#732F31" d="M25.332,30.912c-3.381,0.211-6.228-2.534-6.017-6.018c0.21-2.745,2.534-5.064,5.275-5.275
		c3.483-0.211,6.228,2.64,6.017,6.014C30.501,28.483,28.178,30.803,25.332,30.912L25.332,30.912z"/>
	<line fill="none" stroke="#732F31" stroke-width="3.6939" stroke-miterlimit="10" x1="39.578" y1="5.58" x2="11.399" y2="44.42"/>
</g>
</svg>
