<?xml version="1.0" encoding="utf-8"?>
<!-- Generator: Adobe Illustrator 16.0.0, SVG Export Plug-In . SVG Version: 6.00 Build 0)  -->
<!DOCTYPE svg PUBLIC "-//W3C//DTD SVG 1.1//EN" "http://www.w3.org/Graphics/SVG/1.1/DTD/svg11.dtd" [
	<!ENTITY ns_extend "http://ns.adobe.com/Extensibility/1.0/">
	<!ENTITY ns_ai "http://ns.adobe.com/AdobeIllustrator/10.0/">
	<!ENTITY ns_graphs "http://ns.adobe.com/Graphs/1.0/">
	<!ENTITY ns_vars "http://ns.adobe.com/Variables/1.0/">
	<!ENTITY ns_imrep "http://ns.adobe.com/ImageReplacement/1.0/">
	<!ENTITY ns_sfw "http://ns.adobe.com/SaveForWeb/1.0/">
	<!ENTITY ns_custom "http://ns.adobe.com/GenericCustomNamespace/1.0/">
	<!ENTITY ns_adobe_xpath "http://ns.adobe.com/XPath/1.0/">
]>
<svg version="1.1" xmlns:x="&ns_extend;" xmlns:i="&ns_ai;" xmlns:graph="&ns_graphs;"
	 xmlns="http://www.w3.org/2000/svg" xmlns:xlink="http://www.w3.org/1999/xlink" x="0px" y="0px" width="50px" height="50px"
	 viewBox="0 0 50 50" enable-background="new 0 0 50 50" xml:space="preserve">
<g id="Layer_1"></g><g id="Layer_1_1_"></g><g id="Layer_1_2_"></g><g id="Layer_1_3_"></g><g id="Layer_1_4_"></g><g id="Layer_1_5_">
	<g>
			<path fill-rule="evenodd" clip-rule="evenodd" fill="none" stroke="#855439" stroke-width="0.9998" stroke-miterlimit="22.9256" d="
			M29.381,13.616c0-1.932-1.569-3.559-3.498-3.563h-0.01c-1.93,0.004-3.557,1.631-3.557,3.563s1.629,3.561,3.561,3.561
			C27.81,17.177,29.381,15.548,29.381,13.616z"/>
		<path fill-rule="evenodd" clip-rule="evenodd" fill="none" stroke="#855439" stroke-width="0.8966" stroke-miterlimit="10" d="
			M20.565,20.679v0.877c0,0.484,0.392,0.875,0.875,0.875h8.816c0.484,0,0.876-0.391,0.876-0.875v-0.877
			c0-1.35-0.526-2.57-1.367-3.502c-0.963,1.066-2.341,1.752-3.888,1.752s-2.983-0.686-3.946-1.752
			C21.091,18.108,20.565,19.329,20.565,20.679z"/>
		
			<path fill-rule="evenodd" clip-rule="evenodd" fill="none" stroke="#855439" stroke-width="0.9998" stroke-miterlimit="22.9256" d="
			M14.054,27.985c-0.431-0.863-1.479-1.215-2.345-0.787l-1.167,0.578c-0.434,0.215-0.611,0.744-0.395,1.176l5.255,10.51
			c0.216,0.434,0.741,0.605,1.172,0.393l1.151-0.57c0.869-0.43,1.223-1.482,0.79-2.35L14.054,27.985z"/>
		
			<path fill-rule="evenodd" clip-rule="evenodd" fill="none" stroke="#855439" stroke-width="0.9998" stroke-miterlimit="22.9256" d="
			M39.23,24.515c-0.718-0.525-1.716-0.42-2.312,0.229l-4.788,5.885c-0.333,0.35-0.963,0.561-1.296,0.561h-4.081
			c-0.491,0-0.876-0.385-0.876-0.875s0.385-0.877,0.876-0.877c1.173,0,2.472,0,3.503,0c0.963,0,1.751-0.787,1.751-1.75
			c0-0.965-0.788-1.752-1.751-1.752c-4.113,0-0.19,0-4.589,0c-0.437,0-0.654-0.277-0.998-0.578
			c-1.355-1.221-3.383-1.807-5.437-1.332c-1.14,0.266-1.909,0.727-2.688,1.344l-0.026-0.021l-1.267,1.115l4.979,9.98h10.027
			c1.646,0,3.223-0.787,4.204-2.102l5.138-7.355c0.231-0.309,0.345-0.672,0.347-1.035v-0.029
			C39.94,25.386,39.694,24.856,39.23,24.515z"/>
	</g>
</g><g id="Layer_1_6_"></g><g id="Layer_1_7_"></g><g id="Layer_1_8_"></g><g id="Layer_1_9_"></g><g id="Layer_1_10_"></g><g id="Layer_1_11_"></g><g id="Layer_1_12_"></g><g id="Layer_1_13_"></g><g id="Layer_1_14_"></g><g id="Layer_1_15_"></g><g id="Layer_1_16_"></g><g id="Layer_1_17_"></g><g id="Layer_1_18_"></g><g id="Layer_1_19_"></g><g id="Layer_1_20_">
</g><g id="Layer_1_21_"></g><g id="Layer_1_22_"></g><g id="Layer_1_23_"></g><g id="Layer_1_24_"></g><g id="Layer_1_25_"></g><g id="Layer_1_26_"></g><g id="Layer_1_27_"></g><g id="Layer_1_28_"></g><g id="Layer_1_29_"></g><g id="Layer_1_30_"></g>
</svg>
