<?xml version="1.0" encoding="utf-8"?>
<!-- Generator: Adobe Illustrator 16.0.0, SVG Export Plug-In . SVG Version: 6.00 Build 0)  -->
<!DOCTYPE svg PUBLIC "-//W3C//DTD SVG 1.1//EN" "http://www.w3.org/Graphics/SVG/1.1/DTD/svg11.dtd" [
	<!ENTITY ns_extend "http://ns.adobe.com/Extensibility/1.0/">
	<!ENTITY ns_ai "http://ns.adobe.com/AdobeIllustrator/10.0/">
	<!ENTITY ns_graphs "http://ns.adobe.com/Graphs/1.0/">
	<!ENTITY ns_vars "http://ns.adobe.com/Variables/1.0/">
	<!ENTITY ns_imrep "http://ns.adobe.com/ImageReplacement/1.0/">
	<!ENTITY ns_sfw "http://ns.adobe.com/SaveForWeb/1.0/">
	<!ENTITY ns_custom "http://ns.adobe.com/GenericCustomNamespace/1.0/">
	<!ENTITY ns_adobe_xpath "http://ns.adobe.com/XPath/1.0/">
]>
<svg version="1.1" xmlns:x="&ns_extend;" xmlns:i="&ns_ai;" xmlns:graph="&ns_graphs;"
	 xmlns="http://www.w3.org/2000/svg" xmlns:xlink="http://www.w3.org/1999/xlink" x="0px" y="0px" width="60px" height="60px"
	 viewBox="0 0 60 60" enable-background="new 0 0 60 60" xml:space="preserve">
<g id="Layer_1">
</g>
<g id="Layer_1_1_">
</g>
<g id="Layer_1_2_">
</g>
<g id="Layer_1_3_">
</g>
<g id="Layer_1_4_">
</g>
<g id="Layer_1_5_">
	<rect fill-rule="evenodd" clip-rule="evenodd" fill="none" width="60" height="60"/>
	<g>
		
			<path fill-rule="evenodd" clip-rule="evenodd" fill="none" stroke="#FFFFFF" stroke-width="1.1998" stroke-miterlimit="22.9256" d="
			M35.257,16.34c0-2.318-1.882-4.271-4.197-4.275h-0.012c-2.316,0.005-4.268,1.957-4.268,4.275c0,2.317,1.955,4.272,4.273,4.272
			C33.372,20.612,35.257,18.657,35.257,16.34z"/>
		<path fill-rule="evenodd" clip-rule="evenodd" fill="none" stroke="#FFFFFF" stroke-width="1.0759" stroke-miterlimit="10" d="
			M24.678,24.814v1.053c0,0.581,0.47,1.05,1.051,1.05h10.579c0.581,0,1.051-0.469,1.051-1.05v-1.053c0-1.619-0.632-3.084-1.64-4.202
			c-1.155,1.279-2.81,2.103-4.666,2.103c-1.856,0-3.58-0.823-4.735-2.103C25.31,21.73,24.678,23.195,24.678,24.814z"/>
		
			<path fill-rule="evenodd" clip-rule="evenodd" fill="none" stroke="#FFFFFF" stroke-width="1.1998" stroke-miterlimit="22.9256" d="
			M16.864,33.582c-0.517-1.035-1.775-1.457-2.813-0.944l-1.4,0.694c-0.521,0.258-0.733,0.893-0.473,1.41l6.306,12.612
			c0.259,0.521,0.89,0.727,1.407,0.471l1.382-0.685c1.042-0.516,1.467-1.778,0.948-2.819L16.864,33.582z"/>
		
			<path fill-rule="evenodd" clip-rule="evenodd" fill="none" stroke="#FFFFFF" stroke-width="1.1998" stroke-miterlimit="22.9256" d="
			M47.076,29.418c-0.862-0.631-2.06-0.504-2.774,0.273l-5.745,7.063c-0.399,0.419-1.156,0.672-1.555,0.672h-4.897
			c-0.589,0-1.051-0.461-1.051-1.05c0-0.588,0.462-1.052,1.051-1.052c1.408,0,2.966,0,4.204,0c1.156,0,2.102-0.945,2.102-2.101
			c0-1.157-0.945-2.103-2.102-2.103c-4.936,0-0.228,0-5.507,0c-0.523,0-0.785-0.332-1.197-0.693
			c-1.626-1.465-4.06-2.168-6.524-1.599c-1.368,0.319-2.291,0.872-3.227,1.612l-0.031-0.025l-1.521,1.338l5.974,11.977h12.032
			c1.976,0,3.867-0.944,5.044-2.521l6.165-8.826c0.277-0.371,0.414-0.807,0.417-1.242v-0.035
			C47.928,30.463,47.633,29.828,47.076,29.418z"/>
	</g>
</g>
<g id="Layer_1_6_">
</g>
<g id="Layer_1_7_">
</g>
<g id="Layer_1_8_">
</g>
<g id="Layer_1_9_">
</g>
<g id="Layer_1_10_">
</g>
<g id="Layer_1_11_">
</g>
<g id="Layer_1_12_">
</g>
<g id="Layer_1_13_">
</g>
<g id="Layer_1_14_">
</g>
<g id="Layer_1_15_">
</g>
<g id="Layer_1_16_">
</g>
<g id="Layer_1_17_">
</g>
<g id="Layer_1_18_">
</g>
<g id="Layer_1_19_">
</g>
<g id="Layer_1_20_">
</g>
<g id="Layer_1_21_">
</g>
<g id="Layer_1_22_">
</g>
<g id="Layer_1_23_">
</g>
<g id="Layer_1_24_">
</g>
<g id="Layer_1_25_">
</g>
<g id="Layer_1_26_">
</g>
<g id="Layer_1_27_">
</g>
<g id="Layer_1_28_">
</g>
<g id="Layer_1_29_">
</g>
<g id="Layer_1_30_">
</g>
</svg>
