<?xml version="1.0" encoding="utf-8"?>
<!-- Generator: Adobe Illustrator 16.0.0, SVG Export Plug-In . SVG Version: 6.00 Build 0)  -->
<!DOCTYPE svg PUBLIC "-//W3C//DTD SVG 1.1//EN" "http://www.w3.org/Graphics/SVG/1.1/DTD/svg11.dtd">
<svg version="1.1" id="Layer_1" xmlns="http://www.w3.org/2000/svg" xmlns:xlink="http://www.w3.org/1999/xlink" x="0px" y="0px"
	 width="50px" height="50px" viewBox="0 0 50 50" enable-background="new 0 0 50 50" xml:space="preserve">
<g>
	<polygon fill="#c5b4a3" points="25.001,34.42 4.604,21.105 0,23.513 25.001,39.732 50,23.513 45.396,21.105 	"/>
	<polygon fill="#c5b4a3" points="25.001,43.201 4.604,29.887 0,32.295 25.001,48.442 50,32.295 45.396,29.887 	"/>
	<polygon fill="#c5b4a3" points="22.027,10.977 15.156,6.728 10.623,9.136 17.636,13.668 	"/>
	<polygon fill="#c5b4a3" points="15.369,24.646 22.311,20.184 17.563,17.139 10.481,21.458 	"/>
	<polygon fill="#c5b4a3" points="25.001,18.414 29.461,15.581 24.857,12.678 20.324,15.439 	"/>
	<polygon fill="#c5b4a3" points="39.235,21.6 32.224,17.28 27.692,20.184 34.631,24.646 	"/>
	<polygon fill="#c5b4a3" points="39.377,9.136 34.772,6.657 27.622,10.977 32.152,13.811 	"/>
	<polygon fill="#c5b4a3" points="31.94,26.417 25.001,21.884 18.06,26.417 25.001,30.948 	"/>
	<polygon fill="#c5b4a3" points="14.873,15.369 7.649,10.694 0,14.73 7.72,19.688 	"/>
	<polygon fill="#c5b4a3" points="31.728,5.028 25.001,1.558 18.131,5.099 24.857,9.277 	"/>
	<polygon fill="#c5b4a3" points="50,14.73 42.351,10.694 34.914,15.51 41.997,19.83 	"/>
</g>
</svg>
