<?xml version="1.0" encoding="utf-8"?>
<!-- Generator: Adobe Illustrator 16.0.0, SVG Export Plug-In . SVG Version: 6.00 Build 0)  -->
<!DOCTYPE svg PUBLIC "-//W3C//DTD SVG 1.1//EN" "http://www.w3.org/Graphics/SVG/1.1/DTD/svg11.dtd">
<svg version="1.1" id="Layer_1" xmlns="http://www.w3.org/2000/svg" xmlns:xlink="http://www.w3.org/1999/xlink" x="0px" y="0px"
	 width="50px" height="50px" viewBox="0 0 50 50" enable-background="new 0 0 50 50" xml:space="preserve">
<g>
	
		<path fill-rule="evenodd" clip-rule="evenodd" fill="none" stroke="#732F31" stroke-width="3.1479" stroke-miterlimit="22.9256" d="
		M25,42.753c9.779,0,17.756-7.976,17.756-17.753S34.779,7.247,25,7.247C15.224,7.247,7.25,15.223,7.25,25S15.224,42.753,25,42.753z"
		/>
	
		<line fill-rule="evenodd" clip-rule="evenodd" fill="none" stroke="#732F31" stroke-width="3.1479" stroke-miterlimit="22.9256" x1="25" y1="0.5" x2="25" y2="11.329"/>
	
		<line fill-rule="evenodd" clip-rule="evenodd" fill="none" stroke="#732F31" stroke-width="3.1479" stroke-miterlimit="22.9256" x1="49.5" y1="25" x2="38.672" y2="25"/>
	
		<line fill-rule="evenodd" clip-rule="evenodd" fill="none" stroke="#732F31" stroke-width="3.1479" stroke-miterlimit="22.9256" x1="25" y1="49.5" x2="25" y2="38.671"/>
	
		<line fill-rule="evenodd" clip-rule="evenodd" fill="none" stroke="#732F31" stroke-width="3.1479" stroke-miterlimit="22.9256" x1="0.5" y1="25" x2="11.331" y2="25"/>
	
		<path fill-rule="evenodd" clip-rule="evenodd" fill="#732F31" stroke="#732F31" stroke-width="3.1479" stroke-miterlimit="22.9256" d="
		M25,32.81c4.305,0,7.815-3.505,7.815-7.81S29.305,17.19,25,17.19c-4.301,0-7.811,3.505-7.811,7.81S20.699,32.81,25,32.81z"/>
</g>
</svg>
