<?xml version="1.0" encoding="utf-8"?>
<!-- Generator: Adobe Illustrator 16.0.0, SVG Export Plug-In . SVG Version: 6.00 Build 0)  -->
<!DOCTYPE svg PUBLIC "-//W3C//DTD SVG 1.1//EN" "http://www.w3.org/Graphics/SVG/1.1/DTD/svg11.dtd" [
	<!ENTITY ns_extend "http://ns.adobe.com/Extensibility/1.0/">
	<!ENTITY ns_ai "http://ns.adobe.com/AdobeIllustrator/10.0/">
	<!ENTITY ns_graphs "http://ns.adobe.com/Graphs/1.0/">
	<!ENTITY ns_vars "http://ns.adobe.com/Variables/1.0/">
	<!ENTITY ns_imrep "http://ns.adobe.com/ImageReplacement/1.0/">
	<!ENTITY ns_sfw "http://ns.adobe.com/SaveForWeb/1.0/">
	<!ENTITY ns_custom "http://ns.adobe.com/GenericCustomNamespace/1.0/">
	<!ENTITY ns_adobe_xpath "http://ns.adobe.com/XPath/1.0/">
]>
<svg version="1.1" xmlns:x="&ns_extend;" xmlns:i="&ns_ai;" xmlns:graph="&ns_graphs;"
	 xmlns="http://www.w3.org/2000/svg" xmlns:xlink="http://www.w3.org/1999/xlink" x="0px" y="0px" width="53.105px"
	 height="53.105px" viewBox="0 0 53.105 53.105" enable-background="new 0 0 53.105 53.105" xml:space="preserve">
<g id="Layer_1">
</g>
<g id="Layer_1_1_">
</g>
<g id="Layer_1_2_">
</g>
<g id="Layer_1_3_">
</g>
<g id="Layer_1_4_">
</g>
<g id="Layer_1_5_">
	<path fill-rule="evenodd" clip-rule="evenodd" fill="#FFFFFF" d="M26.552,53.105c14.625,0,26.553-11.929,26.553-26.553
		C53.105,11.928,41.177,0,26.552,0S0,11.928,0,26.553C0,41.177,11.928,53.105,26.552,53.105z"/>
	<g>
		
			<polyline fill-rule="evenodd" clip-rule="evenodd" fill="none" stroke="#855439" stroke-width="1.6826" stroke-linecap="round" stroke-linejoin="round" stroke-miterlimit="22.9256" points="
			30.888,28.961 34.346,28.961 40.552,37.385 12.552,37.385 18.758,28.961 21.903,28.961 		"/>
		
			<path fill-rule="evenodd" clip-rule="evenodd" fill="none" stroke="#855439" stroke-width="1.1815" stroke-linecap="round" stroke-linejoin="round" stroke-miterlimit="22.9256" d="
			M30.089,25.683c-2.894,4.147-3.312,7.652-3.312,7.652c-0.064,0.289-0.321,0.289-0.386,0c0,0-0.546-3.505-3.376-7.652
			c-2.347-3.279-3.408-4.565-3.408-7.234c0-3.826,3.055-6.881,6.913-6.881c3.826,0,6.977,3.055,6.977,6.881
			C33.497,21.117,31.439,23.721,30.089,25.683L30.089,25.683z M29.253,18.577c0-1.479-1.158-2.637-2.669-2.637
			c-1.415,0-2.604,1.157-2.604,2.637c0,1.479,1.19,2.732,2.604,2.732C28.095,21.31,29.253,20.056,29.253,18.577z"/>
	</g>
</g>
<g id="Layer_1_6_">
</g>
<g id="Layer_1_7_">
</g>
<g id="Layer_1_8_">
</g>
<g id="Layer_1_9_">
</g>
<g id="Layer_1_10_">
</g>
<g id="Layer_1_11_">
</g>
<g id="Layer_1_12_">
</g>
<g id="Layer_1_13_">
</g>
<g id="Layer_1_14_">
</g>
<g id="Layer_1_15_">
</g>
<g id="Layer_1_16_">
</g>
<g id="Layer_1_17_">
</g>
<g id="Layer_1_18_">
</g>
<g id="Layer_1_19_">
</g>
<g id="Layer_1_20_">
</g>
<g id="Layer_1_21_">
</g>
<g id="Layer_1_22_">
</g>
<g id="Layer_1_23_">
</g>
<g id="Layer_1_24_">
</g>
<g id="Layer_1_25_">
</g>
<g id="Layer_1_26_">
</g>
<g id="Layer_1_27_">
</g>
<g id="Layer_1_28_">
</g>
<g id="Layer_1_29_">
</g>
<g id="Layer_1_30_">
</g>
</svg>
