<?xml version="1.0" encoding="utf-8"?>
<!-- Generator: Adobe Illustrator 16.0.0, SVG Export Plug-In . SVG Version: 6.00 Build 0)  -->
<!DOCTYPE svg PUBLIC "-//W3C//DTD SVG 1.1//EN" "http://www.w3.org/Graphics/SVG/1.1/DTD/svg11.dtd">
<svg version="1.1" id="Layer_1" xmlns="http://www.w3.org/2000/svg" xmlns:xlink="http://www.w3.org/1999/xlink" x="0px" y="0px"
	 width="50px" height="50px" viewBox="0 0 50 50" enable-background="new 0 0 50 50" xml:space="preserve">
<g>
	<path fill-rule="evenodd" clip-rule="evenodd" fill="#ffffff" d="M25.003,49.998C38.77,49.998,50,38.771,50,25.002
		c0-13.77-11.23-25-24.997-25C11.23,0.002,0,11.232,0,25.002C0,38.771,11.23,49.998,25.003,49.998z"/>
	<g>
		
			<polygon fill-rule="evenodd" clip-rule="evenodd" fill="#ffffff" stroke="#855439" stroke-width="1.2" stroke-linecap="round" stroke-linejoin="round" stroke-miterlimit="22.9256" points="
			11.814,17.649 19.167,15.076 19.167,34.461 11.814,37.034 		"/>
		
			<polygon fill-rule="evenodd" clip-rule="evenodd" fill="#ffffff" stroke="#855439" stroke-width="1.2" stroke-linecap="round" stroke-linejoin="round" stroke-miterlimit="22.9256" points="
			26.52,17.649 19.167,15.076 19.167,34.461 26.52,37.034 		"/>
		
			<polygon fill-rule="evenodd" clip-rule="evenodd" fill="#ffffff" stroke="#855439" stroke-width="1.2" stroke-linecap="round" stroke-linejoin="round" stroke-miterlimit="22.9256" points="
			26.52,17.649 33.872,15.076 33.872,34.461 26.52,37.034 		"/>
		
			<path fill-rule="evenodd" clip-rule="evenodd" fill="#ffffff" stroke="#855439" stroke-width="1.2" stroke-linecap="round" stroke-linejoin="round" stroke-miterlimit="22.9256" d="
			M31.951,25.421c3.431,0,6.228-2.797,6.228-6.228s-2.797-6.228-6.228-6.228s-6.228,2.797-6.228,6.228S28.521,25.421,31.951,25.421z
			"/>
		
			<polygon fill-rule="evenodd" clip-rule="evenodd" fill="#ffffff" stroke="#855439" stroke-width="1.2" stroke-linecap="round" stroke-linejoin="round" stroke-miterlimit="22.9256" points="
			34.394,16.688 30.982,18.494 29.577,21.72 32.729,20.241 		"/>
	</g>
</g>
</svg>
