<?xml version="1.0" encoding="utf-8"?>
<!-- Generator: Adobe Illustrator 26.0.1, SVG Export Plug-In . SVG Version: 6.00 Build 0)  -->
<svg version="1.1" id="Layer_1" xmlns="http://www.w3.org/2000/svg" xmlns:xlink="http://www.w3.org/1999/xlink" x="0px" y="0px"
	 width="50px" height="50px" viewBox="0 0 50 50" enable-background="new 0 0 50 50" xml:space="preserve">
<path fill="#732F31" d="M6.567,4.546c-0.367,0.035-0.71,0.262-0.887,0.586l-4.343,7.954c-0.093,0.168-0.142,0.359-0.142,0.551v3.231
	c0,1.625,0.915,2.979,2.269,3.817V43.18H1.089c-0.596,0.025-1.116,0.593-1.088,1.19c0.028,0.597,0.598,1.114,1.194,1.083h29.5
	c0.6,0.009,1.152-0.535,1.152-1.136c0-0.601-0.552-1.145-1.152-1.136h-7.96V27.272c0-0.595-0.541-1.136-1.135-1.136H8.996
	c-0.552,0.061-1.014,0.581-1.011,1.136V43.18H5.734V21.519c0.31,0.047,0.619,0.071,0.94,0.071c1.393,0,2.683-0.438,3.67-1.207
	c0.986,0.769,2.276,1.207,3.67,1.207s2.683-0.438,3.67-1.207c0.986,0.769,2.276,1.207,3.67,1.207c1.393,0,2.683-0.438,3.67-1.207
	c0.986,0.769,2.276,1.207,3.67,1.207s2.683-0.438,3.67-1.207c0.986,0.769,2.276,1.207,3.67,1.207s2.683-0.438,3.67-1.207
	c0.986,0.769,2.276,1.207,3.67,1.207c0.321,0,0.63-0.024,0.94-0.071V43.18h-9.183c-0.596,0.025-1.116,0.593-1.088,1.19
	c0.028,0.597,0.598,1.114,1.194,1.083h13.615c0.6,0.009,1.152-0.535,1.152-1.136c0-0.601-0.552-1.145-1.152-1.136h-2.269V20.685
	c1.354-0.838,2.269-2.192,2.269-3.817v-3.231c0-0.191-0.049-0.383-0.142-0.551l-4.343-7.954c-0.195-0.353-0.59-0.586-0.993-0.586
	C43.37,4.547,6.603,4.545,6.567,4.546L6.567,4.546z M7.347,6.819h35.35L45.8,12.5H4.245L7.347,6.819z M3.465,14.773h43.114v2.095
	c0,1.236-1.314,2.45-3.209,2.45c-1.215,0-2.238-0.541-2.766-1.225c-0.421-0.556-1.387-0.556-1.808,0
	c-0.528,0.684-1.55,1.225-2.766,1.225c-1.215,0-2.238-0.541-2.766-1.225c-0.421-0.556-1.387-0.556-1.808,0
	c-0.528,0.684-1.55,1.225-2.766,1.225c-1.215,0-2.238-0.541-2.766-1.225c-0.421-0.556-1.387-0.556-1.808,0
	c-0.528,0.684-1.55,1.225-2.766,1.225s-2.238-0.541-2.766-1.225c-0.421-0.556-1.387-0.556-1.808,0
	c-0.528,0.684-1.55,1.225-2.766,1.225s-2.238-0.541-2.766-1.225c-0.421-0.556-1.387-0.556-1.808,0
	c-0.528,0.684-1.55,1.225-2.766,1.225c-1.894,0-3.209-1.214-3.209-2.45L3.465,14.773z M28.337,26.136
	c-0.558,0.053-1.03,0.575-1.028,1.136v7.954c0,0.595,0.541,1.136,1.135,1.136h12.481c0.594,0,1.135-0.541,1.135-1.136v-7.954
	c0-0.595-0.541-1.136-1.135-1.136H28.338H28.337z M10.254,28.408h10.211V43.18H10.254L10.254,28.408z M29.578,28.408h10.211v5.681
	H29.578V28.408z"/>
</svg>
