<?xml version="1.0" encoding="utf-8"?>
<!-- Generator: Adobe Illustrator 16.0.0, SVG Export Plug-In . SVG Version: 6.00 Build 0)  -->
<!DOCTYPE svg PUBLIC "-//W3C//DTD SVG 1.1//EN" "http://www.w3.org/Graphics/SVG/1.1/DTD/svg11.dtd">
<svg version="1.1" id="Layer_1" xmlns="http://www.w3.org/2000/svg" xmlns:xlink="http://www.w3.org/1999/xlink" x="0px" y="0px"
	 width="50px" height="50px" viewBox="0 0 50 50" enable-background="new 0 0 50 50" xml:space="preserve">
<path fill="#855439" d="M36.119,0H13.88c-1.84,0-3.398,1.557-3.398,3.4v43.201c0,1.84,1.559,3.398,3.398,3.398h22.239
	c1.911,0,3.399-1.559,3.399-3.398V3.4C39.519,1.557,38.03,0,36.119,0L36.119,0z M21.458,2.408h7.083
	c0.283,0,0.425,0.213,0.425,0.424c0,0.213-0.142,0.428-0.425,0.428h-7.083c-0.282,0-0.424-0.215-0.424-0.428
	C21.034,2.621,21.176,2.408,21.458,2.408L21.458,2.408z M25.001,48.299c-0.922,0-1.7-0.777-1.7-1.697c0-0.922,0.778-1.701,1.7-1.701
	c0.92,0,1.698,0.779,1.698,1.701C26.699,47.521,25.921,48.299,25.001,48.299L25.001,48.299z M37.181,43.697H12.818V5.383h24.362
	V43.697z"/>
</svg>
