<?xml version="1.0" encoding="utf-8"?>
<!-- Generator: Adobe Illustrator 16.0.0, SVG Export Plug-In . SVG Version: 6.00 Build 0)  -->
<!DOCTYPE svg PUBLIC "-//W3C//DTD SVG 1.1//EN" "http://www.w3.org/Graphics/SVG/1.1/DTD/svg11.dtd">
<svg version="1.1" id="Layer_1" xmlns="http://www.w3.org/2000/svg" xmlns:xlink="http://www.w3.org/1999/xlink" x="0px" y="0px"
	 width="50px" height="50px" viewBox="0 0 50 50" enable-background="new 0 0 50 50" xml:space="preserve">
<g>
	<path fill-rule="evenodd" clip-rule="evenodd" fill="#732F31" d="M25.003,10.812c2.975,0,5.4-2.428,5.4-5.406
		c0-2.976-2.426-5.405-5.4-5.405c-2.979,0-5.406,2.429-5.406,5.405C19.597,8.384,22.024,10.812,25.003,10.812z"/>
	<path fill-rule="evenodd" clip-rule="evenodd" fill="#732F31" d="M25.003,30.406c2.975,0,5.4-2.429,5.4-5.405
		c0-2.979-2.426-5.406-5.4-5.406c-2.979,0-5.406,2.427-5.406,5.406C19.597,27.978,22.024,30.406,25.003,30.406z"/>
	<path fill-rule="evenodd" clip-rule="evenodd" fill="#732F31" d="M25.003,50c2.975,0,5.4-2.427,5.4-5.405
		c0-2.979-2.426-5.406-5.4-5.406c-2.979,0-5.406,2.427-5.406,5.406C19.597,47.573,22.024,50,25.003,50z"/>
</g>
</svg>
