<?xml version="1.0" encoding="utf-8"?>
<!-- Generator: Adobe Illustrator 16.0.0, SVG Export Plug-In . SVG Version: 6.00 Build 0)  -->
<!DOCTYPE svg PUBLIC "-//W3C//DTD SVG 1.1//EN" "http://www.w3.org/Graphics/SVG/1.1/DTD/svg11.dtd">
<svg version="1.1" id="Layer_1" xmlns="http://www.w3.org/2000/svg" xmlns:xlink="http://www.w3.org/1999/xlink" x="0px" y="0px"
	 width="50px" height="50px" viewBox="0 0 50 50" enable-background="new 0 0 50 50" xml:space="preserve">
<g>
	<path fill="none" stroke="#c5b4a3" stroke-width="3.8285" stroke-linecap="round" stroke-miterlimit="10" d="M28.978,37.01
		c0,3.328,2.678,6.077,6.007,6.077c3.328,0,6.005-2.749,6.005-6.077s-2.677-6.004-6.005-6.004H2.5"/>
	<path fill="none" stroke="#c5b4a3" stroke-width="3.8285" stroke-linecap="round" stroke-miterlimit="10" d="M35.419,18.923
		c0-3.329,2.749-6.006,6.076-6.006c3.328,0,6.005,2.677,6.005,6.006c0,3.4-2.677,6.078-6.005,6.078H2.5"/>
	<path fill="none" stroke="#c5b4a3" stroke-width="3.8285" stroke-linecap="round" stroke-miterlimit="10" d="M19.429,12.99
		c0-3.4,2.678-6.077,6.005-6.077s6.077,2.677,6.077,6.077c0,3.329-2.75,6.006-6.077,6.006H2.5"/>
</g>
</svg>
