<?xml version="1.0" encoding="utf-8"?>
<!-- Generator: Adobe Illustrator 16.0.0, SVG Export Plug-In . SVG Version: 6.00 Build 0)  -->
<!DOCTYPE svg PUBLIC "-//W3C//DTD SVG 1.1//EN" "http://www.w3.org/Graphics/SVG/1.1/DTD/svg11.dtd">
<svg version="1.1" id="Layer_1" xmlns="http://www.w3.org/2000/svg" xmlns:xlink="http://www.w3.org/1999/xlink" x="0px" y="0px"
	 width="50px" height="50px" viewBox="0 0 50 50" enable-background="new 0 0 50 50" xml:space="preserve">
<g>
	<path fill-rule="evenodd" clip-rule="evenodd" fill="#732F31" d="M25.024,50C38.794,50,50,38.744,50,25.026
		C50,11.256,38.794,0,25.024,0C11.256,0,0,11.256,0,25.026C0,38.744,11.256,50,25.024,50L25.024,50z"/>
	<path fill="#FFFFFF" d="M18.643,16.081c0-0.354,0.151-0.603,0.352-0.855l0.703-0.703c0.253-0.2,0.554-0.353,0.855-0.353
		s0.603,0.152,0.854,0.353l9.598,9.648c0.252,0.2,0.353,0.504,0.353,0.855c0,0.301-0.101,0.603-0.353,0.803l-9.598,9.648
		c-0.251,0.2-0.552,0.351-0.854,0.351s-0.603-0.15-0.855-0.351l-0.703-0.703c-0.452-0.454-0.452-1.207,0-1.658l8.09-8.09
		l-8.09-8.143C18.794,16.684,18.643,16.382,18.643,16.081L18.643,16.081z"/>
</g>
</svg>
