<?xml version="1.0" encoding="utf-8"?>
<!-- Generator: Adobe Illustrator 16.0.0, SVG Export Plug-In . SVG Version: 6.00 Build 0)  -->
<!DOCTYPE svg PUBLIC "-//W3C//DTD SVG 1.1//EN" "http://www.w3.org/Graphics/SVG/1.1/DTD/svg11.dtd">
<svg version="1.1" id="Layer_1" xmlns="http://www.w3.org/2000/svg" xmlns:xlink="http://www.w3.org/1999/xlink" x="0px" y="0px"
	 width="50px" height="50px" viewBox="0 0 50 50" enable-background="new 0 0 50 50" xml:space="preserve">
<g>
	<path fill="#c5b4a3" d="M47.721,45.477H2.279C0.998,45.477,0,46.475,0,47.756c0,1.212,0.998,2.208,2.279,2.208h45.441
		c1.212,0,2.208-0.996,2.208-2.208C49.929,46.475,48.933,45.477,47.721,45.477L47.721,45.477z"/>
	<path fill="#c5b4a3" d="M5.128,39.565c-1.282,0-2.28,0.996-2.28,2.28c0,1.209,0.998,2.279,2.28,2.279h39.743
		c1.21,0,2.28-1.07,2.28-2.279c0-1.284-1.07-2.28-2.28-2.28h-0.569V19.125h0.569c0.569,0,1.139-0.5,1.139-1.14
		c0-0.642-0.569-1.14-1.139-1.14H5.128c-0.641,0-1.14,0.498-1.14,1.14c0,0.64,0.499,1.14,1.14,1.14h0.57v20.441H5.128z
		 M39.743,19.125v20.441h-6.838V19.125H39.743z M28.419,19.125v20.441h-6.839V19.125H28.419z M10.257,19.125h6.766v20.441h-6.766
		V19.125z"/>
	<path fill="#c5b4a3" d="M2.279,14.779h45.441c1.212,0,2.279-0.996,2.279-2.278c0-0.998-0.641-1.781-1.568-2.137L25.926,0.249
		c-0.285-0.142-0.569-0.213-0.854-0.213h-0.144c-0.285,0-0.569,0.071-0.855,0.213L1.353,10.435C0.5,10.861,0,11.646,0,12.5v0.071
		c0,0.142,0,0.285,0.071,0.427C0.285,14.067,1.211,14.779,2.279,14.779L2.279,14.779z"/>
</g>
</svg>
