<?xml version="1.0" encoding="utf-8"?>
<!-- Generator: Adobe Illustrator 16.0.0, SVG Export Plug-In . SVG Version: 6.00 Build 0)  -->
<!DOCTYPE svg PUBLIC "-//W3C//DTD SVG 1.1//EN" "http://www.w3.org/Graphics/SVG/1.1/DTD/svg11.dtd">
<svg version="1.1" id="Layer_1" xmlns="http://www.w3.org/2000/svg" xmlns:xlink="http://www.w3.org/1999/xlink" x="0px" y="0px"
	 width="50px" height="50px" viewBox="0 0 50 50" enable-background="new 0 0 50 50" xml:space="preserve">
<g>
	<path fill-rule="evenodd" clip-rule="evenodd" fill="#732F31" d="M7.437,23.442c1.204,0,2.266-0.497,3.045-1.275l4.32,2.196
		c0,0.142-0.071,0.354-0.071,0.566c0,2.407,1.984,4.391,4.392,4.391c2.407,0,4.39-1.984,4.39-4.391c0-0.708-0.141-1.346-0.424-1.912
		l5.877-5.879c0.566,0.283,1.203,0.425,1.913,0.425c2.408,0,4.389-1.982,4.389-4.391c0-0.425-0.142-0.851-0.283-1.275l5.17-3.824
		c0.637,0.425,1.488,0.708,2.408,0.708c2.408,0,4.392-1.983,4.392-4.392C46.955,1.983,44.971,0,42.563,0
		c-2.408,0-4.392,1.983-4.392,4.391c0,0.497,0.073,0.921,0.215,1.275l-5.099,3.895c-0.71-0.495-1.559-0.778-2.408-0.778
		c-2.479,0-4.392,1.982-4.392,4.391c0,0.708,0.141,1.346,0.424,1.913l-5.877,5.878c-0.566-0.283-1.204-0.496-1.912-0.496
		c-1.133,0-2.267,0.496-3.046,1.275l-4.32-2.196c0-0.142,0.071-0.354,0.071-0.495c0-2.408-1.982-4.392-4.391-4.392
		s-4.392,1.984-4.392,4.392C3.045,21.458,5.028,23.442,7.437,23.442L7.437,23.442z M7.437,23.442"/>
	<path fill-rule="evenodd" clip-rule="evenodd" fill="#732F31" d="M48.512,47.026h-1.557v-30.95c0-0.778-0.637-1.417-1.488-1.417
		H39.66c-0.849,0-1.488,0.638-1.488,1.417v30.95h-2.903V24.929c0-0.85-0.708-1.487-1.486-1.487h-5.877
		c-0.781,0-1.417,0.637-1.417,1.487v22.097h-2.975V36.615c0-0.849-0.638-1.488-1.416-1.488h-5.879c-0.849,0-1.487,0.64-1.487,1.488
		v10.411h-2.903V30.737c0-0.781-0.637-1.417-1.487-1.417H4.462c-0.779,0-1.417,0.637-1.417,1.417v16.289H1.487
		C0.638,47.026,0,47.733,0,48.512C0,49.292,0.638,50,1.487,50h47.024C49.292,50,50,49.292,50,48.512
		C50,47.733,49.292,47.026,48.512,47.026L48.512,47.026z M48.512,47.026"/>
</g>
</svg>
