<?xml version="1.0" encoding="utf-8"?>
<!-- Generator: Adobe Illustrator 16.0.0, SVG Export Plug-In . SVG Version: 6.00 Build 0)  -->
<!DOCTYPE svg PUBLIC "-//W3C//DTD SVG 1.1//EN" "http://www.w3.org/Graphics/SVG/1.1/DTD/svg11.dtd">
<svg version="1.1" id="Layer_1" xmlns="http://www.w3.org/2000/svg" xmlns:xlink="http://www.w3.org/1999/xlink" x="0px" y="0px"
	 width="50px" height="50px" viewBox="0 0 50 50" enable-background="new 0 0 50 50" xml:space="preserve">
<g>
	
		<path fill="none" stroke="#732F31" stroke-width="1.6997" stroke-linecap="round" stroke-linejoin="round" stroke-miterlimit="10" d="
		M1,25.001C1,38.258,11.742,49,25.002,49c7.886,0,14.818-3.809,19.238-9.655h-8.09"/>
	
		<path fill="none" stroke="#732F31" stroke-width="1.6997" stroke-linecap="round" stroke-linejoin="round" stroke-miterlimit="10" d="
		M49,25.001C49,11.743,38.258,1,25.002,1C18.338,1,12.286,3.719,7.936,8.071h8.158"/>
	
		<line fill="none" stroke="#732F31" stroke-width="1.6997" stroke-linecap="round" stroke-linejoin="round" stroke-miterlimit="10" x1="44.24" y1="39.345" x2="44.037" y2="46.824"/>
	
		<line fill="none" stroke="#732F31" stroke-width="1.6997" stroke-linecap="round" stroke-linejoin="round" stroke-miterlimit="10" x1="7.936" y1="8.071" x2="7.936" y2="1.068"/>
	
		<path fill-rule="evenodd" clip-rule="evenodd" fill="#732F31" stroke="#732F31" stroke-width="1.6997" stroke-linecap="round" stroke-linejoin="round" stroke-miterlimit="10" d="
		M34.449,24.66c0.137,0.477,0,0.952-0.339,1.292l-9.108,9.109l-4.49,4.488c-0.475,0.476-1.223,0.543-1.767,0.136
		c-0.544-0.407-0.747-1.086-0.407-1.698l4.689-9.519l-6.662-2.176c-0.408-0.136-0.747-0.543-0.883-1.019
		c-0.069-0.409,0.068-0.884,0.407-1.225l13.597-13.597c0.476-0.477,1.157-0.545,1.701-0.137c0.543,0.409,0.746,1.088,0.475,1.701
		l-4.759,9.45l6.663,2.244C33.975,23.844,34.382,24.251,34.449,24.66L34.449,24.66z"/>
</g>
</svg>
