<?xml version="1.0" encoding="utf-8"?>
<!-- Generator: Adobe Illustrator 16.0.0, SVG Export Plug-In . SVG Version: 6.00 Build 0)  -->
<!DOCTYPE svg PUBLIC "-//W3C//DTD SVG 1.1//EN" "http://www.w3.org/Graphics/SVG/1.1/DTD/svg11.dtd">
<svg version="1.1" id="Layer_1" xmlns="http://www.w3.org/2000/svg" xmlns:xlink="http://www.w3.org/1999/xlink" x="0px" y="0px"
	 width="50px" height="50px" viewBox="0 0 50 50" enable-background="new 0 0 50 50" xml:space="preserve">
<g>
	<path fill-rule="evenodd" clip-rule="evenodd" fill="#732F31" d="M25.026,50C38.744,50,50,38.744,50,25.026
		C50,11.257,38.744,0,25.026,0C11.256,0,0,11.257,0,25.026C0,38.744,11.256,50,25.026,50L25.026,50z"/>
	<path fill="#FFFFFF" d="M31.357,16.08c0-0.353-0.1-0.603-0.352-0.854l-0.705-0.705c-0.201-0.2-0.502-0.352-0.854-0.352
		c-0.301,0-0.603,0.151-0.805,0.352l-9.646,9.649c-0.253,0.201-0.353,0.503-0.353,0.855c0,0.301,0.1,0.603,0.353,0.804l9.646,9.646
		c0.203,0.2,0.504,0.354,0.805,0.354c0.352,0,0.603-0.153,0.854-0.354l0.705-0.703c0.452-0.453,0.452-1.204,0-1.658l-8.09-8.088
		l8.09-8.143C31.257,16.682,31.357,16.381,31.357,16.08L31.357,16.08z"/>
</g>
</svg>
