<?xml version="1.0" encoding="utf-8"?>
<!-- Generator: Adobe Illustrator 16.0.0, SVG Export Plug-In . SVG Version: 6.00 Build 0)  -->
<!DOCTYPE svg PUBLIC "-//W3C//DTD SVG 1.1//EN" "http://www.w3.org/Graphics/SVG/1.1/DTD/svg11.dtd" [
	<!ENTITY ns_extend "http://ns.adobe.com/Extensibility/1.0/">
	<!ENTITY ns_ai "http://ns.adobe.com/AdobeIllustrator/10.0/">
	<!ENTITY ns_graphs "http://ns.adobe.com/Graphs/1.0/">
	<!ENTITY ns_vars "http://ns.adobe.com/Variables/1.0/">
	<!ENTITY ns_imrep "http://ns.adobe.com/ImageReplacement/1.0/">
	<!ENTITY ns_sfw "http://ns.adobe.com/SaveForWeb/1.0/">
	<!ENTITY ns_custom "http://ns.adobe.com/GenericCustomNamespace/1.0/">
	<!ENTITY ns_adobe_xpath "http://ns.adobe.com/XPath/1.0/">
]>
<svg version="1.1" xmlns:x="&ns_extend;" xmlns:i="&ns_ai;" xmlns:graph="&ns_graphs;"
	 xmlns="http://www.w3.org/2000/svg" xmlns:xlink="http://www.w3.org/1999/xlink" x="0px" y="0px" width="53.105px"
	 height="53.105px" viewBox="0 0 53.105 53.105" enable-background="new 0 0 53.105 53.105" xml:space="preserve">
<g id="Layer_1">
</g>
<g id="Layer_1_1_">
</g>
<g id="Layer_1_2_">
</g>
<g id="Layer_1_3_">
</g>
<g id="Layer_1_4_">
</g>
<g id="Layer_1_5_">
	<path fill-rule="evenodd" clip-rule="evenodd" fill="#FFFFFF" d="M26.553,53.105c14.625,0,26.552-11.929,26.552-26.553
		C53.105,11.928,41.177,0,26.553,0S0,11.928,0,26.553C0,41.177,11.928,53.105,26.553,53.105z"/>
	<path fill-rule="evenodd" clip-rule="evenodd" fill="#855439" d="M38.399,18.45h-0.02v-4.923c0-0.34-0.275-0.615-0.616-0.615
		H15.341c-0.34,0-0.615,0.275-0.615,0.615v4.923h-0.02c-1.188,0-2.154,0.967-2.154,2.154v10.358c0,1.188,0.966,2.154,2.154,2.154
		h2.974v6.461c0,0.34,0.276,0.616,0.616,0.616h16.821c0.339,0,0.615-0.276,0.615-0.616v-6.461h2.667
		c1.187,0,2.154-0.967,2.154-2.154V20.604C40.553,19.417,39.586,18.45,38.399,18.45L38.399,18.45z M15.956,14.143h21.193v4.308
		H15.956V14.143L15.956,14.143z M34.501,38.963h-15.59v-9.025h15.59V38.963L34.501,38.963z M39.322,30.963
		c0,0.509-0.414,0.924-0.923,0.924h-2.667v-1.949h0.718c0.34,0,0.615-0.275,0.615-0.615s-0.275-0.615-0.615-0.615H16.655
		c-0.34,0-0.616,0.275-0.616,0.615s0.276,0.615,0.616,0.615h1.025v1.949h-2.974c-0.509,0-0.923-0.415-0.923-0.924l0-10.358
		c0-0.509,0.414-0.923,0.923-0.923h23.693c0.509,0,0.923,0.414,0.923,0.923V30.963L39.322,30.963z M21.629,33.732
		c-0.339,0-0.615-0.275-0.615-0.615s0.275-0.615,0.615-0.615h9.847c0.339,0,0.615,0.275,0.615,0.615s-0.276,0.615-0.615,0.615
		H21.629L21.629,33.732z M21.629,37.015c-0.339,0-0.615-0.275-0.615-0.615s0.275-0.615,0.615-0.615h9.847
		c0.339,0,0.615,0.275,0.615,0.615s-0.276,0.615-0.615,0.615H21.629L21.629,37.015z M36.45,21.988c0.34,0,0.616,0.275,0.616,0.615
		v2.872c0,0.34-0.276,0.616-0.616,0.616h-5.641c-0.34,0-0.615-0.276-0.615-0.616v-2.872c0-0.34,0.275-0.615,0.615-0.615H36.45
		L36.45,21.988z M35.835,24.86h-4.411V23.22h4.411V24.86z"/>
</g>
<g id="Layer_1_6_">
</g>
<g id="Layer_1_7_">
</g>
<g id="Layer_1_8_">
</g>
<g id="Layer_1_9_">
</g>
<g id="Layer_1_10_">
</g>
<g id="Layer_1_11_">
</g>
<g id="Layer_1_12_">
</g>
<g id="Layer_1_13_">
</g>
<g id="Layer_1_14_">
</g>
<g id="Layer_1_15_">
</g>
<g id="Layer_1_16_">
</g>
<g id="Layer_1_17_">
</g>
<g id="Layer_1_18_">
</g>
<g id="Layer_1_19_">
</g>
<g id="Layer_1_20_">
</g>
<g id="Layer_1_21_">
</g>
<g id="Layer_1_22_">
</g>
<g id="Layer_1_23_">
</g>
<g id="Layer_1_24_">
</g>
<g id="Layer_1_25_">
</g>
<g id="Layer_1_26_">
</g>
<g id="Layer_1_27_">
</g>
<g id="Layer_1_28_">
</g>
<g id="Layer_1_29_">
</g>
<g id="Layer_1_30_">
</g>
</svg>
