<?xml version="1.0" encoding="utf-8"?>
<!-- Generator: Adobe Illustrator 16.0.0, SVG Export Plug-In . SVG Version: 6.00 Build 0)  -->
<!DOCTYPE svg PUBLIC "-//W3C//DTD SVG 1.1//EN" "http://www.w3.org/Graphics/SVG/1.1/DTD/svg11.dtd">
<svg version="1.1" id="Layer_1" xmlns="http://www.w3.org/2000/svg" xmlns:xlink="http://www.w3.org/1999/xlink" x="0px" y="0px"
	 width="50px" height="50px" viewBox="0 0 50 50" enable-background="new 0 0 50 50" xml:space="preserve">
<g>
	<path fill-rule="evenodd" clip-rule="evenodd" fill="#2BD5FF" d="M10.348,35.364L25.018,50l14.635-14.636
		c8.079-8.079,8.079-21.19,0-29.305c-8.08-8.079-21.191-8.079-29.305,0C2.268,14.174,2.268,27.285,10.348,35.364L10.348,35.364z"/>
	<path fill-rule="evenodd" clip-rule="evenodd" fill="#732F31" stroke="#FFFFFF" stroke-width="1.2403" stroke-miterlimit="10" d="
		M36.71,9c6.485,6.485,6.485,16.975,0,23.424c-6.449,6.484-16.973,6.484-23.423,0c-6.484-6.449-6.484-16.938,0-23.424
		C19.737,2.516,30.261,2.516,36.71,9L36.71,9z"/>
	<path fill="#FFFFFF" d="M34.372,28.384V24.7v-1.207v-5.563v-1.488c0-0.921-0.744-1.7-1.701-1.7H24.77l-1.596-1.56
		c-0.07-0.107-0.177-0.142-0.283-0.142h-5.563c-0.957,0-1.702,0.779-1.702,1.701v11.941c0,0.956,0.78,1.7,1.702,1.7h9.567H34.372z"
		/>
	
		<line fill="none" stroke="#732F31" stroke-width="1.2403" stroke-linecap="round" stroke-linejoin="round" stroke-miterlimit="10" x1="19.525" y1="18.249" x2="30.475" y2="18.249"/>
	
		<line fill="none" stroke="#732F31" stroke-width="1.2403" stroke-linecap="round" stroke-linejoin="round" stroke-miterlimit="10" x1="19.525" y1="21.296" x2="30.475" y2="21.296"/>
	
		<line fill="none" stroke="#732F31" stroke-width="1.2403" stroke-linecap="round" stroke-linejoin="round" stroke-miterlimit="10" x1="19.525" y1="24.345" x2="30.475" y2="24.345"/>
</g>
</svg>
