<?xml version="1.0" encoding="utf-8"?>
<!-- Generator: Adobe Illustrator 16.0.0, SVG Export Plug-In . SVG Version: 6.00 Build 0)  -->
<!DOCTYPE svg PUBLIC "-//W3C//DTD SVG 1.1//EN" "http://www.w3.org/Graphics/SVG/1.1/DTD/svg11.dtd">
<svg version="1.1" id="Layer_1" xmlns="http://www.w3.org/2000/svg" xmlns:xlink="http://www.w3.org/1999/xlink" x="0px" y="0px"
	 width="50px" height="50px" viewBox="0 0 50 50" enable-background="new 0 0 50 50" xml:space="preserve">
<g>
	<path fill-rule="evenodd" clip-rule="evenodd" fill="#c5b4a3" d="M47.859,35.878c-1.569,3.352-3.922,6.275-6.703,8.629H8.772
		c-0.499-0.427-1.069-0.929-1.567-1.427c-1.784-1.71-3.283-3.708-4.495-5.919l0.071-0.143c0.787-0.57,1.642-1.14,3.21-1.14h1.214
		h1.214c1.567,0,2.423,0.57,3.209,1.14c0.783,0.641,1.567,1.211,3.135,1.211c1.642,0,2.428-0.57,3.212-1.211
		c0.784-0.57,1.639-1.14,3.209-1.14s2.426,0.57,3.212,1.14c0.784,0.641,1.567,1.211,3.207,1.211c1.57,0,2.425-0.57,3.211-1.211
		c0.784-0.57,1.568-1.14,3.139-1.14c1.639,0,2.425,0.57,3.209,1.14c0.783,0.641,1.642,1.211,3.209,1.211
		c1.57,0,2.425-0.57,3.209-1.211c0.786-0.57,1.57-1.14,3.212-1.14H47.859z M50,28.745c-0.214,1.642-0.642,3.209-1.143,4.708h-0.927
		h-1.14c-2.426,0-3.782,0.998-4.637,1.71c-0.713,0.501-0.998,0.715-1.784,0.715c-0.784,0-1.069-0.214-1.781-0.715
		c-0.857-0.712-2.212-1.71-4.637-1.71c-2.354,0-3.711,0.998-4.638,1.71c-0.641,0.501-0.926,0.715-1.712,0.715
		c-0.855,0-1.141-0.214-1.782-0.715c-0.929-0.712-2.211-1.71-4.637-1.71c-2.425,0-3.708,0.998-4.637,1.71
		c-0.642,0.501-0.926,0.715-1.784,0.715c-0.781,0-1.066-0.214-1.71-0.715c-0.929-0.712-2.282-1.71-4.634-1.71H7.205H5.991
		c-2.139,0-3.495,0.855-4.35,1.496c-0.57-1.283-0.998-2.568-1.283-3.921c1.141-0.143,1.782-0.642,2.423-1.143
		c0.787-0.57,1.642-1.211,3.21-1.211l1.214,0.071v-0.071h1.214c1.567,0,2.423,0.641,3.209,1.211
		c0.783,0.573,1.567,1.214,3.135,1.214c1.642,0,2.428-0.641,3.212-1.214c0.784-0.57,1.639-1.211,3.209-1.211
		s2.426,0.641,3.212,1.211c0.784,0.573,1.567,1.214,3.207,1.214c1.57,0,2.425-0.641,3.211-1.214c0.784-0.57,1.568-1.211,3.139-1.211
		c1.639,0,2.425,0.641,3.209,1.211c0.783,0.573,1.642,1.214,3.209,1.214c1.57,0,2.425-0.641,3.209-1.214
		c0.786-0.57,1.57-1.211,3.212-1.211l1.14,0.071v-0.071h1.214C49.501,28.674,49.786,28.745,50,28.745L50,28.745z M27.531,27.676
		v0.998c0,0,0,0,0.071,0c0.786,0,1.071-0.214,1.712-0.713c0.927-0.644,2.283-1.642,4.638-1.642c2.425,0,3.779,0.998,4.637,1.642
		c0.712,0.499,0.997,0.713,1.781,0.713c0.356,0,0.644,0,0.929-0.143v-1.285c0-4.992-1.998-9.771-5.563-13.337
		c-3.282-3.353-7.703-5.278-12.34-5.492v12.41c0.499,0.214,1,0.499,1.428,0.856C26.604,23.11,27.531,25.108,27.531,27.676
		L27.531,27.676z M19.402,23.039h-2.713c-1.567,0-2.993-1.07-3.423-2.497H0c0.855-4.779,3.066-9.059,6.133-12.483h7.134
		c0.43-1.498,1.855-2.567,3.423-2.567h2.782c0.854,0,1.569,0.713,1.569,1.498v14.479C21.041,22.325,20.326,23.039,19.402,23.039
		L19.402,23.039z"/>
</g>
</svg>
