<?xml version="1.0" encoding="utf-8"?>
<!-- Generator: Adobe Illustrator 16.0.0, SVG Export Plug-In . SVG Version: 6.00 Build 0)  -->
<!DOCTYPE svg PUBLIC "-//W3C//DTD SVG 1.1//EN" "http://www.w3.org/Graphics/SVG/1.1/DTD/svg11.dtd">
<svg version="1.1" id="Layer_1" xmlns="http://www.w3.org/2000/svg" xmlns:xlink="http://www.w3.org/1999/xlink" x="0px" y="0px"
	 width="50px" height="50px" viewBox="0 0 50 50" enable-background="new 0 0 50 50" xml:space="preserve">
<g>
	<path fill-rule="evenodd" clip-rule="evenodd" fill="#732F31" d="M15.647,36.079l-0.566,1.203v1.135
		c0,0.354,0.213,0.708,0.566,0.92l2.905,0.779l-0.566-7.013c-0.213-3.119-2.905-5.455-6.094-5.172
		c-2.763,0.142-5.03,2.409-5.242,5.172l-0.495,7.013l2.833-0.779c0.354-0.07,0.637-0.425,0.637-0.92v-1.135l-0.637-1.274
		c-0.142-0.354-0.212-0.78-0.212-1.205v-1.699c0-1.984,1.558-3.614,3.541-3.614c1.984,0,3.613,1.63,3.613,3.614v1.699
		C15.931,35.298,15.86,35.654,15.647,36.079L15.647,36.079z"/>
	<path fill-rule="evenodd" clip-rule="evenodd" fill="#732F31" d="M18.906,42.029l-3.684-1.062c-0.07,0-0.284-0.071-0.354-0.071
		l-4.321,4.32v3.827l1.346,0.85c0.283,0.141,0.639,0.141,0.922,0l6.73-3.898v-3.046C19.545,42.596,19.262,42.241,18.906,42.029
		L18.906,42.029z M17.773,44.863h-2.692v-1.843h2.692V44.863z"/>
	<path fill-rule="evenodd" clip-rule="evenodd" fill="#732F31" d="M14.09,35.298c0.07-0.07,0.07-0.283,0.07-0.354v-1.841
		c0-0.993-0.851-1.771-1.843-1.771c-0.991,0-1.771,0.778-1.771,1.771v1.699c0,0.212,0,0.283,0.07,0.425l0.851,1.56v1.56
		c0,0.425-0.142,0.778-0.283,1.273l1.133,1.133l1.204-1.133c-0.212-0.354-0.282-0.849-0.282-1.273v-1.56L14.09,35.298z"/>
	<path fill-rule="evenodd" clip-rule="evenodd" fill="#732F31" d="M23.937,9.016l0.992,0.495l0.992-0.495
		c0.85-0.495,1.843-0.567,2.621-0.212V7.031c0-0.566-0.354-0.92-0.92-0.92h-5.386c-0.495,0-0.921,0.354-0.921,0.92v1.772
		C22.236,8.448,23.229,8.521,23.937,9.016L23.937,9.016z"/>
	<path fill-rule="evenodd" clip-rule="evenodd" fill="#732F31" d="M9.839,40.896c-0.07,0.071-0.284,0.071-0.355,0.071l-3.683,1.062
		c-0.426,0.07-0.638,0.495-0.638,0.92v3.046l3.613,2.056v-3.612l2.338-2.339L9.839,40.896z"/>
	<path fill-rule="evenodd" clip-rule="evenodd" fill="#732F31" d="M26.699,26.655l5.455-3.188v-4.321
		c0-0.354-0.283-0.709-0.637-0.779l-3.612-1.204l-1.701,1.558l1.273,1.275c0.711,0.709,0.994,1.843,0.64,2.834L26.699,26.655z
		 M29.462,19.643h1.772v1.771h-1.772V19.643z"/>
	<path fill-rule="evenodd" clip-rule="evenodd" fill="#732F31" d="M15.931,19.076c0-1.204,0.709-2.196,1.914-2.551l2.763-0.851
		l-0.212-0.283c-0.567-0.567-0.851-1.204-0.851-1.913V7.031c0-1.559,1.204-2.691,2.691-2.691h5.386c1.557,0,2.763,1.133,2.763,2.691
		v6.447c0,0.709-0.285,1.487-0.852,1.913l-0.283,0.283l2.833,0.851c1.064,0.354,1.843,1.487,1.843,2.551v3.329l2.763-1.559V7.174
		c0-0.354-0.212-0.638-0.495-0.779L25.426,0.16c-0.283-0.213-0.639-0.213-0.922,0L13.663,6.395
		c-0.212,0.142-0.424,0.425-0.424,0.779v13.814l2.691,1.487V19.076z"/>
	<path fill-rule="evenodd" clip-rule="evenodd" fill="#732F31" d="M23.725,18.721l-1.771-1.699l-3.542,1.133
		c-0.425,0.213-0.638,0.566-0.638,0.922v4.321l5.455,3.188l-1.417-3.826c-0.354-0.99-0.07-2.054,0.638-2.904L23.725,18.721z"/>
	<path fill-rule="evenodd" clip-rule="evenodd" fill="#732F31" d="M24.929,17.445l0.992-0.99l0.991-0.992l1.276-1.275
		c0.212-0.142,0.283-0.354,0.283-0.639v-2.054c0-0.638-0.566-1.134-1.206-1.134c-0.142,0-0.425,0.071-0.566,0.142l-1.771,1.205
		l-1.842-1.205c-0.567-0.354-1.275-0.142-1.56,0.354c-0.07,0.212-0.212,0.496-0.212,0.638v1.983c0,0.284,0.142,0.497,0.283,0.638
		l1.275,1.275l0.991,0.991L24.929,17.445z"/>
	<path fill-rule="evenodd" clip-rule="evenodd" fill="#732F31" d="M48.805,28.923l-11.267-6.447l-11.264,6.447
		c-0.142,0.071-0.212,0.071-0.425,0.142v14.31l2.692,1.56v-3.329c0-1.206,0.708-2.196,1.913-2.551l3.046-0.993l-0.78-1.273
		c-0.354-0.425-0.566-0.991-0.566-1.489v-5.809c0-1.486,1.206-2.692,2.692-2.692h8.146v8.501c0,0.498-0.212,1.064-0.495,1.489
		l-0.779,1.273l3.046,0.993c1.063,0.354,1.914,1.486,1.914,2.551v3.329l2.268-1.274c0.212-0.144,0.425-0.427,0.425-0.78V29.701
		C49.3,29.348,49.088,29.064,48.805,28.923L48.805,28.923z"/>
	<path fill-rule="evenodd" clip-rule="evenodd" fill="#732F31" d="M44.128,40.753l-3.614-1.133c-1.628,1.631-4.32,1.631-5.95,0
		l-3.542,1.133c-0.425,0.144-0.637,0.498-0.637,0.852v4.32l6.729,3.827c0.283,0.212,0.638,0.212,0.921,0l6.73-3.827v-4.32
		C44.765,41.251,44.482,40.896,44.128,40.753L44.128,40.753z M38.461,47.555h-1.772v-1.843h1.772V47.555z M38.461,43.942h-1.772
		V42.1h1.772V43.942z M42.993,43.942H40.23V42.1h2.763V43.942z"/>
	<path fill-rule="evenodd" clip-rule="evenodd" fill="#732F31" d="M33.926,33.104v2.194c0,0.142,0.142,0.356,0.213,0.498
		l1.418,2.265c0.85,1.064,2.336,1.348,3.471,0.498c0.142-0.212,0.354-0.283,0.425-0.498l1.418-2.265
		c0.142-0.142,0.212-0.356,0.212-0.498v-2.336l-3.544-0.71l-3.612,0.71V33.104z"/>
	<path fill-rule="evenodd" clip-rule="evenodd" fill="#732F31" d="M41.153,31.119V28.64h-6.307c-0.496,0-0.921,0.354-0.921,0.85
		v1.63l3.612-0.707L41.153,31.119z"/>
	<path fill-rule="evenodd" clip-rule="evenodd" fill="#732F31" d="M26.204,21.271l-1.275-1.275l-1.204,1.275
		c-0.283,0.212-0.425,0.567-0.213,0.921l1.417,3.896l1.487-3.896C26.487,21.839,26.487,21.483,26.204,21.271L26.204,21.271z"/>
	<path fill-rule="evenodd" clip-rule="evenodd" fill="#732F31" d="M12.317,22.476L1.054,28.923
		c-0.212,0.142-0.425,0.425-0.425,0.778v13.248c0,0.354,0.213,0.64,0.425,0.781l2.268,1.203v-1.984c0-0.85,0.354-1.557,0.92-1.981
		l0.639-8.006c0.354-4.181,3.967-7.227,8.005-6.943c3.685,0.283,6.589,3.258,6.943,6.943l0.638,8.006
		c0.495,0.566,0.85,1.273,0.85,1.981v1.984l2.763-1.56v-14.31c-0.213-0.07-0.283-0.07-0.495-0.142L12.317,22.476z"/>
</g>
</svg>
