<?xml version="1.0" encoding="utf-8"?>
<!-- Generator: Adobe Illustrator 16.0.0, SVG Export Plug-In . SVG Version: 6.00 Build 0)  -->
<!DOCTYPE svg PUBLIC "-//W3C//DTD SVG 1.1//EN" "http://www.w3.org/Graphics/SVG/1.1/DTD/svg11.dtd" [
	<!ENTITY ns_extend "http://ns.adobe.com/Extensibility/1.0/">
	<!ENTITY ns_ai "http://ns.adobe.com/AdobeIllustrator/10.0/">
	<!ENTITY ns_graphs "http://ns.adobe.com/Graphs/1.0/">
	<!ENTITY ns_vars "http://ns.adobe.com/Variables/1.0/">
	<!ENTITY ns_imrep "http://ns.adobe.com/ImageReplacement/1.0/">
	<!ENTITY ns_sfw "http://ns.adobe.com/SaveForWeb/1.0/">
	<!ENTITY ns_custom "http://ns.adobe.com/GenericCustomNamespace/1.0/">
	<!ENTITY ns_adobe_xpath "http://ns.adobe.com/XPath/1.0/">
]>
<svg version="1.1" xmlns:x="&ns_extend;" xmlns:i="&ns_ai;" xmlns:graph="&ns_graphs;"
	 xmlns="http://www.w3.org/2000/svg" xmlns:xlink="http://www.w3.org/1999/xlink" x="0px" y="0px" width="60px" height="60px"
	 viewBox="0 0 60 60" enable-background="new 0 0 60 60" xml:space="preserve">
<g id="Layer_1">
</g>
<g id="Layer_1_1_">
</g>
<g id="Layer_1_2_">
</g>
<g id="Layer_1_3_">
</g>
<g id="Layer_1_4_">
</g>
<g id="Layer_1_5_">
	<rect fill-rule="evenodd" clip-rule="evenodd" fill="none" width="60" height="60"/>
</g>
<g id="Layer_1_6_">
</g>
<g id="Layer_1_7_">
</g>
<g id="Layer_1_8_">
</g>
<g id="Layer_1_9_">
</g>
<g id="Layer_1_10_">
	<g>
		<path fill-rule="evenodd" clip-rule="evenodd" fill="none" stroke="#FFFFFF" stroke-width="1.3572" stroke-miterlimit="10" d="
			M45.647,20.559c-1.524-2.612-3.592-4.679-6.206-6.205c-2.612-1.524-5.464-2.287-8.558-2.287c-3.093,0-5.946,0.763-8.559,2.287
			c-2.612,1.525-4.681,3.593-6.206,6.205c-1.524,2.613-2.288,5.466-2.288,8.56c0,3.093,0.763,5.945,2.288,8.558
			c0.097,0.167,0.197,0.332,0.299,0.495l-0.422,0.173l-3.929,9.589l9.59-3.928l0.173-0.423c0.163,0.102,0.327,0.202,0.494,0.299
			c2.613,1.525,5.466,2.287,8.56,2.287c3.094,0,5.946-0.762,8.558-2.287c2.612-1.524,4.681-3.593,6.206-6.205
			c1.523-2.613,2.286-5.465,2.286-8.558C47.933,26.024,47.171,23.171,45.647,20.559L45.647,20.559z M33.726,40.573
			c0,0.206-0.067,0.377-0.201,0.51c-0.131,0.132-0.301,0.199-0.509,0.199h-4.263c-0.207,0-0.377-0.067-0.511-0.199
			c-0.134-0.132-0.201-0.304-0.201-0.51V36.31c0-0.208,0.067-0.377,0.201-0.511c0.133-0.133,0.304-0.199,0.511-0.199h4.263
			c0.208,0,0.378,0.066,0.509,0.199c0.134,0.134,0.201,0.304,0.201,0.511V40.573L33.726,40.573z M39.132,26.652
			c-0.185,0.549-0.393,0.998-0.623,1.344c-0.229,0.347-0.558,0.703-0.987,1.066c-0.428,0.361-0.769,0.621-1.021,0.776
			c-0.251,0.156-0.615,0.366-1.087,0.633c-0.489,0.282-0.892,0.648-1.209,1.099c-0.318,0.453-0.478,0.818-0.478,1.099
			c0,0.207-0.066,0.377-0.199,0.511c-0.133,0.132-0.303,0.199-0.511,0.199h-4.263c-0.207,0-0.377-0.067-0.51-0.199
			c-0.134-0.134-0.199-0.305-0.199-0.511v-0.8c0-0.991,0.387-1.92,1.164-2.786c0.778-0.867,1.633-1.507,2.565-1.92
			c0.711-0.326,1.213-0.659,1.509-1c0.297-0.34,0.444-0.791,0.444-1.354c0-0.489-0.278-0.925-0.833-1.312
			c-0.555-0.384-1.187-0.577-1.897-0.577c-0.771,0-1.406,0.177-1.91,0.533c-0.489,0.355-1.125,1.036-1.909,2.042
			c-0.135,0.178-0.32,0.268-0.557,0.268c-0.177,0-0.318-0.046-0.422-0.134l-2.93-2.221c-0.34-0.266-0.399-0.577-0.179-0.932
			c1.895-3.153,4.642-4.729,8.238-4.729c1.289,0,2.546,0.303,3.775,0.912c1.228,0.604,2.252,1.465,3.075,2.575
			c0.82,1.109,1.232,2.316,1.232,3.619C39.408,25.505,39.315,26.105,39.132,26.652z"/>
	</g>
</g>
<g id="Layer_1_11_">
</g>
<g id="Layer_1_12_">
</g>
<g id="Layer_1_13_">
</g>
<g id="Layer_1_14_">
</g>
<g id="Layer_1_15_">
</g>
<g id="Layer_1_16_">
</g>
<g id="Layer_1_17_">
</g>
<g id="Layer_1_18_">
</g>
<g id="Layer_1_19_">
</g>
<g id="Layer_1_20_">
</g>
<g id="Layer_1_21_">
</g>
<g id="Layer_1_22_">
</g>
<g id="Layer_1_23_">
</g>
<g id="Layer_1_24_">
</g>
<g id="Layer_1_25_">
</g>
<g id="Layer_1_26_">
</g>
<g id="Layer_1_27_">
</g>
<g id="Layer_1_28_">
</g>
<g id="Layer_1_29_">
</g>
<g id="Layer_1_30_">
</g>
</svg>
