<?xml version="1.0" encoding="utf-8"?>
<!-- Generator: Adobe Illustrator 16.0.0, SVG Export Plug-In . SVG Version: 6.00 Build 0)  -->
<!DOCTYPE svg PUBLIC "-//W3C//DTD SVG 1.1//EN" "http://www.w3.org/Graphics/SVG/1.1/DTD/svg11.dtd" [
	<!ENTITY ns_extend "http://ns.adobe.com/Extensibility/1.0/">
	<!ENTITY ns_ai "http://ns.adobe.com/AdobeIllustrator/10.0/">
	<!ENTITY ns_graphs "http://ns.adobe.com/Graphs/1.0/">
	<!ENTITY ns_vars "http://ns.adobe.com/Variables/1.0/">
	<!ENTITY ns_imrep "http://ns.adobe.com/ImageReplacement/1.0/">
	<!ENTITY ns_sfw "http://ns.adobe.com/SaveForWeb/1.0/">
	<!ENTITY ns_custom "http://ns.adobe.com/GenericCustomNamespace/1.0/">
	<!ENTITY ns_adobe_xpath "http://ns.adobe.com/XPath/1.0/">
]>
<svg version="1.1" xmlns:x="&ns_extend;" xmlns:i="&ns_ai;" xmlns:graph="&ns_graphs;"
	 xmlns="http://www.w3.org/2000/svg" xmlns:xlink="http://www.w3.org/1999/xlink" x="0px" y="0px" width="50px" height="50px"
	 viewBox="0 0 50 50" enable-background="new 0 0 50 50" xml:space="preserve">
<g id="Layer_1">
</g>
<g id="Layer_1_1_">
</g>
<g id="Layer_1_2_">
</g>
<g id="Layer_1_3_">
</g>
<g id="Layer_1_4_">
</g>
<g id="Layer_1_5_">
</g>
<g id="Layer_1_6_">
</g>
<g id="Layer_1_7_">
</g>
<g id="Layer_1_8_">
</g>
<g id="Layer_1_9_">
</g>
<g id="Layer_1_10_">
	<g>
		<path fill-rule="evenodd" clip-rule="evenodd" fill="none" stroke="#855439" stroke-width="1.131" stroke-miterlimit="10" d="
			M38.04,17.132c-1.271-2.177-2.994-3.899-5.171-5.171c-2.177-1.271-4.554-1.906-7.132-1.906c-2.578,0-4.955,0.636-7.132,1.906
			c-2.177,1.271-3.901,2.994-5.171,5.171c-1.271,2.178-1.906,4.555-1.906,7.133c0,2.577,0.636,4.954,1.906,7.132
			c0.081,0.139,0.164,0.276,0.249,0.412l-0.352,0.145l-3.274,7.991l7.992-3.273l0.144-0.353c0.135,0.085,0.272,0.168,0.412,0.249
			c2.178,1.271,4.555,1.905,7.133,1.905c2.578,0,4.955-0.635,7.132-1.905s3.901-2.994,5.171-5.171
			c1.27-2.178,1.905-4.555,1.905-7.132C39.944,21.687,39.309,19.309,38.04,17.132L38.04,17.132z M28.104,33.811
			c0,0.172-0.056,0.314-0.167,0.425c-0.109,0.11-0.251,0.166-0.424,0.166H23.96c-0.172,0-0.314-0.056-0.426-0.166
			s-0.167-0.253-0.167-0.425v-3.553c0-0.173,0.056-0.314,0.167-0.426s0.253-0.166,0.426-0.166h3.552
			c0.173,0,0.315,0.055,0.424,0.166c0.111,0.111,0.167,0.253,0.167,0.426V33.811L28.104,33.811z M32.61,22.21
			c-0.154,0.457-0.327,0.831-0.519,1.12c-0.191,0.289-0.465,0.586-0.823,0.889c-0.357,0.301-0.641,0.518-0.852,0.646
			c-0.209,0.13-0.512,0.305-0.906,0.527c-0.407,0.235-0.743,0.54-1.008,0.916c-0.265,0.377-0.398,0.682-0.398,0.916
			c0,0.172-0.055,0.314-0.166,0.426c-0.111,0.11-0.252,0.166-0.426,0.166H23.96c-0.172,0-0.314-0.056-0.425-0.166
			c-0.112-0.111-0.166-0.254-0.166-0.426v-0.667c0-0.826,0.322-1.601,0.97-2.321c0.648-0.723,1.36-1.256,2.138-1.601
			c0.592-0.271,1.011-0.549,1.257-0.833c0.248-0.283,0.37-0.659,0.37-1.128c0-0.407-0.231-0.771-0.694-1.093
			c-0.462-0.32-0.989-0.48-1.581-0.48c-0.642,0-1.172,0.147-1.591,0.444c-0.408,0.296-0.938,0.863-1.591,1.702
			c-0.112,0.148-0.267,0.223-0.464,0.223c-0.147,0-0.265-0.038-0.352-0.111l-2.441-1.851c-0.284-0.222-0.333-0.48-0.149-0.776
			c1.579-2.628,3.868-3.941,6.865-3.941c1.074,0,2.122,0.253,3.146,0.76c1.023,0.504,1.877,1.221,2.563,2.146
			c0.684,0.925,1.026,1.931,1.026,3.016C32.84,21.254,32.763,21.754,32.61,22.21z"/>
	</g>
</g>
<g id="Layer_1_11_">
</g>
<g id="Layer_1_12_">
</g>
<g id="Layer_1_13_">
</g>
<g id="Layer_1_14_">
</g>
<g id="Layer_1_15_">
</g>
<g id="Layer_1_16_">
</g>
<g id="Layer_1_17_">
</g>
<g id="Layer_1_18_">
</g>
<g id="Layer_1_19_">
</g>
<g id="Layer_1_20_">
</g>
<g id="Layer_1_21_">
</g>
<g id="Layer_1_22_">
</g>
<g id="Layer_1_23_">
</g>
<g id="Layer_1_24_">
</g>
<g id="Layer_1_25_">
</g>
<g id="Layer_1_26_">
</g>
<g id="Layer_1_27_">
</g>
<g id="Layer_1_28_">
</g>
<g id="Layer_1_29_">
</g>
<g id="Layer_1_30_">
</g>
</svg>
