<?xml version="1.0" encoding="utf-8"?>
<!-- Generator: Adobe Illustrator 16.0.0, SVG Export Plug-In . SVG Version: 6.00 Build 0)  -->
<!DOCTYPE svg PUBLIC "-//W3C//DTD SVG 1.1//EN" "http://www.w3.org/Graphics/SVG/1.1/DTD/svg11.dtd">
<svg version="1.1" id="Layer_1" xmlns="http://www.w3.org/2000/svg" xmlns:xlink="http://www.w3.org/1999/xlink" x="0px" y="0px"
	 width="50px" height="50px" viewBox="0 0 50 50" enable-background="new 0 0 50 50" xml:space="preserve">
<text transform="matrix(1 0 0 1 -2.6943 -14.3335)"><tspan x="0" y="0" fill="#FFFFFF" font-family="'MyriadPro-Regular'" font-size="10">Public Health</tspan><tspan x="2.335" y="12" fill="#FFFFFF" font-family="'MyriadPro-Regular'" font-size="10">Engineering</tspan></text>
<g>
	<path fill="#732F31" d="M35.836,0H10.34v20.822c0,0-0.07,0-0.07,0.071c-2.691,0.495-4.887,2.691-5.523,5.312
		c-0.566,2.267-0.072,4.604,1.346,6.373c1.416,1.7,1.344,4.179,1.344,4.25c0,2.408-1.982,4.392-4.391,4.392H1.559V50h46.883V12.748
		L35.836,0z"/>
	<polygon fill="#FFFFFF" points="36.686,5.028 43.482,11.898 36.686,11.898 	"/>
	<path fill="#FFFFFF" d="M8.355,30.737c-0.848-1.064-1.131-2.408-0.777-3.826c0.354-1.557,1.701-2.833,3.258-3.187
		c2.902-0.637,5.381,1.559,5.381,4.321c0,0.849-0.283,1.698-0.777,2.479c-2.408,3.328-2.125,6.161-2.195,6.302
		c0,1.63,0.568,3.116,1.484,4.392H8.854c0.92-1.276,1.486-2.762,1.486-4.392C10.34,36.686,10.553,33.429,8.355,30.737L8.355,30.737z
		"/>
	<rect x="4.463" y="44.123" fill="#FFFFFF" width="14.658" height="2.903"/>
	<path fill="#FFFFFF" d="M33.781,26.558c-4.887,0-8.779,3.967-8.779,8.781c0,4.816,3.893,8.784,8.779,8.784
		c4.816,0,8.781-3.967,8.781-8.784C42.563,30.525,38.598,26.558,33.781,26.558L33.781,26.558z M33.781,41.219
		c-3.256,0-5.877-2.62-5.877-5.88c0-3.257,2.621-5.877,5.877-5.877c3.188,0,5.879,2.62,5.879,5.877
		C39.66,38.599,36.969,41.219,33.781,41.219L33.781,41.219z"/>
	<rect x="16.217" y="8.995" fill="#FFFFFF" width="14.662" height="2.903"/>
	<rect x="16.217" y="14.872" fill="#FFFFFF" width="14.662" height="2.905"/>
	<rect x="22.023" y="20.68" fill="#FFFFFF" width="20.539" height="2.974"/>
</g>
</svg>
