<?xml version="1.0" encoding="utf-8"?>
<!-- Generator: Adobe Illustrator 16.0.0, SVG Export Plug-In . SVG Version: 6.00 Build 0)  -->
<!DOCTYPE svg PUBLIC "-//W3C//DTD SVG 1.1//EN" "http://www.w3.org/Graphics/SVG/1.1/DTD/svg11.dtd">
<svg version="1.1" id="Layer_1" xmlns="http://www.w3.org/2000/svg" xmlns:xlink="http://www.w3.org/1999/xlink" x="0px" y="0px"
	 width="50px" height="50px" viewBox="0 0 50 50" enable-background="new 0 0 50 50" xml:space="preserve">
<g>
	<path fill-rule="evenodd" clip-rule="evenodd" fill="#EDE4D8" d="M25,50c13.774,0,25-11.226,25-25C50,11.224,38.774,0,25,0
		C11.224,0,0,11.224,0,25C0,38.774,11.224,50,25,50L25,50z"/>
	<path fill="#855439" d="M26.758,25l7.878-7.88c0.512-0.453,0.512-1.248,0-1.756c-0.509-0.455-1.302-0.455-1.757,0L25,23.242
		l-7.88-7.878c-0.453-0.455-1.248-0.455-1.757,0c-0.51,0.508-0.51,1.303,0,1.756l7.88,7.88l-7.88,7.88
		c-0.51,0.453-0.51,1.246,0,1.756c0.227,0.229,0.566,0.342,0.908,0.342c0.283,0,0.623-0.113,0.85-0.342L25,26.758l7.878,7.878
		c0.229,0.229,0.568,0.342,0.852,0.342c0.34,0,0.679-0.113,0.906-0.342c0.512-0.51,0.512-1.303,0-1.756L26.758,25z"/>
</g>
</svg>
