<?xml version="1.0" encoding="utf-8"?>
<!-- Generator: Adobe Illustrator 16.0.0, SVG Export Plug-In . SVG Version: 6.00 Build 0)  -->
<!DOCTYPE svg PUBLIC "-//W3C//DTD SVG 1.1//EN" "http://www.w3.org/Graphics/SVG/1.1/DTD/svg11.dtd">
<svg version="1.1" id="Layer_1" xmlns="http://www.w3.org/2000/svg" xmlns:xlink="http://www.w3.org/1999/xlink" x="0px" y="0px"
	 width="50px" height="50px" viewBox="0 0 50 50" enable-background="new 0 0 50 50" xml:space="preserve">
<g>
	<path fill="#c5b4a3" d="M24.966,14.448c3.965,0,7.225-3.257,7.225-7.223C32.19,3.258,28.931,0,24.966,0
		c-3.967,0-7.153,3.258-7.153,7.225C17.813,11.19,20.999,14.448,24.966,14.448L24.966,14.448z"/>
	<path fill="#c5b4a3" d="M34.669,17.918L34.669,17.918c-0.993-0.212-3.825-0.638-3.825-0.638c-0.354-0.142-0.708,0.071-0.778,0.354
		l-4.321,11.898c-0.283,0.708-1.273,0.708-1.485,0l-4.321-11.898c-0.071-0.212-0.354-0.354-0.637-0.354c0,0-2.977,0.354-3.968,0.638
		c-2.688,0.637-4.392,3.328-4.392,6.019v9.916c0,1.486,1.205,2.691,2.694,2.691h22.731c1.488,0,2.691-1.205,2.691-2.691v-9.916
		C38.988,21.175,37.29,18.768,34.669,17.918L34.669,17.918z"/>
	<path fill="#c5b4a3" d="M26.596,17.068c-0.142-0.212-0.427-0.283-0.64-0.283h-1.912c-0.283,0-0.493,0.071-0.708,0.283
		c-0.283,0.283-0.283,0.709-0.068,0.992l0.991,1.558l-0.498,4.037l0.993,2.479c0.07,0.283,0.425,0.283,0.495,0l0.92-2.479
		l-0.425-4.037l0.993-1.558C26.949,17.777,26.879,17.351,26.596,17.068L26.596,17.068z"/>
	<path fill-rule="evenodd" clip-rule="evenodd" fill="#c5b4a3" d="M24.966,50c7.72,0,14.022-6.302,14.022-14.022
		c0-7.791-6.303-14.094-14.022-14.094s-14.024,6.303-14.024,14.094C10.941,43.698,17.246,50,24.966,50L24.966,50z"/>
	<path fill-rule="evenodd" clip-rule="evenodd" fill="#F8F8F8" d="M24.966,47.875c6.585,0,11.97-5.382,11.97-11.897
		c0-6.587-5.385-11.97-11.97-11.97c-6.515,0-11.896,5.382-11.896,11.97C13.069,42.493,18.451,47.875,24.966,47.875L24.966,47.875z"
		/>
	<text transform="matrix(0.9995 0 0 1 15.7344 39.7808)"><tspan x="0" y="0" fill="#c5b4a3" font-family="'Arial-BoldMT'" font-size="7.4952">R</tspan><tspan x="5.001" y="0" fill="#c5b4a3" font-family="'Arial-BoldMT'" font-size="7.4952">T</tspan><tspan x="9.991" y="0" fill="#c5b4a3" font-family="'Arial-BoldMT'" font-size="7.4952">O</tspan></text>
</g>
</svg>
