<?xml version="1.0" encoding="utf-8"?>
<!-- Generator: Adobe Illustrator 16.0.0, SVG Export Plug-In . SVG Version: 6.00 Build 0)  -->
<!DOCTYPE svg PUBLIC "-//W3C//DTD SVG 1.1//EN" "http://www.w3.org/Graphics/SVG/1.1/DTD/svg11.dtd">
<svg version="1.1" id="Layer_1" xmlns="http://www.w3.org/2000/svg" xmlns:xlink="http://www.w3.org/1999/xlink" x="0px" y="0px"
	 width="50px" height="50px" viewBox="0 0 50 50" enable-background="new 0 0 50 50" xml:space="preserve">
<g>
	<path fill-rule="evenodd" clip-rule="evenodd" fill="#E6E0D6" d="M1.541,0h46.948C49.306,0,50,0.694,50,1.541v46.918
		C50,49.306,49.306,50,48.489,50H1.541C0.694,50,0,49.306,0,48.459V1.541C0,0.694,0.694,0,1.541,0L1.541,0z"/>
	<g>
		<path fill-rule="evenodd" clip-rule="evenodd" fill="#855439" d="M38.332,32.618L17.624,11.911c-0.363-0.363-0.937-0.363-1.299,0
			l-5.17,5.169c-1.089,1.058-1.089,2.842,0,3.929l18.077,18.078c0.514,0.515,1.239,0.786,1.964,0.786
			c0.757,0,1.452-0.271,1.966-0.786l5.17-5.169C38.664,33.556,38.664,32.98,38.332,32.618L38.332,32.618z M31.862,37.757
			c-0.362,0.363-0.968,0.363-1.33,0L12.485,19.681c-0.364-0.364-0.364-0.938,0-1.301l4.474-4.505l2.237,2.237l-1.753,1.754
			c-0.363,0.362-0.363,0.938,0,1.3c0.181,0.181,0.423,0.271,0.664,0.271c0.242,0,0.483-0.091,0.665-0.271l1.724-1.754l2.116,2.116
			l-1.753,1.723c-0.363,0.363-0.363,0.969,0,1.331c0.181,0.181,0.423,0.271,0.664,0.271c0.212,0,0.454-0.091,0.636-0.271
			l1.753-1.754l2.086,2.086l-1.754,1.753c-0.332,0.363-0.332,0.938,0,1.301c0.181,0.181,0.423,0.271,0.665,0.271
			s0.483-0.091,0.666-0.271l1.753-1.724l2.086,2.086l-1.754,1.754c-0.362,0.362-0.362,0.938,0,1.3
			c0.182,0.181,0.424,0.271,0.665,0.271c0.242,0,0.483-0.091,0.635-0.271l1.754-1.754l2.116,2.086l-1.754,1.754
			c-0.362,0.362-0.362,0.967,0,1.33c0.182,0.181,0.424,0.271,0.635,0.271c0.242,0,0.483-0.091,0.666-0.271l1.752-1.754l2.237,2.207
			L31.862,37.757z"/>
		<path fill-rule="evenodd" clip-rule="evenodd" fill="#855439" d="M23.428,10.793l0.031,5.078c0,0.362,0.271,0.664,0.664,0.695
			c0.362-0.031,0.666-0.302,0.695-0.695v-3.446l12.546,12.515h-3.477c-0.362,0-0.665,0.302-0.665,0.696
			c0,0.362,0.272,0.664,0.665,0.664h5.078c0.394,0,0.665-0.302,0.695-0.664v-5.109c0-0.182-0.09-0.334-0.211-0.454
			c-0.121-0.121-0.302-0.211-0.454-0.211c-0.362,0-0.664,0.302-0.694,0.694v3.446L25.756,11.457h3.446
			c0.362,0,0.664-0.302,0.694-0.664c0-0.213-0.09-0.364-0.211-0.484c-0.121-0.121-0.302-0.182-0.453-0.182h-5.14
			C23.73,10.127,23.428,10.429,23.428,10.793L23.428,10.793z"/>
	</g>
</g>
</svg>
