<?xml version="1.0" encoding="utf-8"?>
<!-- Generator: Adobe Illustrator 16.0.0, SVG Export Plug-In . SVG Version: 6.00 Build 0)  -->
<!DOCTYPE svg PUBLIC "-//W3C//DTD SVG 1.1//EN" "http://www.w3.org/Graphics/SVG/1.1/DTD/svg11.dtd" [
	<!ENTITY ns_extend "http://ns.adobe.com/Extensibility/1.0/">
	<!ENTITY ns_ai "http://ns.adobe.com/AdobeIllustrator/10.0/">
	<!ENTITY ns_graphs "http://ns.adobe.com/Graphs/1.0/">
	<!ENTITY ns_vars "http://ns.adobe.com/Variables/1.0/">
	<!ENTITY ns_imrep "http://ns.adobe.com/ImageReplacement/1.0/">
	<!ENTITY ns_sfw "http://ns.adobe.com/SaveForWeb/1.0/">
	<!ENTITY ns_custom "http://ns.adobe.com/GenericCustomNamespace/1.0/">
	<!ENTITY ns_adobe_xpath "http://ns.adobe.com/XPath/1.0/">
]>
<svg version="1.1" xmlns:x="&ns_extend;" xmlns:i="&ns_ai;" xmlns:graph="&ns_graphs;"
	 xmlns="http://www.w3.org/2000/svg" xmlns:xlink="http://www.w3.org/1999/xlink" x="0px" y="0px" width="53.105px"
	 height="53.105px" viewBox="0 0 53.105 53.105" enable-background="new 0 0 53.105 53.105" xml:space="preserve">
<g id="Layer_1">
</g>
<g id="Layer_1_1_">
</g>
<g id="Layer_1_2_">
</g>
<g id="Layer_1_3_">
</g>
<g id="Layer_1_4_">
</g>
<g id="Layer_1_5_">
	<g>
		<path fill-rule="evenodd" clip-rule="evenodd" fill="#FFFFFF" d="M26.553,53.105c14.625,0,26.552-11.929,26.552-26.553
			C53.105,11.928,41.177,0,26.553,0S0,11.928,0,26.553C0,41.177,11.928,53.105,26.553,53.105z"/>
		<path fill-rule="evenodd" clip-rule="evenodd" fill="#855439" d="M28.066,34.291l-7.61-4.618c-0.972,1.261-2.47,2.013-4.081,2.013
			c-2.84,0-5.152-2.313-5.152-5.152c0-2.841,2.312-5.152,5.152-5.152c1.611,0,3.111,0.752,4.081,2.014l7.611-4.584
			c-0.152-0.489-0.231-0.996-0.231-1.512c0-2.842,2.311-5.153,5.153-5.153c2.841,0,5.152,2.313,5.152,5.153
			s-2.311,5.152-5.152,5.152c-1.635,0-3.151-0.775-4.118-2.067l-7.593,4.572c0.166,0.509,0.251,1.039,0.251,1.577
			c0,0.537-0.085,1.068-0.251,1.577l7.591,4.608c0.145-0.195,0.303-0.38,0.476-0.552c2.01-2.011,5.276-2.011,7.286,0
			c0.973,0.972,1.509,2.268,1.509,3.643c0,1.374-0.536,2.67-1.509,3.642c-0.969,0.971-2.273,1.509-3.644,1.509
			s-2.674-0.538-3.643-1.509c-0.974-0.972-1.509-2.268-1.509-3.642C27.836,35.293,27.916,34.783,28.066,34.291L28.066,34.291z
			 M32.989,13.908c-1.87,0-3.391,1.521-3.391,3.391c0,1.87,1.521,3.391,3.391,3.391s3.39-1.521,3.39-3.391
			C36.379,15.43,34.859,13.908,32.989,13.908L32.989,13.908z M16.377,29.924c1.87,0,3.391-1.521,3.391-3.391
			s-1.522-3.391-3.391-3.391c-1.87,0-3.391,1.521-3.391,3.391C12.986,28.402,14.507,29.924,16.377,29.924L16.377,29.924z
			 M35.386,38.207c0.642-0.642,0.993-1.491,0.993-2.397s-0.352-1.757-0.992-2.397c-0.639-0.639-1.495-0.991-2.397-0.991
			s-1.76,0.353-2.399,0.991c-0.64,0.641-0.992,1.491-0.992,2.397c0,0.905,0.352,1.756,0.992,2.397
			C31.913,39.528,34.063,39.528,35.386,38.207z"/>
	</g>
</g>
<g id="Layer_1_6_">
</g>
<g id="Layer_1_7_">
</g>
<g id="Layer_1_8_">
</g>
<g id="Layer_1_9_">
</g>
<g id="Layer_1_10_">
</g>
<g id="Layer_1_11_">
</g>
<g id="Layer_1_12_">
</g>
<g id="Layer_1_13_">
</g>
<g id="Layer_1_14_">
</g>
<g id="Layer_1_15_">
</g>
<g id="Layer_1_16_">
</g>
<g id="Layer_1_17_">
</g>
<g id="Layer_1_18_">
</g>
<g id="Layer_1_19_">
</g>
<g id="Layer_1_20_">
</g>
<g id="Layer_1_21_">
</g>
<g id="Layer_1_22_">
</g>
<g id="Layer_1_23_">
</g>
<g id="Layer_1_24_">
</g>
<g id="Layer_1_25_">
</g>
<g id="Layer_1_26_">
</g>
<g id="Layer_1_27_">
</g>
<g id="Layer_1_28_">
</g>
<g id="Layer_1_29_">
</g>
<g id="Layer_1_30_">
</g>
</svg>
