<?xml version="1.0" encoding="utf-8"?>
<!-- Generator: Adobe Illustrator 24.1.1, SVG Export Plug-In . SVG Version: 6.00 Build 0)  -->
<!DOCTYPE svg PUBLIC "-//W3C//DTD SVG 1.1//EN" "http://www.w3.org/Graphics/SVG/1.1/DTD/svg11.dtd">

<svg version="1.1" id="Layer_1" xmlns="http://www.w3.org/2000/svg" xmlns:xlink="http://www.w3.org/1999/xlink" x="0px" y="0px"
width="50px" height="50px" viewBox="0 0 50 50" enable-background="new 0 0 50 50" xml:space="preserve">

		<g>
			<path fill-rule="evenodd" clip-rule="evenodd" fill="#732F31" d="M5.447,45.595L5.447,45.595C2.446,45.595,0,43.149,0,40.147
				V38.48v-2.529V10.409c0-1.64,0.667-3.141,1.751-4.225V6.156c1.112-1.084,2.613-1.751,4.252-1.751s3.141,0.667,4.225,1.751l0,0
				c0.806,0.806,1.362,1.834,1.612,2.974H50v36.465H5.447z M19.122,21.498c-0.417,0-0.75-0.334-0.75-0.723
				c0-0.417,0.334-0.75,0.75-0.75h19.983c0.417,0,0.75,0.334,0.75,0.75c0,0.389-0.334,0.723-0.75,0.723H19.122z M19.122,34.839
				c-0.417,0-0.75-0.334-0.75-0.723c0-0.417,0.334-0.75,0.75-0.75h19.983c0.417,0,0.75,0.334,0.75,0.75
				c0,0.389-0.334,0.723-0.75,0.723H19.122z M19.122,28.168c-0.417,0-0.75-0.334-0.75-0.723c0-0.417,0.334-0.75,0.75-0.75h19.983
				c0.417,0,0.75,0.334,0.75,0.75c0,0.389-0.334,0.723-0.75,0.723H19.122z M1.473,32.254c1.001-1.056,2.39-1.723,3.974-1.723l0,0
				c2.307,0,4.28,1.473,5.058,3.53V10.409c0-1.251-0.5-2.39-1.306-3.196l0,0C8.366,6.379,7.254,5.878,6.003,5.878
				s-2.39,0.5-3.196,1.334l0,0c-0.834,0.806-1.334,1.946-1.334,3.196V32.254z"/>
		</g>


</svg>
