<?xml version="1.0" encoding="utf-8"?>
<!-- Generator: Adobe Illustrator 24.1.1, SVG Export Plug-In . SVG Version: 6.00 Build 0)  -->
<!DOCTYPE svg PUBLIC "-//W3C//DTD SVG 1.1//EN" "http://www.w3.org/Graphics/SVG/1.1/DTD/svg11.dtd">
<svg version="1.1" id="Layer_1" xmlns="http://www.w3.org/2000/svg" xmlns:xlink="http://www.w3.org/1999/xlink" x="0px" y="0px"
width="50px" height="50px" viewBox="0 0 50 50" enable-background="new 0 0 50 50" xml:space="preserve">

		<g>
			<path fill-rule="evenodd" clip-rule="evenodd" fill="#732F31" d="M25.113,24.707c1.53,0,2.79,1.26,2.79,2.79
				c0,1.26-0.855,2.34-2.025,2.655v12.781c0,0.45-0.36,0.81-0.765,0.81c-0.45,0-0.81-0.36-0.81-0.81V30.153
				c-1.17-0.315-1.98-1.395-1.98-2.655C22.322,25.968,23.537,24.707,25.113,24.707L25.113,24.707z M29.793,35.464h11.701L46.85,50
				H24.977H3.15l5.356-14.536h14.986v7.471c0,0.9,0.72,1.575,1.62,1.575c0.855,0,1.575-0.675,1.575-1.575v-7.471H29.793z
				 M28.758,46.805c-0.225,0-0.405-0.18-0.405-0.36c0-0.225,0.18-0.405,0.405-0.405h12.331l-0.63-1.71
				c-0.045-0.18,0.045-0.405,0.225-0.495c0.225-0.09,0.45,0.045,0.54,0.225l0.81,2.205c0,0.045,0,0.09,0,0.18
				c0,0.18-0.18,0.36-0.36,0.36H28.758z M21.602,43.024H8.911l-1.53,4.185h14.221V43.024z M28.623,38.614h11.386l1.215,3.33H28.578
				L28.623,38.614z M10.756,40.549c-0.09,0.225-0.315,0.315-0.495,0.27c-0.225-0.09-0.315-0.315-0.27-0.54l0.495-1.305
				c0.045-0.18,0.225-0.27,0.36-0.27h10.621c0.225,0,0.405,0.18,0.405,0.405c0,0.225-0.18,0.405-0.405,0.405H11.161L10.756,40.549z
				 M17.867,20.342c-0.315,0.27-0.81,0.27-1.125,0c-0.315-0.315-0.315-0.81,0-1.125c1.08-1.125,2.385-1.98,3.825-2.61
				c1.395-0.585,2.925-0.9,4.545-0.9c1.62,0,3.15,0.36,4.545,0.945c1.485,0.63,2.79,1.53,3.87,2.61c0.315,0.315,0.315,0.855,0,1.125
				c-0.315,0.315-0.81,0.315-1.125,0c-0.945-0.99-2.07-1.755-3.33-2.295c-1.215-0.495-2.565-0.81-3.96-0.81s-2.745,0.315-3.915,0.81
				C19.937,18.587,18.812,19.352,17.867,20.342L17.867,20.342z M6.796,9.181c-0.315,0.315-0.81,0.315-1.125,0
				c-0.315-0.315-0.315-0.81,0-1.125c2.52-2.52,5.536-4.59,8.911-5.986C17.822,0.765,21.377,0,25.113,0
				c3.78,0,7.381,0.765,10.666,2.16c3.42,1.44,6.526,3.555,9.046,6.211c0.315,0.315,0.315,0.81,0,1.125
				c-0.315,0.27-0.81,0.27-1.125-0.045c-2.385-2.475-5.311-4.455-8.506-5.806c-3.105-1.35-6.526-2.07-10.081-2.07
				c-3.51,0-6.886,0.72-9.901,1.98C12.016,4.86,9.181,6.796,6.796,9.181L6.796,9.181z M12.331,14.761c-0.315,0.27-0.81,0.27-1.125,0
				c-0.315-0.315-0.315-0.81,0-1.125c1.8-1.845,3.96-3.285,6.391-4.275c2.295-0.99,4.86-1.485,7.516-1.485
				c2.7,0,5.311,0.54,7.651,1.53c2.475,1.08,4.68,2.565,6.481,4.455c0.315,0.315,0.27,0.855-0.045,1.125
				c-0.315,0.315-0.81,0.315-1.08,0c-1.71-1.755-3.69-3.15-5.941-4.095c-2.205-0.945-4.59-1.44-7.066-1.44s-4.815,0.495-6.931,1.35
				C15.977,11.746,13.996,13.096,12.331,14.761L12.331,14.761z"/>
		</g>
	

</svg>
