<?xml version="1.0" encoding="utf-8"?>
<!-- Generator: Adobe Illustrator 24.1.1, SVG Export Plug-In . SVG Version: 6.00 Build 0)  -->
<svg version="1.1" id="Layer_1" xmlns="http://www.w3.org/2000/svg" xmlns:xlink="http://www.w3.org/1999/xlink" x="0px" y="0px" viewBox="0 0 50 50" width="50px" height="50px"
	 enable-background="new 0 0 50 50" xml:space="preserve">
		<g>
			<path fill-rule="evenodd" clip-rule="evenodd" fill="#732F31" d="M48.903,10.825L50,9.566c-4.132-3.551-10.232-3.551-14.3,0
				l1.097,1.259C40.349,7.758,45.449,7.758,48.903,10.825L48.903,10.825z M17.334,11.793h4.939V6.854h1.646v4.939h4.939
				c1.84,0,3.325-1.485,3.325-3.292c0-1.808-1.485-3.292-3.325-3.292h-0.904c-0.387-2.711-2.97-4.551-5.681-4.035
				c-2.066,0.323-3.712,1.969-4.035,4.035h-0.904c-1.84,0-3.325,1.485-3.325,3.292C14.009,10.308,15.494,11.793,17.334,11.793
				L17.334,11.793z M47.837,21.703c0-0.484-0.323-0.839-0.807-0.839h-3.325v-4.099h-1.646v4.099H27.211
				c-0.484,0-0.807,0.355-0.807,0.839v25.565h-1.646V21.703c0-1.42,1.065-2.485,2.453-2.485h1.646v-5.778h-4.939v1.646h-1.646
				v-1.646h-4.939c-2.389,0-4.454-1.711-4.874-4.099H6.617c-0.516,0-0.839,0.323-0.839,0.807v14.364
				c1.485,0.646,2.485,2.13,2.485,3.777v11.556c0,1.323-0.678,2.55-1.646,3.292v4.132H4.939v-5.1
				c1.001-0.355,1.679-1.259,1.679-2.324V28.288c0-1.388-1.097-2.453-2.485-2.453c-1.42,0-2.485,1.065-2.485,2.453v11.556
				c0,1.065,0.678,1.969,1.646,2.324v5.1H0v1.646h49.484v-1.646h-1.646V21.703z M15.688,25.834v4.099h-4.132v-4.099H15.688z
				 M15.688,33.258v4.099h-4.132v-4.099H15.688z M8.263,17.571h5.746v4.939H8.263V17.571z M21.433,47.267h-9.877V41.49h9.877V47.267
				z M21.433,37.358h-4.099v-4.099h4.099V37.358z M21.433,29.934h-4.099v-4.099h4.099V29.934z M21.433,22.51h-5.746v-4.939h5.746
				V22.51z M32.182,44.782h-3.325v-4.939h3.325V44.782z M32.182,36.551h-3.325V31.58h3.325V36.551z M32.182,28.288h-3.325v-4.939
				h3.325V28.288z M38.767,44.782h-3.292v-4.939h3.292V44.782z M38.767,36.551h-3.292V31.58h3.292V36.551z M38.767,28.288h-3.292
				v-4.939h3.292V28.288z M45.352,44.782h-3.292v-4.939h3.292V44.782z M45.352,36.551h-3.292V31.58h3.292V36.551z M45.352,28.288
				h-3.292v-4.939h3.292V28.288z M39.929,14.44l1.065,1.323c1.162-0.839,2.711-0.839,3.873,0l1.065-1.323
				C44.125,13.116,41.64,13.116,39.929,14.44L39.929,14.44z M47.579,12.051c-2.615-2.485-6.746-2.485-9.393,0l1.162,1.162
				c1.969-1.904,5.1-1.904,7.101,0L47.579,12.051z"/>
		</g>
	
</svg>
