<?xml version="1.0" encoding="utf-8"?>
<!-- Generator: Adobe Illustrator 16.0.0, SVG Export Plug-In . SVG Version: 6.00 Build 0)  -->
<!DOCTYPE svg PUBLIC "-//W3C//DTD SVG 1.1//EN" "http://www.w3.org/Graphics/SVG/1.1/DTD/svg11.dtd">
<svg version="1.1" id="Layer_1" xmlns="http://www.w3.org/2000/svg" xmlns:xlink="http://www.w3.org/1999/xlink" x="0px" y="0px"
	 width="50px" height="50px" viewBox="0 0 50 50" enable-background="new 0 0 50 50" xml:space="preserve">
<g>
	<path fill="#732F31" d="M46.992,28.495V4.515c0-0.796-0.623-1.503-1.418-1.503h-7.434V1.505c0-0.799-0.617-1.506-1.414-1.506
		c-0.887,0-1.506,0.707-1.506,1.506v1.507h-5.842V1.505c0-0.799-0.617-1.506-1.502-1.506c-0.797,0-1.418,0.707-1.418,1.506v1.507
		h-5.838V1.505c0-0.799-0.707-1.506-1.506-1.506c-0.797,0-1.416,0.707-1.416,1.506v1.507h-5.93V1.505
		c0-0.799-0.617-1.506-1.416-1.506c-0.793,0-1.504,0.707-1.504,1.506v1.507H1.506C0.707,3.012,0,3.719,0,4.515v38.139
		c0,0.799,0.707,1.418,1.506,1.418H25.84c2.391,3.539,6.371,5.93,10.975,5.93C44.07,50.001,50,44.071,50,36.815
		C50,33.629,48.848,30.797,46.992,28.495L46.992,28.495z M8.85,5.929v1.503c0,0.799,0.711,1.418,1.504,1.418
		c0.799,0,1.416-0.619,1.416-1.418V5.929h5.93v1.503c0,0.799,0.619,1.418,1.416,1.418c0.799,0,1.506-0.619,1.506-1.418V5.929h5.838
		v1.503c0,0.799,0.621,1.418,1.418,1.418c0.885,0,1.502-0.619,1.502-1.418V5.929h5.842v1.503c0,0.799,0.619,1.418,1.506,1.418
		c0.797,0,1.414-0.619,1.414-1.418V5.929h5.93v5.842H2.92V5.929H8.85z M2.92,41.15V14.779h41.15V25.84
		c-2.035-1.414-4.604-2.213-7.256-2.213c-4.691,0-8.762,2.39-11.063,6.018c-0.178-0.088-0.441-0.177-0.707-0.177h-2.922
		c-0.795,0-1.416,0.622-1.416,1.506c0,0.796,0.621,1.415,1.416,1.415h2.215c-0.266,0.976-0.535,1.948-0.619,2.921h-1.596
		c-0.795,0-1.416,0.707-1.416,1.506c0,0.796,0.621,1.414,1.416,1.414h1.596c0.084,1.062,0.354,2.037,0.619,2.921H2.92z
		 M36.814,46.991c-5.664,0-10.268-4.515-10.268-10.176c0-5.665,4.604-10.269,10.268-10.269c5.662,0,10.178,4.604,10.178,10.269
		C46.992,42.477,42.477,46.991,36.814,46.991L36.814,46.991z"/>
	<path fill="#732F31" d="M42.654,35.31H38.23v-4.336c0-0.884-0.619-1.506-1.416-1.506s-1.506,0.622-1.506,1.506v5.842
		c0,0.796,0.709,1.414,1.506,1.414h5.84c0.799,0,1.416-0.618,1.416-1.414C44.07,36.017,43.453,35.31,42.654,35.31L42.654,35.31z"/>
	<path fill="#732F31" d="M13.273,17.788h-2.92c-0.793,0-1.504,0.619-1.504,1.418c0,0.793,0.711,1.5,1.504,1.5h2.92
		c0.799,0,1.506-0.707,1.506-1.5C14.779,18.407,14.072,17.788,13.273,17.788L13.273,17.788z"/>
	<path fill="#732F31" d="M13.273,23.627h-2.92c-0.793,0-1.504,0.621-1.504,1.417c0,0.885,0.711,1.503,1.504,1.503h2.92
		c0.799,0,1.506-0.618,1.506-1.503C14.779,24.248,14.072,23.627,13.273,23.627L13.273,23.627z"/>
	<path fill="#732F31" d="M13.273,29.468h-2.92c-0.793,0-1.504,0.622-1.504,1.506c0,0.796,0.711,1.415,1.504,1.415h2.92
		c0.799,0,1.506-0.619,1.506-1.415C14.779,30.09,14.072,29.468,13.273,29.468L13.273,29.468z"/>
	<path fill="#732F31" d="M22.123,20.706h2.922c0.883,0,1.502-0.707,1.502-1.5c0-0.799-0.619-1.418-1.502-1.418h-2.922
		c-0.795,0-1.416,0.619-1.416,1.418C20.707,19.999,21.328,20.706,22.123,20.706L22.123,20.706z"/>
	<path fill="#732F31" d="M22.123,26.547h2.922c0.883,0,1.502-0.618,1.502-1.503c0-0.796-0.619-1.417-1.502-1.417h-2.922
		c-0.795,0-1.416,0.621-1.416,1.417C20.707,25.929,21.328,26.547,22.123,26.547L22.123,26.547z"/>
	<path fill="#732F31" d="M13.273,35.31h-2.92c-0.793,0-1.504,0.707-1.504,1.506c0,0.796,0.711,1.414,1.504,1.414h2.92
		c0.799,0,1.506-0.618,1.506-1.414C14.779,36.017,14.072,35.31,13.273,35.31L13.273,35.31z"/>
	<path fill="#732F31" d="M33.895,20.706h2.92c0.797,0,1.416-0.707,1.416-1.5c0-0.799-0.619-1.418-1.416-1.418h-2.92
		c-0.799,0-1.506,0.619-1.506,1.418C32.389,19.999,33.096,20.706,33.895,20.706L33.895,20.706z"/>
</g>
</svg>
