<?xml version="1.0" encoding="utf-8"?>
<!-- Generator: Adobe Illustrator 16.0.0, SVG Export Plug-In . SVG Version: 6.00 Build 0)  -->
<!DOCTYPE svg PUBLIC "-//W3C//DTD SVG 1.1//EN" "http://www.w3.org/Graphics/SVG/1.1/DTD/svg11.dtd">
<svg version="1.1" id="Layer_1" xmlns="http://www.w3.org/2000/svg" xmlns:xlink="http://www.w3.org/1999/xlink" x="0px" y="0px"
	 width="50px" height="50px" viewBox="0 0 50 50" enable-background="new 0 0 50 50" xml:space="preserve">
<g>
	<path fill-rule="evenodd" clip-rule="evenodd" fill="#c5b4a3" d="M49.222,29.143l-5.595-3.328
		c-0.285-0.142-0.568-0.283-0.852-0.283l0,0h-7.932v-8.146h5.948c0.922,0,1.63-0.778,1.63-1.698v-4.109l0,0
		c0-4.318-3.399-7.861-7.72-8.002H8.003C3.612,3.576,0,7.189,0,11.578v33.146c0,0.92,0.779,1.701,1.699,1.701h31.305
		c0.92,0,1.627-0.781,1.627-1.701V35.66h8.073l0,0c0.354,0,0.637-0.071,0.852-0.215l5.595-3.398C49.646,31.763,50,31.197,50,30.631
		c0-0.569-0.354-1.135-0.849-1.417L49.222,29.143z M31.374,43.023H3.4V11.578c0-2.549,2.053-4.674,4.674-4.674
		c2.549,0,4.674,2.125,4.674,4.674v4.109c0,0.92,0.708,1.698,1.7,1.698h17.068v8.146H14.589c-0.921,0-1.7,0.778-1.7,1.698v6.729
		c0,0.92,0.778,1.701,1.7,1.701h16.785V43.023z M42.28,32.259H22.45v-3.328h19.83l2.833,1.701L42.28,32.259z"/>
</g>
</svg>
