<!-- License: PD. Made by Maria Mishchenko: https://www.behance.net/maria_mishchenko -->
<svg width="60px" height="60px" viewBox="0 0 125 125" fill="" xmlns="http://www.w3.org/2000/svg">
<rect x="14" y="14" width="97" height="97" fill="white"/>
<path d="M61.5 89C78.3447 89 92 85.1672 92 80.4393C92 76.3137 81.6027 72.8697 67.7617 72.0591C67.0711 72.0186 66.4107 72.3465 66.0182 72.9162L62.7467 77.6653C61.953 78.8175 60.2518 78.8195 59.4554 77.6692L56.1957 72.9612C55.7998 72.3894 55.1338 72.0629 54.4398 72.109C40.9993 73.0031 31 76.3934 31 80.4393C31 85.1672 44.6553 89 61.5 89Z" fill="url(#paint0_linear)"/>
<path d="M75.5 59.1421C78 55.5 79.844 52.7814 80.6157 48.9018C81.3874 45.0222 80.9914 41.0009 79.4776 37.3463C77.9638 33.6918 75.4004 30.5682 72.1114 28.3706C68.8224 26.173 64.9556 25 61 25C57.0444 25 53.1776 26.173 49.8886 28.3706C46.5996 30.5682 44.0362 33.6918 42.5224 37.3463C41.0087 41.0009 40.6126 45.0222 41.3843 48.9018C42.156 52.7814 44 55.5 46.5 59.1421" stroke="#3377FF" stroke-width="3" stroke-linecap="round" stroke-linejoin="round"/>
<path d="M43 53.5L61 82L79 53.5" stroke="#3377FF" stroke-width="3" stroke-linecap="round" stroke-linejoin="round"/>
<circle cx="61" cy="45" r="8" stroke="#3377FF" stroke-width="15"/>
<defs>
</defs>
</svg>
