<?xml version="1.0" encoding="utf-8"?>
<!-- Generator: Adobe Illustrator 16.0.0, SVG Export Plug-In . SVG Version: 6.00 Build 0)  -->
<!DOCTYPE svg PUBLIC "-//W3C//DTD SVG 1.1//EN" "http://www.w3.org/Graphics/SVG/1.1/DTD/svg11.dtd">
<svg version="1.1" id="Layer_1" xmlns="http://www.w3.org/2000/svg" xmlns:xlink="http://www.w3.org/1999/xlink" x="0px" y="0px"
	 width="50px" height="50px" viewBox="0 0 50 50" enable-background="new 0 0 50 50" xml:space="preserve">
<g>
	<path fill-rule="evenodd" clip-rule="evenodd" fill="#55ABED" d="M25.002,0.001L25.002,0.001C38.753,0.001,50,11.247,50,24.999l0,0
		c0,13.75-11.247,25-24.998,25l0,0C11.247,49.999,0,38.749,0,24.999l0,0C0,11.247,11.247,0.001,25.002,0.001z"/>
	<path fill-rule="evenodd" clip-rule="evenodd" fill="#FFFFFF" d="M37.646,17.155c-0.931,0.412-1.931,0.693-2.981,0.818
		c1.071-0.645,1.896-1.658,2.283-2.871c-1.003,0.594-2.116,1.027-3.295,1.26c-0.945-1.008-2.295-1.639-3.79-1.639
		c-2.864,0-5.189,2.324-5.189,5.189c0,0.406,0.048,0.801,0.138,1.182c-4.313-0.215-8.135-2.283-10.695-5.422
		c-0.444,0.768-0.701,1.656-0.701,2.607c0,1.801,0.916,3.389,2.307,4.318c-0.851-0.023-1.65-0.26-2.349-0.65
		c-0.003,0.023-0.003,0.045-0.003,0.066c0,2.516,1.79,4.613,4.163,5.088c-0.436,0.123-0.893,0.182-1.367,0.182
		c-0.334,0-0.659-0.029-0.976-0.09c0.662,2.061,2.575,3.559,4.847,3.6c-1.776,1.393-4.011,2.223-6.443,2.223
		c-0.418,0-0.832-0.023-1.238-0.074c2.298,1.475,5.025,2.334,7.953,2.334c9.543,0,14.763-7.908,14.763-14.764
		c0-0.223-0.006-0.449-0.015-0.67C36.07,19.11,36.95,18.198,37.646,17.155L37.646,17.155z"/>
</g>
</svg>
