<?xml version="1.0" encoding="utf-8"?>
<!-- Generator: Adobe Illustrator 16.0.0, SVG Export Plug-In . SVG Version: 6.00 Build 0)  -->
<!DOCTYPE svg PUBLIC "-//W3C//DTD SVG 1.1//EN" "http://www.w3.org/Graphics/SVG/1.1/DTD/svg11.dtd">
<svg version="1.1" id="Layer_1" xmlns="http://www.w3.org/2000/svg" xmlns:xlink="http://www.w3.org/1999/xlink" x="0px" y="0px"
	 width="50px" height="50px" viewBox="0 0 50 50" enable-background="new 0 0 50 50" xml:space="preserve">
<g>
	<path fill="#732F31" d="M25.015,10.118c-9.606,0-18.26,5.275-24.59,13.719C0.105,24.156,0,24.578,0,25l0,0
		c0,0.422,0.105,0.844,0.425,1.16c6.331,8.548,14.984,13.722,24.59,13.722c9.497,0,18.15-5.174,24.59-13.722
		c0.527-0.633,0.527-1.582,0-2.323C43.166,15.394,34.512,10.118,25.015,10.118L25.015,10.118z M25.647,35.556
		c-6.333,0.315-11.504-4.858-11.082-11.188c0.316-5.279,4.538-9.497,9.711-9.817c6.436-0.421,11.606,4.858,11.184,11.188
		C35.145,30.912,30.923,35.134,25.647,35.556L25.647,35.556z"/>
	<path fill="#732F31" d="M25.331,30.697c-3.381,0.215-6.228-2.636-6.017-6.014c0.21-2.851,2.534-5.174,5.275-5.275
		c3.483-0.211,6.229,2.53,6.018,6.014C30.501,28.167,28.178,30.486,25.331,30.697L25.331,30.697z"/>
</g>
</svg>
