<?xml version="1.0" encoding="utf-8"?>
<!-- Generator: Adobe Illustrator 16.0.0, SVG Export Plug-In . SVG Version: 6.00 Build 0)  -->
<!DOCTYPE svg PUBLIC "-//W3C//DTD SVG 1.1//EN" "http://www.w3.org/Graphics/SVG/1.1/DTD/svg11.dtd">
<svg version="1.1" id="Layer_1" xmlns="http://www.w3.org/2000/svg" xmlns:xlink="http://www.w3.org/1999/xlink" x="0px" y="0px"
	 width="50px" height="50px" viewBox="0 0 50 50" enable-background="new 0 0 50 50" xml:space="preserve">
<g>
	<path fill-rule="evenodd" clip-rule="evenodd" fill="#EDE4D8" d="M25,49.973c13.776,0,25-11.225,25-25.002
		C50,11.254,38.776,0.027,25,0.027S0,11.254,0,24.971C0,38.748,11.224,49.973,25,49.973L25,49.973z"/>
	<g>
		<path fill-rule="evenodd" clip-rule="evenodd" fill="#855439" d="M37.812,24.52c-0.227-0.34-5.726-7.824-12.812-7.824
			S12.415,24.18,12.188,24.52c-0.227,0.283-0.227,0.678,0,0.961c0.227,0.34,5.726,7.824,12.812,7.824s12.585-7.484,12.812-7.824
			C38.038,25.197,38.038,24.803,37.812,24.52L37.812,24.52z M25,31.547c-5.215,0-9.694-4.932-11.054-6.576
			c1.359-1.586,5.839-6.518,11.054-6.518s9.694,4.932,11.054,6.518C34.694,26.615,30.215,31.547,25,31.547L25,31.547z"/>
		<path fill-rule="evenodd" clip-rule="evenodd" fill="#855439" d="M25,19.871c-2.834,0-5.158,2.266-5.158,5.1
			c0,2.891,2.324,5.158,5.158,5.158c2.836,0,5.16-2.268,5.16-5.158C30.16,22.137,27.836,19.871,25,19.871L25,19.871z M25,28.43
			c-1.871,0-3.402-1.531-3.402-3.459c0-1.869,1.531-3.4,3.402-3.4s3.459,1.531,3.459,3.4C28.459,26.898,26.871,28.43,25,28.43
			L25,28.43z"/>
	</g>
</g>
</svg>
