<?xml version="1.0" encoding="utf-8"?>
<!-- Generator: Adobe Illustrator 16.0.0, SVG Export Plug-In . SVG Version: 6.00 Build 0)  -->
<!DOCTYPE svg PUBLIC "-//W3C//DTD SVG 1.1//EN" "http://www.w3.org/Graphics/SVG/1.1/DTD/svg11.dtd" [
	<!ENTITY ns_extend "http://ns.adobe.com/Extensibility/1.0/">
	<!ENTITY ns_ai "http://ns.adobe.com/AdobeIllustrator/10.0/">
	<!ENTITY ns_graphs "http://ns.adobe.com/Graphs/1.0/">
	<!ENTITY ns_vars "http://ns.adobe.com/Variables/1.0/">
	<!ENTITY ns_imrep "http://ns.adobe.com/ImageReplacement/1.0/">
	<!ENTITY ns_sfw "http://ns.adobe.com/SaveForWeb/1.0/">
	<!ENTITY ns_custom "http://ns.adobe.com/GenericCustomNamespace/1.0/">
	<!ENTITY ns_adobe_xpath "http://ns.adobe.com/XPath/1.0/">
]>
<svg version="1.1" xmlns:x="&ns_extend;" xmlns:i="&ns_ai;" xmlns:graph="&ns_graphs;"
	 xmlns="http://www.w3.org/2000/svg" xmlns:xlink="http://www.w3.org/1999/xlink" x="0px" y="0px" width="50px" height="50px"
	 viewBox="0 0 50 50" enable-background="new 0 0 50 50" xml:space="preserve">
<g id="Layer_1"></g><g id="Layer_1_1_"></g><g id="Layer_1_2_"></g><g id="Layer_1_3_"></g><g id="Layer_1_4_"></g><g id="Layer_1_5_">
	<path fill-rule="evenodd" clip-rule="evenodd" fill="#855439" d="M38.758,30.394l-5.926,5.33c-0.494,0.4-1.086,0.666-1.714,0.766
		l-9.178,1.324c-0.002,0-0.004,0-0.006,0l-0.007,0.002c-0.277,0.043-0.567,0.025-0.86-0.055l-6.532-2.475v-8.023h0.73
		c0.621,0,1.238,0.072,1.84,0.211c0.022,0.006,0.045,0.01,0.066,0.016c0.074,0.018,0.147,0.037,0.222,0.057
		c0.006,0.002,0.013,0.004,0.019,0.006c0.074,0.02,0.146,0.041,0.22,0.063c0.013,0.004,0.026,0.008,0.039,0.012
		c0.078,0.025,0.155,0.049,0.232,0.076c0.008,0.002,0.016,0.006,0.023,0.008c0.16,0.055,0.318,0.115,0.476,0.182
		c0.008,0.002,0.017,0.006,0.025,0.01c0.078,0.033,0.155,0.066,0.232,0.102c0.002,0.002,0.004,0.002,0.006,0.004
		c0.075,0.033,0.148,0.07,0.223,0.105c0.008,0.004,0.018,0.01,0.025,0.014c0.072,0.035,0.144,0.072,0.214,0.111
		c0.014,0.006,0.027,0.014,0.04,0.021c0.071,0.039,0.143,0.078,0.213,0.119c1.016,0.594,2.12,0.979,3.285,1.145
		c0.004,0,0.007,0,0.011,0l4.78,0.551c0.026,0.004,0.053,0.008,0.079,0.014c0.703,0.131,1.259,0.652,1.444,1.328
		c0.028,0.102,0.047,0.205,0.058,0.311l0.02,0.191l-8.959-0.785c-0.234-0.02-0.441,0.154-0.462,0.389s0.153,0.441,0.388,0.461
		l9.471,0.83c0.003,0,0.005,0,0.007,0c0.003,0,0.005,0.002,0.007,0.002l1.786,0.1c0.008,0,0.016,0,0.024,0c0.008,0,0.017,0,0.024,0
		c0.01-0.002,0.02-0.002,0.028-0.004c0.014,0,0.025-0.004,0.038-0.006c0.009-0.002,0.018-0.004,0.026-0.006
		c0.014-0.004,0.027-0.01,0.04-0.016c0.008-0.002,0.015-0.004,0.021-0.008c0.021-0.01,0.04-0.02,0.059-0.031l1.516-1.016l0,0
		l4.478-2.996c0.451-0.303,1.065-0.186,1.371,0.264C39.2,29.505,39.131,30.063,38.758,30.394L38.758,30.394z M22.952,23.798
		l0.007,4.898l0.336,0.039l3.568,0.41l-0.007-5.354L22.952,23.798L22.952,23.798z M17.414,26.671
		c0.028,0.006,0.057,0.014,0.084,0.021c0.061,0.016,0.119,0.031,0.179,0.047c0.046,0.014,0.091,0.025,0.136,0.039
		c0.053,0.016,0.105,0.031,0.158,0.049c0.049,0.016,0.098,0.031,0.146,0.047s0.097,0.033,0.144,0.051
		c0.052,0.018,0.103,0.035,0.153,0.055c0.045,0.016,0.091,0.035,0.136,0.053c0.051,0.02,0.103,0.039,0.153,0.061
		c0.045,0.018,0.091,0.039,0.136,0.059c0.049,0.02,0.099,0.041,0.147,0.064c0.049,0.021,0.096,0.045,0.144,0.066
		c0.046,0.021,0.091,0.043,0.136,0.064c0.056,0.029,0.111,0.059,0.167,0.086c0.036,0.02,0.072,0.037,0.107,0.057
		c0.092,0.049,0.182,0.1,0.271,0.152c0.72,0.42,1.488,0.725,2.294,0.908l-0.007-4.832c0-0.205,0.08-0.4,0.226-0.547
		c0.146-0.145,0.339-0.227,0.546-0.227l4.065-0.006c0.001,0,0.001,0,0.001,0c0.426,0,0.771,0.346,0.772,0.771l0.008,5.543
		c1.168,0.23,2.052,1.191,2.171,2.389l0.033,0.34l1.279,0.072l1.208-0.809l-0.014-9.316l-7.503-7.029l-7.483,7.049L17.414,26.671
		L17.414,26.671z M19.573,14.544l0.002,1.203l-2.097,1.975l-0.005-3.174L19.573,14.544L19.573,14.544z M39.626,28.614
		c-0.568-0.834-1.713-1.057-2.551-0.492l-3.814,2.553l-0.011-7.945l1.325,1.24c0.281,0.264,0.648,0.41,1.034,0.41
		c0.001,0,0.002,0,0.003,0c0.416-0.002,0.818-0.176,1.103-0.48c0.276-0.295,0.422-0.68,0.408-1.084
		c-0.013-0.404-0.183-0.779-0.478-1.055l-2.513-2.355c-0.172-0.16-0.441-0.15-0.603,0.021s-0.152,0.441,0.02,0.602l2.512,2.354
		c0.129,0.121,0.203,0.285,0.209,0.461c0.006,0.178-0.058,0.346-0.178,0.475c-0.126,0.135-0.298,0.209-0.482,0.209c0,0,0,0-0.001,0
		c-0.168,0-0.328-0.064-0.451-0.18l0,0l0,0l-9.976-9.344c-0.165-0.154-0.421-0.154-0.585,0l-9.949,9.373l0,0l0,0
		c-0.129,0.121-0.297,0.184-0.474,0.18c-0.176-0.006-0.34-0.08-0.461-0.207c-0.121-0.129-0.185-0.297-0.18-0.475
		c0.005-0.176,0.079-0.34,0.208-0.461l10.693-10.072c0.253-0.24,0.65-0.24,0.905-0.002l6.256,5.861
		c0.172,0.16,0.441,0.152,0.603-0.021c0.161-0.17,0.152-0.441-0.02-0.602l-6.256-5.861c-0.291-0.271-0.664-0.408-1.037-0.408
		s-0.746,0.139-1.036,0.412l-3.424,3.225l-0.001-0.576c0-0.182-0.071-0.352-0.199-0.479c-0.128-0.129-0.299-0.199-0.479-0.199
		h-0.001l-2.448,0.004c-0.182,0-0.352,0.07-0.479,0.199c-0.129,0.129-0.199,0.299-0.198,0.48l0.007,4.15l-3.47,3.268
		c-0.295,0.277-0.464,0.652-0.476,1.059c-0.013,0.404,0.134,0.789,0.411,1.082c0.277,0.295,0.652,0.463,1.057,0.477
		c0.016,0,0.031,0,0.047,0c0.387,0,0.754-0.145,1.037-0.412l1.322-1.246l0.005,3.754c-0.428-0.063-0.86-0.096-1.295-0.096h-0.73
		v-0.256c0-0.857-0.698-1.557-1.558-1.557h-1.365c-0.858,0-1.557,0.697-1.557,1.557v6.686c0,0.236,0.19,0.426,0.426,0.426
		c0.236,0,0.427-0.189,0.427-0.426v-6.686c0-0.389,0.316-0.703,0.704-0.703h1.365c0.389,0,0.705,0.314,0.705,0.703v10.104
		c0,0.389-0.316,0.703-0.705,0.703h-1.365c-0.388,0-0.704-0.314-0.704-0.703v-0.746c0-0.236-0.19-0.428-0.427-0.428
		c-0.235,0-0.426,0.191-0.426,0.428v0.746c0,0.859,0.698,1.557,1.557,1.557h1.365c0.859,0,1.558-0.697,1.558-1.557v-0.059
		l6.248,2.367c0.012,0.004,0.023,0.008,0.035,0.012c0.271,0.076,0.543,0.115,0.812,0.115h0.007c0.143-0.002,0.284-0.012,0.425-0.035
		l9.182-1.322c0.002-0.002,0.004-0.002,0.006-0.002c0.781-0.125,1.518-0.455,2.13-0.953c0.005-0.006,0.011-0.01,0.016-0.014
		l5.932-5.336C40.017,30.417,40.146,29.378,39.626,28.614z"/>
</g>
<g id="Layer_1_6_"></g><g id="Layer_1_7_"></g><g id="Layer_1_8_"></g><g id="Layer_1_9_"></g><g id="Layer_1_10_"></g><g id="Layer_1_11_"></g><g id="Layer_1_12_"></g><g id="Layer_1_13_"></g><g id="Layer_1_14_"></g><g id="Layer_1_15_"></g><g id="Layer_1_16_"></g><g id="Layer_1_17_"></g><g id="Layer_1_18_"></g><g id="Layer_1_19_"></g><g id="Layer_1_20_">
</g><g id="Layer_1_21_"></g><g id="Layer_1_22_"></g><g id="Layer_1_23_"></g><g id="Layer_1_24_"></g><g id="Layer_1_25_"></g><g id="Layer_1_26_"></g><g id="Layer_1_27_"></g><g id="Layer_1_28_"></g><g id="Layer_1_29_"></g><g id="Layer_1_30_">
</g>
</svg>
