<?xml version="1.0" encoding="utf-8"?>
<!-- Generator: Adobe Illustrator 16.0.0, SVG Export Plug-In . SVG Version: 6.00 Build 0)  -->
<!DOCTYPE svg PUBLIC "-//W3C//DTD SVG 1.1//EN" "http://www.w3.org/Graphics/SVG/1.1/DTD/svg11.dtd" [
	<!ENTITY ns_extend "http://ns.adobe.com/Extensibility/1.0/">
	<!ENTITY ns_ai "http://ns.adobe.com/AdobeIllustrator/10.0/">
	<!ENTITY ns_graphs "http://ns.adobe.com/Graphs/1.0/">
	<!ENTITY ns_vars "http://ns.adobe.com/Variables/1.0/">
	<!ENTITY ns_imrep "http://ns.adobe.com/ImageReplacement/1.0/">
	<!ENTITY ns_sfw "http://ns.adobe.com/SaveForWeb/1.0/">
	<!ENTITY ns_custom "http://ns.adobe.com/GenericCustomNamespace/1.0/">
	<!ENTITY ns_adobe_xpath "http://ns.adobe.com/XPath/1.0/">
]>
<svg version="1.1" xmlns:x="&ns_extend;" xmlns:i="&ns_ai;" xmlns:graph="&ns_graphs;"
	 xmlns="http://www.w3.org/2000/svg" xmlns:xlink="http://www.w3.org/1999/xlink" x="0px" y="0px" width="60px" height="60px"
	 viewBox="0 0 60 60" enable-background="new 0 0 60 60" xml:space="preserve">
<g id="Layer_1">
</g>
<g id="Layer_1_1_">
</g>
<g id="Layer_1_2_">
</g>
<g id="Layer_1_3_">
</g>
<g id="Layer_1_4_">
</g>
<g id="Layer_1_5_">
	<rect fill-rule="evenodd" clip-rule="evenodd" fill="none" width="60" height="60"/>
	<path fill-rule="evenodd" clip-rule="evenodd" fill="#FFFFFF" d="M46.509,36.472l-7.111,6.396c-0.593,0.48-1.303,0.799-2.057,0.92
		l-11.013,1.588c-0.002,0-0.005,0-0.007,0l-0.008,0.002c-0.333,0.053-0.681,0.031-1.033-0.064l-7.838-2.971v-9.627h0.876
		c0.745,0,1.486,0.086,2.208,0.252c0.027,0.008,0.054,0.012,0.08,0.02c0.089,0.021,0.177,0.045,0.266,0.068
		c0.007,0.002,0.016,0.004,0.022,0.006c0.089,0.023,0.176,0.051,0.264,0.076c0.015,0.004,0.032,0.01,0.047,0.014
		c0.094,0.031,0.187,0.059,0.279,0.092c0.009,0.002,0.019,0.006,0.028,0.01c0.192,0.064,0.382,0.137,0.571,0.217
		c0.009,0.002,0.02,0.008,0.03,0.012c0.094,0.041,0.187,0.08,0.279,0.123c0.002,0.002,0.005,0.002,0.007,0.004
		c0.09,0.039,0.178,0.084,0.267,0.127c0.009,0.004,0.021,0.012,0.03,0.016c0.087,0.043,0.172,0.088,0.257,0.135
		c0.016,0.006,0.033,0.016,0.048,0.025c0.085,0.047,0.171,0.094,0.255,0.143c1.219,0.713,2.544,1.174,3.942,1.373
		c0.005,0,0.008,0,0.013,0l5.736,0.662c0.032,0.004,0.063,0.008,0.095,0.016c0.844,0.156,1.51,0.783,1.733,1.594
		c0.034,0.121,0.057,0.246,0.069,0.373l0.023,0.229l-10.751-0.941c-0.281-0.023-0.529,0.186-0.554,0.467
		c-0.024,0.281,0.184,0.529,0.465,0.553l11.365,0.996c0.003,0,0.006,0,0.008,0c0.003,0,0.006,0.002,0.008,0.002l2.143,0.119
		c0.01,0,0.019,0,0.029,0c0.01,0,0.02,0,0.029,0c0.012-0.002,0.023-0.002,0.034-0.004c0.017,0,0.03-0.004,0.046-0.008
		c0.01-0.002,0.021-0.004,0.031-0.006c0.017-0.006,0.033-0.012,0.048-0.02c0.009-0.002,0.018-0.004,0.026-0.01
		c0.024-0.012,0.048-0.023,0.07-0.037l1.818-1.219l0,0l5.373-3.596c0.542-0.363,1.279-0.223,1.646,0.316
		C47.04,35.405,46.957,36.077,46.509,36.472L46.509,36.472z M27.542,28.558l0.008,5.879l0.403,0.047l4.282,0.492l-0.008-6.426
		L27.542,28.558L27.542,28.558z M20.897,32.005c0.034,0.008,0.068,0.018,0.101,0.025c0.073,0.02,0.143,0.039,0.214,0.057
		c0.055,0.018,0.109,0.031,0.163,0.047c0.063,0.02,0.126,0.037,0.19,0.059c0.059,0.02,0.117,0.037,0.176,0.057
		s0.116,0.039,0.172,0.061c0.062,0.021,0.123,0.043,0.184,0.066c0.054,0.018,0.109,0.041,0.163,0.063
		c0.061,0.023,0.123,0.047,0.184,0.072c0.054,0.021,0.109,0.047,0.163,0.07c0.059,0.023,0.119,0.051,0.177,0.078
		c0.059,0.025,0.115,0.055,0.172,0.08c0.055,0.025,0.109,0.051,0.163,0.076c0.067,0.035,0.134,0.07,0.201,0.104
		c0.043,0.023,0.086,0.045,0.129,0.068c0.11,0.059,0.218,0.119,0.326,0.184c0.864,0.504,1.786,0.869,2.752,1.09l-0.008-5.799
		c0-0.246,0.096-0.48,0.271-0.656c0.175-0.174,0.407-0.271,0.655-0.271l4.878-0.008c0.001,0,0.001,0,0.001,0
		c0.511,0,0.926,0.414,0.927,0.926l0.009,6.652c1.401,0.275,2.462,1.43,2.605,2.865l0.04,0.408l1.535,0.086l1.449-0.969
		l-0.016-11.18L29.87,17.88l-8.98,8.459L20.897,32.005L20.897,32.005z M23.488,17.452l0.002,1.445l-2.516,2.369l-0.006-3.809
		L23.488,17.452L23.488,17.452z M47.551,34.337c-0.682-1-2.056-1.268-3.061-0.59l-4.577,3.063L39.9,27.276l1.59,1.488
		c0.337,0.316,0.778,0.492,1.241,0.492c0.001,0,0.002,0,0.003,0c0.499-0.004,0.982-0.211,1.323-0.578
		c0.332-0.354,0.506-0.814,0.49-1.301c-0.016-0.484-0.219-0.934-0.573-1.266l-3.015-2.826c-0.207-0.191-0.53-0.18-0.723,0.025
		c-0.193,0.207-0.183,0.531,0.023,0.723l3.014,2.824c0.155,0.145,0.244,0.342,0.25,0.553c0.007,0.213-0.069,0.416-0.213,0.57
		c-0.151,0.162-0.357,0.25-0.579,0.25c0,0,0,0-0.001,0c-0.202,0-0.394-0.076-0.542-0.215l0,0l0,0L30.219,16.804
		c-0.198-0.186-0.505-0.186-0.702,0L17.578,28.052l0,0l0,0c-0.155,0.145-0.356,0.221-0.568,0.215
		c-0.211-0.006-0.408-0.096-0.553-0.248c-0.145-0.154-0.221-0.355-0.215-0.57c0.006-0.211,0.095-0.406,0.25-0.553L29.323,14.81
		c0.303-0.289,0.78-0.289,1.086-0.002l7.507,7.033c0.206,0.191,0.53,0.182,0.723-0.025c0.193-0.205,0.183-0.531-0.023-0.723
		l-7.507-7.033c-0.349-0.326-0.797-0.49-1.244-0.49c-0.448,0-0.896,0.166-1.244,0.494l-4.108,3.869l-0.001-0.691
		c0-0.217-0.085-0.422-0.239-0.574c-0.154-0.154-0.359-0.238-0.576-0.238h-0.001l-2.938,0.004c-0.218,0-0.422,0.086-0.575,0.24
		c-0.155,0.154-0.239,0.357-0.238,0.576l0.008,4.98l-4.164,3.922c-0.354,0.332-0.557,0.781-0.571,1.27
		c-0.015,0.484,0.161,0.947,0.494,1.299c0.333,0.354,0.783,0.555,1.268,0.572c0.019,0,0.037,0,0.056,0
		c0.464,0,0.905-0.174,1.245-0.496l1.586-1.494l0.006,4.504c-0.513-0.074-1.032-0.115-1.554-0.115h-0.876v-0.307
		c0-1.029-0.838-1.867-1.869-1.867h-1.639c-1.03,0-1.868,0.836-1.868,1.867v8.023c0,0.283,0.229,0.51,0.511,0.51
		c0.284,0,0.512-0.227,0.512-0.51v-8.023c0-0.467,0.38-0.844,0.845-0.844h1.639c0.466,0,0.846,0.377,0.846,0.844v12.125
		c0,0.467-0.379,0.844-0.846,0.844h-1.639c-0.465,0-0.845-0.377-0.845-0.844v-0.896c0-0.283-0.229-0.512-0.512-0.512
		c-0.282,0-0.511,0.229-0.511,0.512v0.896c0,1.031,0.838,1.867,1.868,1.867h1.639c1.031,0,1.869-0.836,1.869-1.867v-0.07l7.498,2.84
		c0.014,0.006,0.028,0.01,0.042,0.014c0.326,0.092,0.652,0.139,0.974,0.139h0.008c0.171-0.002,0.341-0.014,0.51-0.041l11.018-1.588
		c0.002-0.002,0.005-0.002,0.007-0.002c0.938-0.15,1.821-0.547,2.556-1.145c0.006-0.006,0.013-0.012,0.019-0.016l7.118-6.402
		C48.02,36.501,48.176,35.253,47.551,34.337z"/>
</g>
<g id="Layer_1_6_">
</g>
<g id="Layer_1_7_">
</g>
<g id="Layer_1_8_">
</g>
<g id="Layer_1_9_">
</g>
<g id="Layer_1_10_">
</g>
<g id="Layer_1_11_">
</g>
<g id="Layer_1_12_">
</g>
<g id="Layer_1_13_">
</g>
<g id="Layer_1_14_">
</g>
<g id="Layer_1_15_">
</g>
<g id="Layer_1_16_">
</g>
<g id="Layer_1_17_">
</g>
<g id="Layer_1_18_">
</g>
<g id="Layer_1_19_">
</g>
<g id="Layer_1_20_">
</g>
<g id="Layer_1_21_">
</g>
<g id="Layer_1_22_">
</g>
<g id="Layer_1_23_">
</g>
<g id="Layer_1_24_">
</g>
<g id="Layer_1_25_">
</g>
<g id="Layer_1_26_">
</g>
<g id="Layer_1_27_">
</g>
<g id="Layer_1_28_">
</g>
<g id="Layer_1_29_">
</g>
<g id="Layer_1_30_">
</g>
</svg>
