<?xml version="1.0" encoding="utf-8"?>
<!-- Generator: Adobe Illustrator 26.0.1, SVG Export Plug-In . SVG Version: 6.00 Build 0)  -->
<svg version="1.1" id="Layer_1" xmlns="http://www.w3.org/2000/svg" xmlns:xlink="http://www.w3.org/1999/xlink" x="0px" y="0px"
	 width="50px" height="50px" viewBox="0 0 50 50" enable-background="new 0 0 50 50" xml:space="preserve">
<g>
	<path fill="#732F31" d="M48.214,23.493L24.655,42.56l-13.478-8.438l2.027-3.232l-9.807-0.329l4.602,8.711l2.027-3.232l10.903,6.794
		l-19.834,0C0.493,42.834,0,43.327,0,43.929c0,0.603,0.493,1.096,1.096,1.096h45.475c0.603,0,1.096-0.493,1.096-1.096
		c0-0.603-0.493-1.096-1.096-1.096H27.833l21.751-17.587c0.493-0.384,0.548-1.096,0.164-1.534
		C49.365,23.219,48.653,23.11,48.214,23.493L48.214,23.493z"/>
	<path fill="#732F31" d="M25.477,34.67c4.602,0,8.328-3.616,8.328-8.109c0-3.999-6.575-19.231-7.287-20.929
		c-0.164-0.384-0.548-0.657-0.986-0.657c-0.438,0-0.877,0.274-1.096,0.657c-0.767,1.698-7.287,16.93-7.287,20.929
		C17.15,31.054,20.875,34.67,25.477,34.67L25.477,34.67z M25.477,8.865c2.301,5.534,6.082,15.122,6.082,17.697
		c0,3.288-2.739,5.917-6.136,5.917s-6.136-2.63-6.136-5.917C19.341,23.987,23.121,14.398,25.477,8.865L25.477,8.865z"/>
</g>
</svg>
