<?xml version="1.0" encoding="utf-8"?>
<!-- Generator: Adobe Illustrator 16.0.0, SVG Export Plug-In . SVG Version: 6.00 Build 0)  -->
<!DOCTYPE svg PUBLIC "-//W3C//DTD SVG 1.1//EN" "http://www.w3.org/Graphics/SVG/1.1/DTD/svg11.dtd">
<svg version="1.1" id="Layer_1" xmlns="http://www.w3.org/2000/svg" xmlns:xlink="http://www.w3.org/1999/xlink" x="0px" y="0px"
	 width="50px" height="50px" viewBox="0 0 50 50" enable-background="new 0 0 50 50" xml:space="preserve">
<g>
	<path fill="#c5b4a3" d="M16.385,9.702c-0.637-1.628-0.991-3.823,0.567-5.312h1.912l0.78-0.92l0.424,0.992h0.992
		c0,0,1.77,2.266,0.142,5.098c1.274-0.991,2.054-2.55,2.054-4.32C23.255,2.337,21.202,0,18.652,0s-4.603,2.337-4.603,5.241
		C14.049,7.154,14.969,8.853,16.385,9.702L16.385,9.702z"/>
	<path fill="#c5b4a3" d="M39.403,25.284c0,1.557-1.205,2.762-2.691,2.762c-1.559,0-2.762-1.206-2.762-2.762
		c0-1.488,1.203-2.692,2.762-2.692C38.198,22.592,39.403,23.796,39.403,25.284L39.403,25.284z"/>
	<path fill="#c5b4a3" d="M42.59,31.87c-0.92-1.842-2.408-2.55-4.816-2.762c-0.354-0.071-0.708-0.071-0.92,0
		c-0.142,0-0.212,0-0.283,0c-0.707,0-1.417,0.212-1.983,0.566c-1.415-0.283-2.125-1.273-2.337-2.833
		c-0.071-0.778-0.638-1.486-1.486-1.557c0.283-0.567,0.354-1.276-0.142-1.983c-2.125-3.188-4.533-6.516-5.029-10.411
		c-0.142-0.992-0.779-1.487-1.56-1.487v-0.071c-1.982-0.426-2.69-0.071-2.69-0.071l-2.195,4.461l0.495-3.966h0.071v-0.708h-1.629
		v0.708h0.071l0.566,3.966l-2.195-4.675c-0.143,0.072,0.071,0.072-0.143,0.143c0,0-0.708-0.921-3.611,0.566l0,0
		c-0.567,0.212-0.992,0.637-1.063,1.417c-0.566,3.895-2.974,7.224-5.099,10.411c-1.487,2.337,2.196,4.463,3.753,2.196
		c0.78-1.274,1.629-2.479,2.408-3.753L8.312,35.836h4.816v11.826c0,1.276,0.921,2.337,2.196,2.337c1.346,0,2.408-1.062,2.408-2.337
		V35.836h2.124v11.897c0,2.762,4.249,2.762,4.249,0V35.836h4.958l-4.391-13.74c0.779,1.133,1.487,2.267,2.265,3.4
		c0.566,0.778,1.418,1.061,2.126,0.92c0,0.141-0.071,0.283,0,0.495c0.142,1.559,0.637,3.257,1.842,4.392
		c0.637,0.566,1.273,0.92,1.91,1.203c0,0.142,0,0.283,0,0.354v4.604c0,0.212,0,0.425,0.071,0.566c0,0.07-0.071,0.141-0.071,0.214
		v9.206c0,2.125,3.26,2.125,3.26,0v-8.002c0.142,0,0.212,0,0.354,0c0.071,0,0.213,0,0.283,0v8.002c0,2.125,3.258,2.125,3.258,0
		v-9.206c0-0.073,0-0.073,0-0.144c0-0.141,0.07-0.354,0.07-0.637v-3.398c0.354,0.99,0.425,2.196,0.495,3.187
		c0.213,2.054,3.401,2.125,3.189,0C43.583,35.41,43.438,33.57,42.59,31.87L42.59,31.87z M18.864,25.001
		c-0.354,0-0.708-0.355-0.708-0.71c0-0.424,0.354-0.778,0.708-0.778c0.426,0,0.709,0.354,0.709,0.778
		C19.573,24.646,19.29,25.001,18.864,25.001L18.864,25.001z M18.864,22.733c-0.354,0-0.708-0.354-0.708-0.778
		c0-0.355,0.354-0.709,0.708-0.709c0.426,0,0.709,0.354,0.709,0.709C19.573,22.379,19.29,22.733,18.864,22.733L18.864,22.733z
		 M18.935,20.397c-0.424,0-0.708-0.284-0.708-0.708c0-0.354,0.283-0.709,0.708-0.709c0.426,0,0.709,0.355,0.709,0.709
		C19.644,20.113,19.36,20.397,18.935,20.397L18.935,20.397z"/>
</g>
</svg>
