<?xml version="1.0" encoding="utf-8"?>
<!-- Generator: Adobe Illustrator 16.0.0, SVG Export Plug-In . SVG Version: 6.00 Build 0)  -->
<!DOCTYPE svg PUBLIC "-//W3C//DTD SVG 1.1//EN" "http://www.w3.org/Graphics/SVG/1.1/DTD/svg11.dtd" [
	<!ENTITY ns_extend "http://ns.adobe.com/Extensibility/1.0/">
	<!ENTITY ns_ai "http://ns.adobe.com/AdobeIllustrator/10.0/">
	<!ENTITY ns_graphs "http://ns.adobe.com/Graphs/1.0/">
	<!ENTITY ns_vars "http://ns.adobe.com/Variables/1.0/">
	<!ENTITY ns_imrep "http://ns.adobe.com/ImageReplacement/1.0/">
	<!ENTITY ns_sfw "http://ns.adobe.com/SaveForWeb/1.0/">
	<!ENTITY ns_custom "http://ns.adobe.com/GenericCustomNamespace/1.0/">
	<!ENTITY ns_adobe_xpath "http://ns.adobe.com/XPath/1.0/">
]>
<svg version="1.1" id="Layer_1" xmlns:x="&ns_extend;" xmlns:i="&ns_ai;" xmlns:graph="&ns_graphs;"
	 xmlns="http://www.w3.org/2000/svg" xmlns:xlink="http://www.w3.org/1999/xlink" x="0px" y="0px" width="533.934px"
	 height="666.706px" viewBox="0 0 533.934 666.706" enable-background="new 0 0 533.934 666.706" xml:space="preserve">
<metadata>
	<sfw  xmlns="&ns_sfw;">
		<slices></slices>
		<sliceSourceBounds  height="1631.926" width="3323.607" y="-1256.252" x="-998.027" bottomLeftOrigin="true"></sliceSourceBounds>
	</sfw>
</metadata>
<g>
	<g>
		<path fill="#FFFFFF" d="M102.975,662.707c-3.598-1.2-6.397-2.568-8.396-4.1c-1.999-1.534-3.467-3-4.398-4.4
			c-0.934-1.399-1.499-2.7-1.699-3.899c-0.2-1.2-0.234-2.066-0.1-2.601c0.265-1.065,0.765-1.831,1.499-2.3
			c0.731-0.466,1.431-0.7,2.099-0.7c0.8,0,1.73,0.2,2.799,0.601c1.73,0.668,3.298,1.269,4.697,1.8c1.399,0.534,2.83,1,4.298,1.399
			c1.065,0.27,1.999,0.535,2.799,0.801c0.8,0.269,1.599,0.534,2.399,0.8c0-1.2,0-2.4,0-3.601c0-1.199,0.065-2.331,0.2-3.399v-1.2
			c0.531-8.531,1.799-16.5,3.798-23.9c1.999-7.399,4.298-14.165,6.896-20.3c2.599-6.131,5.429-11.631,8.496-16.5
			c3.064-4.865,5.997-9.1,8.796-12.7c-2.799-0.266-5.632-0.766-8.496-1.5c-2.868-0.73-5.498-1.8-7.896-3.199
			c-2.398-1.4-4.466-3.166-6.197-5.301c-1.733-2.131-2.933-4.8-3.598-8c-0.269-1.331-0.4-2.6-0.4-3.8v-0.2
			c0-2.531,0.7-4.565,2.099-6.1c1.399-1.531,3.03-2.766,4.897-3.7c1.199-0.531,2.064-0.399,2.599,0.4
			c0.266,0.399,0.465,0.935,0.6,1.6c0.266,3.469,1.565,5.9,3.898,7.3c2.33,1.4,4.829,2.301,7.496,2.7
			c2.13,0.269,4.229,0.435,6.297,0.5c2.064,0.069,4.164,0.234,6.297,0.5c8.796,0.534,17.591,0.8,26.387,0.8
			c8.795,0,17.591-0.131,26.387-0.399c1.065,0,1.765,0.368,2.099,1.1c0.331,0.734,0.5,1.569,0.5,2.5c0,0.935-0.134,1.935-0.399,3
			c-0.269,1.069-0.534,1.869-0.8,2.4c-0.934,1.868-2.399,3.134-4.398,3.8c-4.397,0.8-8.764,1.568-13.093,2.3
			c-4.333,0.734-8.696,1.435-13.094,2.101c-3.598,0.399-7.231,0.734-10.895,1c-3.667,0.269-7.431,0.469-11.294,0.6h-2.799
			c0.8,0.4,2.499,0.969,5.098,1.7c2.599,0.734,6.497,0.899,11.694,0.5c-3.467,4.399-7.231,9.534-11.294,15.399
			c-4.067,5.869-7.896,12.335-11.495,19.4c-3.598,7.068-6.696,14.635-9.295,22.7c-2.599,8.068-4.298,16.435-5.097,25.1
			c2.664,0.666,5.329,1.2,7.996,1.601c2.664,0.399,5.329,0.73,7.996,1h1.199c0.665,0,1.265,0.131,1.799,0.399
			c0.399,0.266,0.631,0.7,0.699,1.3c0.066,0.601-0.168,1.432-0.699,2.5c-0.269,0.531-0.569,0.966-0.9,1.301
			c-0.334,0.331-0.7,0.699-1.099,1.1c-0.269,0.266-0.7,0.631-1.3,1.1c-0.6,0.466-1.568,0.966-2.898,1.5
			c-1.199,0.4-2.667,0.731-4.398,1c-1.733,0.266-3.798,0.266-6.197,0c-0.534,0-1-0.034-1.399-0.1c-0.4-0.068-0.868-0.1-1.399-0.1
			c-4.132-0.27-7.796-0.734-10.994-1.4C108.172,664.238,105.374,663.507,102.975,662.707z"/>
		<path fill="#FFFFFF" d="M180.285,646.107c-0.269-2.266-0.2-4.632,0.2-7.101c0.4-2.465,1.065-5,1.999-7.6
			c0.931-2.6,1.999-5.166,3.198-7.7c1.2-2.531,2.399-5,3.598-7.399c0-0.132,0.066-0.2,0.2-0.2l0.4-0.8
			c1.065-1.866,1.599-3.366,1.599-4.5c0-1.132-0.134-2.031-0.4-2.7c-0.4-0.666-1-1.065-1.799-1.2c-3.067-0.531-6.097,0.4-9.095,2.8
			c-2.999,2.4-5.797,5.335-8.396,8.8c-2.599,3.469-4.897,6.969-6.896,10.5c-1.999,3.535-3.467,6.169-4.398,7.9
			c-2.533,5.734-4.332,11-5.397,15.8c-0.134,0.269-0.399,0.7-0.799,1.3c-0.4,0.601-1.134,0.966-2.199,1.101
			c-2.398,0-4.198-0.3-5.397-0.9c-1.2-0.6-2.065-1.165-2.599-1.7c-0.265-0.266-0.399-0.531-0.399-0.8
			c-0.666-1.865-0.931-4.131-0.8-6.8c0.134-2.666,0.734-5.932,1.799-9.8c1.333-5.331,3.033-10.366,5.097-15.101
			c2.065-4.73,4.029-8.831,5.897-12.3c2.264-4.131,4.598-7.931,6.996-11.399c0.266-0.4,0.831-0.966,1.699-1.7
			c0.865-0.731,2.099-0.966,3.698-0.7c1.73,0.269,3.664,0.834,5.797,1.7c2.13,0.868,3.864,2.1,5.197,3.7
			c-2.399,1.6-4.332,3.368-5.797,5.3c-1.468,1.935-2.667,3.7-3.599,5.3c-1.068,1.869-1.868,3.734-2.398,5.6
			c0.799-1.865,1.83-3.6,3.098-5.199c1.265-1.601,2.564-3,3.898-4.2c1.331-1.2,2.53-2.231,3.598-3.101
			c1.065-0.865,1.93-1.5,2.599-1.899c2.799-1.866,5.863-3.3,9.195-4.3c3.33-1,6.862-1.231,10.595-0.7
			c2.665,0.534,4.729,1.6,6.197,3.2c1.199,1.469,1.899,3.5,2.099,6.1c0.2,2.6-0.834,6.234-3.098,10.9
			c-0.534,1.068-1.068,2.168-1.599,3.3c-0.534,1.134-1.068,2.234-1.6,3.3c-1.468,3.334-2.667,6.369-3.598,9.1
			c-0.934,2.734-0.868,4.5,0.2,5.301c1.065,0.8,2.33,0.734,3.798-0.2c1.465-0.932,2.999-2.231,4.598-3.9
			c1.6-1.665,3.13-3.531,4.598-5.6c1.465-2.065,2.665-3.831,3.599-5.3c0.531-0.666,1.065-1.266,1.599-1.801
			c0.531-0.399,1.1-0.766,1.699-1.1c0.6-0.331,1.299-0.365,2.099-0.1c1.73,0.399,2.564,1.234,2.499,2.5
			c-0.069,1.269-0.3,2.234-0.7,2.899c-1.333,2.4-3.099,5.435-5.297,9.101c-2.199,3.668-4.767,7.134-7.696,10.399
			c-2.933,3.269-6.131,5.969-9.595,8.101c-3.467,2.131-7.131,2.865-10.995,2.199c-1.599-0.399-2.999-0.931-4.198-1.6
			c-1.068-0.666-2.034-1.531-2.899-2.6C181.116,649.241,180.55,647.842,180.285,646.107z"/>
		<path fill="#FFFFFF" d="M291.58,619.107c1.6,0.534,2.43,1.399,2.498,2.6c0.066,1.2-0.1,2.135-0.5,2.8
			c-1.199,2.4-3.133,5.435-5.797,9.101c-2.668,3.669-5.73,7.134-9.195,10.399c-3.467,3.27-7.166,5.969-11.095,8.101
			c-3.932,2.131-7.83,2.931-11.694,2.399c-1.468-0.399-2.799-0.865-3.998-1.399c-1.068-0.531-2.099-1.266-3.099-2.2
			c-1-0.932-1.634-2.2-1.899-3.8c1.465-1.331,2.664-2.766,3.598-4.3c0.931-1.531,1.73-2.966,2.399-4.301
			c0.665-1.465,1.199-2.931,1.599-4.399c-0.668,1.068-1.399,2.234-2.199,3.5c-0.799,1.269-1.633,2.435-2.499,3.5
			c-0.868,1.068-1.634,2-2.299,2.8c-0.668,0.8-1.068,1.334-1.199,1.6c-1.334,1.469-2.999,3.069-4.998,4.801
			c-1.999,1.734-4.198,3.234-6.597,4.5c-2.398,1.266-5.032,2.165-7.896,2.699c-2.867,0.531-5.832,0.4-8.896-0.399
			c-4.398-1.2-7.097-3.9-8.096-8.101c-1-4.199-0.831-8.931,0.5-14.199c1.333-5.266,3.567-10.566,6.697-15.9
			c3.129-5.331,6.628-9.731,10.495-13.2c3.864-3.466,7.596-6.031,11.194-7.7c3.599-1.665,6.897-2.699,9.896-3.1s5.628-0.3,7.896,0.3
			c2.265,0.601,3.929,1.3,4.998,2.101c0.665,0.399,1.199,0.934,1.599,1.6c2.265-4,4.563-7.9,6.897-11.7
			c2.33-3.8,4.563-7.365,6.697-10.7c2.129-3.331,4.098-6.266,5.896-8.8c1.799-2.531,3.363-4.6,4.697-6.2
			c0.531-0.531,1.131-1.065,1.799-1.6c1.33-0.8,3.199-1.331,5.598-1.6c1.865-0.132,3.998-0.166,6.396-0.101
			c2.398,0.069,4.598,0.435,6.598,1.101c0.531,0.269,0.998,0.6,1.398,1c0.266,0.399,0.4,0.868,0.4,1.399c0,0.534-0.334,1.335-1,2.4
			c-1.867,2.399-4.498,6-7.896,10.8s-7.131,10.234-11.193,16.3c-4.066,6.069-8.197,12.469-12.395,19.2
			c-4.197,6.734-7.896,13.3-11.094,19.7c-0.534,1.068-1.034,2.368-1.5,3.899c-0.468,1.535-0.168,2.569,0.899,3.101v0.2h0.2
			c1.199,0.399,2.764,0.134,4.697-0.801c1.93-0.931,3.965-2.199,6.098-3.8c2.129-1.6,4.129-3.331,5.996-5.2
			c1.865-1.865,3.264-3.531,4.199-5c0.398-0.8,0.865-1.465,1.398-2C288.845,619.441,290.111,618.976,291.58,619.107z
			 M254.197,614.707c0.4-0.8,0.8-1.731,1.2-2.8c0.4-1.065,0.665-2.031,0.799-2.9c0.131-0.865,0.066-1.631-0.2-2.3
			c-0.269-0.665-0.868-1.065-1.799-1.2c-1.999-0.131-4.498,1.101-7.496,3.7c-2.999,2.601-5.866,5.769-8.596,9.5
			c-2.733,3.734-5.132,7.601-7.196,11.601c-2.068,4-3.233,7.334-3.499,10c-0.269,2.668,0.6,3.634,2.599,2.899
			c1.999-0.731,4.398-2.399,7.197-5c2.798-2.6,5.663-5.8,8.596-9.6c2.93-3.8,5.263-7.565,6.997-11.3c0-0.132,0.065-0.266,0.2-0.4
			l0.8-1.2c0.131-0.266,0.2-0.466,0.2-0.6C253.998,614.976,254.063,614.842,254.197,614.707z"/>
		<path fill="#FFFFFF" d="M355.895,609.107c0.266-0.132,0.531,0.034,0.8,0.5c0.266,0.469,0.53,1.034,0.8,1.7
			c0.265,0.668,0.465,1.534,0.6,2.6c-0.8,2.935-2.168,5.2-4.099,6.8c-1.934,1.601-4.066,2.8-6.396,3.601
			c-2.333,0.8-4.667,1.269-6.997,1.399c-2.333,0.135-4.231,0.2-5.696,0.2l0.6,2.8v0.2c0,0.4,0.065,0.734,0.199,1
			c0,1.068-0.034,2.135-0.1,3.2c-0.068,1.068-0.169,2-0.3,2.8v0.6c0,0.135-0.135,0.601-0.399,1.4c-0.135,0.135-0.2,0.269-0.2,0.4
			v0.199v0.2l-0.4,0.8c-0.534,1.469-1.398,3.2-2.599,5.2c-1.199,2-2.933,3.935-5.197,5.8c-0.668,0.669-1.468,1.27-2.398,1.801
			c-1.6,1.068-3.133,1.865-4.598,2.399c-1.469,0.531-2.733,0.932-3.799,1.2c-1.867,0.531-3.866,0.865-5.997,1
			c-2.133,0.131-4.532,0.065-7.196-0.2h-0.199c-4.268-0.534-7.731-1.469-10.396-2.8c-2.667-1.331-4.731-2.865-6.197-4.6
			c-1.729-1.866-2.898-3.866-3.498-6c-0.6-2.132-0.831-4.332-0.699-6.601c0-1.331,0.134-2.131,0.399-2.399
			c0.4-3.2,1.234-6.2,2.499-9c1.265-2.801,2.299-4.932,3.099-6.4c0.266-0.531,0.531-0.932,0.8-1.2
			c0.131-0.131,0.199-0.266,0.199-0.399c2.93-4.531,6.063-8.4,9.396-11.601c5.598-5.065,10.86-8.266,15.792-9.6
			c4.929-1.331,9.062-1.666,12.395-1c0.266,0,1.03,0.134,2.299,0.399c1.265,0.27,2.63,0.935,4.098,2c1.73,1.069,3.229,2.7,4.498,4.9
			c1.265,2.2,1.431,5.234,0.5,9.1c-0.269,0.801-0.869,1.5-1.8,2.101c-0.934,0.6-1.999,1-3.198,1.2
			c-1.199,0.199-2.468,0.168-3.798-0.101c-1.334-0.266-2.399-0.865-3.198-1.8c0.665-1.731,1.064-3.365,1.199-4.9
			c0.131-1.531-0.534-2.365-1.999-2.5c-0.534,0-1.399,0.2-2.599,0.601c-1.469,0.669-2.733,1.469-3.799,2.399
			c-1.067,0.935-1.268,1.869-0.6,2.801c0.132,0.399,0.631,1.068,1.5,2c0.865,0.934,2.299,1.734,4.298,2.399
			c0.131,0,0.331,0.135,0.6,0.4c0-0.266,0.065-0.4,0.199-0.4c0.266,0.135,0.601,0.2,1,0.2h0.2c0.931,0,2.229,0.1,3.897,0.3
			c1.665,0.2,3.499,0.3,5.498,0.3c1.998,0,4.063-0.131,6.196-0.399c2.13-0.266,4.198-0.866,6.197-1.8L355.895,609.107z
			 M325.709,630.507c-0.269-0.665-0.6-1.465-0.999-2.399c-0.4-0.932-1-1.731-1.799-2.4c-3.468-0.399-6.132-1.2-7.996-2.399
			c-1.868-1.2-3.533-2.801-4.998-4.801c-0.269,0-0.734-0.465-1.399-1.399c-2.133,2.669-4.066,5.435-5.797,8.3
			c-1.733,2.869-2.533,5.568-2.398,8.1c0,0.27,0.23,1.4,0.699,3.4c0.466,2,1.899,3.734,4.298,5.2c1.465,0.935,3.264,1.6,5.397,2
			c2.53,0.399,4.663,0.334,6.396-0.2c1.73-0.531,3.13-1.266,4.198-2.2c0.665-0.531,1.299-1.1,1.899-1.7
			c0.6-0.6,1.03-1.165,1.299-1.699c0.4-0.531,0.665-1.132,0.8-1.801c0.266-0.665,0.466-1.331,0.6-2c0.131-0.665,0.2-1.331,0.2-2
			C326.11,631.976,325.975,631.308,325.709,630.507z"/>
		<path fill="#FFFFFF" d="M402.919,624.707c-1.199,2.4-3.167,5.4-5.896,9c-2.733,3.601-5.866,7.034-9.396,10.3
			c-3.532,3.27-7.331,5.969-11.395,8.101c-4.066,2.131-8.03,2.931-11.894,2.399c-1.469-0.269-2.868-0.73-4.198-1.399
			c-1.068-0.666-2.1-1.466-3.099-2.4c-1-0.931-1.634-2.266-1.899-4c-0.399-2.665-0.068-5.5,1-8.5c1.065-3,2.43-6.031,4.098-9.1
			c1.665-3.065,3.498-6.101,5.497-9.101s3.664-5.831,4.998-8.5c1.465-0.131,2.764-0.5,3.898-1.1c1.13-0.6,2.099-1.231,2.898-1.9
			c0.931-0.665,1.799-1.465,2.599-2.399c-2.268,1.334-4.133,2.2-5.598,2.6c-0.934,0.4-1.799,0.601-2.599,0.601
			c-0.534,0.134-1.268,0.234-2.199,0.3c-0.934,0.068-1.898,0.1-2.898,0.1c-0.999,0-1.934-0.031-2.799-0.1
			c-0.868-0.065-1.499-0.101-1.898-0.101c-4.133,7.069-7.796,12.969-10.995,17.7c-3.198,4.734-5.997,8.435-8.396,11.101
			c-1.065,1.199-2.398,2.034-3.998,2.5c-1.6,0.469-3.064,0.034-4.397-1.301c-0.666-0.665-0.966-1.365-0.9-2.1
			c0.069-0.731,0.234-1.432,0.5-2.1c0.4-0.666,0.868-1.332,1.399-2c2.668-2.666,5.598-6.266,8.796-10.801
			c3.198-4.531,6.462-9.8,9.795-15.8c-1.999-1.331-3.333-2.865-3.998-4.6c-0.668-1.731-1.068-3.331-1.199-4.8
			c-0.135-1.731,0.065-3.531,0.6-5.4c0.931-3.065,2.265-5.365,3.998-6.9c1.73-1.531,3.563-2.465,5.497-2.8
			c1.931-0.331,3.729-0.231,5.397,0.3c1.665,0.535,2.964,1.4,3.898,2.601c1.33,1.868,1.765,4.134,1.299,6.8
			c-0.468,2.669-1.033,4.869-1.699,6.6c1.2-0.266,2.63-0.6,4.298-1c1.665-0.399,3.33-0.8,4.998-1.199
			c1.665-0.4,3.229-0.766,4.697-1.101c1.465-0.331,2.599-0.5,3.398-0.5c2.399,0,4.063,0.669,4.998,2
			c0.931,1.335,1.131,3.135,0.6,5.4c-0.269,1.2-0.669,2.399-1.199,3.6c-1.068,2-2.733,4.635-4.998,7.9
			c-2.268,3.269-4.432,6.5-6.497,9.7c-2.067,3.199-3.667,6.068-4.797,8.6c-1.134,2.534-1.1,4.2,0.1,5
			c1.065,0.8,2.664,0.769,4.798-0.1c2.13-0.866,4.329-2.101,6.597-3.7c2.265-1.601,4.397-3.366,6.396-5.3
			c1.999-1.932,3.464-3.632,4.398-5.101c0.399-0.8,0.865-1.466,1.398-2c1.065-1.065,2.399-1.531,3.998-1.399
			c1.6,0.269,2.399,1.034,2.399,2.3C403.32,622.876,403.185,623.907,402.919,624.707z M358.542,596.507
			c0.266,0.27,0.865,0.669,1.8,1.2c0.931,0.534,2.264,0.869,3.998,1c-0.669-0.266-1.334-0.665-1.999-1.2
			c-0.669-0.399-1.3-0.865-1.899-1.399c-0.6-0.531-1.034-1.266-1.3-2.2c0.4-1.331,0.4-2.331,0-3c-0.269-0.531-0.6-0.7-0.999-0.5
			c-0.4,0.2-0.7,0.6-0.899,1.2c-0.2,0.6-0.234,1.368-0.101,2.3C357.274,594.842,357.742,595.707,358.542,596.507z"/>
		<path fill="#FFFFFF" d="M460.192,619.308c1.73,0.269,2.599,1.034,2.599,2.3c0,1.269-0.199,2.3-0.6,3.1
			c-0.8,1.601-1.768,3.534-2.898,5.8c-1.134,2.27-2.434,4.535-3.898,6.801c-0.399,0.534-0.868,1.199-1.399,2
			c-1.333,1.868-3.167,3.934-5.497,6.199c-2.333,2.27-5.297,4.335-8.896,6.2c-1.334,0.669-2.633,1.234-3.898,1.7
			c-1.268,0.469-2.498,0.9-3.697,1.3c-2.668,0.666-5.132,1.132-7.396,1.4c-2.268,0.266-4.267,0.399-5.997,0.399
			c-1.999,0-3.867-0.068-5.598-0.199c-0.269,0-0.534-0.035-0.8-0.101c-0.269-0.068-0.534-0.1-0.799-0.1
			c-5.198-0.669-9.296-1.869-12.294-3.601c-2.999-1.73-5.167-3.8-6.497-6.199c-1.331-2.4-1.999-4.932-1.999-7.601
			c0-2.665,0.368-5.3,1.1-7.899c0.733-2.601,1.599-4.932,2.599-7c0.999-2.066,1.83-3.7,2.498-4.9c0.266-0.531,0.531-0.932,0.8-1.2
			c0.132-0.131,0.2-0.266,0.2-0.399c2.93-4.531,6.063-8.4,9.396-11.601c5.463-5.065,10.66-8.266,15.592-9.6
			c4.929-1.331,9.127-1.666,12.594-1c0.132,0,0.831,0.134,2.1,0.399c1.265,0.27,2.63,0.935,4.098,2c1.73,1.069,3.164,2.7,4.298,4.9
			c1.131,2.2,1.365,5.234,0.7,9.1c0,0.935-0.335,2.069-1,3.4c0,0.4-0.068,0.669-0.2,0.8c-1.599,3.869-3.866,7.101-6.796,9.7
			c-2.934,2.6-6.032,4.7-9.296,6.3c-3.267,1.601-6.431,2.769-9.495,3.5c-3.067,0.734-5.466,1.234-7.196,1.5
			c0.399,1.469,1.064,2.601,1.999,3.4c1.064,1.2,2.599,2.134,4.598,2.8c2.265,0.935,4.598,1.4,6.996,1.4
			c3.729,0,7.196-0.866,10.396-2.601c3.998-1.865,7.228-4.231,9.695-7.1c2.464-2.866,4.029-4.831,4.697-5.9
			c0.8-1.065,1.53-2.131,2.199-3.2c0.665-1.065,1.265-2,1.799-2.8c0.399-0.8,0.865-1.466,1.399-2
			C457.459,619.642,458.724,619.176,460.192,619.308z M414.015,626.507c-0.269,0.669-0.5,1.335-0.7,2c-0.2,0.669-0.368,1.335-0.5,2
			c5.598-1.065,9.961-2.965,13.094-5.699c3.13-2.731,5.429-5.366,6.896-7.9l0.6-1.2c0.266-0.531,0.4-0.865,0.4-1
			c0.8-1.6,1.465-3.399,1.999-5.399c0.531-2,0.131-3.2-1.199-3.601c-0.8-0.399-1.733-0.531-2.799-0.399
			c-0.934,0.134-1.999,0.434-3.198,0.899c-1.2,0.469-2.533,1.234-3.998,2.3l1.799-0.6c0.531-0.266,1.131-0.432,1.799-0.5
			c0.666-0.065,1.331-0.166,1.999-0.3c-0.269,0.269-0.634,0.568-1.1,0.899c-0.468,0.335-0.899,0.7-1.299,1.101
			c-0.8,0.669-1.799,1.568-2.999,2.7c-1.199,1.134-2.467,2.469-3.798,4c-1.334,1.534-2.633,3.199-3.898,5
			C415.845,622.607,414.814,624.507,414.015,626.507z"/>
	</g>
	<rect x="221.924" y="31.493" fill-rule="evenodd" clip-rule="evenodd" fill="#BAAB95" width="33.761" height="17.858"/>
	<path fill-rule="evenodd" clip-rule="evenodd" fill="#BAAB95" d="M238.819,18.482c1.049,0,2.098,0.227,3.005,0.624
		c2.466,1.049,3.969,3.317,3.969,5.981V45.27h-13.975V25.087c0-2.665,1.502-4.933,3.968-5.981
		C236.721,18.709,237.742,18.482,238.819,18.482L238.819,18.482z"/>
	<path fill-rule="evenodd" clip-rule="evenodd" fill="#FFFFFF" d="M238.819,25.569c0.624,0,1.219,0.142,1.757,0.368
		c1.446,0.595,2.325,1.928,2.325,3.487v8.249h-8.164v-8.249c0-1.559,0.879-2.892,2.296-3.487
		C237.572,25.71,238.167,25.569,238.819,25.569L238.819,25.569z"/>
	<rect x="220.337" y="41.357" fill-rule="evenodd" clip-rule="evenodd" fill="#BAAB95" width="36.963" height="7.994"/>
	<rect x="282.161" y="31.493" fill-rule="evenodd" clip-rule="evenodd" fill="#BAAB95" width="33.761" height="17.858"/>
	<path fill-rule="evenodd" clip-rule="evenodd" fill="#BAAB95" d="M299.027,18.482c1.077,0,2.098,0.227,3.033,0.624
		c2.466,1.049,3.968,3.317,3.968,5.981V45.27h-13.975V25.087c0-2.665,1.503-4.933,3.969-5.981
		C296.929,18.709,297.95,18.482,299.027,18.482L299.027,18.482z"/>
	<path fill-rule="evenodd" clip-rule="evenodd" fill="#FFFFFF" d="M299.027,25.569c0.623,0,1.247,0.142,1.785,0.368
		c1.418,0.595,2.297,1.928,2.297,3.487v8.249h-8.164v-8.249c0-1.559,0.879-2.892,2.324-3.487
		C297.808,25.71,298.403,25.569,299.027,25.569L299.027,25.569z"/>
	<rect x="280.544" y="41.357" fill-rule="evenodd" clip-rule="evenodd" fill="#BAAB95" width="36.964" height="7.994"/>
	<rect x="161.319" y="304.044" fill-rule="evenodd" clip-rule="evenodd" fill="#7D4F36" width="214.583" height="183.742"/>
	<path fill-rule="evenodd" clip-rule="evenodd" fill="#946146" d="M348.434,313.965c6.634,0,12.104,4.961,12.898,11.396
		c-0.085,0-0.171-0.028-0.256-0.028h-25.284c-0.058,0-0.143,0.028-0.228,0.028C336.331,318.926,341.801,313.965,348.434,313.965
		L348.434,313.965z"/>
	<path fill-rule="evenodd" clip-rule="evenodd" fill="#946146" d="M334.091,328.536h28.687c0.879,0,1.616-0.708,1.616-1.587l0,0
		c0-0.879-0.737-1.616-1.616-1.616h-28.687c-0.879,0-1.588,0.737-1.588,1.616l0,0C332.503,327.827,333.212,328.536,334.091,328.536
		L334.091,328.536z"/>
	<path fill-rule="evenodd" clip-rule="evenodd" fill="#946146" d="M335.792,328.536h25.284v28.233c0,3.033-2.466,5.499-5.471,5.556
		c-0.396,2.892-2.522,5.216-5.272,5.981c0,0.085,0.028,0.142,0.028,0.227c0,1.077-0.879,1.928-1.928,1.928s-1.898-0.851-1.898-1.928
		c0-0.085,0-0.142,0-0.227c-2.75-0.766-4.848-3.09-5.244-5.981c-3.033-0.057-5.499-2.522-5.499-5.556V328.536z"/>
	<path fill-rule="evenodd" clip-rule="evenodd" fill="#5E2426" d="M348.434,331.54c3.487,0,6.321,2.835,6.321,6.321v15.902h-12.643
		v-15.902C342.113,334.375,344.948,331.54,348.434,331.54L348.434,331.54z"/>
	<path fill-rule="evenodd" clip-rule="evenodd" fill="#5E2426" d="M338.598,331.54c0.964,0,1.758,2.835,1.758,6.321v15.902h-3.544
		v-15.902C336.812,334.375,337.606,331.54,338.598,331.54L338.598,331.54z"/>
	<path fill-rule="evenodd" clip-rule="evenodd" fill="#5E2426" d="M358.299,331.54c0.964,0,1.757,2.835,1.757,6.321v15.902h-3.515
		v-15.902C356.542,334.375,357.307,331.54,358.299,331.54L358.299,331.54z"/>
	<path fill-rule="evenodd" clip-rule="evenodd" fill="#946146" d="M330.548,396.539h35.772v-1.305c0-2.919-2.381-5.301-5.301-5.301
		h-25.143c-2.92,0-5.329,2.382-5.329,5.301V396.539z"/>
	<path fill-rule="evenodd" clip-rule="evenodd" fill="#946146" d="M328.706,398.637h39.486c0.567,0,1.021-0.482,1.021-1.049l0,0
		c0-0.567-0.453-1.049-1.021-1.049h-39.486c-0.596,0-1.049,0.481-1.049,1.049l0,0C327.657,398.154,328.11,398.637,328.706,398.637
		L328.706,398.637z"/>
	<rect x="331.143" y="398.637" fill-rule="evenodd" clip-rule="evenodd" fill="#946146" width="34.583" height="28.091"/>
	<path fill-rule="evenodd" clip-rule="evenodd" fill="#5E2426" d="M348.434,400.706c3.487,0,6.321,2.806,6.321,6.321v15.902h-12.643
		v-15.902C342.113,403.512,344.948,400.706,348.434,400.706L348.434,400.706z"/>
	<path fill-rule="evenodd" clip-rule="evenodd" fill="#5E2426" d="M336.784,402.293c1.758,0,3.175,1.417,3.175,3.175v17.462h-6.378
		v-17.462C333.581,403.71,335.027,402.293,336.784,402.293L336.784,402.293z"/>
	<path fill-rule="evenodd" clip-rule="evenodd" fill="#5E2426" d="M360.113,402.293c1.758,0,3.175,1.417,3.175,3.175v17.462h-6.378
		v-17.462C356.91,403.71,358.356,402.293,360.113,402.293L360.113,402.293z"/>
	<rect x="167.783" y="116.816" fill-rule="evenodd" clip-rule="evenodd" fill="#BAAB95" width="201.656" height="193.578"/>
	<rect x="323.348" y="240.35" fill-rule="evenodd" clip-rule="evenodd" fill="#A13B30" width="34.696" height="51.137"/>
	<rect x="179.801" y="240.35" fill-rule="evenodd" clip-rule="evenodd" fill="#A13B30" width="34.696" height="51.137"/>
	<rect x="222.689" y="240.35" fill-rule="evenodd" clip-rule="evenodd" fill="#A13B30" width="92.467" height="51.137"/>
	<rect x="369.439" y="116.816" fill-rule="evenodd" clip-rule="evenodd" fill="#C7BAA7" width="6.463" height="193.578"/>
	<rect x="311.924" y="182.013" fill-rule="evenodd" clip-rule="evenodd" fill="#732F31" width="3.231" height="52.668"/>
	<rect x="222.689" y="182.013" fill-rule="evenodd" clip-rule="evenodd" fill="#732F31" width="3.232" height="52.668"/>
	<rect x="288.737" y="111.969" fill-rule="evenodd" clip-rule="evenodd" fill="#A13B30" width="26.419" height="57.742"/>
	<rect x="324.028" y="173.764" fill-rule="evenodd" clip-rule="evenodd" fill="#662729" width="42.208" height="12.161"/>
	<rect x="296.418" y="169.852" fill-rule="evenodd" clip-rule="evenodd" fill="#732F31" width="27.609" height="12.161"/>
	<rect x="324.028" y="234.681" fill-rule="evenodd" clip-rule="evenodd" fill="#662729" width="42.208" height="12.189"/>
	<rect x="296.418" y="230.797" fill-rule="evenodd" clip-rule="evenodd" fill="#732F31" width="27.609" height="12.161"/>
	<rect x="315.156" y="111.969" fill-rule="evenodd" clip-rule="evenodd" fill="#662729" width="61.37" height="4.847"/>
	<rect x="366.236" y="116.816" fill-rule="evenodd" clip-rule="evenodd" fill="#662729" width="3.203" height="188.702"/>
	<polygon fill-rule="evenodd" clip-rule="evenodd" fill="#73462E" points="86.825,304.044 62.674,310.394 62.674,469.021 
		86.825,463.975 	"/>
	<polygon fill-rule="evenodd" clip-rule="evenodd" fill="#855439" points="86.825,304.044 137.168,304.044 137.168,487.417 
		86.825,468.652 	"/>
	<polygon fill-rule="evenodd" clip-rule="evenodd" fill="#7D4F36" points="137.168,304.044 161.319,310.394 161.319,487.786 
		137.168,479.905 	"/>
	<rect x="88.583" y="74.495" fill-rule="evenodd" clip-rule="evenodd" fill="#C7BAA7" width="46.829" height="25.115"/>
	<polygon fill-rule="evenodd" clip-rule="evenodd" fill="#BAAB95" points="135.411,74.495 157.918,85.975 157.918,111.118 
		135.411,99.609 	"/>
	<polygon fill-rule="evenodd" clip-rule="evenodd" fill="#AB9B83" points="88.583,74.495 66.104,85.975 66.104,111.118 
		88.583,99.609 	"/>
	<rect x="6.718" y="47.65" fill-rule="evenodd" clip-rule="evenodd" fill="#C7BAA7" width="55.956" height="262.744"/>
	<polygon fill-rule="evenodd" clip-rule="evenodd" fill="#855439" points="6.718,447.279 62.674,469.021 62.674,310.394 
		6.718,310.394 	"/>
	<polygon fill-rule="evenodd" clip-rule="evenodd" fill="#AB9B83" points="86.825,99.609 62.674,111.969 62.674,310.394 
		86.825,304.044 	"/>
	<rect x="86.825" y="99.609" fill-rule="evenodd" clip-rule="evenodd" fill="#C7BAA7" width="50.343" height="204.435"/>
	<polygon fill-rule="evenodd" clip-rule="evenodd" fill="#732F31" points="0.51,111.969 62.674,111.969 62.674,116.816 
		6.718,116.816 	"/>
	<polygon fill-rule="evenodd" clip-rule="evenodd" fill="#5C2224" points="62.674,116.816 86.825,104.485 86.825,99.609 
		62.674,111.969 	"/>
	<rect x="86.825" y="99.609" fill-rule="evenodd" clip-rule="evenodd" fill="#732F31" width="50.343" height="4.876"/>
	<rect x="249.109" y="105.506" fill-rule="evenodd" clip-rule="evenodd" fill="#B5483C" width="39.628" height="61.738"/>
	<rect x="222.689" y="111.969" fill-rule="evenodd" clip-rule="evenodd" fill="#A13B30" width="26.42" height="57.742"/>
	<rect x="161.319" y="116.816" fill-rule="evenodd" clip-rule="evenodd" fill="#BAAB95" width="6.463" height="193.578"/>
	<path fill-rule="evenodd" clip-rule="evenodd" fill="#AB9B83" d="M48.557,135.014c-4.167-2.268-8.929-3.543-14.003-3.543
		c-4.564,0-9.978,1.219-13.975,3.543c0-0.057-0.085-5.159,3.571-6.747c3.657-1.559,9.241-1.559,10.403-6.406
		c1.19,4.848,6.747,4.848,10.432,6.406C48.643,129.855,48.557,134.986,48.557,135.014L48.557,135.014z"/>
	<path fill-rule="evenodd" clip-rule="evenodd" fill="#AB9B83" d="M47.197,135.78v28.771H22.365v-28.97
		c3.685-1.786,7.824-2.806,12.189-2.806C39.118,132.775,43.398,133.852,47.197,135.78L47.197,135.78z"/>
	<path fill-rule="evenodd" clip-rule="evenodd" fill="#732F31" d="M27.808,158.202h13.918v-15.647h-0.284
		c-1.814-1.474-4.139-2.381-6.662-2.381c-2.551,0-4.875,0.907-6.689,2.381h-0.284V158.202z"/>
	<path fill-rule="evenodd" clip-rule="evenodd" fill="#AB9B83" d="M21.572,164.551H47.99c0.681,0,1.248,0.567,1.248,1.248l0,0
		c0,0.68-0.567,1.247-1.248,1.247H21.572c-0.709,0-1.276-0.567-1.276-1.247l0,0C20.296,165.118,20.863,164.551,21.572,164.551
		L21.572,164.551z"/>
	<path fill-rule="evenodd" clip-rule="evenodd" fill="#AB9B83" d="M21.118,169.172h27.297c0.454,0,0.822,0.368,0.822,0.822l0,0
		c0,0.454-0.369,0.822-0.822,0.822H21.118c-0.454,0-0.822-0.369-0.822-0.822l0,0C20.296,169.54,20.665,169.172,21.118,169.172
		L21.118,169.172z"/>
	<polygon fill-rule="evenodd" clip-rule="evenodd" fill="#BAAB95" points="137.168,99.609 161.319,111.969 161.319,310.394 
		137.168,304.044 	"/>
	<polygon fill-rule="evenodd" clip-rule="evenodd" fill="#662729" points="161.319,116.816 137.168,104.485 137.168,99.609 
		161.319,111.969 	"/>
	<rect x="171.609" y="173.764" fill-rule="evenodd" clip-rule="evenodd" fill="#662729" width="42.208" height="12.161"/>
	<rect x="213.818" y="169.852" fill-rule="evenodd" clip-rule="evenodd" fill="#732F31" width="27.609" height="12.161"/>
	<path fill-rule="evenodd" clip-rule="evenodd" fill="#AB9B83" d="M48.557,197.518c-4.167-2.268-8.929-3.543-14.003-3.543
		c-4.564,0-9.978,1.19-13.975,3.543c0-0.057-0.085-5.159,3.571-6.746c3.657-1.587,9.241-1.587,10.403-6.407
		c1.19,4.819,6.747,4.819,10.432,6.407C48.643,192.359,48.557,197.461,48.557,197.518L48.557,197.518z"/>
	<path fill-rule="evenodd" clip-rule="evenodd" fill="#AB9B83" d="M47.197,198.255v28.771H22.365v-28.97
		c3.685-1.786,7.824-2.778,12.189-2.778C39.118,195.279,43.398,196.356,47.197,198.255L47.197,198.255z"/>
	<path fill-rule="evenodd" clip-rule="evenodd" fill="#732F31" d="M27.808,220.706h13.918v-15.647h-0.284
		c-1.814-1.502-4.139-2.41-6.662-2.41c-2.551,0-4.875,0.907-6.689,2.41h-0.284V220.706z"/>
	<path fill-rule="evenodd" clip-rule="evenodd" fill="#AB9B83" d="M21.572,227.027H47.99c0.681,0,1.248,0.567,1.248,1.276l0,0
		c0,0.68-0.567,1.247-1.248,1.247H21.572c-0.709,0-1.276-0.567-1.276-1.247l0,0C20.296,227.594,20.863,227.027,21.572,227.027
		L21.572,227.027z"/>
	<path fill-rule="evenodd" clip-rule="evenodd" fill="#AB9B83" d="M21.118,231.676h27.297c0.454,0,0.822,0.369,0.822,0.822l0,0
		c0,0.425-0.369,0.794-0.822,0.794H21.118c-0.454,0-0.822-0.369-0.822-0.794l0,0C20.296,232.044,20.665,231.676,21.118,231.676
		L21.118,231.676z"/>
	<rect x="0.624" y="234.681" fill-rule="evenodd" clip-rule="evenodd" fill="#732F31" width="51.761" height="12.189"/>
	<polygon fill-rule="evenodd" clip-rule="evenodd" fill="#5C2224" points="82.205,224.447 52.384,234.681 52.384,246.87 
		82.205,236.608 	"/>
	<rect x="82.205" y="224.447" fill-rule="evenodd" clip-rule="evenodd" fill="#732F31" width="59.584" height="12.161"/>
	<polygon fill-rule="evenodd" clip-rule="evenodd" fill="#662729" points="141.789,224.447 171.609,234.681 171.609,246.87 
		141.789,236.608 	"/>
	<rect x="171.609" y="234.681" fill-rule="evenodd" clip-rule="evenodd" fill="#662729" width="42.208" height="12.189"/>
	<rect x="213.818" y="230.797" fill-rule="evenodd" clip-rule="evenodd" fill="#732F31" width="27.609" height="12.161"/>
	<rect x="241.427" y="228.189" fill-rule="evenodd" clip-rule="evenodd" fill="#732F31" width="54.991" height="12.161"/>
	<path fill-rule="evenodd" clip-rule="evenodd" fill="#AB9B83" d="M45.014,277.569c-3.09-1.673-6.633-2.608-10.403-2.608
		c-3.401,0-7.427,0.878-10.403,2.608c0-0.029-0.057-3.827,2.665-4.989c2.721-1.19,6.888-1.19,7.738-4.762
		c0.879,3.572,5.018,3.572,7.739,4.762C45.071,273.742,45.014,277.54,45.014,277.569L45.014,277.569z"/>
	<path fill-rule="evenodd" clip-rule="evenodd" fill="#AB9B83" d="M43.994,278.136v17.688H25.54v-17.83
		c2.75-1.332,5.811-2.069,9.071-2.069C37.984,275.925,41.188,276.718,43.994,278.136L43.994,278.136z"/>
	<path fill-rule="evenodd" clip-rule="evenodd" fill="#732F31" d="M29.594,290.013H39.94v-8.73h-0.227
		c-1.333-1.105-3.062-1.786-4.933-1.786c-1.899,0-3.628,0.681-4.96,1.786h-0.227V290.013z"/>
	<path fill-rule="evenodd" clip-rule="evenodd" fill="#AB9B83" d="M24.945,295.824h19.644c0.51,0,0.936,0.425,0.936,0.936l0,0
		c0,0.51-0.425,0.936-0.936,0.936H24.945c-0.51,0-0.936-0.425-0.936-0.936l0,0C24.009,296.249,24.435,295.824,24.945,295.824
		L24.945,295.824z"/>
	<rect x="161.319" y="111.969" fill-rule="evenodd" clip-rule="evenodd" fill="#662729" width="61.37" height="4.847"/>
	<polygon fill-rule="evenodd" clip-rule="evenodd" fill="#732F31" points="0.227,305.518 62.674,305.518 62.674,310.394 
		6.718,310.394 	"/>
	<polygon fill-rule="evenodd" clip-rule="evenodd" fill="#5C2224" points="62.674,310.394 86.825,304.044 86.825,299.168 
		62.674,305.518 	"/>
	<polygon fill-rule="evenodd" clip-rule="evenodd" fill="#662729" points="161.319,310.394 137.168,304.044 137.168,299.168 
		161.319,305.518 	"/>
	<rect x="161.319" y="305.518" fill-rule="evenodd" clip-rule="evenodd" fill="#662729" width="214.583" height="4.876"/>
	<path fill-rule="evenodd" clip-rule="evenodd" fill="#73462E" d="M45.014,343.417c-3.09-1.672-6.633-2.636-10.403-2.636
		c-3.401,0-7.427,0.907-10.403,2.636c0-0.028-0.057-3.826,2.665-5.017c2.721-1.162,6.888-1.162,7.738-4.763
		c0.879,3.601,5.018,3.601,7.739,4.763C45.071,339.591,45.014,343.389,45.014,343.417L45.014,343.417z"/>
	<path fill-rule="evenodd" clip-rule="evenodd" fill="#73462E" d="M43.994,343.984v17.688H25.54v-17.858
		c2.75-1.304,5.811-2.069,9.071-2.069C37.984,341.745,41.188,342.567,43.994,343.984L43.994,343.984z"/>
	<path fill-rule="evenodd" clip-rule="evenodd" fill="#5E2426" d="M29.594,355.833H39.94v-8.73h-0.227
		c-1.333-1.105-3.062-1.758-4.933-1.758c-1.899,0-3.628,0.652-4.96,1.758h-0.227V355.833z"/>
	<path fill-rule="evenodd" clip-rule="evenodd" fill="#73462E" d="M24.945,361.673h19.644c0.51,0,0.936,0.396,0.936,0.907l0,0
		c0,0.51-0.425,0.935-0.936,0.935H24.945c-0.51,0-0.936-0.425-0.936-0.935l0,0C24.009,362.069,24.435,361.673,24.945,361.673
		L24.945,361.673z"/>
	<path fill-rule="evenodd" clip-rule="evenodd" fill="#73462E" d="M48.557,395.773c-4.167-2.268-8.929-3.543-14.003-3.543
		c-4.564,0-9.978,1.219-13.975,3.543c0-0.057-0.085-5.159,3.571-6.746c3.657-1.56,9.241-1.56,10.403-6.407
		c1.19,4.848,6.747,4.848,10.432,6.407C48.643,390.614,48.557,395.745,48.557,395.773L48.557,395.773z"/>
	<path fill-rule="evenodd" clip-rule="evenodd" fill="#73462E" d="M47.197,396.539v28.771H22.365V396.34
		c3.685-1.785,7.824-2.806,12.189-2.806C39.118,393.534,43.398,394.611,47.197,396.539L47.197,396.539z"/>
	<path fill-rule="evenodd" clip-rule="evenodd" fill="#5E2426" d="M27.808,419.783h13.918v-21.431h-0.284
		c-1.814-1.502-4.139-2.409-6.662-2.409c-2.551,0-4.875,0.907-6.689,2.409h-0.284V419.783z"/>
	<path fill-rule="evenodd" clip-rule="evenodd" fill="#73462E" d="M21.572,425.311H47.99c0.681,0,1.248,0.566,1.248,1.247l0,0
		c0,0.681-0.567,1.247-1.248,1.247H21.572c-0.709,0-1.276-0.566-1.276-1.247l0,0C20.296,425.877,20.863,425.311,21.572,425.311
		L21.572,425.311z"/>
	<path fill-rule="evenodd" clip-rule="evenodd" fill="#73462E" d="M21.118,429.931h27.297c0.454,0,0.822,0.369,0.822,0.822l0,0
		c0,0.453-0.369,0.822-0.822,0.822H21.118c-0.454,0-0.822-0.369-0.822-0.822l0,0C20.296,430.3,20.665,429.931,21.118,429.931
		L21.118,429.931z"/>
	<path fill-rule="evenodd" clip-rule="evenodd" fill="#AB9B83" d="M48.472,68.712c-4.138-2.268-8.929-3.543-13.975-3.543
		c-4.592,0-10.006,1.219-14.003,3.543c0-0.057-0.085-5.159,3.571-6.747c3.685-1.559,9.27-1.559,10.432-6.406
		c1.162,4.847,6.747,4.847,10.403,6.406C48.557,63.553,48.472,68.684,48.472,68.712L48.472,68.712z"/>
	<path fill-rule="evenodd" clip-rule="evenodd" fill="#AB9B83" d="M47.112,69.478v28.771H22.28v-28.97
		c3.685-1.786,7.824-2.806,12.217-2.806C39.033,66.473,43.313,67.55,47.112,69.478L47.112,69.478z"/>
	<path fill-rule="evenodd" clip-rule="evenodd" fill="#732F31" d="M27.751,92.721h13.89v-21.43h-0.283
		c-1.814-1.502-4.139-2.41-6.662-2.41c-2.522,0-4.847,0.907-6.661,2.41h-0.284V92.721z"/>
	<path fill-rule="evenodd" clip-rule="evenodd" fill="#AB9B83" d="M21.486,98.249h26.419c0.681,0,1.248,0.567,1.248,1.247l0,0
		c0,0.681-0.567,1.248-1.248,1.248H21.486c-0.68,0-1.247-0.567-1.247-1.248l0,0C20.239,98.816,20.806,98.249,21.486,98.249
		L21.486,98.249z"/>
	<path fill-rule="evenodd" clip-rule="evenodd" fill="#AB9B83" d="M21.062,102.87h27.269c0.454,0,0.822,0.368,0.822,0.822l0,0
		c0,0.454-0.369,0.822-0.822,0.822H21.062c-0.454,0-0.822-0.369-0.822-0.822l0,0C20.239,103.238,20.608,102.87,21.062,102.87
		L21.062,102.87z"/>
	<polygon fill-rule="evenodd" clip-rule="evenodd" fill="#5C2224" points="82.205,188.051 69.562,192.359 69.562,220.054 
		82.205,215.745 	"/>
	<rect x="86.825" y="299.168" fill-rule="evenodd" clip-rule="evenodd" fill="#732F31" width="50.343" height="4.876"/>
	<polygon fill-rule="evenodd" clip-rule="evenodd" fill="#662729" points="141.789,188.051 154.431,192.359 154.431,220.054 
		141.789,215.745 	"/>
	<polygon fill-rule="evenodd" clip-rule="evenodd" fill="#5C2224" points="82.205,127.361 69.562,133.172 69.562,160.866 
		82.205,155.055 	"/>
	<polygon fill-rule="evenodd" clip-rule="evenodd" fill="#662729" points="141.789,127.361 154.431,133.172 154.431,160.866 
		141.789,155.055 	"/>
	<polygon fill-rule="evenodd" clip-rule="evenodd" fill="#5C2224" points="82.205,255.288 69.562,258.406 69.562,286.101 
		82.205,282.983 	"/>
	<polygon fill-rule="evenodd" clip-rule="evenodd" fill="#662729" points="141.789,255.288 154.431,258.406 154.431,286.101 
		141.789,282.983 	"/>
	<rect x="0.624" y="173.764" fill-rule="evenodd" clip-rule="evenodd" fill="#732F31" width="51.761" height="12.161"/>
	<polygon fill-rule="evenodd" clip-rule="evenodd" fill="#5C2224" points="82.205,160.044 52.384,173.764 52.384,185.925 
		82.205,172.205 	"/>
	<rect x="82.205" y="160.044" fill-rule="evenodd" clip-rule="evenodd" fill="#732F31" width="59.584" height="12.161"/>
	<polygon fill-rule="evenodd" clip-rule="evenodd" fill="#662729" points="141.789,160.044 171.609,173.764 171.609,185.925 
		141.789,172.205 	"/>
	<polygon fill-rule="evenodd" clip-rule="evenodd" fill="#732F31" points="0,380.608 62.674,380.608 62.674,385.483 6.718,385.483 	
		"/>
	<polygon fill-rule="evenodd" clip-rule="evenodd" fill="#5E2426" points="62.674,385.483 86.825,380.778 86.825,375.902 
		62.674,380.608 	"/>
	<rect x="86.825" y="376.186" fill-rule="evenodd" clip-rule="evenodd" fill="#732F31" width="50.343" height="4.876"/>
	<polygon fill-rule="evenodd" clip-rule="evenodd" fill="#662729" points="161.319,385.483 137.168,380.778 137.168,375.902 
		161.319,380.608 	"/>
	<rect x="161.319" y="380.608" fill-rule="evenodd" clip-rule="evenodd" fill="#732F31" width="211.294" height="4.875"/>
	<rect x="103.464" y="125.405" fill-rule="evenodd" clip-rule="evenodd" fill="#732F31" width="17.064" height="27.695"/>
	<rect x="103.464" y="188.079" fill-rule="evenodd" clip-rule="evenodd" fill="#732F31" width="17.064" height="27.694"/>
	<rect x="103.464" y="251.802" fill-rule="evenodd" clip-rule="evenodd" fill="#732F31" width="17.064" height="32.23"/>
	<rect x="168.406" y="116.816" fill-rule="evenodd" clip-rule="evenodd" fill="#662729" width="3.203" height="189.326"/>
	<path fill-rule="evenodd" clip-rule="evenodd" fill="#73462E" d="M97.852,329.556h28.29c1.219,0,2.211,0.964,2.211,2.183v21.203
		c0,1.22-0.992,2.212-2.211,2.212h-28.29c-1.219,0-2.211-0.992-2.211-2.212v-21.203C95.641,330.52,96.633,329.556,97.852,329.556
		L97.852,329.556z"/>
	<path fill-rule="evenodd" clip-rule="evenodd" fill="#73462E" d="M111.997,315.185c2.154,0,4.195,0.425,6.066,1.219
		c4.875,2.069,7.909,6.633,7.909,11.934v29.792H98.05v-29.792c0-5.301,3.005-9.864,7.909-11.934
		C107.801,315.609,109.842,315.185,111.997,315.185L111.997,315.185z"/>
	<path fill-rule="evenodd" clip-rule="evenodd" fill="#5E2426" d="M111.997,329.584c0.964,0,1.899,0.198,2.721,0.567
		c2.211,0.936,3.572,2.977,3.572,5.357v14.315h-12.558v-14.315c0-2.381,1.333-4.422,3.543-5.357
		C110.126,329.783,111.033,329.584,111.997,329.584L111.997,329.584z"/>
	<path fill-rule="evenodd" clip-rule="evenodd" fill="#663D27" d="M66.246,334.432l17.036-3.628
		c0.964-0.227,1.757,0.454,1.757,1.474v21.884c0,1.021-0.793,2.041-1.757,2.239l-17.036,3.628c-0.992,0.198-1.786-0.453-1.786-1.474
		v-21.912C64.46,335.622,65.253,334.63,66.246,334.432L66.246,334.432z"/>
	<path fill-rule="evenodd" clip-rule="evenodd" fill="#663D27" d="M74.75,318.246c1.361-0.283,2.636-0.142,3.827,0.397
		c3.09,1.446,4.961,5.584,4.961,10.885v29.792l-17.575,3.742v-29.764c0-5.329,1.899-10.29,4.989-13.011
		C72.113,319.238,73.417,318.529,74.75,318.246L74.75,318.246z"/>
	<path fill-rule="evenodd" clip-rule="evenodd" fill="#5E2426" d="M74.75,332.646c0.624-0.114,1.19-0.057,1.729,0.198
		c1.389,0.624,2.239,2.495,2.239,4.875v14.315l-7.908,1.7v-14.314c0-2.41,0.85-4.621,2.239-5.868
		C73.559,333.1,74.154,332.788,74.75,332.646L74.75,332.646z"/>
	<path fill-rule="evenodd" clip-rule="evenodd" fill="#73462E" d="M157.776,334.432l-17.064-3.628
		c-0.964-0.227-1.758,0.454-1.758,1.474v21.884c0,1.021,0.794,2.041,1.758,2.239l17.064,3.628c0.964,0.198,1.757-0.453,1.757-1.474
		v-21.912C159.534,335.622,158.74,334.63,157.776,334.432L157.776,334.432z"/>
	<path fill-rule="evenodd" clip-rule="evenodd" fill="#73462E" d="M149.244,318.246c-1.361-0.283-2.636-0.142-3.827,0.397
		c-3.061,1.446-4.96,5.584-4.96,10.885v29.792l17.575,3.742v-29.764c0-5.329-1.899-10.29-4.989-13.011
		C151.88,319.238,150.604,318.529,149.244,318.246L149.244,318.246z"/>
	<path fill-rule="evenodd" clip-rule="evenodd" fill="#5E2426" d="M149.244,332.646c-0.624-0.114-1.191-0.057-1.729,0.198
		c-1.36,0.624-2.239,2.495-2.239,4.875v14.315l7.909,1.7v-14.314c0-2.41-0.851-4.621-2.239-5.868
		C150.435,333.1,149.839,332.788,149.244,332.646L149.244,332.646z"/>
	<rect x="285.505" y="179.433" fill-rule="evenodd" clip-rule="evenodd" fill="#732F31" width="3.231" height="52.64"/>
	<rect x="249.109" y="179.433" fill-rule="evenodd" clip-rule="evenodd" fill="#732F31" width="3.23" height="52.64"/>
	<rect x="260.39" y="188.079" fill-rule="evenodd" clip-rule="evenodd" fill="#732F31" width="17.064" height="27.694"/>
	<rect x="230.428" y="194.514" fill-rule="evenodd" clip-rule="evenodd" fill="#732F31" width="13.153" height="27.694"/>
	<rect x="294.151" y="194.514" fill-rule="evenodd" clip-rule="evenodd" fill="#732F31" width="13.153" height="27.694"/>
	<rect x="184.195" y="194.514" fill-rule="evenodd" clip-rule="evenodd" fill="#662729" width="17.064" height="27.694"/>
	<rect x="336.585" y="194.514" fill-rule="evenodd" clip-rule="evenodd" fill="#662729" width="17.064" height="27.694"/>
	<path fill-rule="evenodd" clip-rule="evenodd" fill="#B5483C" d="M241.03,254.41c1.899,0,3.741,0.397,5.414,1.105
		c4.394,1.842,7.087,5.924,7.087,10.687v25.285H228.5v-25.285c0-4.762,2.692-8.844,7.087-10.687
		C237.259,254.807,239.102,254.41,241.03,254.41L241.03,254.41z"/>
	<path fill-rule="evenodd" clip-rule="evenodd" fill="#B5483C" d="M296.646,254.41c1.898,0,3.741,0.397,5.414,1.105
		c4.394,1.842,7.086,5.924,7.086,10.687v25.285h-25.029v-25.285c0-4.762,2.692-8.844,7.086-10.687
		C292.875,254.807,294.718,254.41,296.646,254.41L296.646,254.41z"/>
	<path fill-rule="evenodd" clip-rule="evenodd" fill="#B5483C" d="M268.781,250.64c2.353,0,4.621,0.482,6.662,1.332
		c5.386,2.296,8.674,7.285,8.674,13.153v26.362h-30.672v-26.362c0-5.868,3.317-10.856,8.675-13.153
		C264.189,251.122,266.428,250.64,268.781,250.64L268.781,250.64z"/>
	<path fill-rule="evenodd" clip-rule="evenodd" fill="#B5483C" d="M197.149,250.64c2.353,0,4.621,0.482,6.662,1.332
		c5.386,2.296,8.674,7.285,8.674,13.153v26.362h-30.671v-26.362c0-5.868,3.316-10.856,8.703-13.153
		C192.557,251.122,194.797,250.64,197.149,250.64L197.149,250.64z"/>
	<path fill-rule="evenodd" clip-rule="evenodd" fill="#B5483C" d="M340.696,250.64c2.353,0,4.592,0.482,6.633,1.332
		c5.386,2.296,8.703,7.285,8.703,13.153v26.362h-30.671v-26.362c0-5.868,3.288-10.856,8.674-13.153
		C336.076,251.122,338.315,250.64,340.696,250.64L340.696,250.64z"/>
	<path fill-rule="evenodd" clip-rule="evenodd" fill="#732F31" d="M241.03,264.558c0.851,0,1.7,0.17,2.438,0.482
		c1.983,0.85,3.203,2.693,3.203,4.847v11.452h-11.311v-11.452c0-2.154,1.219-3.997,3.203-4.847
		C239.3,264.728,240.151,264.558,241.03,264.558L241.03,264.558z"/>
	<path fill-rule="evenodd" clip-rule="evenodd" fill="#732F31" d="M268.781,264.558c0.879,0,1.701,0.17,2.467,0.482
		c1.983,0.85,3.203,2.693,3.203,4.847v11.452h-11.339v-11.452c0-2.154,1.219-3.997,3.203-4.847
		C267.081,264.728,267.902,264.558,268.781,264.558L268.781,264.558z"/>
	<path fill-rule="evenodd" clip-rule="evenodd" fill="#732F31" d="M197.149,264.558c0.879,0,1.701,0.17,2.466,0.482
		c1.984,0.85,3.203,2.693,3.203,4.847v11.452H191.48v-11.452c0-2.154,1.219-3.997,3.232-4.847
		C195.449,264.728,196.271,264.558,197.149,264.558L197.149,264.558z"/>
	<path fill-rule="evenodd" clip-rule="evenodd" fill="#732F31" d="M340.696,264.558c0.851,0,1.701,0.17,2.438,0.482
		c2.013,0.85,3.231,2.693,3.231,4.847v11.452h-11.338v-11.452c0-2.154,1.219-3.997,3.203-4.847
		C338.996,264.728,339.817,264.558,340.696,264.558L340.696,264.558z"/>
	<path fill-rule="evenodd" clip-rule="evenodd" fill="#732F31" d="M296.646,264.558c0.85,0,1.7,0.17,2.438,0.482
		c1.984,0.85,3.203,2.693,3.203,4.847v11.452h-11.311v-11.452c0-2.154,1.219-3.997,3.203-4.847
		C294.945,264.728,295.767,264.558,296.646,264.558L296.646,264.558z"/>
	<path fill-rule="evenodd" clip-rule="evenodd" fill="#946146" d="M195.222,313.965c6.633,0,12.104,4.961,12.897,11.396
		c-0.085,0-0.17-0.028-0.255-0.028h-25.256c-0.085,0-0.17,0.028-0.255,0.028C183.118,318.926,188.589,313.965,195.222,313.965
		L195.222,313.965z"/>
	<path fill-rule="evenodd" clip-rule="evenodd" fill="#946146" d="M180.878,328.536h28.687c0.878,0,1.616-0.708,1.616-1.587l0,0
		c0-0.879-0.737-1.616-1.616-1.616h-28.687c-0.878,0-1.587,0.737-1.587,1.616l0,0C179.291,327.827,180,328.536,180.878,328.536
		L180.878,328.536z"/>
	<path fill-rule="evenodd" clip-rule="evenodd" fill="#946146" d="M182.608,328.536h25.256v28.233c0,3.033-2.438,5.499-5.471,5.556
		c-0.397,2.892-2.523,5.216-5.272,5.981c0,0.085,0.028,0.142,0.028,0.227c0,1.077-0.878,1.928-1.927,1.928s-1.899-0.851-1.899-1.928
		c0-0.085,0-0.142,0-0.227c-2.75-0.766-4.847-3.09-5.244-5.981c-3.033-0.057-5.471-2.522-5.471-5.556V328.536z"/>
	<path fill-rule="evenodd" clip-rule="evenodd" fill="#5E2426" d="M195.222,331.54c3.515,0,6.321,2.835,6.321,6.321v15.902h-12.642
		v-15.902C188.901,334.375,191.735,331.54,195.222,331.54L195.222,331.54z"/>
	<path fill-rule="evenodd" clip-rule="evenodd" fill="#5E2426" d="M185.386,331.54c0.964,0,1.757,2.835,1.757,6.321v15.902H183.6
		v-15.902C183.6,334.375,184.394,331.54,185.386,331.54L185.386,331.54z"/>
	<path fill-rule="evenodd" clip-rule="evenodd" fill="#5E2426" d="M205.086,331.54c0.964,0,1.757,2.835,1.757,6.321v15.902h-3.515
		v-15.902C203.329,334.375,204.123,331.54,205.086,331.54L205.086,331.54z"/>
	<path fill-rule="evenodd" clip-rule="evenodd" fill="#946146" d="M177.335,396.539h35.773v-1.305c0-2.919-2.381-5.301-5.301-5.301
		h-25.143c-2.92,0-5.329,2.382-5.329,5.301V396.539z"/>
	<path fill-rule="evenodd" clip-rule="evenodd" fill="#946146" d="M175.493,398.637h39.487c0.566,0,1.049-0.482,1.049-1.049l0,0
		c0-0.567-0.482-1.049-1.049-1.049h-39.487c-0.567,0-1.049,0.481-1.049,1.049l0,0C174.444,398.154,174.926,398.637,175.493,398.637
		L175.493,398.637z"/>
	<rect x="177.959" y="398.637" fill-rule="evenodd" clip-rule="evenodd" fill="#946146" width="34.554" height="28.091"/>
	<path fill-rule="evenodd" clip-rule="evenodd" fill="#5E2426" d="M195.222,400.706c3.515,0,6.321,2.806,6.321,6.321v15.902h-12.642
		v-15.902C188.901,403.512,191.735,400.706,195.222,400.706L195.222,400.706z"/>
	<path fill-rule="evenodd" clip-rule="evenodd" fill="#5E2426" d="M183.572,402.293c1.757,0,3.175,1.417,3.175,3.175v17.462h-6.378
		v-17.462C180.368,403.71,181.814,402.293,183.572,402.293L183.572,402.293z"/>
	<path fill-rule="evenodd" clip-rule="evenodd" fill="#5E2426" d="M206.901,402.293c1.757,0,3.175,1.417,3.175,3.175v17.462h-6.378
		v-17.462C203.698,403.71,205.143,402.293,206.901,402.293L206.901,402.293z"/>
	<polygon fill-rule="evenodd" clip-rule="evenodd" fill="#7D4F36" points="447.109,304.044 471.259,309.005 471.259,468.709 
		447.109,463.748 	"/>
	<polygon fill-rule="evenodd" clip-rule="evenodd" fill="#855439" points="447.109,304.044 396.765,304.044 396.765,487.446 
		447.109,468.709 	"/>
	<polygon fill-rule="evenodd" clip-rule="evenodd" fill="#73462E" points="396.765,304.044 372.614,309.6 372.614,487.786 
		396.765,479.962 	"/>
	<rect x="398.523" y="74.495" fill-rule="evenodd" clip-rule="evenodd" fill="#C7BAA7" width="46.828" height="25.115"/>
	<polygon fill-rule="evenodd" clip-rule="evenodd" fill="#AB9B83" points="398.523,74.495 376.015,85.975 376.015,111.118 
		398.523,99.609 	"/>
	<polygon fill-rule="evenodd" clip-rule="evenodd" fill="#BAAB95" points="445.351,74.495 467.83,85.975 467.83,111.118 
		445.351,99.609 	"/>
	<rect x="471.259" y="47.65" fill-rule="evenodd" clip-rule="evenodd" fill="#C7BAA7" width="55.956" height="262.744"/>
	<rect x="471.259" y="310.394" fill-rule="evenodd" clip-rule="evenodd" fill="#855439" width="55.956" height="158.315"/>
	<polygon fill-rule="evenodd" clip-rule="evenodd" fill="#BAAB95" points="447.109,99.609 471.259,111.969 471.259,310.394 
		447.109,304.044 	"/>
	<rect x="396.765" y="99.609" fill-rule="evenodd" clip-rule="evenodd" fill="#C7BAA7" width="50.344" height="204.435"/>
	<polygon fill-rule="evenodd" clip-rule="evenodd" fill="#732F31" points="533.395,111.969 471.259,111.969 471.259,116.816 
		527.215,116.816 	"/>
	<polygon fill-rule="evenodd" clip-rule="evenodd" fill="#732F31" points="471.259,116.816 447.109,104.485 447.109,99.609 
		471.259,111.969 	"/>
	<rect x="396.765" y="99.609" fill-rule="evenodd" clip-rule="evenodd" fill="#732F31" width="50.344" height="4.876"/>
	<path fill-rule="evenodd" clip-rule="evenodd" fill="#AB9B83" d="M485.376,135.014c4.167-2.268,8.929-3.543,14.003-3.543
		c4.563,0,9.978,1.219,13.975,3.543c0-0.057,0.085-5.159-3.571-6.747c-3.657-1.559-9.241-1.559-10.403-6.406
		c-1.19,4.848-6.746,4.848-10.432,6.406C485.292,129.855,485.376,134.986,485.376,135.014L485.376,135.014z"/>
	<path fill-rule="evenodd" clip-rule="evenodd" fill="#AB9B83" d="M486.737,135.78v28.771h24.831v-28.97
		c-3.685-1.786-7.823-2.806-12.188-2.806C494.816,132.775,490.536,133.852,486.737,135.78L486.737,135.78z"/>
	<path fill-rule="evenodd" clip-rule="evenodd" fill="#732F31" d="M506.125,158.202h-13.918v-15.647h0.284
		c1.813-1.474,4.138-2.381,6.661-2.381c2.551,0,4.875,0.907,6.689,2.381h0.283V158.202z"/>
	<path fill-rule="evenodd" clip-rule="evenodd" fill="#AB9B83" d="M512.362,164.551h-26.419c-0.68,0-1.247,0.567-1.247,1.248l0,0
		c0,0.68,0.567,1.247,1.247,1.247h26.419c0.709,0,1.275-0.567,1.275-1.247l0,0C513.637,165.118,513.071,164.551,512.362,164.551
		L512.362,164.551z"/>
	<path fill-rule="evenodd" clip-rule="evenodd" fill="#AB9B83" d="M512.816,169.172h-27.298c-0.454,0-0.822,0.368-0.822,0.822l0,0
		c0,0.454,0.368,0.822,0.822,0.822h27.298c0.453,0,0.821-0.369,0.821-0.822l0,0C513.637,169.54,513.269,169.172,512.816,169.172
		L512.816,169.172z"/>
	<polygon fill-rule="evenodd" clip-rule="evenodd" fill="#AB9B83" points="396.765,99.609 372.614,111.969 372.614,310.394 
		396.765,304.044 	"/>
	<polygon fill-rule="evenodd" clip-rule="evenodd" fill="#5C2224" points="372.614,116.816 396.765,104.485 396.765,99.609 
		372.614,111.969 	"/>
	<path fill-rule="evenodd" clip-rule="evenodd" fill="#AB9B83" d="M485.376,197.518c4.167-2.268,8.929-3.543,14.003-3.543
		c4.563,0,9.978,1.19,13.975,3.543c0-0.057,0.085-5.159-3.571-6.746c-3.657-1.587-9.241-1.587-10.403-6.407
		c-1.19,4.819-6.746,4.819-10.432,6.407C485.292,192.359,485.376,197.461,485.376,197.518L485.376,197.518z"/>
	<path fill-rule="evenodd" clip-rule="evenodd" fill="#AB9B83" d="M486.737,198.255v28.771h24.831v-28.97
		c-3.685-1.786-7.823-2.778-12.188-2.778C494.816,195.279,490.536,196.356,486.737,198.255L486.737,198.255z"/>
	<path fill-rule="evenodd" clip-rule="evenodd" fill="#732F31" d="M506.125,220.706h-13.918v-15.647h0.284
		c1.813-1.502,4.138-2.41,6.661-2.41c2.551,0,4.875,0.907,6.689,2.41h0.283V220.706z"/>
	<path fill-rule="evenodd" clip-rule="evenodd" fill="#AB9B83" d="M512.362,227.027h-26.419c-0.68,0-1.247,0.567-1.247,1.276l0,0
		c0,0.68,0.567,1.247,1.247,1.247h26.419c0.709,0,1.275-0.567,1.275-1.247l0,0C513.637,227.594,513.071,227.027,512.362,227.027
		L512.362,227.027z"/>
	<path fill-rule="evenodd" clip-rule="evenodd" fill="#AB9B83" d="M512.816,231.676h-27.298c-0.454,0-0.822,0.369-0.822,0.822l0,0
		c0,0.425,0.368,0.794,0.822,0.794h27.298c0.453,0,0.821-0.369,0.821-0.794l0,0C513.637,232.044,513.269,231.676,512.816,231.676
		L512.816,231.676z"/>
	<rect x="481.549" y="234.681" fill-rule="evenodd" clip-rule="evenodd" fill="#732F31" width="51.761" height="12.189"/>
	<polygon fill-rule="evenodd" clip-rule="evenodd" fill="#662729" points="451.729,224.447 481.549,234.681 481.549,246.87 
		451.729,236.608 	"/>
	<rect x="392.145" y="224.447" fill-rule="evenodd" clip-rule="evenodd" fill="#732F31" width="59.584" height="12.161"/>
	<path fill-rule="evenodd" clip-rule="evenodd" fill="#AB9B83" d="M488.919,277.569c3.09-1.673,6.633-2.608,10.403-2.608
		c3.401,0,7.427,0.878,10.403,2.608c0-0.029,0.057-3.827-2.665-4.989c-2.721-1.19-6.888-1.19-7.738-4.762
		c-0.879,3.572-5.018,3.572-7.738,4.762C488.863,273.742,488.919,277.54,488.919,277.569L488.919,277.569z"/>
	<path fill-rule="evenodd" clip-rule="evenodd" fill="#AB9B83" d="M489.94,278.136v17.688h18.454v-17.83
		c-2.75-1.332-5.812-2.069-9.071-2.069C495.95,275.925,492.747,276.718,489.94,278.136L489.94,278.136z"/>
	<path fill-rule="evenodd" clip-rule="evenodd" fill="#732F31" d="M504.34,290.013h-10.347v-8.73h0.227
		c1.332-1.105,3.062-1.786,4.933-1.786c1.899,0,3.628,0.681,4.96,1.786h0.228V290.013z"/>
	<path fill-rule="evenodd" clip-rule="evenodd" fill="#AB9B83" d="M508.989,295.824h-19.644c-0.511,0-0.936,0.425-0.936,0.936l0,0
		c0,0.51,0.425,0.936,0.936,0.936h19.644c0.511,0,0.936-0.425,0.936-0.936l0,0C509.924,296.249,509.5,295.824,508.989,295.824
		L508.989,295.824z"/>
	<polygon fill-rule="evenodd" clip-rule="evenodd" fill="#732F31" points="533.707,305.518 471.259,305.518 471.259,310.394 
		527.215,310.394 	"/>
	<polygon fill-rule="evenodd" clip-rule="evenodd" fill="#662729" points="471.259,310.394 447.109,304.044 447.109,299.168 
		471.259,305.518 	"/>
	<polygon fill-rule="evenodd" clip-rule="evenodd" fill="#5C2224" points="372.614,310.394 396.765,304.044 396.765,299.168 
		372.614,305.518 	"/>
	<path fill-rule="evenodd" clip-rule="evenodd" fill="#73462E" d="M488.919,343.417c3.09-1.672,6.633-2.636,10.403-2.636
		c3.401,0,7.427,0.907,10.403,2.636c0-0.028,0.057-3.826-2.665-5.017c-2.721-1.162-6.888-1.162-7.738-4.763
		c-0.879,3.601-5.018,3.601-7.738,4.763C488.863,339.591,488.919,343.389,488.919,343.417L488.919,343.417z"/>
	<path fill-rule="evenodd" clip-rule="evenodd" fill="#73462E" d="M489.94,343.984v17.688h18.454v-17.858
		c-2.75-1.304-5.812-2.069-9.071-2.069C495.95,341.745,492.747,342.567,489.94,343.984L489.94,343.984z"/>
	<path fill-rule="evenodd" clip-rule="evenodd" fill="#5E2426" d="M504.34,355.833h-10.347v-8.73h0.227
		c1.332-1.105,3.062-1.758,4.933-1.758c1.899,0,3.628,0.652,4.96,1.758h0.228V355.833z"/>
	<path fill-rule="evenodd" clip-rule="evenodd" fill="#73462E" d="M508.989,361.673h-19.644c-0.511,0-0.936,0.396-0.936,0.907l0,0
		c0,0.51,0.425,0.935,0.936,0.935h19.644c0.511,0,0.936-0.425,0.936-0.935l0,0C509.924,362.069,509.5,361.673,508.989,361.673
		L508.989,361.673z"/>
	<path fill-rule="evenodd" clip-rule="evenodd" fill="#73462E" d="M485.376,395.773c4.167-2.268,8.929-3.543,14.003-3.543
		c4.563,0,9.978,1.219,13.975,3.543c0-0.057,0.085-5.159-3.571-6.746c-3.657-1.56-9.241-1.56-10.403-6.407
		c-1.19,4.848-6.746,4.848-10.432,6.407C485.292,390.614,485.376,395.745,485.376,395.773L485.376,395.773z"/>
	<path fill-rule="evenodd" clip-rule="evenodd" fill="#73462E" d="M486.737,396.539v28.771h24.831V396.34
		c-3.685-1.785-7.823-2.806-12.188-2.806C494.816,393.534,490.536,394.611,486.737,396.539L486.737,396.539z"/>
	<path fill-rule="evenodd" clip-rule="evenodd" fill="#5E2426" d="M506.125,419.783h-13.918v-21.431h0.284
		c1.813-1.502,4.138-2.409,6.661-2.409c2.551,0,4.875,0.907,6.689,2.409h0.283V419.783z"/>
	<path fill-rule="evenodd" clip-rule="evenodd" fill="#73462E" d="M512.362,425.311h-26.419c-0.68,0-1.247,0.566-1.247,1.247l0,0
		c0,0.681,0.567,1.247,1.247,1.247h26.419c0.709,0,1.275-0.566,1.275-1.247l0,0C513.637,425.877,513.071,425.311,512.362,425.311
		L512.362,425.311z"/>
	<path fill-rule="evenodd" clip-rule="evenodd" fill="#73462E" d="M512.816,429.931h-27.298c-0.454,0-0.822,0.369-0.822,0.822l0,0
		c0,0.453,0.368,0.822,0.822,0.822h27.298c0.453,0,0.821-0.369,0.821-0.822l0,0C513.637,430.3,513.269,429.931,512.816,429.931
		L512.816,429.931z"/>
	<path fill-rule="evenodd" clip-rule="evenodd" fill="#AB9B83" d="M485.461,68.712c4.139-2.268,8.929-3.543,13.975-3.543
		c4.592,0,10.007,1.219,14.003,3.543c0-0.057,0.085-5.159-3.571-6.747c-3.686-1.559-9.27-1.559-10.432-6.406
		c-1.162,4.847-6.746,4.847-10.403,6.406C485.376,63.553,485.461,68.684,485.461,68.712L485.461,68.712z"/>
	<path fill-rule="evenodd" clip-rule="evenodd" fill="#AB9B83" d="M486.822,69.478v28.771h24.832v-28.97
		c-3.686-1.786-7.824-2.806-12.218-2.806C494.901,66.473,490.621,67.55,486.822,69.478L486.822,69.478z"/>
	<path fill-rule="evenodd" clip-rule="evenodd" fill="#732F31" d="M506.182,92.721h-13.89v-21.43h0.284
		c1.813-1.502,4.138-2.41,6.661-2.41c2.522,0,4.847,0.907,6.661,2.41h0.283V92.721z"/>
	<path fill-rule="evenodd" clip-rule="evenodd" fill="#AB9B83" d="M512.447,98.249h-26.419c-0.68,0-1.247,0.567-1.247,1.247l0,0
		c0,0.681,0.567,1.248,1.247,1.248h26.419c0.681,0,1.248-0.567,1.248-1.248l0,0C513.695,98.816,513.127,98.249,512.447,98.249
		L512.447,98.249z"/>
	<path fill-rule="evenodd" clip-rule="evenodd" fill="#AB9B83" d="M512.873,102.87h-27.27c-0.453,0-0.822,0.368-0.822,0.822l0,0
		c0,0.454,0.369,0.822,0.822,0.822h27.27c0.453,0,0.822-0.369,0.822-0.822l0,0C513.695,103.238,513.326,102.87,512.873,102.87
		L512.873,102.87z"/>
	<polygon fill-rule="evenodd" clip-rule="evenodd" fill="#662729" points="451.729,188.051 464.372,192.359 464.372,220.054 
		451.729,215.745 	"/>
	<rect x="396.765" y="299.168" fill-rule="evenodd" clip-rule="evenodd" fill="#732F31" width="50.344" height="4.876"/>
	<polygon fill-rule="evenodd" clip-rule="evenodd" fill="#5C2224" points="392.145,188.051 379.502,192.359 379.502,220.054 
		392.145,215.745 	"/>
	<polygon fill-rule="evenodd" clip-rule="evenodd" fill="#662729" points="451.729,127.361 464.372,133.172 464.372,160.866 
		451.729,155.055 	"/>
	<polygon fill-rule="evenodd" clip-rule="evenodd" fill="#5C2224" points="392.145,127.361 379.502,133.172 379.502,160.866 
		392.145,155.055 	"/>
	<polygon fill-rule="evenodd" clip-rule="evenodd" fill="#662729" points="451.729,255.288 464.372,258.406 464.372,286.101 
		451.729,282.983 	"/>
	<polygon fill-rule="evenodd" clip-rule="evenodd" fill="#5C2224" points="392.145,255.288 379.502,258.406 379.502,286.101 
		392.145,282.983 	"/>
	<rect x="481.549" y="173.764" fill-rule="evenodd" clip-rule="evenodd" fill="#732F31" width="51.761" height="12.161"/>
	<polygon fill-rule="evenodd" clip-rule="evenodd" fill="#662729" points="451.729,160.044 481.549,173.764 481.549,185.925 
		451.729,172.205 	"/>
	<rect x="392.145" y="160.044" fill-rule="evenodd" clip-rule="evenodd" fill="#732F31" width="59.584" height="12.161"/>
	<polygon fill-rule="evenodd" clip-rule="evenodd" fill="#732F31" points="533.934,380.608 471.259,380.608 471.259,385.483 
		527.215,385.483 	"/>
	<polygon fill-rule="evenodd" clip-rule="evenodd" fill="#662729" points="471.259,385.483 447.109,380.778 447.109,375.902 
		471.259,380.608 	"/>
	<rect x="396.765" y="376.186" fill-rule="evenodd" clip-rule="evenodd" fill="#732F31" width="50.344" height="4.876"/>
	<polygon fill-rule="evenodd" clip-rule="evenodd" fill="#5E2426" points="372.614,385.483 396.765,380.778 396.765,375.902 
		372.614,380.608 	"/>
	<rect x="413.405" y="125.405" fill-rule="evenodd" clip-rule="evenodd" fill="#732F31" width="17.064" height="27.695"/>
	<rect x="413.405" y="188.079" fill-rule="evenodd" clip-rule="evenodd" fill="#732F31" width="17.064" height="27.694"/>
	<rect x="413.405" y="251.802" fill-rule="evenodd" clip-rule="evenodd" fill="#732F31" width="17.064" height="32.23"/>
	<path fill-rule="evenodd" clip-rule="evenodd" fill="#73462E" d="M436.082,329.556h-28.289c-1.22,0-2.212,0.964-2.212,2.183v21.203
		c0,1.22,0.992,2.212,2.212,2.212h28.289c1.219,0,2.211-0.992,2.211-2.212v-21.203C438.292,330.52,437.3,329.556,436.082,329.556
		L436.082,329.556z"/>
	<path fill-rule="evenodd" clip-rule="evenodd" fill="#73462E" d="M421.937,315.185c-2.154,0-4.195,0.425-6.066,1.219
		c-4.875,2.069-7.908,6.633-7.908,11.934v29.792h27.921v-29.792c0-5.301-3.005-9.864-7.908-11.934
		C426.132,315.609,424.091,315.185,421.937,315.185L421.937,315.185z"/>
	<path fill-rule="evenodd" clip-rule="evenodd" fill="#5E2426" d="M421.937,329.584c-0.964,0-1.899,0.198-2.722,0.567
		c-2.211,0.936-3.571,2.977-3.571,5.357v14.315h12.558v-14.315c0-2.381-1.332-4.422-3.544-5.357
		C423.808,329.783,422.901,329.584,421.937,329.584L421.937,329.584z"/>
	<path fill-rule="evenodd" clip-rule="evenodd" fill="#73462E" d="M467.688,334.432l-17.036-3.628
		c-0.964-0.227-1.758,0.454-1.758,1.474v21.884c0,1.021,0.794,2.041,1.758,2.239l17.036,3.628c0.992,0.198,1.786-0.453,1.786-1.474
		v-21.912C469.474,335.622,468.68,334.63,467.688,334.432L467.688,334.432z"/>
	<path fill-rule="evenodd" clip-rule="evenodd" fill="#73462E" d="M459.184,318.246c-1.36-0.283-2.636-0.142-3.827,0.397
		c-3.09,1.446-4.96,5.584-4.96,10.885v29.792l17.574,3.742v-29.764c0-5.329-1.898-10.29-4.988-13.011
		C461.821,319.238,460.516,318.529,459.184,318.246L459.184,318.246z"/>
	<path fill-rule="evenodd" clip-rule="evenodd" fill="#5E2426" d="M459.184,332.646c-0.624-0.114-1.19-0.057-1.729,0.198
		c-1.389,0.624-2.239,2.495-2.239,4.875v14.315l7.909,1.7v-14.314c0-2.41-0.851-4.621-2.239-5.868
		C460.375,333.1,459.78,332.788,459.184,332.646L459.184,332.646z"/>
	<path fill-rule="evenodd" clip-rule="evenodd" fill="#663D27" d="M376.158,334.432l17.064-3.628
		c0.964-0.227,1.757,0.454,1.757,1.474v21.884c0,1.021-0.793,2.041-1.757,2.239l-17.064,3.628c-0.964,0.198-1.758-0.453-1.758-1.474
		v-21.912C374.4,335.622,375.194,334.63,376.158,334.432L376.158,334.432z"/>
	<path fill-rule="evenodd" clip-rule="evenodd" fill="#663D27" d="M384.69,318.246c1.36-0.283,2.636-0.142,3.826,0.397
		c3.062,1.446,4.961,5.584,4.961,10.885v29.792l-17.575,3.742v-29.764c0-5.329,1.899-10.29,4.989-13.011
		C382.053,319.238,383.329,318.529,384.69,318.246L384.69,318.246z"/>
	<path fill-rule="evenodd" clip-rule="evenodd" fill="#5E2426" d="M384.69,332.646c0.623-0.114,1.19-0.057,1.729,0.198
		c1.361,0.624,2.239,2.495,2.239,4.875v14.315l-7.908,1.7v-14.314c0-2.41,0.851-4.621,2.239-5.868
		C383.5,333.1,384.094,332.788,384.69,332.646L384.69,332.646z"/>
	<polygon fill-rule="evenodd" clip-rule="evenodd" fill="#5C2224" points="392.145,224.447 362.325,234.681 362.325,246.87 
		392.145,236.608 	"/>
	<polygon fill-rule="evenodd" clip-rule="evenodd" fill="#5C2224" points="392.145,160.044 362.325,173.764 362.325,185.925 
		392.145,172.205 	"/>
	<rect x="219.089" y="323.461" fill-rule="evenodd" clip-rule="evenodd" fill="#946146" width="99.383" height="37.531"/>
	<path fill-rule="evenodd" clip-rule="evenodd" fill="#5E2426" d="M268.781,334.205c2.665,0,4.791,2.154,4.791,4.818v15.393h-9.582
		v-15.393C263.99,336.359,266.144,334.205,268.781,334.205L268.781,334.205z"/>
	<path fill-rule="evenodd" clip-rule="evenodd" fill="#5E2426" d="M257.13,334.205c1.956,0,3.543,1.587,3.543,3.571v16.64h-7.086
		v-16.64C253.587,335.792,255.175,334.205,257.13,334.205L257.13,334.205z"/>
	<path fill-rule="evenodd" clip-rule="evenodd" fill="#5E2426" d="M280.431,334.205c1.956,0,3.544,1.587,3.544,3.571v16.64h-7.087
		v-16.64C276.888,335.792,278.475,334.205,280.431,334.205L280.431,334.205z"/>
	<path fill-rule="evenodd" clip-rule="evenodd" fill="#5E2426" d="M240.888,334.205c4.309,0,7.795,3.515,7.795,7.823v12.388h-15.59
		v-12.388C233.093,337.72,236.58,334.205,240.888,334.205L240.888,334.205z"/>
	<path fill-rule="evenodd" clip-rule="evenodd" fill="#5E2426" d="M296.674,334.205c4.309,0,7.795,3.515,7.795,7.823v12.388h-15.591
		v-12.388C288.878,337.72,292.365,334.205,296.674,334.205L296.674,334.205z"/>
	<path fill-rule="evenodd" clip-rule="evenodd" fill="#5E2426" d="M225.695,334.205c2.664,0,4.818,2.154,4.818,4.818v15.393h-9.609
		v-15.393C220.904,336.359,223.058,334.205,225.695,334.205L225.695,334.205z"/>
	<path fill-rule="evenodd" clip-rule="evenodd" fill="#5E2426" d="M311.868,334.205c2.636,0,4.79,2.154,4.79,4.818v15.393h-9.581
		v-15.393C307.077,336.359,309.203,334.205,311.868,334.205L311.868,334.205z"/>
	<polygon fill-rule="evenodd" clip-rule="evenodd" fill="#946146" points="210.841,323.461 326.721,323.461 318.472,319.294 
		219.089,319.294 	"/>
	<path fill-rule="evenodd" clip-rule="evenodd" fill="#946146" d="M219.089,319.294h99.383v-0.453c0-2.551-2.069-4.621-4.62-4.621
		H223.71c-2.552,0-4.621,2.069-4.621,4.621V319.294z"/>
	<rect x="222.689" y="107.093" fill-rule="evenodd" clip-rule="evenodd" fill="#732F31" width="26.42" height="4.875"/>
	<rect x="288.737" y="107.093" fill-rule="evenodd" clip-rule="evenodd" fill="#732F31" width="26.419" height="4.875"/>
	<rect x="249.109" y="100.658" fill-rule="evenodd" clip-rule="evenodd" fill="#732F31" width="39.628" height="4.848"/>
	<rect x="249.109" y="38.892" fill-rule="evenodd" clip-rule="evenodd" fill="#B5483C" width="39.628" height="61.767"/>
	<rect x="222.689" y="49.352" fill-rule="evenodd" clip-rule="evenodd" fill="#A13B30" width="26.42" height="57.742"/>
	<path fill-rule="evenodd" clip-rule="evenodd" fill="#C7BAA7" d="M284.683,63.978v36.68h-30.075v-36.68
		c0-4.989,6.718-9.014,15.023-9.014S284.683,58.989,284.683,63.978L284.683,63.978z"/>
	<rect x="261.525" y="60.945" fill-rule="evenodd" clip-rule="evenodd" fill="#732F31" width="16.242" height="9.1"/>
	<rect x="261.525" y="73.304" fill-rule="evenodd" clip-rule="evenodd" fill="#732F31" width="16.242" height="27.354"/>
	<path fill-rule="evenodd" clip-rule="evenodd" fill="#C7BAA7" d="M249.109,68.088v38.891H228.5V68.088
		c0-3.43,4.62-6.18,10.318-6.18C244.488,61.909,249.109,64.658,249.109,68.088L249.109,68.088z"/>
	<rect x="230.683" y="67.38" fill-rule="evenodd" clip-rule="evenodd" fill="#732F31" width="16.242" height="9.099"/>
	<rect x="230.683" y="79.767" fill-rule="evenodd" clip-rule="evenodd" fill="#732F31" width="16.242" height="27.326"/>
	<rect x="288.737" y="49.352" fill-rule="evenodd" clip-rule="evenodd" fill="#A13B30" width="26.419" height="57.742"/>
	<path fill-rule="evenodd" clip-rule="evenodd" fill="#C7BAA7" d="M288.737,68.088v38.891h20.608V68.088
		c0-3.43-4.621-6.18-10.318-6.18C293.357,61.909,288.737,64.658,288.737,68.088L288.737,68.088z"/>
	<rect x="290.919" y="67.38" fill-rule="evenodd" clip-rule="evenodd" fill="#732F31" width="16.242" height="9.099"/>
	<rect x="290.919" y="79.767" fill-rule="evenodd" clip-rule="evenodd" fill="#732F31" width="16.242" height="27.326"/>
	<rect x="161.319" y="93.288" fill-rule="evenodd" clip-rule="evenodd" fill="#C7BAA7" width="61.37" height="18.681"/>
	<polygon fill-rule="evenodd" clip-rule="evenodd" fill="#C7BAA7" points="161.319,93.288 157.918,91.559 157.918,110.211 
		161.319,111.969 	"/>
	<path fill-rule="evenodd" clip-rule="evenodd" fill="#BAAB95" d="M193.975,75.26c1.502,0,2.92,0.284,4.195,0.851
		c3.402,1.446,5.499,4.592,5.499,8.277v27.581H184.28V84.388c0-3.685,2.098-6.832,5.499-8.277
		C191.083,75.543,192.5,75.26,193.975,75.26L193.975,75.26z"/>
	<path fill-rule="evenodd" clip-rule="evenodd" fill="#FFFFFF" d="M193.975,85.068c0.879,0,1.701,0.198,2.466,0.51
		c1.984,0.851,3.203,2.693,3.203,4.847v11.452h-11.339V90.425c0-2.154,1.219-3.997,3.232-4.847
		C192.274,85.266,193.096,85.068,193.975,85.068L193.975,85.068z"/>
	<path fill-rule="evenodd" clip-rule="evenodd" fill="#BAAB95" d="M110.154,56.438c1.502,0,2.919,0.312,4.224,0.85
		c3.373,1.446,5.471,4.621,5.471,8.306V93.6h-19.36V65.594c0-3.685,2.069-6.86,5.471-8.306
		C107.263,56.75,108.68,56.438,110.154,56.438L110.154,56.438z"/>
	<path fill-rule="evenodd" clip-rule="evenodd" fill="#FFFFFF" d="M110.154,66.274c0.878,0,1.701,0.17,2.466,0.51
		c1.984,0.822,3.203,2.665,3.203,4.848v11.452h-11.339V71.632c0-2.183,1.247-4.025,3.231-4.848
		C108.454,66.444,109.304,66.274,110.154,66.274L110.154,66.274z"/>
	<rect x="315.156" y="93.288" fill-rule="evenodd" clip-rule="evenodd" fill="#C7BAA7" width="57.458" height="18.681"/>
	<path fill-rule="evenodd" clip-rule="evenodd" fill="#BAAB95" d="M343.871,75.26c-1.502,0-2.92,0.284-4.195,0.851
		c-3.401,1.446-5.499,4.592-5.499,8.277v27.581h19.36V84.388c0-3.685-2.069-6.832-5.471-8.277
		C346.762,75.543,345.345,75.26,343.871,75.26L343.871,75.26z"/>
	<path fill-rule="evenodd" clip-rule="evenodd" fill="#FFFFFF" d="M343.871,85.068c-0.879,0-1.7,0.198-2.466,0.51
		c-1.984,0.851-3.203,2.693-3.203,4.847v11.452h11.339V90.425c0-2.154-1.22-3.997-3.232-4.847
		C345.572,85.266,344.75,85.068,343.871,85.068L343.871,85.068z"/>
	<path fill-rule="evenodd" clip-rule="evenodd" fill="#BAAB95" d="M422.588,56.438c-1.502,0-2.919,0.312-4.194,0.85
		c-3.402,1.446-5.5,4.621-5.5,8.306V93.6h19.39V65.594c0-3.685-2.098-6.86-5.5-8.306C425.48,56.75,424.063,56.438,422.588,56.438
		L422.588,56.438z"/>
	<path fill-rule="evenodd" clip-rule="evenodd" fill="#FFFFFF" d="M422.588,66.274c-0.878,0-1.7,0.17-2.466,0.51
		c-1.984,0.822-3.203,2.665-3.203,4.848v11.452h11.339V71.632c0-2.183-1.219-4.025-3.203-4.848
		C424.29,66.444,423.467,66.274,422.588,66.274L422.588,66.274z"/>
	<polygon fill-rule="evenodd" clip-rule="evenodd" fill="#C7BAA7" points="372.614,93.288 376.015,91.559 376.015,110.211 
		372.614,111.969 	"/>
	<rect x="13.408" y="25.172" fill-rule="evenodd" clip-rule="evenodd" fill="#AB9B83" width="42.577" height="22.479"/>
	<path fill-rule="evenodd" clip-rule="evenodd" fill="#BAAB95" d="M33.023,8.759c1.361,0,2.636,0.283,3.827,0.765
		c3.09,1.333,4.989,4.195,4.989,7.54V42.52H24.236V17.064c0-3.345,1.899-6.208,4.989-7.54C30.387,9.042,31.663,8.759,33.023,8.759
		L33.023,8.759z"/>
	<path fill-rule="evenodd" clip-rule="evenodd" fill="#FFFFFF" d="M33.023,17.688c0.794,0,1.559,0.17,2.239,0.453
		c1.814,0.766,2.92,2.438,2.92,4.394v10.403h-10.29V22.536c0-1.956,1.106-3.628,2.892-4.394
		C31.493,17.858,32.23,17.688,33.023,17.688L33.023,17.688z"/>
	<rect x="1.871" y="37.587" fill-rule="evenodd" clip-rule="evenodd" fill="#BAAB95" width="65.65" height="10.063"/>
	<rect x="477.95" y="25.172" fill-rule="evenodd" clip-rule="evenodd" fill="#AB9B83" width="42.576" height="22.479"/>
	<path fill-rule="evenodd" clip-rule="evenodd" fill="#BAAB95" d="M497.565,8.759c1.361,0,2.665,0.283,3.827,0.765
		c3.09,1.333,4.989,4.195,4.989,7.54V42.52h-17.604V17.064c0-3.345,1.899-6.208,4.989-7.54
		C494.929,9.042,496.233,8.759,497.565,8.759L497.565,8.759z"/>
	<path fill-rule="evenodd" clip-rule="evenodd" fill="#FFFFFF" d="M497.565,17.688c0.794,0,1.56,0.17,2.239,0.453
		c1.814,0.766,2.92,2.438,2.92,4.394v10.403h-10.29V22.536c0-1.956,1.105-3.628,2.92-4.394
		C496.035,17.858,496.772,17.688,497.565,17.688L497.565,17.688z"/>
	<rect x="466.413" y="37.587" fill-rule="evenodd" clip-rule="evenodd" fill="#BAAB95" width="65.65" height="10.063"/>
	<rect x="248.372" y="16.413" fill-rule="evenodd" clip-rule="evenodd" fill="#BAAB95" width="42.548" height="22.479"/>
	<path fill-rule="evenodd" clip-rule="evenodd" fill="#BAAB95" d="M269.631,0c1.36,0,2.665,0.284,3.827,0.766
		c3.09,1.332,4.988,4.195,4.988,7.54v25.455h-17.604V8.306c0-3.345,1.9-6.208,4.99-7.54C266.996,0.284,268.299,0,269.631,0
		L269.631,0z"/>
	<path fill-rule="evenodd" clip-rule="evenodd" fill="#FFFFFF" d="M269.631,8.929c0.794,0,1.56,0.17,2.239,0.454
		c1.814,0.766,2.92,2.438,2.92,4.394V24.18H264.5V13.776c0-1.956,1.105-3.628,2.92-4.394C268.101,9.1,268.837,8.929,269.631,8.929
		L269.631,8.929z"/>
	<rect x="246.359" y="28.829" fill-rule="evenodd" clip-rule="evenodd" fill="#BAAB95" width="46.573" height="10.063"/>
	<rect x="184.195" y="134.022" fill-rule="evenodd" clip-rule="evenodd" fill="#662729" width="17.064" height="27.694"/>
	<rect x="336.585" y="134.022" fill-rule="evenodd" clip-rule="evenodd" fill="#662729" width="17.064" height="27.694"/>
	<path fill-rule="evenodd" clip-rule="evenodd" fill="#946146" d="M230.542,514.035h76.11v-67.182c0-1.162-0.453-2.154-1.332-2.92
		l-0.426-0.368c-1.19-1.021-1.615-2.607-1.105-4.139c0.992-2.92,1.531-6.01,1.531-9.213c0-17.744-16.441-32.145-36.737-32.145
		c-20.268,0-36.708,14.4-36.708,32.145c0,3.203,0.538,6.293,1.53,9.213c0.511,1.531,0.085,3.118-1.105,4.139l-0.425,0.368
		c-0.879,0.766-1.333,1.758-1.333,2.92V514.035z"/>
	<path fill-rule="evenodd" clip-rule="evenodd" fill="#5E2426" d="M235.388,514.035h66.388v-64.517c0-1.305-0.368-2.438-1.19-3.459
		c-1.813-2.296-2.409-5.301-1.417-8.191c0.851-2.467,1.304-5.046,1.304-7.654c0-3.231-0.651-6.35-1.928-9.297
		c-4.96-11.679-17.716-17.972-29.962-17.972c-12.218,0-24.974,6.293-29.934,17.972c-1.276,2.947-1.928,6.065-1.928,9.297
		c0,2.608,0.454,5.188,1.304,7.654c0.964,2.834,0.426,5.867-1.389,8.163c-0.794,1.021-1.162,2.126-1.162,3.431L235.388,514.035z"/>
	<path fill-rule="evenodd" clip-rule="evenodd" fill="#73462E" d="M97.852,397.021h28.29c1.219,0,2.211,0.992,2.211,2.211v21.203
		c0,1.19-0.992,2.183-2.211,2.183h-28.29c-1.219,0-2.211-0.992-2.211-2.183v-21.203C95.641,398.013,96.633,397.021,97.852,397.021
		L97.852,397.021z"/>
	<path fill-rule="evenodd" clip-rule="evenodd" fill="#73462E" d="M111.997,382.649c2.154,0,4.195,0.453,6.066,1.219
		c4.875,2.098,7.909,6.633,7.909,11.962v29.764H98.05V395.83c0-5.329,3.005-9.864,7.909-11.962
		C107.801,383.103,109.842,382.649,111.997,382.649L111.997,382.649z"/>
	<path fill-rule="evenodd" clip-rule="evenodd" fill="#5E2426" d="M111.997,397.077c0.964,0,1.899,0.17,2.721,0.539
		c2.211,0.936,3.572,2.976,3.572,5.386v14.286h-12.558v-14.286c0-2.41,1.333-4.45,3.543-5.386
		C110.126,397.247,111.033,397.077,111.997,397.077L111.997,397.077z"/>
	<path fill-rule="evenodd" clip-rule="evenodd" fill="#663D27" d="M66.246,401.896l17.036-3.629
		c0.964-0.198,1.757,0.454,1.757,1.475v21.911c0,1.021-0.793,2.013-1.757,2.211l-17.036,3.629c-0.992,0.227-1.786-0.454-1.786-1.475
		v-21.883C64.46,403.115,65.253,402.095,66.246,401.896L66.246,401.896z"/>
	<path fill-rule="evenodd" clip-rule="evenodd" fill="#663D27" d="M74.75,385.71c1.361-0.283,2.636-0.113,3.827,0.426
		c3.09,1.417,4.961,5.556,4.961,10.885v29.764l-17.575,3.742v-29.764c0-5.329,1.899-10.262,4.989-13.012
		C72.113,386.702,73.417,385.994,74.75,385.71L74.75,385.71z"/>
	<path fill-rule="evenodd" clip-rule="evenodd" fill="#5E2426" d="M74.75,400.139c0.624-0.142,1.19-0.057,1.729,0.17
		c1.389,0.652,2.239,2.495,2.239,4.904v14.314L70.81,421.2v-14.315c0-2.381,0.85-4.62,2.239-5.839
		C73.559,400.563,74.154,400.252,74.75,400.139L74.75,400.139z"/>
	<path fill-rule="evenodd" clip-rule="evenodd" fill="#73462E" d="M157.776,401.896l-17.064-3.629
		c-0.964-0.198-1.758,0.454-1.758,1.475v21.911c0,1.021,0.794,2.013,1.758,2.211l17.064,3.629c0.964,0.227,1.757-0.454,1.757-1.475
		v-21.883C159.534,403.115,158.74,402.095,157.776,401.896L157.776,401.896z"/>
	<path fill-rule="evenodd" clip-rule="evenodd" fill="#73462E" d="M149.244,385.71c-1.361-0.283-2.636-0.113-3.827,0.426
		c-3.061,1.417-4.96,5.556-4.96,10.885v29.764l17.575,3.742v-29.764c0-5.329-1.899-10.262-4.989-13.012
		C151.88,386.702,150.604,385.994,149.244,385.71L149.244,385.71z"/>
	<path fill-rule="evenodd" clip-rule="evenodd" fill="#5E2426" d="M149.244,400.139c-0.624-0.142-1.191-0.057-1.729,0.17
		c-1.36,0.652-2.239,2.495-2.239,4.904v14.314l7.909,1.673v-14.315c0-2.381-0.851-4.62-2.239-5.839
		C150.435,400.563,149.839,400.252,149.244,400.139L149.244,400.139z"/>
	<path fill-rule="evenodd" clip-rule="evenodd" fill="#73462E" d="M436.082,397.021h-28.289c-1.22,0-2.212,0.992-2.212,2.211v21.203
		c0,1.19,0.992,2.183,2.212,2.183h28.289c1.219,0,2.211-0.992,2.211-2.183v-21.203C438.292,398.013,437.3,397.021,436.082,397.021
		L436.082,397.021z"/>
	<path fill-rule="evenodd" clip-rule="evenodd" fill="#73462E" d="M421.937,382.649c-2.154,0-4.195,0.453-6.066,1.219
		c-4.875,2.098-7.908,6.633-7.908,11.962v29.764h27.921V395.83c0-5.329-3.005-9.864-7.908-11.962
		C426.132,383.103,424.091,382.649,421.937,382.649L421.937,382.649z"/>
	<path fill-rule="evenodd" clip-rule="evenodd" fill="#5E2426" d="M421.937,397.077c-0.964,0-1.899,0.17-2.722,0.539
		c-2.211,0.936-3.571,2.976-3.571,5.386v14.286h12.558v-14.286c0-2.41-1.332-4.45-3.544-5.386
		C423.808,397.247,422.901,397.077,421.937,397.077L421.937,397.077z"/>
	<path fill-rule="evenodd" clip-rule="evenodd" fill="#73462E" d="M467.688,401.896l-17.036-3.629
		c-0.964-0.198-1.758,0.454-1.758,1.475v21.911c0,1.021,0.794,2.013,1.758,2.211l17.036,3.629c0.992,0.227,1.786-0.454,1.786-1.475
		v-21.883C469.474,403.115,468.68,402.095,467.688,401.896L467.688,401.896z"/>
	<path fill-rule="evenodd" clip-rule="evenodd" fill="#73462E" d="M459.184,385.71c-1.36-0.283-2.636-0.113-3.827,0.426
		c-3.09,1.417-4.96,5.556-4.96,10.885v29.764l17.574,3.742v-29.764c0-5.329-1.898-10.262-4.988-13.012
		C461.821,386.702,460.516,385.994,459.184,385.71L459.184,385.71z"/>
	<path fill-rule="evenodd" clip-rule="evenodd" fill="#5E2426" d="M459.184,400.139c-0.624-0.142-1.19-0.057-1.729,0.17
		c-1.389,0.652-2.239,2.495-2.239,4.904v14.314l7.909,1.673v-14.315c0-2.381-0.851-4.62-2.239-5.839
		C460.375,400.563,459.78,400.252,459.184,400.139L459.184,400.139z"/>
	<path fill-rule="evenodd" clip-rule="evenodd" fill="#663D27" d="M376.158,401.896l17.064-3.629
		c0.964-0.198,1.757,0.454,1.757,1.475v21.911c0,1.021-0.793,2.013-1.757,2.211l-17.064,3.629c-0.964,0.227-1.758-0.454-1.758-1.475
		v-21.883C374.4,403.115,375.194,402.095,376.158,401.896L376.158,401.896z"/>
	<path fill-rule="evenodd" clip-rule="evenodd" fill="#663D27" d="M384.69,385.71c1.36-0.283,2.636-0.113,3.826,0.426
		c3.062,1.417,4.961,5.556,4.961,10.885v29.764l-17.575,3.742v-29.764c0-5.329,1.899-10.262,4.989-13.012
		C382.053,386.702,383.329,385.994,384.69,385.71L384.69,385.71z"/>
	<path fill-rule="evenodd" clip-rule="evenodd" fill="#5E2426" d="M384.69,400.139c0.623-0.142,1.19-0.057,1.729,0.17
		c1.361,0.652,2.239,2.495,2.239,4.904v14.314l-7.908,1.673v-14.315c0-2.381,0.851-4.62,2.239-5.839
		C383.5,400.563,384.094,400.252,384.69,400.139L384.69,400.139z"/>
	<path fill-rule="evenodd" clip-rule="evenodd" fill="#A13B30" d="M284.683,130.592v36.652h-30.075v-36.652
		c0-4.989,6.718-9.042,15.023-9.042S284.683,125.604,284.683,130.592L284.683,130.592z"/>
	<rect x="261.525" y="127.531" fill-rule="evenodd" clip-rule="evenodd" fill="#732F31" width="16.242" height="9.127"/>
	<rect x="261.525" y="139.918" fill-rule="evenodd" clip-rule="evenodd" fill="#732F31" width="16.242" height="27.326"/>
	<path fill-rule="evenodd" clip-rule="evenodd" fill="#8F3228" d="M288.737,130.706v38.863h20.608v-38.863
		c0-3.43-4.621-6.208-10.318-6.208C293.357,124.498,288.737,127.276,288.737,130.706L288.737,130.706z"/>
	<rect x="290.919" y="129.997" fill-rule="evenodd" clip-rule="evenodd" fill="#732F31" width="16.242" height="9.099"/>
	<rect x="290.919" y="142.356" fill-rule="evenodd" clip-rule="evenodd" fill="#732F31" width="16.242" height="27.354"/>
	<path fill-rule="evenodd" clip-rule="evenodd" fill="#8F3228" d="M249.109,130.848v38.891H228.5v-38.891
		c0-3.402,4.62-6.18,10.318-6.18C244.488,124.668,249.109,127.446,249.109,130.848L249.109,130.848z"/>
	<rect x="230.683" y="130.139" fill-rule="evenodd" clip-rule="evenodd" fill="#732F31" width="16.242" height="9.127"/>
	<rect x="230.683" y="142.526" fill-rule="evenodd" clip-rule="evenodd" fill="#732F31" width="16.242" height="27.326"/>
	<rect x="241.427" y="167.244" fill-rule="evenodd" clip-rule="evenodd" fill="#732F31" width="54.991" height="12.189"/>
</g>
</svg>
