<?xml version="1.0" encoding="utf-8"?>
<!-- Generator: Adobe Illustrator 16.0.0, SVG Export Plug-In . SVG Version: 6.00 Build 0)  -->
<!DOCTYPE svg PUBLIC "-//W3C//DTD SVG 1.1//EN" "http://www.w3.org/Graphics/SVG/1.1/DTD/svg11.dtd" [
	<!ENTITY ns_extend "http://ns.adobe.com/Extensibility/1.0/">
	<!ENTITY ns_ai "http://ns.adobe.com/AdobeIllustrator/10.0/">
	<!ENTITY ns_graphs "http://ns.adobe.com/Graphs/1.0/">
	<!ENTITY ns_vars "http://ns.adobe.com/Variables/1.0/">
	<!ENTITY ns_imrep "http://ns.adobe.com/ImageReplacement/1.0/">
	<!ENTITY ns_sfw "http://ns.adobe.com/SaveForWeb/1.0/">
	<!ENTITY ns_custom "http://ns.adobe.com/GenericCustomNamespace/1.0/">
	<!ENTITY ns_adobe_xpath "http://ns.adobe.com/XPath/1.0/">
]>
<svg version="1.1" id="Layer_1" xmlns:x="&ns_extend;" xmlns:i="&ns_ai;" xmlns:graph="&ns_graphs;"
	 xmlns="http://www.w3.org/2000/svg" xmlns:xlink="http://www.w3.org/1999/xlink" x="0px" y="0px" width="29.849px"
	 height="29.849px" viewBox="0 0 29.849 29.849" enable-background="new 0 0 29.849 29.849" xml:space="preserve">
<metadata>
	<sfw  xmlns="&ns_sfw;">
		<slices></slices>
		<sliceSourceBounds  height="1631.926" width="3323.607" y="-1256.252" x="-998.027" bottomLeftOrigin="true"></sliceSourceBounds>
	</sfw>
</metadata>
<g>
	<path fill="#FFFFFF" d="M14.91,0C6.661,0,0,6.689,0,14.938s6.661,14.91,14.91,14.91s14.938-6.661,14.938-14.91S23.159,0,14.91,0
		L14.91,0z"/>
	<path fill="#732F31" d="M19.36,7.965h-8.9c-1.418,0-2.58,1.135-2.58,2.552v8.901c0,1.416,1.162,2.579,2.58,2.579h8.9
		c1.417,0,2.579-1.163,2.579-2.579v-8.901C21.939,9.1,20.777,7.965,19.36,7.965L19.36,7.965z M23.896,19.418
		c0,2.494-2.041,4.535-4.535,4.535h-8.9c-2.495,0-4.536-2.041-4.536-4.535v-8.901c0-2.495,2.041-4.507,4.536-4.507h8.9
		c2.494,0,4.535,2.012,4.535,4.507V19.418z M14.91,12.303c-1.475,0-2.665,1.19-2.665,2.664c0,1.475,1.19,2.693,2.665,2.693
		c1.474,0,2.664-1.219,2.664-2.693C17.574,13.493,16.384,12.303,14.91,12.303L14.91,12.303z M14.91,19.615
		c-2.552,0-4.621-2.098-4.621-4.648s2.069-4.62,4.621-4.62c2.551,0,4.62,2.069,4.62,4.62S17.461,19.615,14.91,19.615L14.91,19.615z
		 M19.7,11.311c-0.623,0-1.105-0.482-1.105-1.105c0-0.596,0.482-1.078,1.105-1.078c0.596,0,1.077,0.482,1.077,1.078
		C20.777,10.828,20.296,11.311,19.7,11.311L19.7,11.311z"/>
</g>
</svg>
