<?xml version="1.0" encoding="utf-8"?>
<!-- Generator: Adobe Illustrator 16.0.0, SVG Export Plug-In . SVG Version: 6.00 Build 0)  -->
<!DOCTYPE svg PUBLIC "-//W3C//DTD SVG 1.1//EN" "http://www.w3.org/Graphics/SVG/1.1/DTD/svg11.dtd" [
	<!ENTITY ns_extend "http://ns.adobe.com/Extensibility/1.0/">
	<!ENTITY ns_ai "http://ns.adobe.com/AdobeIllustrator/10.0/">
	<!ENTITY ns_graphs "http://ns.adobe.com/Graphs/1.0/">
	<!ENTITY ns_vars "http://ns.adobe.com/Variables/1.0/">
	<!ENTITY ns_imrep "http://ns.adobe.com/ImageReplacement/1.0/">
	<!ENTITY ns_sfw "http://ns.adobe.com/SaveForWeb/1.0/">
	<!ENTITY ns_custom "http://ns.adobe.com/GenericCustomNamespace/1.0/">
	<!ENTITY ns_adobe_xpath "http://ns.adobe.com/XPath/1.0/">
]>
<svg version="1.1" id="Layer_1" xmlns:x="&ns_extend;" xmlns:i="&ns_ai;" xmlns:graph="&ns_graphs;"
	 xmlns="http://www.w3.org/2000/svg" xmlns:xlink="http://www.w3.org/1999/xlink" x="0px" y="0px" width="1386.403px"
	 height="1078.532px" viewBox="0 0 1386.403 1078.532" enable-background="new 0 0 1386.403 1078.532" xml:space="preserve">
<metadata>
	<sfw  xmlns="&ns_sfw;">
		<slices></slices>
		<sliceSourceBounds  height="1631.926" width="3323.607" y="-1256.252" x="-998.027" bottomLeftOrigin="true"></sliceSourceBounds>
	</sfw>
</metadata>
<g>
	<path opacity="0.5" fill-rule="evenodd" clip-rule="evenodd" fill="#732F31" d="M928.287,1078.526
		c-50.342-142.343-35.593-306.832,40.693-437.32c45.307-77.496,109.682-141.741,165.057-212.395
		c55.375-70.654,103.404-152.655,106.623-242.366c2.598-72.482-32.453-149.481-92.285-186.398H662.537v1078.478L928.287,1078.526z"
		/>
	<path opacity="0.54" fill-rule="evenodd" clip-rule="evenodd" fill="#855439" d="M1068.08,1078.53
		c-40.957-65.268-59.635-144.632-50.404-221.223c12.953-107.486,75.99-201.419,137.215-290.706
		c54.357-79.273,108.715-158.546,163.072-237.819c36.076-52.612,73.775-111.084,67.814-174.598
		c-4.348-46.345-32.193-87.928-67.283-118.515c-15.414-13.437-32.188-25.051-49.684-35.615H662.537v1078.47L1068.08,1078.53z"/>
	<path opacity="0.17" fill-rule="evenodd" clip-rule="evenodd" fill="#346479" d="M569.623,1078.53l-18.049-379.058l362.414-385.148
		c-84.578,106.469-93.646,266.767-21.614,382.094c46.136,73.864,119.065,126.457,175.892,192.452
		c45.383,52.704,80.887,122.814,75.811,189.66H569.623z"/>
	<path fill-rule="evenodd" clip-rule="evenodd" fill="#732F31" d="M699.703,794.848c18.26-193.088,133.842-374.478,301.139-472.6
		c46.91-27.513,98.842-49.881,134.123-91.27c54.568-64.016,52.02-168.613-3.875-230.924H0v1078.47h741.27
		C705.758,988.778,690.611,890.975,699.703,794.848z"/>
	<path opacity="0.5" fill-rule="evenodd" clip-rule="evenodd" fill="#855439" d="M338.068,1078.528
		c-73.369-91.034-106.164-215.36-81.564-330.084c30.922-144.224,140.144-259.931,184.253-400.682
		c31.769-101.376,27.515-213.646-11.833-312.326c-4.719-11.831-9.938-23.525-14.617-35.381H0v1078.47L338.068,1078.528z"/>
	<path opacity="0.3" fill-rule="evenodd" clip-rule="evenodd" fill="#855439" d="M612.021,1078.532
		c-20.566-60.619-32.558-124.145-35.096-188.112c-5.332-134.434,31.109-270.23,103.029-383.933
		c57.907-91.55,137.225-167.805,197.655-257.709c49.368-73.447,85.983-162.181,80.457-248.687H0v1078.434L612.021,1078.532z"/>
	<path opacity="0.3" fill-rule="evenodd" clip-rule="evenodd" fill="#855439" d="M531.869,1077.036
		c-103.146-127.537-126.715-316.116-54.806-464.107c38.06-78.328,98.552-143.103,148.563-214.396
		c50.012-71.294,91.014-155.726,80.945-242.228C699.753,97.726,670.941,46.521,633.59,0.088L0,0v1078.525L531.869,1077.036z"/>
	<path opacity="0.67" fill-rule="evenodd" clip-rule="evenodd" fill="#855439" d="M377.831,1078.523
		c-48.567-71.216-111.548-133.152-154.778-208.024c-95.638-165.634-77.426-389.657,43.711-537.669
		c51.727-63.203,119.018-112.19,171.301-174.933C475.41,113.082,504.99,56.821,509.721,0H0v1078.525L377.831,1078.523z"/>
	<g>
		<g>
			<path opacity="0.15" fill-rule="evenodd" clip-rule="evenodd" fill="#855439" d="M610.124,88.953c-4.179,0-7.579-3.4-7.579-7.579
				s3.4-7.579,7.579-7.579s7.578,3.4,7.578,7.579S614.303,88.953,610.124,88.953L610.124,88.953z M610.124,76.693L610.124,76.693
				c-2.581,0-4.682,2.1-4.682,4.682c0,2.582,2.101,4.682,4.682,4.682s4.681-2.1,4.681-4.682
				C614.805,78.792,612.705,76.693,610.124,76.693z"/>
		</g>
		<g>
			<path opacity="0.15" fill-rule="evenodd" clip-rule="evenodd" fill="#855439" d="M917.107,308.008
				c-4.178,0-7.578-3.4-7.578-7.579s3.4-7.579,7.578-7.579c4.18,0,7.579,3.399,7.579,7.579S921.287,308.008,917.107,308.008
				L917.107,308.008z M917.107,295.748L917.107,295.748c-2.58,0-4.681,2.1-4.681,4.682c0,2.582,2.101,4.682,4.681,4.682
				c2.582,0,4.682-2.1,4.682-4.682C921.789,297.848,919.689,295.748,917.107,295.748z"/>
		</g>
		<g>
			<path opacity="0.15" fill-rule="evenodd" clip-rule="evenodd" fill="#855439" d="M210.239,222.55c-4.179,0-7.578-3.4-7.578-7.579
				c0-4.179,3.399-7.579,7.578-7.579s7.579,3.399,7.579,7.579C217.818,219.15,214.418,222.55,210.239,222.55L210.239,222.55z
				 M210.239,210.29L210.239,210.29c-2.581,0-4.681,2.1-4.681,4.682c0,2.582,2.1,4.682,4.681,4.682s4.681-2.1,4.681-4.682
				C214.92,212.39,212.82,210.29,210.239,210.29z"/>
		</g>
		<g>
			<path opacity="0.15" fill-rule="evenodd" clip-rule="evenodd" fill="#855439" d="M625.281,742.964
				c-4.178,0-7.579-3.4-7.579-7.578c0-4.18,3.401-7.58,7.579-7.58s7.578,3.4,7.578,7.58
				C632.859,739.564,629.459,742.964,625.281,742.964L625.281,742.964z M625.281,730.704L625.281,730.704
				c-2.582,0-4.682,2.101-4.682,4.683c0,2.581,2.1,4.682,4.682,4.682c2.58,0,4.682-2.101,4.682-4.682
				C629.963,732.804,627.861,730.704,625.281,730.704z"/>
		</g>
		<g>
			<path opacity="0.15" fill-rule="evenodd" clip-rule="evenodd" fill="#855439" d="M77.26,879.875c-4.178,0-7.578-3.4-7.578-7.579
				c0-4.18,3.4-7.579,7.578-7.579c4.179,0,7.578,3.399,7.578,7.579C84.838,876.475,81.438,879.875,77.26,879.875L77.26,879.875z
				 M77.26,867.614L77.26,867.614c-2.581,0-4.682,2.1-4.682,4.683c0,2.581,2.101,4.682,4.682,4.682c2.582,0,4.682-2.101,4.682-4.682
				C81.941,869.713,79.842,867.614,77.26,867.614z"/>
		</g>
		<g>
			<path opacity="0.15" fill-rule="evenodd" clip-rule="evenodd" fill="#855439" d="M436.906,959.926
				c-4.18,0-7.578-3.401-7.578-7.579c0-4.18,3.398-7.58,7.578-7.58c4.178,0,7.578,3.4,7.578,7.58
				C444.484,956.525,441.084,959.926,436.906,959.926L436.906,959.926z M436.906,947.665L436.906,947.665
				c-2.582,0-4.682,2.1-4.682,4.683c0,2.581,2.1,4.681,4.682,4.681c2.581,0,4.681-2.1,4.681-4.681
				C441.587,949.764,439.487,947.665,436.906,947.665z"/>
		</g>
	</g>
</g>
</svg>
