<?xml version="1.0" encoding="utf-8"?>
<!-- Generator: Adobe Illustrator 16.0.0, SVG Export Plug-In . SVG Version: 6.00 Build 0)  -->
<!DOCTYPE svg PUBLIC "-//W3C//DTD SVG 1.1//EN" "http://www.w3.org/Graphics/SVG/1.1/DTD/svg11.dtd" [
	<!ENTITY ns_extend "http://ns.adobe.com/Extensibility/1.0/">
	<!ENTITY ns_ai "http://ns.adobe.com/AdobeIllustrator/10.0/">
	<!ENTITY ns_graphs "http://ns.adobe.com/Graphs/1.0/">
	<!ENTITY ns_vars "http://ns.adobe.com/Variables/1.0/">
	<!ENTITY ns_imrep "http://ns.adobe.com/ImageReplacement/1.0/">
	<!ENTITY ns_sfw "http://ns.adobe.com/SaveForWeb/1.0/">
	<!ENTITY ns_custom "http://ns.adobe.com/GenericCustomNamespace/1.0/">
	<!ENTITY ns_adobe_xpath "http://ns.adobe.com/XPath/1.0/">
]>
<svg version="1.1" id="Layer_1" xmlns:x="&ns_extend;" xmlns:i="&ns_ai;" xmlns:graph="&ns_graphs;"
	 xmlns="http://www.w3.org/2000/svg" xmlns:xlink="http://www.w3.org/1999/xlink" x="0px" y="0px" width="317.98px"
	 height="1078.476px" viewBox="0 0 317.98 1078.476" enable-background="new 0 0 317.98 1078.476" xml:space="preserve">
<metadata>
	<sfw  xmlns="&ns_sfw;">
		<slices></slices>
		<sliceSourceBounds  height="1631.926" width="3323.607" y="-1256.252" x="-998.027" bottomLeftOrigin="true"></sliceSourceBounds>
	</sfw>
</metadata>
<g>
	<path opacity="0.17" fill-rule="evenodd" clip-rule="evenodd" fill="#855439" d="M124.801,1078.476
		C63.76,994.994,21.459,897.931,6.215,795.805c-21.07-141.183,11.529-291.242,96.32-406.079
		c55.107-74.635,130.326-133.443,180.094-211.739c12.787-20.12,23.688-41.402,32.633-63.482l-0.004,963.968L124.801,1078.476z"/>
	<path opacity="0.17" fill-rule="evenodd" clip-rule="evenodd" fill="#855439" d="M317.98,912.483
		c-48.951-38.808-94.266-82.045-120.74-137.896c-34.324-72.411-32.221-155.942-32.432-236.075
		c-0.215-80.135-4.902-165.026-49.668-231.489c-18.979-28.177-44.359-51.633-62.957-80.064
		c-29.994-45.854-40.553-103.99-28.598-157.463C29.125,44.713,39.469,21.082,53.617,0l261.641,0.001L317.98,912.483z"/>
</g>
</svg>
